<svg id="Layer_1" enable-background="new 0 0 512 512" height="512" viewBox="0 0 512 512" width="512" xmlns="http://www.w3.org/2000/svg"><path d="m493.23 150.65-148.28-148.3c-1.5-1.5-3.53-2.35-5.65-2.35h-167.96c-39.09 0-70.89 31.81-70.89 70.9v140.31h-62.22c-12.02 0-21.8 9.78-21.8 21.8v125.32c0 12.02 9.78 21.8 21.8 21.8h62.22v60.97c0 39.09 31.8 70.9 70.89 70.9h253.34c39.09 0 70.89-31.81 70.89-70.9v-284.79c0-2.12-.84-4.16-2.34-5.66zm-434.19 187.92v-85.77c0-4.42 3.57-8 7.99-8h25.76c18.62 0 33.77 15.15 33.77 33.76v34.25c0 18.61-15.15 33.76-33.77 33.76h-25.76c-4.42 0-7.99-3.58-7.99-8zm79.7-25.76v-34.25c0-18.63 15.15-33.79 33.77-33.79 18.61 0 33.76 15.16 33.76 33.79v34.25c0 18.61-15.15 33.76-33.76 33.76-18.62 0-33.77-15.15-33.77-33.76zm112.09 17.77c9.8 0 17.77-7.97 17.77-17.77 0-4.42 3.58-8 7.99-8 4.42 0 8 3.58 8 8 0 18.61-15.15 33.76-33.76 33.76-18.62 0-33.76-15.15-33.76-33.76v-34.25c0-18.63 15.14-33.79 33.76-33.79 18.61 0 33.76 15.16 33.76 33.79 0 4.42-3.58 8-8 8-4.41 0-7.99-3.58-7.99-8 0-9.81-7.97-17.8-17.77-17.8s-17.78 7.99-17.78 17.8v34.25c0 9.8 7.98 17.77 17.78 17.77zm41.84-73.69c-2.27-3.79-1.04-8.7 2.74-10.97 3.79-2.28 8.7-1.05 10.97 2.73l18.91 31.5 18.92-31.5c2.27-3.78 7.18-5.01 10.97-2.73 3.78 2.27 5.01 7.18 2.73 10.97l-23.29 38.78 23.29 38.79c2.28 3.78 1.05 8.69-2.73 10.97-1.29.77-2.71 1.14-4.11 1.14-2.72 0-5.36-1.38-6.86-3.88l-18.92-31.49-18.91 31.49c-1.5 2.5-4.15 3.88-6.86 3.88-1.4 0-2.82-.37-4.11-1.14-3.78-2.28-5.01-7.19-2.74-10.97l23.3-38.79zm186.91 184.21c0 30.28-24.63 54.91-54.9 54.91h-253.34c-30.27 0-54.9-24.63-54.9-54.91v-60.97h263.39c12.02 0 21.8-9.78 21.8-21.8v-125.32c0-12.02-9.78-21.8-21.8-21.8h-263.39v-140.31c0-30.28 24.63-54.91 54.9-54.91h159.96v124.3c0 13.24 10.76 24.01 23.98 24.01h124.3zm-307.07-110.52c-9.8 0-17.78-7.97-17.78-17.77v-34.25c0-9.81 7.98-17.8 17.78-17.8s17.77 7.99 17.77 17.8v34.25c0 9.8-7.97 17.77-17.77 17.77zm-79.72 0h-17.77v-69.79h17.77c9.81 0 17.78 7.97 17.78 17.77v34.25c0 9.8-7.97 17.77-17.78 17.77z"/></svg>