<svg width="480" height="384" viewBox="0 0 480 384" fill="none" xmlns="http://www.w3.org/2000/svg">
<g id="icon__hamburger">
<path id="third_bar" d="M448 384H32C14.328 384 0 369.672 0 352C0 334.328 14.328 320 32 320H448C465.672 320 480 334.328 480 352C480 369.672 465.672 384 448 384Z" fill="black"/>
<path id="second_bar" d="M448 224H32C14.328 224 0 209.672 0 192C0 174.328 14.328 160 32 160H448C465.672 160 480 174.328 480 192C480 209.672 465.672 224 448 224Z" fill="black"/>
<path id="first_bar" d="M448 64H32C14.328 64 0 49.672 0 32C0 14.328 14.328 0 32 0H448C465.672 0 480 14.328 480 32C480 49.672 465.672 64 448 64Z" fill="black"/>
</g>
</svg>
