<svg id="Layer_1" enable-background="new 0 0 512 512" height="512" viewBox="0 0 512 512" width="512" xmlns="http://www.w3.org/2000/svg"><path d="m493.23 150.65-148.28-148.3c-1.5-1.5-3.53-2.35-5.65-2.35h-167.96c-39.09 0-70.89 31.81-70.89 70.9v140.31h-62.22c-12.02 0-21.8 9.78-21.8 21.8v125.32c0 12.02 9.78 21.8 21.8 21.8h62.22v60.97c0 39.09 31.8 70.9 70.89 70.9h253.34c39.09 0 70.89-31.81 70.89-70.9v-284.79c0-2.12-.84-4.16-2.34-5.66zm-394.17 110.14c-4.42 0-7.99-3.58-7.99-7.99 0-4.42 3.57-8 7.99-8h51.56c4.42 0 8 3.58 8 8 0 4.41-3.58 7.99-8 7.99h-17.77v77.78c0 4.42-3.58 8-7.99 8-4.42 0-8-3.58-8-8v-77.78zm380.52 180.31c0 30.28-24.63 54.91-54.9 54.91h-253.34c-30.27 0-54.9-24.63-54.9-54.91v-60.97h263.39c12.02 0 21.8-9.78 21.8-21.8v-125.32c0-12.02-9.78-21.8-21.8-21.8h-263.39v-140.31c0-30.28 24.63-54.91 54.9-54.91h159.96v124.3c0 13.24 10.76 24.01 23.98 24.01h124.3zm-303.15-184.19c-2.28-3.78-1.05-8.69 2.73-10.97 3.79-2.26 8.7-1.04 10.97 2.74l18.91 31.48 18.92-31.48c2.27-3.78 7.18-5 10.97-2.74 3.78 2.28 5.01 7.19 2.73 10.97l-23.29 38.78 23.29 38.77c2.28 3.78 1.05 8.69-2.73 10.97-1.29.77-2.71 1.14-4.11 1.14-2.72 0-5.36-1.38-6.86-3.88l-18.92-31.48-18.91 31.48c-1.5 2.5-4.15 3.88-6.86 3.88-1.4 0-2.82-.37-4.11-1.14-3.78-2.28-5.01-7.19-2.73-10.97l23.29-38.77zm91.04 3.88c-4.42 0-8-3.58-8-7.99 0-4.42 3.58-8 8-8h51.53c4.41 0 7.99 3.58 7.99 8 0 4.41-3.58 7.99-7.99 7.99h-17.77v77.78c0 4.42-3.58 8-8 8-4.41 0-7.99-3.58-7.99-8v-77.78z"/></svg>