<svg width="49" height="40" viewBox="0 0 49 40" fill="none" xmlns="http://www.w3.org/2000/svg">
<path d="M13.7596 36.3995C13.2741 36.9031 12.7602 37.4724 12.7845 38.1366C12.7926 38.319 12.8493 38.5124 13.0151 38.6183C13.2457 38.7642 13.5613 38.6657 13.8162 38.5635C14.3017 38.3701 14.7872 38.1803 15.2768 37.9869C15.0704 38.2935 15.0826 38.7059 15.301 39.0051C15.5195 39.3044 15.9403 39.4722 16.3327 39.4175C16.8263 39.3518 17.1985 38.9869 17.4777 38.611C17.6881 39.2314 18.2181 39.7824 18.914 39.9539C19.6099 40.1255 20.4393 39.8518 20.7508 39.2642C20.9288 38.9285 20.9288 38.538 20.8884 38.1657C20.8479 37.8373 20.7791 37.5089 20.6213 37.2096C20.0064 36.0345 18.2626 35.52 16.9639 35.2499C15.564 34.958 14.6942 35.4324 13.7636 36.3958L13.7596 36.3995Z" fill="#E7872C"/>
<path d="M35.7606 36.3995C36.2461 36.9031 36.7599 37.4724 36.7356 38.1366C36.7275 38.319 36.6709 38.5124 36.505 38.6183C36.2744 38.7642 35.9588 38.6657 35.7039 38.5635C35.2184 38.3701 34.7329 38.1803 34.2434 37.9869C34.4497 38.2935 34.4376 38.7059 34.2191 39.0051C34.0006 39.3044 33.5799 39.4722 33.1874 39.4175C32.6938 39.3518 32.3216 38.9869 32.0424 38.611C31.832 39.2314 31.302 39.7824 30.6061 39.9539C29.9103 40.1255 29.0809 39.8518 28.7693 39.2642C28.5913 38.9285 28.5913 38.538 28.6318 38.1657C28.6722 37.8373 28.741 37.5089 28.8988 37.2096C29.5138 36.0345 31.2575 35.52 32.5563 35.2499C33.9561 34.958 34.826 35.4324 35.7565 36.3958L35.7606 36.3995Z" fill="#E7872C"/>
<path d="M5.31993 22.6669C4.29229 24.3858 2.89242 26.2141 0.760254 26.5425C2.17226 27.7797 4.28015 28.338 6.21002 27.984C6.032 28.9949 6.4204 30.0459 7.12034 30.8488C7.82027 31.6516 8.80341 32.2246 9.85534 32.6151C9.78251 32.0385 9.70968 31.4655 9.63686 30.8889C11.3806 31.8998 13.44 32.4618 15.5114 32.4983C14.4514 31.5057 13.5694 30.3379 13.0839 29.035C12.0765 26.3272 12.8533 23.291 11.9228 20.5612C11.4373 19.138 10.1183 17.6345 8.49188 18.7402C7.02323 19.7401 6.17765 21.24 5.31993 22.6706V22.6669Z" fill="#0069B3"/>
<path d="M44.2008 22.6669C45.2284 24.3858 46.6283 26.2141 48.7605 26.5425C47.3485 27.7797 45.2406 28.338 43.3107 27.984C43.4887 28.9949 43.1003 30.0459 42.4004 30.8488C41.7004 31.6516 40.7173 32.2246 39.6654 32.6151C39.7382 32.0385 39.811 31.4655 39.8839 30.8889C38.1401 31.8998 36.0808 32.4618 34.0093 32.4983C35.0693 31.5057 35.9513 30.3379 36.4368 29.035C37.4442 26.3272 36.6674 23.291 37.5979 20.5612C38.0834 19.138 39.4024 17.6345 41.0288 18.7402C42.4975 19.7401 43.3431 21.24 44.2008 22.6706V22.6669Z" fill="#0069B3"/>
<path d="M40.345 22.2801C40.345 30.0459 33.3659 38.9248 24.7604 38.9248C16.1549 38.9248 9.17578 30.0459 9.17578 22.2801C9.17578 21.2218 9.30525 20.2364 9.55205 19.3241C11.1097 13.5691 17.3282 10.8065 24.7604 10.8065C32.1926 10.8065 38.4111 13.5691 39.9688 19.3241C40.2156 20.2328 40.345 21.2181 40.345 22.2801Z" fill="#5AD0F1"/>
<path d="M39.9685 19.3241C38.4108 26.1302 32.1924 32.7537 24.7601 32.7537C17.3279 32.7537 11.1094 26.1338 9.55176 19.3241C11.1094 13.5691 17.3279 10.8065 24.7601 10.8065C32.1924 10.8065 38.4108 13.5691 39.9685 19.3241Z" fill="#C4E9F6"/>
<path d="M26.2614 11.759C25.3956 12.029 24.7563 12.0436 24.7563 12.0436C24.7563 12.0436 24.1656 12.0327 23.3443 11.7882C19.4967 8.87233 18.817 2.44216 20.8359 1.27437C23.0814 -0.0211557 24.7563 2.75966 24.7563 2.75966V2.80345C24.7563 2.80345 26.4313 0.0189855 28.6768 1.31816C30.6795 2.475 30.0281 8.81395 26.2614 11.759Z" fill="#5AD0F1"/>
<path d="M24.7844 11.9086C24.7844 11.9086 9.47087 6.49295 13.1202 1.73784C16.7696 -3.01728 24.7844 4.96387 24.7844 11.9086Z" fill="#5AD0F1"/>
<path d="M24.7358 11.9086C24.7358 11.9086 40.0494 6.49295 36.4 1.73784C32.7507 -3.01728 24.7358 4.96387 24.7358 11.9086Z" fill="#5AD0F1"/>
<path d="M24.955 15.1109C25.7391 10.754 22.459 6.64875 17.6287 5.94153C12.7985 5.23431 8.24718 8.19295 7.46312 12.5498C6.67906 16.9067 9.95915 21.012 14.7894 21.7192C19.6197 22.4264 24.1709 19.4678 24.955 15.1109Z" fill="#5AD0F1"/>
<path d="M37.9741 20.6154C42.1366 18.2947 43.4253 13.3697 40.8525 9.61508C38.2796 5.86048 32.8196 4.69807 28.657 7.01877C24.4945 9.33947 23.2058 14.2645 25.7786 18.0191C28.3515 21.7737 33.8116 22.9361 37.9741 20.6154Z" fill="#5AD0F1"/>
<path d="M17.9725 20.5436C22.0865 20.3381 25.2369 17.1632 25.0091 13.4523C24.7812 9.74146 21.2614 6.89981 17.1474 7.10533C13.0333 7.31086 9.88295 10.4857 10.1108 14.1966C10.3387 17.9075 13.8585 20.7491 17.9725 20.5436Z" fill="#C4E9F6"/>
<path d="M18.9368 18.6715C21.9101 18.4807 24.1489 16.1519 23.9373 13.47C23.7257 10.7882 21.1439 8.76876 18.1707 8.95959C15.1974 9.15042 12.9586 11.4792 13.1702 14.1611C13.3817 16.843 15.9635 18.8624 18.9368 18.6715Z" fill="white"/>
<path d="M20.2816 16.2805C20.848 16.2805 21.374 16.1236 21.8069 15.8572C21.1474 15.7879 20.6376 15.2843 20.6376 14.6712C20.6376 14.0106 21.2324 13.4742 21.9647 13.4742C22.3854 13.4742 22.7577 13.6494 23.0004 13.9267C23.0004 13.8939 23.0004 13.8574 23.0004 13.8245C23.0004 12.467 21.7826 11.3685 20.2775 11.3685C18.7725 11.3685 17.5547 12.467 17.5547 13.8245C17.5547 15.1821 18.7725 16.2805 20.2775 16.2805H20.2816Z" fill="black"/>
<path d="M33.1602 20.4612C37.2273 19.8657 39.9892 16.409 39.329 12.7405C38.6688 9.07191 34.8366 6.58071 30.7694 7.1762C26.7023 7.77169 23.9405 11.2284 24.6006 14.8969C25.2608 18.5654 29.0931 21.0566 33.1602 20.4612Z" fill="#C4E9F6"/>
<path d="M31.847 18.6232C34.7893 18.1924 36.7873 15.6918 36.3097 13.0379C35.8321 10.3839 33.0597 8.58173 30.1175 9.01252C27.1752 9.44331 25.1772 11.944 25.6548 14.5979C26.1324 17.2518 28.9047 19.054 31.847 18.6232Z" fill="white"/>
<path d="M29.2349 16.2805C28.6685 16.2805 28.1425 16.1236 27.7096 15.8572C28.3691 15.7879 28.8789 15.2843 28.8789 14.6712C28.8789 14.0106 28.2842 13.4742 27.5519 13.4742C27.1311 13.4742 26.7589 13.6494 26.5161 13.9267C26.5161 13.8939 26.5161 13.8574 26.5161 13.8245C26.5161 12.467 27.7339 11.3685 29.239 11.3685C30.744 11.3685 31.9618 12.467 31.9618 13.8245C31.9618 15.1821 30.744 16.2805 29.239 16.2805H29.2349Z" fill="black"/>
<path d="M26.6898 16.5616C26.6898 17.3425 26.0708 20.1343 24.76 20.1343C23.4491 20.1343 22.8301 17.3425 22.8301 16.5616C22.8301 15.7806 23.6959 15.1456 24.76 15.1456C25.824 15.1456 26.6898 15.7806 26.6898 16.5616Z" fill="#E7872C"/>
<path d="M18.2506 23.6376C17.1582 24.2434 16.0497 24.3164 15.2445 23.3238C15.1636 23.2216 14.9775 23.2508 14.9735 23.3895C14.9573 23.988 15.5722 24.4624 16.167 24.6303C17.0085 24.8638 17.8824 24.5828 18.6188 24.2106C19.0314 24.0026 18.6511 23.415 18.2466 23.6376H18.2506Z" fill="white"/>
<path d="M24.2708 22.2728C24.2546 22.1889 24.1454 22.1195 24.0523 22.1232C23.757 22.1378 23.6841 22.2509 23.4576 22.4188C23.142 22.6523 22.7617 22.791 22.3531 22.8093C21.9808 22.8275 21.645 22.7436 21.3133 22.5939C21.0665 22.4808 20.8844 22.2983 20.5972 22.3202C20.5446 22.3239 20.4839 22.3531 20.4717 22.4042C20.3423 23.134 21.7502 23.4734 22.3531 23.4625C23.0125 23.4515 24.3962 23.0282 24.2668 22.2728H24.2708Z" fill="white"/>
<path d="M29.2713 22.4042C28.7817 22.6596 28.2436 22.7581 27.6853 22.6961C27.1351 22.6341 26.7345 22.375 26.249 22.1669C26.0548 22.083 25.8202 22.2582 25.9415 22.4443C26.6374 23.5391 28.5552 23.4698 29.595 22.8968C29.9429 22.7034 29.6273 22.218 29.2753 22.4042H29.2713Z" fill="white"/>
<path d="M34.2679 23.2362C34.0292 23.6048 33.1957 23.6486 32.7993 23.6012C32.3097 23.5428 31.9739 23.2034 31.5248 23.1304C31.3711 23.1048 31.2578 23.207 31.2861 23.3457C31.4115 23.9624 32.4999 24.1814 33.0825 24.1777C33.568 24.1777 34.6927 23.9734 34.7898 23.4333C34.8384 23.1596 34.4419 22.9625 34.2638 23.2326L34.2679 23.2362Z" fill="white"/>
<path d="M20.9207 25.2069C20.2248 25.9988 19.4156 26.0535 18.5215 25.4769C18.3394 25.3602 18.0845 25.5937 18.214 25.7543C18.9746 26.7141 20.771 26.5571 21.3455 25.5025C21.4709 25.2726 21.123 24.9733 20.9207 25.2069Z" fill="white"/>
<path d="M26.0834 24.7945C26.0712 24.696 25.9741 24.5901 25.8487 24.6339C25.4198 24.7763 25.2459 25.1704 24.7644 25.2799C24.1414 25.4222 23.7732 25.112 23.2755 24.8565C23.0894 24.7617 22.9316 24.9441 23.0045 25.1011C23.2674 25.6594 24.1414 25.8747 24.7563 25.7908C25.2621 25.7251 26.144 25.3419 26.0793 24.7982L26.0834 24.7945Z" fill="white"/>
<path d="M30.9183 24.5901C30.8293 24.5573 30.712 24.5974 30.6473 24.6558C30.271 24.9843 30.0444 25.3492 29.4335 25.1923C28.9561 25.0682 28.6608 24.6923 28.2804 24.4369C28.0782 24.2982 27.8071 24.5646 27.9365 24.7471C28.3937 25.3857 29.3445 25.9915 30.2144 25.6922C30.5178 25.5864 31.5455 24.8164 30.9143 24.5938L30.9183 24.5901Z" fill="white"/>
<path d="M23.134 27.3782C22.8104 27.703 22.5838 28.0242 22.07 28.13C21.4752 28.2541 21.0545 27.995 20.5852 27.714C20.391 27.5972 20.1603 27.8235 20.2736 27.995C20.9817 29.0569 23.215 28.8489 23.5629 27.6009C23.6236 27.3855 23.3121 27.1958 23.134 27.3746V27.3782Z" fill="white"/>
<path d="M28.8343 27.3381C28.8222 27.3089 28.81 27.2834 28.802 27.2542C28.7777 27.1921 28.7291 27.1666 28.6604 27.1593C28.5228 27.1447 28.4702 27.1666 28.3569 27.225C28.0535 27.3855 27.9119 27.568 27.5316 27.6264C26.8842 27.7213 26.4999 27.3892 26.0589 27.0316C25.897 26.9002 25.5896 27.0243 25.6664 27.2359C26.1074 28.3964 27.9604 28.4256 28.7615 27.5899C28.8262 27.5242 28.8707 27.4293 28.8343 27.3381Z" fill="white"/>
<path d="M25.958 29.0752C25.6141 29.5788 24.9991 29.8744 24.3356 29.7759C23.9229 29.7138 23.6033 29.4365 23.1987 29.3927C23.1623 29.389 23.1299 29.4255 23.1299 29.4547C23.1218 30.0532 24.0645 30.3488 24.6107 30.3707C25.4199 30.4036 26.1239 29.9875 26.5487 29.3854C26.7833 29.0496 26.1886 28.7358 25.958 29.0752Z" fill="white"/>
</svg>
