<?xml version="1.0" encoding="UTF-8"?>
<svg id="Layer_1" data-name="Layer 1" xmlns="http://www.w3.org/2000/svg" viewBox="0 0 750 500.12">
  <defs>
    <style>
      .cls-1 {
        fill: #1f3146;
      }

      .cls-2 {
        fill: #feaead;
      }

      .cls-3 {
        fill: #fe6b71;
      }

      .cls-4 {
        fill: #f5b539;
      }

      .cls-5, .cls-6 {
        fill: none;
      }

      .cls-5, .cls-7 {
        stroke: #feca51;
        stroke-linecap: round;
        stroke-linejoin: round;
      }

      .cls-8 {
        fill: #2e3f53;
      }

      .cls-9 {
        fill: #ac9f41;
      }

      .cls-7 {
        fill: #1a2e35;
      }

      .cls-10 {
        fill: #ffcba6;
      }

      .cls-11 {
        fill: #d17978;
      }
    </style>
  </defs>
  <g id="BACKGROUND">
    <rect class="cls-6" y="0" width="750" height="500"/>
  </g>
  <g id="OBJECTS">
    <g>
      <g>
        <g>
          <path class="cls-10" d="M176.8,253.17c-.24-.38-.49-.74-.78-1.05-.26-.28-.71-.55-1.32-.81,.76,.66,1.46,1.29,2.1,1.87h0Z"/>
          <path class="cls-10" d="M254.01,375.59c-11.27-12.56-27.73-18.63-41.16-9.1s-21.66,29.47-32.93,19.94c-11.26-9.53-3.03-25.14-4.33-30.76-1.29-5.64-7.36-10.4-7.36-17.77s16.46-4.33,24.69-15.16c5.86-7.7-.33-21.3-5.8-31.02-2.89-.57-8.06-.86-15.62,1.35-12.43,3.63-15.64,10.15-18.24,9.11s-9.62-8.58-8.84-20.54c.78-11.96,14.3-17.42,13-21.32s-9.88-2.34-23.4-3.12-12.48-2.08-12.48-2.08c0,0,4.16-3.64,2.86-3.38s-10.14-.26-13.78-.26-7.54,1.04-7.54,1.04l2.34-3.9s-2.34,.52-4.16,1.3l-7.28,3.12s-.26-1.82-.26-2.86-1.82-6.5-1.82-3.64,.26,5.98,.26,5.98c0,0-3.68,0-6.28-2.6-2.69,5.59-6.21,13.7-6.48,18.21-.43,7.36,2.6,8.66,.43,14.3-2.17,5.64-1.3,9.53-1.3,9.53,0,0,4.77-16.9,5.64-15.17,.86,1.74,1.73,12.56-4.33,19.07-6.07,6.49-15.39,11.87-12.57,14.73,2.82,2.86,11.71,5.19,9.97,6.49-1.73,1.3-5.64,14.3-5.64,14.3,0,0,1.74,.87,3.04,5.64,1.3,4.77,.87,20.79,5.2,22.97,2.76,1.38,7.09,2.05,9.88,2.36,1.6,.18,2.68,.24,2.68,.24l7.36,2.16s-7.8,4.34-10.83,13.43c-3.04,9.1-7.81,19.94-7.81,19.94,0,0-6.08-2.44-7.36,3.9s2.17,9.1,2.17,9.1c0,0-8.24-1.73-9.53,3.03-1.3,4.77-.87,11.27-.87,11.27,0,0-6.49,8.93-6.07,11.69,.43,2.78,3.46,7.81,3.46,7.81,0,0-3.46,2.6-3.03,6.06s5.2,10.4,5.2,10.4c0,0-2.6,2.16-.87,6.49,1.74,4.33,3.9,4.33,10.84,7.81,6.93,3.46,13.43,7.36,13.43,7.36,0,0-24.27-3.03-27.73-15.59,0,0,0,11.69-2.61,20.79-2.6,9.1-3.46,11.69-3.46,11.69,0,0,1.11,.06,2.96,.15h212.38v-65.57c0-16.9-4.77-46.36-16.03-58.93h0Z"/>
        </g>
        <path class="cls-11" d="M92.47,363.69c5.52-2.12,10.95,2.12,11.58,2.58,4.87,3.61,9.19,20.44,18.05,26.91,8.85,6.47,38.22,18.99,44.48,20.3,8.58,1.79,17.87-6.08,17.87-6.08,0,0,9.01-11.45,10.36-15.01,2.86-7.51,8.82-20.12,13.94-22.16,5.1-2.04,29.81,3.88,35.6,28.73,5.8,24.87,1.37,47.68,1.37,47.68,0,0,14.45-1.7,17.36,.68,2.92,2.39,1.37,2.39-5.44,4.43-6.82,2.04-21.46,3.06-27.24,4.42-5.8,1.37-10.9,2.73-10.9,2.73,0,0,8.18,2.05,13.96,2.73,5.79,.68,26.56-2.38,26.56-2.38,0,0,4.09-2.04,2.04,3.06-2.04,5.1-9.87,6.13-17.71,6.81-7.83,.68-21.44,1.37-21.44,1.37l5.1,2.38s-2.73,2.04-.68,3.41c2.04,1.36,18.73,3.41,18.73,3.41,0,0,7.84,2.38,4.43,3.75-3.41,1.36-11.57,1.69-18.05,1.36-6.47-.34-12.26,3.41-12.26,3.41,0,0,9.53,3.75,13.62,5.1,4.09,1.37,13.28,1.02,13.63,3.06,.34,2.05-2.04,3.41-8.18,3.41s-19.07-1.02-23.5-2.39c-4.43-1.36-8.18,0-8.18,0,0,0-11.82-.91-22.6,2.71h85.07v-65.57c0-16.9-4.77-46.36-16.03-58.93-11.27-12.56-27.73-18.63-41.16-9.1-13.43,9.53-21.66,29.47-32.93,19.94-11.26-9.53-3.03-25.14-4.33-30.76-1.29-5.64-7.36-10.4-7.36-17.77s16.46-4.33,24.69-15.16c8.24-10.84-7.36-33.37-11.26-40.29-3.16-5.62-1.49-18.35-3.5-25.97l-31.54-2.92s-17.03,13.28-16.01,20.77,5.59,8.71,5.95,23.36c.43,17.46-5.16,19.83-8.93,28.95-8.58,20.73-26.3,25-31.75,29.42-3.16,2.57-13.04,6.96-13.52,8.19-.36,.9,7.81,.34,10.12-.55v-.02Z"/>
        <path class="cls-11" d="M104.27,285.88s3.37-4.56,2.07-8.57-12.12,.89-11.53,6.5c.59,5.62,6.21,8.03,9.46,2.07Z"/>
        <path class="cls-11" d="M114.62,380.19s2.07,7.1,.89,10.94-3.84-6.21-9.46-4.14c-5.62,2.07,.3,11.83,4.73,16.85,4.43,5.03,14.49,24.24,16.56,15.96s-7.98-34.88-12.71-39.61h-.01Z"/>
        <path class="cls-11" d="M112.85,473.02c5.48,7.31,18.7,18.6,29.23,27.08h8.31l-7.39-13.18,8.87-3.55s-6.8-3.25-16.26-12.42c-9.46-9.16-20.99-38.73-29.27-49.67-8.28-10.94-18.92-14.49-18.92-14.49,0,0,10.05,15.08,10.64,28.09s5.03,25.13,14.78,38.14h.01Z"/>
        <path class="cls-11" d="M235.54,433.99s.3,0-2.66,3.84-7.1,4.43-15.96,8.28c-8.87,3.84-14.49,8.57-14.49,8.57l22.47-5.62s8.87-2.37,13.89-5.62c5.03-3.25,4.43-12.71-3.25-9.46h0Z"/>
        <path class="cls-11" d="M94.81,494.6c.82,2.3,1.72,4.23,2.36,5.5h6.85c-.78-1.33-1.5-2.51-2.11-3.43-4.14-6.21-15.67-13.3-18.03-14.49-2.36-1.18-9.76-3.55-9.76-3.55,0,0,19.22,11.83,20.69,15.96h0Z"/>
        <path class="cls-11" d="M74.16,315.08s-7.43-6.19-6.19-1.24c1.24,4.96,8.85,7.52,9.91,5.88,1.07-1.63-3.72-4.65-3.72-4.65h0Z"/>
      </g>
      <g>
        <path class="cls-1" d="M266.21,0c-3.49,2.75-6.75,5.14-8.49,6-4.92,2.46-20.29,8-24.59,31.98-4.31,23.99-11.08,39.36-26.45,55.35-15.38,15.99-49.2-11.69-67.65,4.31-18.45,15.99-11.08,39.36-11.08,51.04s-26.44,3.07-35.05,4.3c-8.61,1.24-33.21,14.15-24.6,39.98,2.51,7.53,6.22,12.8,10.25,16.74,1.76,3.76,1.98,6.74-1.21,8.79-6.48,4.19-14.11-4.58-18.69,7.25-4.57,11.83,13.35,16.41,9.54,23.27-3.82,6.87-11.44,3.43-8.39,11.83,2.41,6.63,10.51,6.34,13.8,5.92,.87-.1,1.4-.22,1.4-.22,0,0,1.66-13.53,7.71-21.34l.08,.19s0,.88,2.61,4c2.6,3.12,6.76,3.12,6.76,3.12,0,0-.26-3.12-.26-5.98,0-.21,.01-.36,.03-.49,.17,.02,.35,.04,.52,.07,.54,.96,1.27,3.4,1.27,4.06,0,1.04,.26,2.86,.26,2.86l7.28-3.12c1.82-.78,4.16-1.3,4.16-1.3l-2.34,3.9s3.9-1.04,7.54-1.04,12.48,.52,13.78,.26c1.3-.26-2.86,3.38-2.86,3.38,0,0-1.04,1.3,12.48,2.08s22.1-.78,23.4,3.12c1.3,3.9-12.22,9.36-13,21.32-.78,11.96-3.76,19.5-1.16,20.54,1.1,.44,2.31-.48,4.27-1.94,4.02,.87,18.69,.3,22.61-1.29,7.89-3.21,10.23-4.34,10.49-4.47h.02c.08,.25,1.55,4.68,1.3,11.83-.26,7.35-3.68,12.6-6.57,16.55-2.89,3.94-19.45,1.58-21.82,1.31-2.37-.26-3.15,5.27-5.78,9.73-2.64,4.46-8.89,6.74-8.89,6.74,0,0,18.36,5.61,25.72,15.07,7.35,9.46-7.36,14.72-1.84,27.07,1.45,3.24,3.47,5.88,5.78,7.99,6.47,5.93,15.11,7.63,19.19,6.46,1.25-.36,2.62-1.4,4.03-2.87,1.08-1.12,2.18-2.49,3.29-4.01,2.33-3.19,4.67-7.01,6.78-10.47,.02-.03,.03-.05,.05-.07,.38-.63,.75-1.25,1.13-1.85,.92-1.52,1.79-2.92,2.58-4.11,3.42-5.13,10.93-10.11,18.43-11.81h0c2.89-.65,5.77-.81,8.42-.3,2.93,.56,5.9,1.87,8.76,3.75,6.43,4.2,12.34,11.22,16.16,18.87,5.52,11.04,9.2,34.16,9.2,34.16,0,0,.21,.34,.55,.85,.52,.77,1.36,1.93,2.22,2.83,.67,.69,1.36,1.23,1.95,1.31,1.85,.26,9.18,3.17,9.18,3.17,2.43,.16,4.53,.58,6.7,.73,6.06,.44,12.66-1.17,28.47-16.15,12.63-11.96,15.24-7.82,31.24,10.63,15.99,18.45,29.08,14.59,59.83,13.97,30-.6,28.23,33.38,34.98,64.16h308.3V0H266.21Z"/>
        <path class="cls-8" d="M93.98,253.04s33.57-35.09,48.57-35.09,28.62,5.58,36.65-1.75c8.03-7.33,10.47-18.85,22.34-22.34s19.59-.79,19.59-.79c0,0-16.8-.96-25.17,15.1s-14.31,28.97-25.48,30.02-34.21-2.44-46.07,3.49c-11.87,5.93-30.42,11.36-30.42,11.36h-.01Z"/>
        <path class="cls-8" d="M703.91,426.48c-28.79-14.76-71.59,12.54-106.28,24.35-34.68,11.81-81.91-30.26-106.27-49.44-17.4-13.71-36.9-16.98-83.39-4.43-46.5,12.54-47.23-4.43-53.14-14.76-2.73-4.78-7.84-8.14-14.01-9.71,3.54-.97,7.13-1.66,10.72-1.92,6.26-.47,12.53,.45,17.85,3.35,1.39,.81,2.82,1.62,4.2,2.46l2.01,1.34,1.01,.67,.96,.73c2.62,1.89,4.9,4.02,7.23,6.43,.64,.63,1.18,1.22,1.89,1.87l1.04,.96,1.23,.94c.39,.32,.89,.58,1.38,.84,.49,.25,.96,.54,1.49,.69l1.56,.5c.51,.11,1.02,.17,1.53,.25,1.05,.2,1.97,.14,2.94,.16,.99,.04,1.85-.11,2.77-.17,.45-.04,.91-.07,1.36-.13l1.31-.2c.87-.14,1.75-.26,2.6-.42,1.7-.36,3.39-.65,5.09-1.06,1.71-.39,3.39-.83,5.06-1.33,3.33-.97,6.6-2.1,9.81-3.3,6.42-2.4,12.65-5.1,18.91-7.53,6.25-2.4,12.57-4.59,19.02-5.56,3.22-.47,6.46-.63,9.65-.3,1.59,.19,3.17,.43,4.71,.86,1.55,.39,2.98,.96,4.45,1.64,2.91,1.38,5.7,3.19,8.41,5.12,2.71,1.94,5.35,4.01,7.96,6.14,10.4,8.56,20.41,17.82,31.5,25.76,2.77,1.99,5.63,3.85,8.55,5.62,2.95,1.73,5.99,3.32,9.12,4.69,3.16,1.33,6.43,2.42,9.79,3.13,3.35,.76,6.85,.91,10.24,.7,6.79-.32,13.6-1.26,20.06-3.43,1.63-.49,3.18-1.21,4.75-1.87l2.27-1.17c.74-.41,1.45-.89,2.17-1.34,.71-.47,1.37-1.01,2.05-1.51,.62-.58,1.3-1.1,1.87-1.73,1.19-1.21,2.25-2.57,2.93-4.13-.71,1.54-1.8,2.87-3.01,4.04-.58,.61-1.26,1.12-1.9,1.67-.69,.48-1.36,1-2.07,1.45-.73,.42-1.44,.88-2.18,1.27l-2.27,1.11c-1.57,.62-3.11,1.29-4.74,1.73-6.45,1.99-13.21,2.76-19.94,2.9-3.36,.12-6.69-.11-9.94-.92-3.25-.77-6.4-1.91-9.45-3.28-3.03-1.42-5.97-3.04-8.82-4.81-2.83-1.81-5.6-3.71-8.28-5.74-10.77-8.1-20.47-17.53-30.76-26.44-2.58-2.22-5.22-4.4-7.97-6.47-2.75-2.06-5.62-4.04-8.79-5.64-1.58-.78-3.29-1.51-5.02-1.98-1.71-.53-3.48-.84-5.25-1.1-3.55-.45-7.12-.35-10.61,.07-7,.87-13.62,3.02-20.05,5.3-6.43,2.31-12.7,4.85-19.03,7.04-3.16,1.09-6.33,2.1-9.52,2.94-3.19,.87-6.39,1.47-9.67,2.02-.81,.13-1.61,.22-2.42,.33l-1.21,.16c-.4,.04-.78,.05-1.17,.08-.77,.03-1.59,.15-2.3,.09-.72-.04-1.5,0-2.12-.16-.32-.06-.66-.1-.97-.17-.28-.11-.56-.21-.84-.31-.3-.06-.53-.26-.79-.4-.26-.15-.52-.26-.77-.5l-.77-.61-.8-.78c-.53-.5-1.12-1.17-1.67-1.74-2.32-2.51-4.94-5.09-7.77-7.24l-1.05-.83-1.09-.77-2.18-1.53c-1.49-.95-2.98-1.86-4.5-2.78-3.26-1.87-6.83-3.16-10.47-3.89-3.64-.74-7.33-.94-10.95-.77-7.26,.36-14.23,2.12-20.85,4.53-3.32,1.21-6.54,2.61-9.7,4.14-1.58,.77-3.14,1.57-4.68,2.42-1.56,.86-3.03,1.7-4.64,2.74l.11,.16c-13.51,6.62-28.07,15.28-28.07,15.28-22.96,2.86-14.35-24.89-37.33-41.17-22.97-16.27-46.91,20.1-54.56,8.61-7.66-11.48,6.7-22.96,7.65-41.16,.42-7.91-3.01-13.6-7.02-17.51-5.07-4.95-11.07-7.04-11.39-7.14,0,0-1.39-.48-3.31-.89-7.12-2.85-15.69-4.94-15.5-9.39,.25-5.95,14.62-8.92,8.43-20.07-5.5-9.89-18.98-9.64-25.77-7.9-2.61-2.09-8.14-5.83-17.05-8.68-13.02-4.16-21.05,.28-24.38,4.99,0,0,14.96-1.11,14.96,2.49s.28,13.58,8.59,16.9c5.09,2.04,9.55,.53,14.47-1.01-3.35,1.07-7.25,3.8-7.98,7.43-.86,4.3-.83,11.69,.87,15.77,1.98,4.75,8.48,8.4,12.68,10.92,2.43,1.46,4.86,3.1,6.36,5.5s1.85,5.73,.11,7.97c-1.86,2.39-5.25,2.98-7.63,4.73-2.63,1.93-4.7,4.71-5.96,7.71-2.97,7.05-.33,15.21,6.07,19.49,3.99,2.67,8.97,3.55,13,6.17,.59,.39,1.18,.83,1.51,1.46,2.09,4-5.63,9.53-7.85,11.9-6.67,7.13-8.27,18.7-7.09,28.04,.57,4.48,2.17,8.93,5.19,12.29,3.15,3.51,7.75,5.63,12.45,5.99,4.76,.36,9.76-1.01,13.61-3.83,1.82-1.33,3.57-3.03,4.72-4.99,.27-.45,.61-1.84,1-2.14,0,0-9.64,8.61-14.81-2.75-2.27-4.99-1.68-9.65-.31-13.31,.48,.53,.98,1.03,1.5,1.51,6.47,5.93,15.11,7.63,19.19,6.46,1.25-.36,2.62-1.4,4.03-2.87,1.08-1.12,2.18-2.49,3.29-4.01,2.33-3.19,4.67-7.01,6.78-10.47,.02-.03,.03-.05,.05-.07,.38-.63,.75-1.25,1.13-1.85,.92-1.52,1.79-2.92,2.58-4.11,3.42-5.13,10.93-10.11,18.44-11.81,2.89-.65,5.77-.81,8.42-.3,2.93,.56,5.9,1.87,8.76,3.75,6.43,4.2,12.34,11.22,16.16,18.87,5.52,11.04,9.2,34.16,9.2,34.16,0,0,.21,.34,.55,.85,.52,.77,1.36,1.93,2.22,2.83,.67,.69,1.36,1.23,1.95,1.31,1.85,.26,9.18,3.17,9.18,3.17,4.73,.32,8.22,1.6,13.39,.03,.06-.02,.13-.04,.19-.06,.19-.06,.39-.12,.59-.19,.06-.02,.12-.04,.18-.07,.35-.13,.71-.27,1.08-.42,.1-.04,.2-.08,.31-.13,.18-.08,.36-.16,.54-.24,.13-.06,.27-.13,.41-.19,.17-.08,.35-.17,.52-.26,.2-.1,.41-.21,.61-.32,.23-.12,.46-.25,.7-.38,.2-.11,.41-.23,.61-.35,.16-.09,.32-.19,.49-.29,.22-.13,.44-.27,.66-.41,.15-.09,.29-.18,.44-.28,.36-.23,.72-.47,1.1-.73,.12-.08,.24-.17,.36-.25,.29-.2,.58-.41,.88-.62,.15-.1,.29-.21,.44-.32,.32-.23,.65-.48,.98-.73,.11-.08,.21-.16,.32-.24,.44-.34,.89-.69,1.35-1.05,.11-.09,.23-.18,.34-.28,.37-.3,.75-.61,1.13-.92,.14-.12,.28-.23,.42-.35,.45-.38,.91-.77,1.38-1.17,.05-.04,.09-.08,.14-.12,.53-.45,1.07-.93,1.62-1.42,.13-.12,.27-.24,.4-.36,.43-.39,.87-.79,1.32-1.2,.16-.14,.31-.29,.47-.43,.58-.54,1.17-1.08,1.77-1.66,12.63-11.96,15.24-7.82,31.24,10.63,15.99,18.45,29.08,14.59,59.83,13.97,30-.6,28.23,33.38,34.98,64.16h304.85c-4.69-16.56-19.29-61.56-42.64-73.53l.02-.03ZM129.67,263.6c-.27-1.28,0-2.2,.67-2.91,3.62,2.01,9.72,5.7,10.81,8.55-3.66-.86-10.9-2.89-11.49-5.64h.01Z"/>
        <path class="cls-8" d="M266.21,0c-3.5,2.75-6.75,5.14-8.49,6-4.92,2.45-20.29,7.99-24.59,31.98-4.31,23.99-11.08,39.36-26.45,55.34-15.38,15.99-49.2-11.68-67.65,4.31-18.45,15.99-11.08,39.36-11.08,51.04,0,8.84-15.13,6.06-26.22,4.72,1.34-.49,2.66-1.08,3.93-1.82,1.03-.65,2.04-1.32,2.96-2.18,.93-.83,1.78-1.82,2.4-2.97,.64-1.14,1.04-2.42,1.2-3.69,.15-1.27,.09-2.51-.06-3.7-.31-2.38-.95-4.58-1.57-6.75-.63-2.17-1.26-4.3-1.78-6.46-1.07-4.3-1.72-8.68-1.7-13.1,.05-4.41,.54-8.87,2.1-12.97,1.51-4.13,4.1-7.84,7.39-10.8,3.29-2.98,7.21-5.24,11.35-6.93,2.07-.85,4.19-1.57,6.35-2.19,2.15-.64,4.35-1.1,6.51-1.72-2.18,.55-4.39,.94-6.57,1.51-2.18,.54-4.34,1.21-6.46,1.99-4.22,1.57-8.29,3.73-11.77,6.68-3.48,2.93-6.32,6.71-8.04,10.98-.87,2.13-1.51,4.35-1.91,6.61-.38,2.25-.63,4.52-.72,6.81-.17,4.58,.36,9.17,1.32,13.62,.47,2.23,1.04,4.43,1.59,6.59,.54,2.17,1.08,4.32,1.28,6.41,.09,1.04,.1,2.06-.04,3.03-.16,.96-.48,1.85-.96,2.65-.94,1.63-2.63,2.88-4.41,3.91-3.66,1.97-7.98,2.73-12.34,3.16-4.39,.43-8.89,.55-13.48,1.09-2.29,.27-4.62,.66-6.93,1.33s-4.62,1.6-6.73,3.02c-2.1,1.41-3.94,3.27-5.33,5.42-1.4,2.15-2.32,4.54-2.87,6.94-1.1,4.83-.95,9.67-.31,14.33,1.39,9.32,4.61,18.08,8.81,26.36,1.07,2.06,2.21,4.1,3.46,6.09l.96,1.48,.82,1.3s.05,.09,.07,.13c-4.39-.5-8.65-1.5-11.62,6.18-4.57,11.82,13.36,16.41,9.54,23.27-3.82,6.87-11.44,3.43-8.39,11.82s15.2,5.7,15.2,5.7c0,0,1.7-13.85,7.93-21.63,0,0,2.03,.25,5.43,.68,.16-.54,.36-1.12,.58-1.73,6.43-17.58,36.43-21.43,23.99-36.75-12.45-15.31-1.34-52.52,13.4-43.07,14.73,9.46,59.35-7.66,55.52-29.68-3.82-22.02,28.94-29.09,50.85-31.29,21.91-2.22,39.13-23.27,44.88-57.73,3.54-21.21,20.12-36.61,32.36-45.33h-43.71ZM68.3,192.97c2.51,7.52,6.22,12.8,10.25,16.74,1.76,3.76,1.98,6.73-1.21,8.78-.07,.04-.14,.08-.21,.12-.45-.94-.95-1.77-1.45-2.58-.34-.52-.69-1.02-1.03-1.52l-.91-1.32c-1.2-1.78-2.32-3.63-3.38-5.52-4.18-7.59-7.5-15.84-9.02-24.28-.73-4.2-.96-8.5-.18-12.48,.74-4,2.78-7.49,5.98-9.79,3.22-2.29,7.4-3.4,11.7-4.04,1.54-.23,3.1-.41,4.68-.58-10,5.54-21.53,17.52-15.22,36.46h0Z"/>
      </g>
      <g>
        <path class="cls-1" d="M115.9,355.56c.38-.25,.78-.5,1.24-.74,1.25-.65,2.77-1.3,4.33-2.06,3.11-1.51,5.67-1.8,8.24-3.42,2.57-1.62,6.96-3.26,9.9-5.63,2.95-2.35,5.57-4.7,7.02-6.07,.36-.33,.28-.42-.1-.12-1.57,1.24-4.37,3.35-7.45,5.48-3.07,2.15-7.55,3.6-10.09,5.2-2.54,1.61-4.96,2.06-7.93,3.78-1.48,.86-2.93,1.63-4.16,2.42-.75,.48-1.38,.98-1.89,1.47"/>
        <path class="cls-1" d="M81.91,364.27h-.03c-.95,.14-1.88,.19-2.8,.15-.91-.04-1.82-.17-2.57-.44-.77-.27-1.34-.67-1.68-1.19-.37-.54-.62-1.35-.89-2.23-.54-1.72-1.03-3.36-1.47-4.88-1.77-6.08-3.63-11.51-4.76-18.67-1.17-7.15-1.63-13.76-1.78-17.5-.05-.98-.27-.99-.31,0-.2,3.74-.34,10.41,.34,17.72,.63,7.31,2.12,12.99,3.92,19.2,.45,1.55,.97,3.21,1.57,4.95,.3,.84,.58,1.85,1.3,2.88,.75,1.05,1.91,1.71,3,2.03,2.21,.63,4.38,.48,6.48,.08,2.08-.42,4.04-1.12,5.91-1.82,.92-.35,2.31,.05,2.73,1.24-1.21,.81-2.74,1.99-4.21,3.47-2.05,2.02-3.93,4.58-5.13,6.78-1.22,2.2-2.44,5.29-3.35,8.24-.92,2.94-1.61,5.72-2,7.3-.09,.38,.12,.46,.3,.11,.72-1.46,1.99-4.02,3.34-6.74,1.36-2.72,2.92-5.52,4.07-7.61,1.14-2.1,2.56-4.7,4.13-6.94,1.51-2.2,3.15-4.02,4.19-5.05,.46-.14,.92-.28,1.38-.39,1.76-.45,3.52-.67,5.12-.51,1.61,.17,3.07,.68,4.23,1.4,.54,.33,1,.72,1.39,1.12-.19-.09-.2,.08,.09,.45,1.57,1.96,4.1,5.6,6.49,9.82,2.41,4.21,4.78,8.97,6.88,12.71,2.07,3.73,4.95,8.59,7,13.43,1.03,2.42,1.85,4.83,2.38,7,.52,2.17,.81,4.1,.9,5.51,.06,.68,.29,.69,.31,0,.08-1.43,.04-3.4-.25-5.69-.29-2.28-.86-4.85-1.69-7.44-1.64-5.18-4.23-10.37-6.31-14.13-2.09-3.74-4.86-8.34-7.74-12.36-2.38-3.35-4.87-6.19-6.7-8.05-.44-.98-1.24-2.03-2.4-2.89-1.18-.87-2.71-1.55-4.44-1.86-1.75-.31-5.26-1.35-3.45-.68,.61,.22-5.5-.51-7.81,.09-1.59,.41-3.15,.93-4.73,1.23"/>
        <path class="cls-1" d="M119.08,296.5c-.84,.18-2.34,.38-3.93,.35-1.59-.03-3.24-.32-4.46-.6-1.23-.26-2.74-.67-4.09-1.23-1.35-.55-2.51-1.23-3.15-1.66-.17-.11-.24-.03-.1,.12,.53,.56,1.54,1.51,2.84,2.33,1.3,.82,2.87,1.48,4.2,1.76,1.32,.3,3.14,.4,4.8,.17,1.66-.22,3.13-.73,3.93-1.08,.2-.08,.16-.19-.05-.15h.01Z"/>
        <path class="cls-1" d="M77.08,271.42c-.86,.74-1.3,1.65-1.46,2.14-.05,.13,.13,.26,.25,.19,.43-.27,1.21-.63,2.04-.77,.83-.16,1.66-.11,2.26-.09,.6,0,1.47,0,2.36,.26,.88,.24,1.69,.75,2.11,1.13,.11,.09,.31-.02,.27-.16-.13-.57-.55-1.6-1.44-2.46-.86-.87-2.19-1.45-3.25-1.45-1.06-.04-2.31,.47-3.14,1.22h0Z"/>
        <path class="cls-1" d="M84.03,276.7c-.02-.59-.22-.56-.3,.1,0,.04,0,.08-.02,.12-.16,1.33-.52,3.11-1.24,5.06-.57,1.55-1.37,3.22-2.41,4.82-.31,.48-.64,.95-.99,1.42-.22,.3-.45,.59-.7,.87-.66,.81-1.4,1.56-2.18,2.28-1.1-.4-2.41-.91-3.32-1.27-.24-.08-.5-.17-.77-.26,.29-1.84,.62-3.85,.99-5.91,.88-5.07,1.96-10.43,2.72-14.48s1.53-9.1,2.76-13.59c1.17-4.51,2.96-8.39,4.22-10.46,.16-.27,.19-.44,.14-.48-.05-.05-.2,.05-.4,.3-1.56,1.88-3.94,5.59-5.64,10.09-1.45,3.71-2.53,7.83-3.29,11.46-.16,.75-.31,1.49-.44,2.19-.77,4.09-1.44,9.59-1.83,14.75-.15,2.01-.26,3.96-.35,5.77-1.07-.35-2.14-.71-2.68-.93-.12-.05-.18,.05-.08,.13,.47,.46,1.56,1.32,2.71,1.98v.06c-.97-.22-2.16-.49-3.25-.83-1.12-.34-2.12-.75-2.68-1-.15-.06-.21,.03-.09,.14,.48,.4,1.35,1.07,2.42,1.67s2.33,1.11,3.38,1.35c.06,0,.12,.02,.17,.03-.04,1.26-.06,2.4-.08,3.37-1.19,.77-2.37,1.49-3.47,2.15-.99,.59-2.05,1.23-3.17,1.91-1.14,.71-2.4,1.53-3.49,2.73-1.11,1.18-1.92,2.95-1.82,4.7,.06,1.76,.8,3.28,1.63,4.54,.83,1.27,1.81,2.35,2.74,3.35,.91,.98,1.72,1.95,2.35,2.94,1.32,1.96,1.74,4.07,1.23,5.49-.24,.66-.05,.8,.3,.11,.32-.72,.52-1.69,.39-2.75-.11-1.07-.49-2.21-1.06-3.33-.56-1.13-1.32-2.25-2.16-3.35-.81-1.07-1.64-2.18-2.27-3.37-.65-1.18-1.09-2.46-1.03-3.63,.05-1.18,.59-2.2,1.45-3.04,.87-.84,1.97-1.51,3.07-2.14,1.13-.64,2.23-1.26,3.22-1.86,2-1.2,4.22-2.65,6.32-4.43,1.25-1.05,2.44-2.23,3.5-3.5,.75-.88,1.42-1.8,2-2.76,1.44-2.33,2.36-4.77,2.88-6.94,.52-2.18,.65-4.09,.63-5.45,0-.04,0-.08-.01-.12h0Zm-12.74,18.42c.13-.85,.27-1.83,.43-2.9,.88,.12,1.88,.16,2.82,.1,.22-.02,.43-.04,.64-.06-1.25,1.04-2.57,1.99-3.89,2.86Z"/>
        <path class="cls-1" d="M120.11,410.16c-1.33-1.76-3.07-3.89-4.66-5.87-1.58-1.98-3.01-3.82-3.81-4.87-.21-.27-.4-.17-.27,.15,.49,1.23,1.41,3.38,2.59,5.68,1.18,2.3,2.63,4.72,3.99,6.53,1.35,1.81,3.39,4.03,5.43,5.97,2.03,1.95,4.05,3.62,5.22,4.54,.28,.23,.44,.06,.22-.22-.92-1.17-2.49-3.24-4.11-5.48-1.63-2.24-3.29-4.66-4.61-6.42h.01Z"/>
        <path class="cls-1" d="M103,290.75c.56-.99,2.11-3.28,2.82-4.87,.34-.81,.65-1.95,.96-3.05,.31-1.09,.62-2.14,.82-2.74,.04-.15-.14-.27-.26-.18-.49,.41-1.32,1.16-2.1,2.06-.79,.9-1.52,1.97-1.89,2.85-.79,1.77-.78,4.73-.64,5.85,.01,.15,.23,.2,.3,.07h-.01Z"/>
        <path class="cls-1" d="M103.8,293.05c1.88,.91,4.1,1.63,5.93,1.87,1.83,.26,4.31,.2,6.56-.21,2.25-.39,4.25-1.08,5.35-1.54,.27-.1,.21-.33-.07-.31-1.18,.11-3.23,.2-5.38,.08-2.16-.11-4.4-.46-6.08-.69-1.68-.22-3.79-.48-5.73-.88-1.94-.39-3.71-.9-4.71-1.23-.26-.08-.37,.11-.15,.28,.84,.64,2.39,1.72,4.29,2.63h0Z"/>
        <path class="cls-1" d="M105.29,273.41c1.13,.01,3.14,0,5.29,.08,2.16,.07,4.43,.29,6.21,.54,1.77,.22,4.13,.61,6.23,1.47,2.11,.83,3.86,2.16,4.73,3.07,.22,.21,.41,.09,.25-.19-.59-1.14-2.02-3.03-4.14-4.44-2.08-1.43-4.72-2.34-6.73-2.58-2.01-.28-4.52-.07-6.7,.37-2.19,.43-4.11,1.04-5.19,1.38-.28,.09-.25,.31,.05,.31h0Z"/>
        <path class="cls-1" d="M77.84,319.25c.54,.19,1.47,.18,2.09-.21,.62-.37,.95-.84,1.21-1.24,.24-.41,.44-.78,.63-1.18,.76-1.56,1.18-3.11,1.35-3.99,.05-.21-.17-.3-.29-.12-.5,.73-1.43,1.96-2.53,3.12-.53,.57-1.21,1.27-1.45,1.24-.1-.02-.03-.04-.19-.11-.15-.07-.41-.23-.7-.4-2.31-1.3-6.15-2.51-7.67-2.96-.2-.06-.31,.13-.15,.27,1.18,1.07,4.19,3.73,6.5,5.03,.28,.15,.64,.37,1.2,.54h0Z"/>
        <path class="cls-1" d="M72.63,330.29c-1.54-.1-2.92-.38-3.7-.58-.21-.05-.3,.21-.14,.37,.63,.62,1.8,1.64,3.24,2.4,1.43,.77,3.14,1.25,4.59,1.23,1.44,0,3.43-.5,5.28-1.36,1.85-.85,3.54-2.01,4.48-2.74,.23-.17,.21-.44-.02-.37-.96,.31-2.62,.73-4.34,.93-1.73,.21-3.5,.16-4.84,.17-1.34,.02-3.02,.09-4.55-.03v-.02Z"/>
        <path class="cls-1" d="M139.55,432.53c3.21,.08,8.91,.16,14.96-1.07,3.01-.62,6.11-1.56,8.88-2.88,2.78-1.29,5.25-2.86,7.25-4.35,4-3.01,8.21-7.57,11.52-12.06,3.35-4.47,6.02-8.76,7.55-11.16,.4-.63,.22-.76-.25-.18-1.82,2.19-4.97,6.14-8.66,10.22-3.66,4.12-8.01,8.19-11.78,11.04-1.89,1.41-4.15,2.97-6.7,4.33-2.53,1.39-5.38,2.49-8.23,3.33-5.71,1.67-11.36,2.2-14.55,2.47-.78,.06-.77,.29,0,.31h0Z"/>
        <path class="cls-1" d="M71.84,409.21c.81,1.55,3,5.41,4.98,7.59,1.95,2.2,5.91,5.16,7.52,6.27,.19,.14,.36-.02,.22-.22-1.11-1.62-3.82-5.69-5.74-7.85-1.95-2.15-5.38-4.89-6.74-5.99-.18-.14-.35,0-.24,.2Z"/>
        <path class="cls-1" d="M70.34,406.67c-1-.33-2.28-.39-3.55,0-1.3,.38-2.46,1.26-3.32,2.27-.86,1.02-1.43,2.18-1.77,3.22-.69,2.08-.87,5.06-.12,7.64,.68,2.62,2.32,4.6,3.39,5.4,.25,.21,.41,.04,.23-.22-.81-1.04-1.77-3.15-1.88-5.49-.19-2.34,.37-4.78,.93-6.49,.54-1.69,1.51-3.75,3.2-4.7,.84-.48,1.83-.71,2.69-.67,.87,.04,1.59,.34,2.05,.68,.24,.17,.42,.04,.22-.22-.37-.49-1.07-1.09-2.08-1.42h.01Z"/>
        <path class="cls-1" d="M57.22,459.73c.95,1.07,2.07,1.78,3.05,2.3,.99,.52,1.86,.87,2.49,1.13,.31,.12,.42-.08,.15-.27-1.05-.82-3.12-2.22-4.27-4.2-1.17-1.95-.92-4.38-.54-6.21,.17-.92,.42-1.97,.73-3.07,.31-1.12,.65-2.3,.91-3.47,.3-1.21,.44-2.4,.48-3.44,.29,.25,.57,.44,.8,.58,.22,.14,.36-.04,.21-.24-.35-.4-.73-1.03-1.04-1.78-.03-.35-.07-.67-.13-.93-.04-.22-.15-.26-.23-.18-.1-.4-.17-.82-.2-1.25-.17-1.78,.25-3.58,.71-4.83,.43-1.3,1.14-2.92,2.08-4.35,.92-1.44,1.98-2.67,2.59-3.36,.16-.18,.03-.36-.19-.25-.83,.41-2.31,1.2-3.73,2.44-1.43,1.22-2.74,2.97-3.29,4.64-.61,1.66-.65,4.12,.11,6.12,.38,1.06,.95,1.95,1.55,2.63-.28,1.06-.75,2.33-1.38,3.63-.49,1.04-1.03,2.12-1.52,3.23-.49,1.12-.88,2.28-1.09,3.37-.21,1.08-.31,2.41-.08,3.83,.22,1.41,.87,2.87,1.83,3.94h0Z"/>
        <path class="cls-1" d="M47.96,500.09h0c2.76-4.22,5.24-9.02,6.76-12.78,1.54-3.75,2.97-8.61,3.87-13.13,.85-4.2,1.27-8.08,1.45-10.49,.73,2.33,2.39,6.17,5.41,9.66,1.55,1.83,3.47,3.51,5.46,4.9,2,1.39,4.07,2.51,5.94,3.4,3.73,1.81,8.86,3.51,13.33,5.7,2.24,1.1,4.31,2.33,6,3.61,.65,.5,1.23,.99,1.76,1.48,1.04,1.42,2.26,3.2,3.46,5.16,.43,.7,.87,1.43,1.29,2.16-.41,.12-.85,.24-1.32,.35h4.17c-.87-1.21-1.78-2.42-2.71-3.54-1.72-2.09-3.48-3.89-4.87-5.18-.35-.39-.73-.78-1.14-1.18-1.58-1.52-3.58-3.04-5.78-4.4-4.41-2.73-9.45-4.84-13.04-6.58-3.63-1.7-8.02-3.95-11.28-7.09-3.32-3.07-5.51-6.72-6.51-8.87-.05-.11-.1-.18-.15-.24,0-.45-.18-.45-.31,.09-.51,2.29-1.51,6.32-2.9,10.63-1.37,4.32-3.15,8.91-4.65,12.57-1.48,3.66-3.52,8.5-5.8,12.9-.16,.3-.31,.6-.47,.9h1.99l.04-.03Z"/>
        <path class="cls-1" d="M254.66,496.99c-.36-.62-.84-1.11-1.38-1.49-1.09-.79-2.38-1.05-3.48-1.14-1.14-.08-2.13-.06-3.14-.11-2.02-.07-4.04-.27-6-.56-3.92-.58-7.61-1.57-10.73-2.69-1.57-.56-2.98-1.16-4.26-1.73-.27-.12-.53-.23-.79-.34,4.15,.73,9.47,1.29,15.11,1.06,4.13-.15,8.39-.67,12.38-1.53,1.99-.45,3.92-.94,5.74-1.51,.91-.3,1.76-.52,2.71-.93,.91-.41,1.88-.93,2.59-1.96,.35-.51,.59-1.15,.64-1.83,.04-.68-.12-1.36-.41-1.92-.57-1.13-1.56-1.92-2.69-2.33-1.09-.4-2.18-.44-3.17-.43-.99,.02-1.89,.08-2.85,.13-3.79,.19-7.67,.42-11.36,.4-3.7,0-7.22-.3-10.24-.88-3.03-.57-5.53-1.46-7.26-2.25-.92-.4-1.03-.21-.14,.28,1.67,.96,4.13,2.09,7.18,2.93,3.04,.85,6.63,1.44,10.4,1.69,3.77,.28,7.71,.28,11.5,.25,1.89,.02,3.84-.16,5.03,.34,.56,.21,1.02,.64,1.22,1.07s.15,.71-.06,1.05-.77,.73-1.45,1.04c-.67,.31-1.57,.58-2.43,.88-1.73,.6-3.58,1.13-5.49,1.64-3.82,.99-7.93,1.72-11.94,2.12-8.04,.83-15.64,.08-19.89-.67-1.04-.17-1.09,.06-.06,.31,.46,.12,.97,.25,1.51,.37,.12,.06,.34,.12,.67,.18,1.99,.43,4.35,2.16,7.47,3.49,3.09,1.39,6.78,2.67,10.78,3.52,2,.43,4.07,.75,6.17,.94,2.12,.2,4.22,.14,5.33,1.07,.58,.46,.89,1.04,.81,1.52-.03,.4-.28,.78-.73,1.12h3.07c.1-.32,.17-.65,.18-.97,.05-.74-.16-1.52-.52-2.13h-.02Z"/>
        <path class="cls-1" d="M204.86,499.98h-.02c-2.33-.18-6.47-.38-11.04-.11-.99,.05-2.01,.13-3.03,.23h21.9c-1-.11-1.98-.2-2.93-.25-1.76-.1-3.4-.04-4.89,.13h0Z"/>
        <path class="cls-1" d="M72.2,407.72c1.07,1.24,2.12,2.22,3,3.05,.86,.8,1.02,.63,.22-.22-.81-.89-1.79-1.94-2.74-3.22-.95-1.27-1.89-2.79-2.42-4.56-.25-.88-.42-1.84-.35-2.75,.07-.93,.36-1.87,.83-2.73,.91-1.71,2.68-3.18,4.5-3.14,.89,.04,1.76,.44,2.47,1.1,.72,.66,1.31,1.56,1.88,2.51,.57,.96,1.13,2.01,1.84,2.99,.68,.99,1.45,1.89,2.24,2.75,3.22,3.37,6.74,5.81,9.36,8.18,1.33,1.18,2.66,2.47,3.81,3.96,1.16,1.48,2.14,3.18,2.93,5.05,1.61,3.73,2.5,7.97,3.56,12.01,1.63,6.42,4.06,12.05,6.05,15.96,.28,1.11,.61,2.28,1,3.5,1.21,3.78,3,7.98,5.24,12.19,4.5,8.43,10.74,16.77,15.99,23.21,.54,.67,1.13,1.37,1.72,2.07-.5,.15-.44,.23,.15,.18,2.72,3.22,5.9,6.73,9.29,10.26h3.13c-3.35-3.7-6.54-7.4-9.35-10.76,3.01-.59,6.71-1.53,10.76-3.08,5.11-1.94,10.75-4.83,16.04-8.79,5.31-3.95,10.13-8.93,14.6-13.8,4.47-4.89,8.74-9.62,12.9-13.41,2.07-1.89,4.38-3.88,7-5.6,2.62-1.73,5.55-3.14,8.85-3.72,3.3-.64,6.88-.67,10.53-1.05,1.82-.19,3.68-.49,5.48-1s3.5-1.21,5.14-1.93,3.23-1.46,4.82-2.11c.79-.33,1.58-.62,2.38-.88s1.58-.52,2.15-.42c.56,.08,1.02,.54,1.25,1.16,.24,.63,.24,1.32,0,1.96-.48,1.32-1.67,2.36-2.77,3.36-4.3,3.88-8.61,6.54-11.91,8.27-8.71,1.94-16.24,4.44-20.62,6.06-1.3,.47-1.23,.68,.1,.3,5.02-1.47,14-3.81,24.05-5.3,10.04-1.55,21.09-2.21,29.97-2.18h1.68c.53,0,1.07,.05,1.61,.11,1.07,.14,2.17,.41,2.99,.92,.83,.49,1.22,1.18,1.18,2.01-.05,.8-.72,1.75-1.61,2.3-.94,.59-2.17,.9-3.5,1.15-1.37,.24-2.76,.49-4.14,.74-2.77,.5-5.56,1-8.3,1.5-10.94,2.04-21.15,3.94-26.97,5.02-1.41,.27-1.38,.49,.05,.31,2.41-.32,5.56-.73,9.2-1.21-.36,.03-.38,.22,.02,.3,1.58,.34,4.4,.87,7.53,1.21,3.14,.35,6.59,.5,9.36,.34,2.77-.15,6.42-.68,9.78-1.44,3.36-.74,6.43-1.67,8.16-2.25,.42-.14,.37-.36-.07-.31-.17,.02-.36,.04-.55,.07,.42-.13,.87-.25,1.36-.35,.9-.17,1.96-.25,2.93,.06,.98,.3,1.96,1.01,2.29,1.96,.34,.96-.03,2-.88,2.85s-1.97,1.53-3.22,2.11l-1.88,.91c-.64,.28-1.27,.56-1.9,.83-2.53,1.07-5.02,2.01-7.28,2.72-4.48,1.49-10.63,3.03-16.56,3.56-5.91,.62-11.52,.27-14.69-.11-.77-.08-.82,.14-.05,.31,3.11,.73,8.73,1.7,14.84,1.57,6.11-.03,12.62-1.21,17.29-2.77,2.35-.74,4.92-1.81,7.47-3.08,.63-.33,1.27-.66,1.91-.99l1.87-1.08c1.25-.71,2.54-1.6,3.53-2.81,.49-.61,.9-1.34,1.08-2.15,.18-.82,.07-1.68-.27-2.4-.54-1.07-1.43-1.72-2.35-2.08,.26-1.91,.61-4.96,.8-8.25,.21-3.53,.22-7.33-.01-10.16-.22-2.84-.81-6.34-1.53-9.51-.18-.79-.36-1.55-.54-2.29-.58-6.37-1.4-13.53-2.96-20.84-1.58-7.71-4.06-15.55-7.42-22.61-3.29-7.07-7.77-13.34-12.91-17.42-2.56-2.03-5.64-3.86-9.18-4.85-3.51-1.06-7.44-1.12-11.16-.36-3.73,.79-7.28,2.38-10.46,4.44-3.17,2.08-5.97,4.65-8.34,7.41-4.77,5.54-8.09,11.61-10.99,16.82-2.88,5.23-5.33,9.7-7.11,12.93-.93,1.7-.74,1.81,.27,.16,1.92-3.14,4.58-7.49,7.69-12.59,3.12-5.07,6.66-10.95,11.46-16.13,2.39-2.59,5.12-4.93,8.16-6.8,3.04-1.85,6.38-3.22,9.79-3.86,3.41-.6,6.85-.49,9.96,.5,3.13,.91,5.88,2.58,8.24,4.44,4.72,3.75,9.07,9.58,12.41,16.38,3.41,6.78,6.06,14.38,7.86,21.94,1.27,5.15,2.18,10.26,2.9,15.08,0,.04-.01,.07,0,.13,.15,1.65,.38,4.58,.58,7.78,.21,3.2,.38,6.68,.59,9.47,.26,2.78,.6,6.48,.93,9.97,.27,3.18,.46,6.17,.57,8.09-.19-.06-.38-.11-.57-.15-1.27-.24-2.39,0-3.33,.29-.94,.3-1.7,.68-2.34,.99-.08,.04-.15,.08-.2,.11-1.77,.19-4.05,.41-6.45,.58-3.38,.24-6.98,.36-9.68,.5-2.7,.15-6.06,.42-9.16,.58-3.09,.16-5.93,.23-7.54,.24,5.23-.69,11.45-1.51,17.94-2.36,2.76-.38,5.56-.76,8.36-1.15,1.4-.2,2.8-.39,4.18-.59,1.41-.21,2.95-.5,4.38-1.32,1.43-.86,2.63-2.24,2.88-4.11,.1-.93-.1-1.86-.53-2.67-.45-.81-1.11-1.41-1.77-1.83-1.35-.85-2.73-1.15-4.03-1.35-.65-.09-1.29-.14-1.92-.15h-1.73c-9.02-.03-20.23,1.07-30.28,3.13-.6,.12-1.2,.24-1.8,.37,3.21-1.59,7.14-3.91,11.13-7.21,1.14-.97,2.5-1.98,3.23-3.68,.36-.84,.43-1.89,.11-2.81-.28-.92-1.07-1.88-2.21-2.09-1.11-.2-2.01,.15-2.83,.36-.84,.24-1.68,.52-2.51,.82-1.66,.6-3.29,1.3-4.93,1.94-1.64,.65-3.29,1.26-4.97,1.67-1.67,.42-3.4,.65-5.17,.77-3.52,.26-7.15,.19-10.76,.79-3.64,.54-7.03,2.09-9.84,3.9-2.85,1.82-5.25,3.87-7.39,5.82-4.3,3.91-8.55,8.8-12.88,13.78-4.33,4.97-8.87,9.99-13.88,14.02-5,4.05-10.4,7.13-15.33,9.28-4.01,1.75-7.7,2.88-10.7,3.62-.88-1.06-1.74-2.1-2.54-3.09-5.2-6.39-11.69-14.37-16.54-22.38-2.36-3.91-4.31-7.81-5.74-11.37,.02-.09-.06-.34-.26-.78-.1-.21-.2-.44-.31-.68-1.17-3.15-1.9-5.95-2.32-8.06-.27-1.24-.48-1.22-.31,.05,.09,.74,.22,1.57,.38,2.46-1.31-3.61-2.65-8.02-3.56-12.79-.81-4.04-1.46-8.41-3.04-12.53-.77-2.05-1.81-4.02-3.09-5.73-1.27-1.71-2.71-3.14-4.11-4.39-2.79-2.5-6.34-4.86-9.41-7.86-.75-.76-1.49-1.55-2.13-2.41-.66-.84-1.23-1.79-1.88-2.78-.66-.98-1.38-2.01-2.4-2.86-1.01-.85-2.36-1.42-3.75-1.39-1.39,.05-2.63,.65-3.57,1.45-.95,.8-1.67,1.79-2.16,2.84-.49,1.05-.76,2.19-.77,3.3,0,1.14,.26,2.15,.6,3.1,.7,1.9,1.8,3.41,2.87,4.64l-.02,.04Z"/>
        <path class="cls-1" d="M202.1,439.01c.35-1.24,1.19-4.39,1.19-6.51s-.83-5.63-1.19-7.03c-.04-.17-.27-.17-.31,0-.36,1.4-1.19,4.91-1.19,7.03s.84,5.27,1.19,6.51c.05,.16,.27,.16,.31,0Z"/>
        <path class="cls-1" d="M270.79,500.09c.2-3.74,.37-7.49,.42-10.45,.1-7.43-.38-18.51-.55-22.89-.02-.57-.24-.58-.31-.01-.54,4.34-1.73,15.39-1.83,22.86-.06,2.98,.04,6.74,.21,10.49h2.06Z"/>
      </g>
    </g>
    <g>
      <path class="cls-3" d="M188.28,273.04c6.04-.3,4.68-7.34,4.17-9.34,2.01-.44,8.91-2.38,6.47-7.92-2.65-6.01-19.48-.26-19.5-.12-.11,.08,2.29,17.7,8.86,17.38Z"/>
      <g>
        <path class="cls-4" d="M430.37,415.05s5.44-2.56,8.72-8.11c3.28-5.56,7.3-.94,5.59,1.43s-2.9,4.82-2.9,4.82c0,0,6.5-5.83,11.18-5.33,4.68,.49-2.42,6.75-2.42,6.75,0,0,13.54-6.8,15.14-3.63,1.6,3.17-2.68,5.12-6.33,6.38-3.64,1.26-8.28,2.1-8.28,2.1,0,0,8.59,.86,5.55,3.28s-15.64-1.48-15.64-1.48c0,0,9.95,5.58,3.98,6.47s-13.97-11.79-14.62-12.69h.03Z"/>
        <path class="cls-5" d="M430.37,415.05s11.71,6.13,29.08,.21"/>
      </g>
      <g>
        <path class="cls-4" d="M441.19,132.71s10.49,2.07,18.55,10.24,12.99-1.53,9.03-4.89c-3.97-3.35-7.08-7.07-7.08-7.07,0,0,13.73,7.25,21.6,4.38s-7.08-10.61-7.08-10.61c0,0,26.3,5.9,27.7-.26,1.4-6.16-6.84-7.68-13.67-8.29-6.83-.61-15.19-.05-15.19-.05,0,0,14.46-5.2,8.17-8.06-6.29-2.86-26.35,9.29-26.35,9.29,0,0,14.75-13.92,4.08-12.88-10.68,1.04-19.02,26.37-19.75,28.2h-.01Z"/>
        <path class="cls-5" d="M441.19,132.71s17.56-15.63,50.08-12.91"/>
      </g>
      <g>
        <path class="cls-4" d="M276.1,119.12s2.42-7.54,.01-15.69,5.65-7.87,6.4-4.1c.75,3.77,2.05,7.12,2.05,7.12,0,0,.22-11.49,4.9-15.56s4.34,8.39,4.34,8.39c0,0,5.6-19.15,10.09-17.85s2.53,7.18,.47,11.83c-2.06,4.64-5.41,9.86-5.41,9.86,0,0,8.54-7.5,8.15-2.41s-15.46,13.74-15.46,13.74c0,0,14.3-4.57,9.8,1.97s-23.9,2.88-25.34,2.69h0Z"/>
        <path class="cls-5" d="M276.1,119.12s16.42-5.78,26.3-27.82"/>
      </g>
      <g>
        <path class="cls-3" d="M366.77,333.73c-.41-.28-.84-.49-1.29-.67,1.61-.26,3.12-1.14,4.13-2.59,1.95-2.82,1.24-6.69-1.58-8.64-2.6-1.79-6.06-1.32-8.12,.97,.34-2.27-.57-4.65-2.59-6.05-2.82-1.95-6.69-1.24-8.64,1.58-1.09,1.57-1.32,3.46-.85,5.17-2.25-.31-4.59,.6-5.97,2.6-1.95,2.82-1.24,6.69,1.58,8.64,1.4,.96,3.05,1.27,4.6,1-1.53,2.76-.78,6.28,1.88,8.11,2.72,1.88,6.38,1.27,8.4-1.29,.39,.52,.84,1,1.41,1.39,2.82,1.95,6.69,1.24,8.64-1.58,1.95-2.82,1.24-6.69-1.58-8.64h-.02Z"/>
        <path class="cls-5" d="M358.82,334.17c1.35-1.95,.86-4.63-1.09-5.98-1.95-1.35-4.63-.86-5.98,1.09-1.35,1.95-.86,4.63,1.09,5.98,1.95,1.35,4.63,.86,5.98-1.09Z"/>
      </g>
      <g>
        <path class="cls-3" d="M419.11,106.8c-.41-.28-.84-.49-1.29-.67,1.61-.26,3.12-1.14,4.13-2.59,1.95-2.82,1.24-6.69-1.58-8.64-2.6-1.79-6.06-1.32-8.12,.97,.34-2.27-.57-4.65-2.59-6.05-2.82-1.95-6.69-1.24-8.64,1.58-1.09,1.57-1.32,3.46-.85,5.17-2.25-.31-4.59,.6-5.97,2.6-1.95,2.82-1.24,6.69,1.58,8.64,1.4,.96,3.05,1.27,4.6,1-1.53,2.76-.78,6.28,1.88,8.11,2.72,1.88,6.38,1.27,8.4-1.29,.39,.52,.84,1,1.41,1.39,2.82,1.95,6.69,1.24,8.64-1.58s1.24-6.69-1.58-8.64h-.02Z"/>
        <path class="cls-5" d="M411.15,107.24c1.35-1.95,.86-4.63-1.09-5.98-1.95-1.35-4.63-.86-5.98,1.09s-.86,4.63,1.09,5.98c1.95,1.35,4.63,.86,5.98-1.09Z"/>
      </g>
      <g>
        <path class="cls-3" d="M334.54,455.18c-.41-.28-.84-.49-1.29-.67,1.61-.26,3.12-1.14,4.13-2.59,1.95-2.82,1.24-6.69-1.58-8.64-2.6-1.8-6.06-1.32-8.12,.97,.34-2.27-.57-4.65-2.59-6.05-2.82-1.95-6.69-1.24-8.64,1.58-1.09,1.57-1.32,3.46-.85,5.17-2.25-.31-4.59,.6-5.97,2.6-1.95,2.82-1.24,6.69,1.58,8.64,1.4,.96,3.05,1.27,4.6,1-1.53,2.76-.78,6.28,1.88,8.11,2.72,1.88,6.38,1.27,8.4-1.29,.39,.52,.84,1,1.41,1.39,2.82,1.95,6.69,1.24,8.64-1.58,1.95-2.82,1.24-6.69-1.58-8.64h-.02Z"/>
        <path class="cls-5" d="M326.58,455.62c1.35-1.95,.86-4.63-1.09-5.98-1.95-1.35-4.63-.86-5.98,1.09-1.35,1.95-.86,4.63,1.09,5.98,1.95,1.35,4.63,.86,5.98-1.09Z"/>
      </g>
      <g>
        <path class="cls-3" d="M183.32,153.89c-.35-.24-.73-.42-1.11-.57,1.39-.22,2.69-.98,3.55-2.23,1.68-2.43,1.07-5.76-1.36-7.43-2.23-1.54-5.21-1.13-6.99,.83,.3-1.96-.49-4-2.23-5.2-2.43-1.68-5.76-1.07-7.43,1.36-.93,1.35-1.14,2.98-.73,4.45-1.93-.27-3.94,.52-5.13,2.23-1.68,2.43-1.07,5.76,1.36,7.43,1.2,.83,2.62,1.1,3.95,.86-1.32,2.37-.67,5.4,1.61,6.97,2.34,1.61,5.49,1.09,7.22-1.11,.34,.44,.73,.86,1.21,1.19,2.43,1.68,5.76,1.07,7.43-1.36s1.07-5.76-1.36-7.43h0Z"/>
        <path class="cls-5" d="M176.48,154.27c1.16-1.68,.74-3.98-.94-5.14-1.68-1.16-3.98-.74-5.14,.94-1.16,1.68-.74,3.98,.94,5.14,1.68,1.16,3.98,.74,5.14-.94Z"/>
      </g>
      <g>
        <path class="cls-3" d="M234.39,165.65c-.22-.15-.45-.26-.69-.36,.86-.14,1.67-.61,2.21-1.39,1.04-1.51,.67-3.58-.85-4.63-1.39-.96-3.25-.7-4.35,.52,.18-1.22-.3-2.49-1.39-3.24-1.51-1.04-3.58-.67-4.63,.85-.58,.84-.71,1.85-.46,2.77-1.2-.17-2.46,.32-3.2,1.39-1.04,1.51-.67,3.58,.85,4.63,.75,.52,1.63,.68,2.46,.54-.82,1.48-.42,3.36,1,4.34,1.45,1,3.42,.68,4.5-.69,.21,.28,.45,.53,.75,.74,1.51,1.04,3.58,.67,4.63-.85,1.04-1.51,.67-3.58-.85-4.63h.02Z"/>
        <path class="cls-5" d="M230.13,165.89c.72-1.05,.46-2.48-.59-3.2s-2.48-.46-3.2,.59-.46,2.48,.59,3.2,2.48,.46,3.2-.59Z"/>
      </g>
      <g>
        <path class="cls-3" d="M119.42,216.73c-.22-.15-.45-.26-.69-.36,.86-.14,1.67-.61,2.21-1.39,1.04-1.51,.67-3.58-.85-4.63-1.39-.96-3.25-.7-4.35,.52,.18-1.22-.3-2.49-1.39-3.24-1.51-1.04-3.58-.67-4.63,.85-.58,.84-.71,1.85-.46,2.77-1.2-.17-2.46,.32-3.2,1.39-1.04,1.51-.67,3.58,.85,4.63,.75,.52,1.63,.68,2.46,.54-.82,1.48-.42,3.36,1,4.34,1.45,1,3.42,.68,4.5-.69,.21,.28,.45,.53,.75,.74,1.51,1.04,3.58,.67,4.63-.85,1.04-1.51,.67-3.58-.85-4.63h.02Z"/>
        <path class="cls-5" d="M115.16,216.96c.72-1.05,.46-2.48-.59-3.2-1.05-.72-2.48-.46-3.2,.59-.72,1.05-.46,2.48,.59,3.2,1.05,.72,2.48,.46,3.2-.59Z"/>
      </g>
      <g>
        <path class="cls-3" d="M331.82,126.21c-.22-.15-.45-.26-.69-.36,.86-.14,1.67-.61,2.21-1.39,1.04-1.51,.67-3.58-.85-4.63-1.39-.96-3.25-.7-4.35,.52,.18-1.22-.3-2.49-1.39-3.24-1.51-1.04-3.58-.67-4.63,.85-.58,.84-.71,1.85-.46,2.77-1.2-.17-2.46,.32-3.2,1.39-1.04,1.51-.67,3.58,.85,4.63,.75,.52,1.63,.68,2.46,.54-.82,1.48-.42,3.36,1,4.34,1.45,1,3.42,.68,4.5-.69,.21,.28,.45,.53,.75,.74,1.51,1.04,3.58,.67,4.63-.85,1.04-1.51,.67-3.58-.85-4.63h.02Z"/>
        <path class="cls-5" d="M327.56,126.45c.72-1.05,.46-2.48-.59-3.2-1.05-.72-2.48-.46-3.2,.59-.72,1.05-.46,2.48,.59,3.2,1.05,.72,2.48,.46,3.2-.59Z"/>
      </g>
      <g>
        <path class="cls-3" d="M517.49,307.13c-.25-.18-.53-.31-.8-.41,1-.16,1.94-.71,2.57-1.61,1.21-1.76,.77-4.17-.98-5.38-1.62-1.12-3.78-.82-5.06,.6,.21-1.42-.35-2.9-1.61-3.77-1.76-1.21-4.17-.77-5.38,.99-.68,.98-.82,2.16-.53,3.22-1.4-.19-2.86,.37-3.72,1.62-1.21,1.76-.77,4.17,.98,5.38,.87,.6,1.9,.79,2.86,.63-.95,1.72-.48,3.91,1.17,5.05,1.69,1.17,3.98,.79,5.23-.8,.24,.32,.53,.62,.88,.86,1.76,1.21,4.17,.77,5.38-.99,1.21-1.76,.77-4.17-.98-5.38h-.01Z"/>
        <path class="cls-5" d="M512.54,307.41c.84-1.22,.54-2.88-.68-3.72-1.22-.84-2.88-.54-3.72,.68s-.54,2.88,.68,3.72,2.88,.54,3.72-.68Z"/>
      </g>
      <g>
        <path class="cls-3" d="M448.79,200.17c-.25-.18-.53-.31-.8-.41,1-.16,1.94-.71,2.57-1.61,1.21-1.76,.77-4.17-.98-5.38-1.62-1.12-3.78-.82-5.06,.6,.21-1.42-.35-2.9-1.61-3.77-1.76-1.21-4.17-.77-5.38,.99-.68,.98-.82,2.16-.53,3.22-1.4-.19-2.86,.37-3.72,1.62-1.21,1.76-.77,4.17,.98,5.38,.87,.6,1.9,.79,2.86,.63-.95,1.72-.48,3.91,1.17,5.05,1.69,1.17,3.98,.79,5.23-.8,.24,.32,.53,.62,.88,.86,1.76,1.21,4.17,.77,5.38-.98,1.21-1.76,.77-4.17-.98-5.38v-.02Z"/>
        <path class="cls-5" d="M443.84,200.44c.84-1.22,.54-2.88-.68-3.72s-2.88-.54-3.72,.68c-.84,1.22-.54,2.88,.68,3.72s2.88,.54,3.72-.68Z"/>
      </g>
      <g>
        <path class="cls-4" d="M299.31,204.97s9.38-6.6,16.18-9.48c6.8-2.87,19.1,4.24,19.1,4.24,0,0-12.82,5.6-18.84,8.33s-16.45-3.1-16.45-3.1h.01Z"/>
        <path class="cls-5" d="M299.31,204.97s17.55-6.47,31.99-5.45"/>
      </g>
      <g>
        <path class="cls-4" d="M345.24,87.6s9.38-6.6,16.18-9.48c6.8-2.87,19.1,4.24,19.1,4.24,0,0-12.82,5.6-18.84,8.33s-16.45-3.1-16.45-3.1h.01Z"/>
        <path class="cls-5" d="M345.24,87.6s17.55-6.47,31.99-5.45"/>
      </g>
      <g>
        <path class="cls-9" d="M194.48,160.98s6.01,7.82,8.73,13.56c2.71,5.74-2.95,16.56-2.95,16.56,0,0-5.28-10.81-7.84-15.88s2.07-14.24,2.07-14.24h-.01Z"/>
        <path class="cls-5" d="M194.48,160.98s6.19,14.84,5.83,27.28"/>
      </g>
      <g>
        <path class="cls-9" d="M348.37,290.13s5-12.1-.36-14.89-9.93,12.35-9.93,12.35c0,0-7.76-2.62-9.37,.37s4.59,3.85,9.03,6.01c0,0-6.61,6.12-3.15,10.34,3.47,4.22,10.09-7.13,10.09-7.13,0,0,8.29,8.65,13.98,6.19,6.62-2.86-5.85-11.08-10.29-13.23h0Z"/>
        <path class="cls-7" d="M350.61,286.89s-18.47,7.47-18.92,9.29c-.45,1.81,18.48-4.8,21.23-5.3,2.74-.5,1.48-4.84-2.3-3.99h-.01Z"/>
        <path class="cls-5" d="M352.91,290.88s9.68-1.3,11.07,2.85-2.28,2.15-2.15,1.18"/>
        <path class="cls-5" d="M351.9,286.18s7.1-6.81,6.42-9.67c-.68-2.87-2.9-1.2-2.51,.93"/>
      </g>
      <path class="cls-3" d="M298,175.24c.02-8.89-10.42-7.43-13.39-6.83-.49-2.98-2.82-13.27-11.13-10.1-9.03,3.44-1.85,28.58-1.66,28.62,.11,.16,26.16-2.03,26.18-11.69h0Z"/>
      <path class="cls-3" d="M267.51,70.86c-2.51-5.5-8.55-1.63-10.22-.42-1.15-1.7-5.51-7.4-9.75-3.08-4.6,4.69,6.97,18.19,7.11,18.16,.11,.07,15.59-8.68,12.86-14.66Z"/>
      <path class="cls-3" d="M381.56,449.4c-1.4-3.06-4.75-.91-5.68-.23-.64-.95-3.06-4.11-5.42-1.71-2.56,2.61,3.88,10.11,3.95,10.09,.06,.04,8.67-4.83,7.15-8.15Z"/>
      <path class="cls-3" d="M546.4,71.11c-4.7-3.8-8.38,2.36-9.33,4.18-1.79-1.01-8.24-4.16-10.1,1.59-2.03,6.25,14.36,13.17,14.46,13.08,.13,.01,10.08-14.73,4.97-18.86h0Z"/>
      <path class="cls-3" d="M252.95,327.54c6.04-.31,4.67-7.35,4.16-9.34,2.01-.44,8.91-2.39,6.46-7.92-2.66-6.01-19.48-.23-19.5-.1-.11,.08,2.32,17.7,8.88,17.36h0Z"/>
      <path class="cls-5" d="M267.69,253.84c4.39,.29,8.79,1.1,13.1,2.56"/>
      <path class="cls-5" d="M207.72,261.97s26.7-12.06,53.11-9.26"/>
      <g>
        <path class="cls-5" d="M185.01,236.44c-2.2,1.07-4.54,2.05-7.05,2.91"/>
        <path class="cls-5" d="M225.86,186.6c-1.64,1.57-3.25,3.67-4.73,6.48-5.77,10.95-12.09,26.42-26.35,37.34"/>
        <path class="cls-5" d="M240.03,182.87s-4.12-1.58-9.07,.39"/>
      </g>
      <g>
        <path class="cls-5" d="M372.95,174.36c5.3-.73,10.64-2.28,16.29-5.39"/>
        <path class="cls-5" d="M303.28,186.6c5.62-3.71,12.39-7.11,20.29-9.28,14.5-3.98,26.2-2.6,37.33-2.4"/>
        <path class="cls-5" d="M283.03,206.12s2.59-4.03,7.7-9.19"/>
      </g>
      <g>
        <path class="cls-5" d="M281.32,295.17c6.88,3.93,14.56,10.71,21.04,22.4,16.12,29.07,16.02,47.45,40.29,48.75"/>
        <path class="cls-5" d="M262.67,289.79s3.32-.18,8.31,1.12"/>
        <g>
          <path class="cls-5" d="M181.24,276.62c-6.86-8.23-11.31-18.58-15.86-21.32-7.29-4.39-17.33-5.39-23.36-.37"/>
          <path class="cls-5" d="M246.88,278.38c-4,.38-8.35,1.04-12.49,2.16-13.05,3.51-20.58,10.04-37.66,6.53-4.32-.89-7.99-3.08-11.19-5.93"/>
          <path class="cls-5" d="M262.51,278.02s-3.24-.22-8.02-.1"/>
        </g>
      </g>
      <g>
        <path class="cls-5" d="M381.77,274.23s-1.5-1.03-3.74-2.58-4.55-7.01-1.13-7.96c3.42-.95,6.16,8.68,6.16,8.68l6.53-21.45,15.84,2.66-6.5,19.81s-5.41-8.16-8.49-5.31c-3.07,2.85,2.8,6.35,7.19,7.18"/>
        <line class="cls-5" x1="388.13" y1="255.42" x2="403.6" y2="257.82"/>
      </g>
      <g>
        <path class="cls-5" d="M447.29,271.41s-.99-.68-2.47-1.71c-1.48-1.02-3.01-4.63-.75-5.26s4.07,5.74,4.07,5.74l4.32-14.18,10.47,1.76-4.3,13.1s-3.58-5.39-5.61-3.51,1.85,4.2,4.76,4.75"/>
        <line class="cls-5" x1="451.5" y1="258.98" x2="461.72" y2="260.57"/>
      </g>
      <g>
        <path class="cls-5" d="M460.8,68.56s-.99-.68-2.47-1.71c-1.48-1.02-3.01-4.63-.75-5.26s4.07,5.74,4.07,5.74l4.32-14.18,10.47,1.76-4.3,13.1s-3.58-5.39-5.61-3.51,1.85,4.2,4.76,4.75"/>
        <line class="cls-5" x1="465" y1="56.12" x2="475.23" y2="57.71"/>
      </g>
      <g>
        <path class="cls-5" d="M285.4,356.03s-.99-.68-2.47-1.71c-1.48-1.02-3.01-4.63-.75-5.26s4.07,5.74,4.07,5.74l4.32-14.18,10.47,1.76-4.3,13.1s-3.58-5.39-5.61-3.51,1.85,4.2,4.76,4.75"/>
        <line class="cls-5" x1="289.61" y1="343.6" x2="299.83" y2="345.18"/>
      </g>
      <g>
        <path class="cls-5" d="M202.92,128.73s-.85-.59-2.13-1.47c-1.28-.88-2.59-3.98-.64-4.53,1.94-.54,3.5,4.93,3.5,4.93l3.71-12.2,9.01,1.51-3.7,11.26s-3.08-4.64-4.82-3.02c-1.75,1.62,1.59,3.61,4.09,4.08"/>
        <line class="cls-5" x1="206.53" y1="118.04" x2="215.33" y2="119.4"/>
      </g>
      <g>
        <path class="cls-4" d="M435,339.84s12.23,3.93,14.75-3.15c2.14-6.02-6.13-4.23-6.13-4.23,0,0,6.22-2.74,3.36-7.95-2.86-5.21-8.24,.05-8.24,.05,0,0,3.05-6.29-2.7-6.39-5.75-.09-7.11,19.65-7.11,19.65l6.07,2.02h0Z"/>
        <path class="cls-5" d="M407.15,352.51c13.51-5.53,21.78-14.69,21.78-14.69l13.5-10.35"/>
        <path class="cls-9" d="M419.66,345.63s3.29-2.9,3.69-9.08c.4-6.19-.85-10.93-.85-10.93,0,0-4.64,3.91-5.88,7.57-1.24,3.67,3.04,12.44,3.04,12.44h0Z"/>
        <path class="cls-9" d="M415.93,348.23s3.7-.68,7.64,2.04,8.31,5.74,8.31,5.74c0,0-16.24,1.06-15.95-7.78Z"/>
        <polyline class="cls-5" points="435.23 325.84 429.4 337.09 440.5 336.7"/>
      </g>
      <g>
        <path class="cls-4" d="M142.36,176.36s-.82-11.01-7.28-10.73c-5.48,.24-1.39,6.25-1.39,6.25,0,0-4.2-4.07-7.42-.1s2.71,6.55,2.71,6.55c0,0-6-.4-4.21,4.22,1.79,4.61,17.95-.69,17.95-.69l-.35-5.49h-.01Z"/>
        <path class="cls-5" d="M161.46,194.44c-8.78-8.98-18.75-12.6-18.75-12.6l-12.61-7.4"/>
        <path class="cls-9" d="M151.94,186.7s-3.37-1.69-8.43,0-8.43,4.22-8.43,4.22c0,0,4.61,2.43,7.93,2.23,3.32-.2,8.93-6.45,8.93-6.45Z"/>
        <path class="cls-9" d="M155.21,188.84s-1.74-2.73-.84-6.74c.89-4.02,1.88-8.48,1.88-8.48,0,0,6.1,12.6-1.04,15.22h0Z"/>
        <polyline class="cls-5" points="131.13 180.7 141.97 181.71 138.07 172.99"/>
      </g>
      <g>
        <path class="cls-4" d="M52.47,380.27s10.37,3.8,12.78-2.2c2.05-5.09-5.12-3.85-5.12-3.85,0,0,5.44-2.14,3.16-6.72-2.28-4.57-7.08-.24-7.08-.24,0,0,2.84-5.3-2.1-5.58s-6.79,16.63-6.79,16.63l5.14,1.95h.01Z"/>
        <path class="cls-5" d="M28.11,390.19c11.8-4.28,19.22-11.86,19.22-11.86l11.95-8.42"/>
        <path class="cls-9" d="M39.09,384.72s2.93-2.37,3.48-7.68c.56-5.3-.35-9.42-.35-9.42,0,0-4.12,3.2-5.31,6.3-1.19,3.11,2.18,10.79,2.18,10.79h0Z"/>
        <path class="cls-9" d="M35.8,386.82s3.2-.45,6.49,2.02,6.94,5.22,6.94,5.22c0,0-13.99,.35-13.43-7.24Z"/>
        <polyline class="cls-5" points="53.15 368.25 47.76 377.71 57.31 377.76"/>
      </g>
      <path class="cls-2" d="M229.94,231.13c1.3-.33,2.46-.73,3.1-.96,5.15-1.89,9.88-5.06,9.92-11.15,.06-10.33-18.63,6.1-19.62,9.4-1.2,4.02,3.2,3.59,6.6,2.72h0Z"/>
      <path class="cls-2" d="M250.4,152.09c1.25-.51,2.34-1.06,2.94-1.38,4.84-2.58,9.09-6.37,8.28-12.42-1.37-10.24-17.61,8.61-18.13,12.02-.63,4.15,3.67,3.11,6.91,1.78Z"/>
      <path class="cls-2" d="M170.73,243.06c-.84-.2-1.62-.32-2.05-.38-3.5-.48-7.15-.1-9,3.36-3.14,5.86,12.44,2.14,14,.55,1.89-1.93-.74-3-2.94-3.53h0Z"/>
      <path class="cls-2" d="M365.81,230.9c-1.48-.49-2.87-.83-3.64-1.01-6.22-1.4-12.85-1.28-16.72,4.66-6.56,10.07,22.06,5.77,25.1,3.16,3.7-3.18-.87-5.52-4.74-6.81h0Z"/>
      <path class="cls-2" d="M307.73,272.53c-1.12-.75-2.18-1.35-2.78-1.67-4.83-2.59-10.35-4.02-14.92,.01-7.75,6.83,16.95,9.86,20.07,8.39,3.8-1.78,.55-4.78-2.36-6.73h-.01Z"/>
      <path class="cls-2" d="M235.51,209.43c.64-.16,1.2-.36,1.51-.47,2.51-.92,4.82-2.47,4.84-5.44,.03-5.04-9.09,2.98-9.57,4.59-.58,1.96,1.56,1.75,3.22,1.33h0Z"/>
      <path class="cls-2" d="M202.27,146.95c.52-.4,.97-.79,1.21-1.02,1.96-1.82,3.5-4.14,2.37-6.89-1.92-4.66-7.25,6.25-7.07,7.92,.22,2.04,2.12,1.01,3.48-.02h.01Z"/>
      <path class="cls-2" d="M252.76,229.22c.64-.16,1.2-.36,1.51-.47,2.51-.92,4.82-2.47,4.84-5.44,.03-5.04-9.1,2.98-9.58,4.59-.58,1.96,1.56,1.75,3.22,1.33h.01Z"/>
      <path class="cls-2" d="M165.87,123.04c.31-.58,.55-1.13,.68-1.43,1.02-2.47,1.45-5.22-.73-7.25-3.69-3.44-3.97,8.71-3.11,10.15,1.05,1.76,2.35,.04,3.16-1.47Z"/>
      <path class="cls-2" d="M137.07,204.55c.05-.66,.05-1.25,.04-1.58-.07-2.68-.79-5.36-3.61-6.33-4.77-1.64-.09,9.57,1.28,10.54,1.67,1.18,2.16-.92,2.29-2.63h0Z"/>
      <path class="cls-2" d="M269.79,150.43c.61-.25,1.14-.52,1.43-.68,2.36-1.26,4.44-3.11,4.04-6.06-.67-5-8.6,4.2-8.85,5.87-.31,2.03,1.79,1.52,3.37,.87h.01Z"/>
      <path class="cls-2" d="M380.43,21.81c-.62-.21-1.2-.35-1.53-.42-2.61-.59-5.39-.54-7.02,1.95-2.76,4.22,9.26,2.43,10.53,1.33,1.55-1.33-.36-2.32-1.99-2.86h0Z"/>
      <path class="cls-2" d="M420.42,144.1c-.62-.21-1.2-.35-1.53-.42-2.61-.59-5.39-.54-7.02,1.95-2.76,4.22,9.26,2.43,10.53,1.33,1.55-1.33-.36-2.32-1.99-2.86h0Z"/>
      <path class="cls-2" d="M228.41,290.81c-.63-.17-1.22-.28-1.55-.34-2.64-.44-5.41-.24-6.9,2.34-2.51,4.37,9.38,1.9,10.59,.74,1.48-1.42-.49-2.29-2.15-2.74h0Z"/>
      <path class="cls-2" d="M373.1,206.25c-.72-.26-1.39-.44-1.77-.53-3.02-.75-6.26-.76-8.21,2.1-3.3,4.85,10.71,3.04,12.22,1.8,1.84-1.51-.37-2.7-2.25-3.37h0Z"/>
      <path class="cls-2" d="M331.19,151.45c-.76,.11-1.43,.26-1.81,.36-3.02,.75-5.89,2.26-6.27,5.69-.66,5.83,10.89-2.31,11.64-4.12,.92-2.2-1.59-2.22-3.56-1.93h0Z"/>
      <path class="cls-2" d="M379.95,96.45c-.76,.11-1.43,.26-1.81,.36-3.02,.75-5.89,2.26-6.27,5.69-.66,5.83,10.89-2.31,11.64-4.12,.92-2.2-1.59-2.22-3.56-1.93h0Z"/>
      <path class="cls-2" d="M125.57,224.12c-.18,.63-.3,1.22-.36,1.54-.48,2.63-.33,5.41,2.23,6.94,4.33,2.59,2.06-9.35,.91-10.58-1.39-1.5-2.3,.46-2.78,2.1Z"/>
      <path class="cls-2" d="M396.99,223.62c-.61-.46-1.2-.83-1.52-1.03-2.66-1.62-5.74-2.6-8.46-.46-4.61,3.63,9.3,6.11,11.12,5.38,2.21-.89,.46-2.69-1.13-3.89h-.01Z"/>
    </g>
  </g>
</svg>