<?xml version="1.0" encoding="UTF-8"?>
<svg id="Layer_2" data-name="Layer 2" xmlns="http://www.w3.org/2000/svg" viewBox="0 0 1915.7 825.54">
  <defs>
    <style>
      .cls-1 {
        fill: #77a4e5;
      }

      .cls-2 {
        fill: #c6601a;
      }

      .cls-3 {
        fill: #afcdfb;
      }

      .cls-4 {
        fill: #6a9ad3;
      }

      .cls-5 {
        fill: #f99746;
      }

      .cls-6 {
        fill: #e78b37;
      }

      .cls-7 {
        fill: #1c468a;
      }

      .cls-8 {
        fill: #f4a269;
      }

      .cls-9 {
        fill: #9fc1f4;
      }

      .cls-10 {
        fill: #f1a34f;
      }

      .cls-11 {
        fill: #2e3552;
      }

      .cls-12 {
        fill: #bdd8ff;
      }

      .cls-13 {
        fill: #d3671e;
      }

      .cls-14 {
        fill: #c3dafc;
      }

      .cls-15 {
        fill: #b5453c;
      }

      .cls-16 {
        fill: #ed985f;
      }

      .cls-17 {
        fill: #b25618;
      }

      .cls-18 {
        fill: #ed7d2b;
      }

      .cls-19 {
        fill: #5588bc;
      }

      .cls-20 {
        fill: #ffb27d;
      }

      .cls-21 {
        fill: #233862;
      }

      .cls-22 {
        fill: #d2e4ff;
      }

      .cls-23 {
        fill: #163560;
      }

      .cls-24 {
        fill: #2b478b;
      }

      .cls-25 {
        fill: #ebf3fa;
      }
    </style>
  </defs>
  <g id="_Layer_" data-name="&amp;lt;Layer&amp;gt;">
    <g>
      <path class="cls-22" d="M1840.58,706.52c.05,9.66-.48,19.3-1.61,28.83-1.88,15.89-5.42,31.47-10.73,46.4-3.73,10.52-8.33,20.71-13.84,30.44-1.58,2.8-3.25,5.56-4.98,8.27H132S-20.77,470.61,187.36,301.23c2.6-2.11,5.21-4.19,7.83-6.23,2.42-1.86,4.84-3.7,7.28-5.5,2.36-1.76,4.75-3.47,7.13-5.16,62.73-44.31,131.42-66.23,203.48-79.81,2.54-.48,5.08-.95,7.63-1.41,2.42-.44,4.84-.87,7.26-1.29,58.42-10.07,118.9-15.38,180.1-23.25,21.3-2.75,42.69-5.8,64.11-9.48,85.71-14.71,171.88-39.4,254.84-93.94,26.2-17.22,52.6-31.15,78.9-42.13,1.81-.75,3.62-1.5,5.43-2.23,1.78-.71,3.54-1.41,5.32-2.1C1068.73,8.57,1120.17-.14,1168.53,0c1.9,0,3.8,.02,5.7,.05,1.81,.03,3.62,.08,5.41,.14,15.35,.47,30.36,1.85,44.96,4.02,6.11,.91,12.15,1.95,18.09,3.14,8.75,1.74,17.32,3.77,25.7,6.07,107.71,29.56,183.96,103.8,188.33,180.57,2.95,51.75,9.09,101.47,22.68,144.61,6.3,19.97,14.2,38.54,24.12,55.24,2.7,4.56,5.55,8.96,8.55,13.22,29.67,42.01,74.74,69.7,143.44,74.3,47.75,3.21,87.98,24.6,118.6,56.26,.28,.3,.57,.59,.86,.89,41.7,43.64,65.35,106.42,65.62,168.01Z"/>
      <path class="cls-14" d="M947.19,600.67c-1.82-13.69-22.99-18.2-27.77-21.64-2.86-2.06-9.5-11.15-14.11-17.77,.66-.45,1.03-.72,1.03-.72-13.41-41.22-24.46-74.97-33.57-102.61,1.08-2.08,2.11-5.24,2.94-10,3.29-19-13.27-26.21-13.27-26.21-.08-.05-.17-.1-.26-.14,9.87-83.07-13.88-88.71-13.88-88.71,0,0-8.56-2.92-18.85-1.58-3.5-8.44-10.51-13.62-22.08-14.28-3.48-.2-7.27,.57-11.33,2.17,.54-.95,1.07-1.9,1.59-2.86,2.41-1.67,22.71-16.27,20.96-33.84-.35-3.48-1.08-6.11-2.06-8.09-.28-1.42-.64-2.76-1.05-4,1.8-8.83,1.91-16-.14-20.1-3.74-7.49-10.73-12.72-16-15.81,2.21-.47,5.1,.76,5.1,.76-2.83-2.57-11.93-4.16-11.93-4.16-32.41-46.12-82.4,13.61-91.5,29.18-9.11,15.56-20.53,32.84-51.32,31.62-60.6-2.39-64.45,58.56-52.05,89.77,.17,.44,29.88,53.05,29.88,53.05,.56-1.03,1.49-2.33,2.74-3.85-2.04,21.95-3,39.94-6.37,44.99-7.05,10.57-40.32,73.52-11.54,102.91-22.71-7.46-54.82,20.44-58.7,23.92h-.39v217.79h270.24s135.12,0,135.12,0v-217.79c-3.39-.67-7.22-1.34-11.42-2Zm-181.49-38.24c2.72-4.09,12.7-22.75,24.94-47.75-.36,25.1-.52,43.29-.52,43.29-.38,3.53,.89,6.17,3.17,8.13-1.4,3.21-3.14,6.32-4.5,9.35-1.52,3.38-2.17,7.17-2.39,10.53-22.85-1.07-40.19-1.28-45.89-.22-1,.19-2.18,.37-3.48,.56,13.59-6.43,23.05-15.42,28.67-23.89Zm93.5,28.45c-5.1-9.3-22.48-8.47-26.48-11.84-3.05-2.58-5.1-5.28-6.46-7.93,1.22-.11,1.93-.19,1.93-.19,5.2-17.38,9.71-33.49,13.62-48.43,14.92,25.09,27.26,43.61,27.26,43.61,1.52,3.7,4.22,5.47,7.51,5.98-.2,1.09-.54,2.21-1.06,3.38-2.59,5.73-2.64,12.69-2.4,16.64-4.61-.42-9.26-.82-13.91-1.21Z"/>
      <path class="cls-25" d="M1840.58,706.52c-.07,9.66-.6,19.3-1.61,28.83-1.48,13.85-3.99,27.5-7.59,40.74-.96,3.58-2.01,7.14-3.14,10.66-3.73,11.66-8.33,22.93-13.84,33.71h-571.71V7.34c8.75,1.74,17.32,3.77,25.7,6.07,10.23,2.81,20.18,6.02,29.81,9.6,59.63,22.16,107.04,58.39,134.02,100.12,14.52,22.47,23.12,46.53,24.5,70.85,2.95,51.75,9.09,101.47,22.68,144.61,6.3,19.97,14.2,38.54,24.12,55.24,2.7,4.56,5.55,8.96,8.55,13.22,29.67,42.01,74.74,69.7,143.44,74.3,47.75,3.21,87.98,24.6,118.6,56.26,.28,.3,.57,.59,.86,.89,41.7,43.64,65.35,106.42,65.62,168.01Z"/>
      <path class="cls-11" d="M2.04,820.46H1913.66c1.13,0,2.04,.92,2.04,2.04v1c0,1.13-.91,2.04-2.04,2.04H2.04c-1.13,0-2.04-.91-2.04-2.04v-1c0-1.13,.92-2.04,2.04-2.04Z"/>
      <g>
        <path class="cls-21" d="M1175.27,568.89l-84.64-6.64s-2.03-12.9,2.39-22.69c4.24-9.39-1.59-16.18-7.39-27.37,5.38,5.54,23.9,4.72,36.14,3.08,1.5,2.43,16.59,24.8,21.6,28.4,5.53,3.97,30.2,9.2,31.9,25.21Z"/>
        <path class="cls-21" d="M1075.86,562.25h-84.64s-2.03-12.9,2.39-22.69c4.24-9.39,11.62-19.47,5.82-30.65,5.38,5.54,22.37,4.93,34.6,3.29,1.5,2.43-5.66,18.31,9.93,31.48,5.2,4.39,30.2,2.56,31.9,18.58Z"/>
        <path class="cls-23" d="M1061.82,261.46s-40.3-13.75-55.78,27.2c-73.81,59.79-179.38,212.5-188.29,223.17-17.84,21.38-4.06,51.14,68.91,50.43,42.66-.42,68.77-20,80.47-37.61,3.12-4.69,14.57-26.09,28.59-54.74-.42,28.78-.59,49.63-.59,49.63-2.19,20.4,43.63,14.82,43.63,14.82,77.7-259.92,23.05-272.9,23.05-272.9Z"/>
        <path class="cls-15" d="M1024.03,166.8c-4.29-8.58-12.3-14.58-18.34-18.12,2.53-.54,5.85,.87,5.85,.87-3.24-2.95-13.67-4.76-13.67-4.76-37.16-52.88-94.47,15.61-104.9,33.45-10.44,17.83-23.53,37.65-58.84,36.26-69.47-2.74-69.38,65.66-59.68,102.92,5.13,19.7,36.28,65.75,36.28,65.75,8.02-14.69,78.11-82,126.11-81.54,16.12-6.51,33.15-25.68,34.48-27.2-12.62,15.8-21.77,23.26-27.87,26.83,45.64-7.06,91.95-111.7,80.58-134.45Z"/>
        <path class="cls-8" d="M939.71,301.59c.13,.18-6.27,23.87-25.52,13.48-12.63-6.82-32.91-35.93-25.09-45.79,3.71-4.69,20.07-13.59,37.1-43.75l2.05,1.77,34.38,29.74s-7.83,11.69-14.39,23.16c-5.52,9.63-10.14,19.11-8.52,21.4Z"/>
        <path class="cls-15" d="M926.98,219.84s.64-24.44,7.87-40.86c5.16-11.72,36.52-46.98,71.8-15.24,0,0,10.59,8.71,16.42,23.05,4.64,11.4,8.59,31.95-27.8,56.68l-11.22,9.07-57.06-32.69Z"/>
        <path class="cls-5" d="M880.77,256.37s12.63,2.41,17.97-4.75c5.34-7.16,16.97-22.29,19.68-13.61,2.71,8.69,28.36,33.94,34.29,34.61,5.93,.66,10.09,2.32,6.73,5.4-3.35,3.08-1.96,15.38-5.31,16.5-3.36,1.12-65.63-38.83-73.36-38.15Z"/>
        <path class="cls-20" d="M960.18,273.63s-49.58-32.06-29.14-62.63c20.44-30.57,27.8-55.29,60.32-36.12,32.52,19.17,30.81,34.91,26.47,46.77-4.34,11.86-44.23,59.52-57.65,51.97Z"/>
        <path class="cls-5" d="M962.62,298.43s-83.96-61.87-113.35-38.57c-43.34,34.37-34.67,150.41-44.74,165.51-10.07,15.1-66.79,123.37,25.46,134.39,92.26,11.01,113.51-47.15,117.7-90.77,4.19-43.62,14.92-170.57,14.92-170.57Z"/>
        <path class="cls-18" d="M852.15,297.65s-24.18,133.65,23.74,170.17c47.91,36.51,72.03-174.3-23.74-170.17Z"/>
        <path class="cls-18" d="M900.37,276.29s.92-15.62,14.7-9.65,39.27,14.93,49.14,11.25c9.88-3.67-15.88,45.7-39.4,29.17-23.52-16.54-24.44-30.77-24.44-30.77Z"/>
        <path class="cls-15" d="M1014.2,189.11s-37.45,26.84-61.6,18.33c-24.16-8.51-29.4-20.02-29.4-20.02,0,0,24.22-1.96,42.19-21.68,0,0,50.11-.47,48.81,23.38Z"/>
        <path class="cls-20" d="M1078.03,363.33s18.99,8.27,15.21,30.05c-3.77,21.79-11.32,14.49-11.32,14.49l-3.89-44.54Z"/>
        <path class="cls-15" d="M1008.92,189.79s4.67,14.72,1.9,24.14c-2.77,9.42-12.4,26.17-7.37,28.75,0,0,26.44-17.58,24.31-38.98-2.26-22.69-18.84-13.91-18.84-13.91Z"/>
        <path class="cls-7" d="M1040.91,261.46s0,.01,0,.01c-3.74-10.75-11.93-17.4-26.01-18.2-61.54-3.48-209.49,255.12-220.7,268.56-17.84,21.38-4.06,51.14,68.91,50.43,42.66-.42,59.49-20.84,71.18-38.45,5.35-8.06,44.15-69.69,73.97-133.14,25,59.56,77.38,138.18,77.38,138.18,7.78,18.98,42.74-6.35,42.74-6.35-83.78-257.59-87.47-261.03-87.47-261.03Z"/>
        <path class="cls-16" d="M845.2,269.31s-22.12,34.16,46.66,65.5c68.78,31.34,76.87,38.99,90.29,41.79,20.9,4.36,101.17,3.75,101.17,3.75,0,0,2.11-12.73-5.29-17.03-11.84-6.88-80.21-18.06-89.43-21.75-9.22-3.69-107.45-109.28-143.4-72.27Z"/>
        <path class="cls-5" d="M864.72,254.67s35.13,1.42,108.41,68.93c0,0,11.22,13.62,16.79,14.53,5.58,.91,20.69,4.88,21.02,8.73,.33,3.85-18.61,52.07-42.72,53.45-24.11,1.38-140.25-84.52-132.32-112.43,7.92-27.9,28.82-33.21,28.82-33.21Z"/>
      </g>
      <g>
        <rect class="cls-2" x="723.57" y="570.78" width="309.82" height="249.69"/>
        <rect class="cls-10" x="907.98" y="570.78" width="280.31" height="249.68"/>
        <g>
          <path class="cls-13" d="M954.66,618.8c0-2.74,2.3-4.97,5.14-4.97s5.14,2.22,5.14,4.97-2.3,4.97-5.14,4.97-5.14-2.22-5.14-4.97Z"/>
          <path class="cls-13" d="M1143.19,618.8c0-2.74,2.3-4.97,5.14-4.97s5.14,2.22,5.14,4.97-2.3,4.97-5.14,4.97-5.14-2.22-5.14-4.97Z"/>
          <path class="cls-13" d="M954.66,776.09c0-2.74,2.3-4.97,5.14-4.97s5.14,2.22,5.14,4.97-2.3,4.97-5.14,4.97-5.14-2.22-5.14-4.97Z"/>
          <path class="cls-13" d="M1143.19,776.09c0-2.74,2.3-4.97,5.14-4.97s5.14,2.22,5.14,4.97-2.3,4.97-5.14,4.97-5.14-2.22-5.14-4.97Z"/>
        </g>
        <g>
          <path class="cls-17" d="M752.74,618.8c0-2.74,1.42-4.97,3.18-4.97s3.18,2.22,3.18,4.97-1.42,4.97-3.18,4.97-3.18-2.22-3.18-4.97Z"/>
          <path class="cls-17" d="M869.52,618.8c0-2.74,1.43-4.97,3.18-4.97s3.18,2.22,3.18,4.97-1.43,4.97-3.18,4.97-3.18-2.22-3.18-4.97Z"/>
          <path class="cls-17" d="M752.74,776.09c0-2.74,1.42-4.97,3.18-4.97s3.18,2.22,3.18,4.97-1.42,4.97-3.18,4.97-3.18-2.22-3.18-4.97Z"/>
          <path class="cls-17" d="M869.52,776.09c0-2.74,1.43-4.97,3.18-4.97s3.18,2.22,3.18,4.97-1.43,4.97-3.18,4.97-3.18-2.22-3.18-4.97Z"/>
        </g>
        <path class="cls-13" d="M723.57,571.18s42.1-38.89,69.88-27.03c36.56,15.61,123.01,11.26,144.82,7.23,21.81-4.03,192.19,8,250.03,19.39l-464.73,.4Z"/>
        <path class="cls-6" d="M1188.29,754.96v65.5h-280.31v-249.68h47.03l.92,.4s25.17,169.37,232.36,183.79Z"/>
      </g>
      <g>
        <path class="cls-12" d="M420.71,203.14v174.97H202.47v-88.6c-2.43,1.8-4.86,3.63-7.27,5.5v90.37h232.78V201.86c-2.43,.42-4.85,.84-7.27,1.29Z"/>
        <path class="cls-12" d="M413.08,204.54v165.89H209.6v-86.09c62.73-44.31,131.43-66.22,203.48-79.81Z"/>
      </g>
      <g>
        <path class="cls-12" d="M1174.23,.05V81.5h-162.87V30.83c-1.82,.72-3.62,1.47-5.43,2.23v53.86h173.72V.19c-1.8-.06-3.61-.1-5.41-.14Z"/>
        <path class="cls-12" d="M1168.53,0V75.77h-151.86V28.74C1068.73,8.57,1120.17-.14,1168.53,0Z"/>
      </g>
      <path class="cls-9" d="M1775.56,795.44s33.28-177.17-9.61-180.62c-42.88-3.45,9.61,180.62,9.61,180.62Z"/>
      <path class="cls-9" d="M1769.68,799.6s-62.71-114.48-98.47-110.26c-35.75,4.22,98.47,110.26,98.47,110.26Z"/>
      <path class="cls-14" d="M503.03,468.83c-8.92-35.78-64.5-24.6-64.5-24.6,0,0-37.74,62.61-48.72,64.1-10.98,1.49,22.64-60.37,22.64-60.37-21.27-2.24-75.48,26.09-75.48,26.09,0,0,3.43,73.04-7.55,71.55-10.98-1.49,0-64.84,0-64.84-20.59,6.71-39.8,32.79-39.8,32.79-24.02,42.48,27.45,73.79,27.45,73.79,0,0,.69,25.34-13.72,54.41,0,0-18.11,29.88-12.31,68.53h-15.94c3.05-27.81-9.73-48.91-9.73-48.91-10.93-22.05-10.41-41.27-10.41-41.27,0,0,39.04-23.75,20.82-55.98,0,0-14.58-19.79-30.19-24.88,0,0,8.33,48.06,0,49.19-8.33,1.13-5.73-54.28-5.73-54.28,0,0-41.12-21.49-57.26-19.79,0,0,25.51,46.93,17.18,45.8-8.33-1.13-36.96-48.63-36.96-48.63,0,0-42.16-8.48-48.93,18.66-6.77,27.14,4.16,40.71,10.41,42.41,6.25,1.7,46.33,1.13,45.29,6.78-1.04,5.65-28.11,14.7-43.21,9.61,0,0,16.66,44.67,38.52,42.41,21.86-2.26,28.63-16.96,42.16-18.09,13.53-1.13,23.42,2.83,16.66,6.79-6.77,3.96-29.67,1.3-40.6,11.39-10.93,10.09-19.78,16.31,.52,20.84,20.3,4.52,56.74,1.7,64.03-15.27,.32-.74,.62-1.44,.91-2.12-.44,1.4-.91,2.12-.91,2.12,3.75,2.37,9.36,13.69,13.26,22.37,.55,1.48,1.43,3.52,2.74,6.3h0c.53,1.26,.95,2.28,1.24,3,4.5,12.22,4.67,30.01,4.18,41.56h-57.88v3.36h3.37c1.13,40.83,22.84,76.03,54.24,93.8h-39.02c-6.62,0-11.99,5.83-11.99,13.03h194.57c0-7.2-5.37-13.03-11.99-13.03h-38.53c31.4-17.77,53.11-52.98,54.24-93.8h2.34v-3.36h-107.44c2.44-5.82,5.42-11.53,8.9-15.74,.42-.48,1.04-1.16,1.79-1.99,1.76-1.77,2.99-3.1,3.82-4.09,5.41-5.64,12.89-12.84,16.49-13.54,0,0-.18-.72-.15-1.96,.05,.63,.1,1.28,.15,1.96,1.23,15.72,29.31,29.45,46.58,32.27,17.27,2.82,11.93-4.89,5.98-16.32-5.95-11.43-24.79-16.55-29.08-21.82-4.3-5.27,4.59-5.28,14.99-.12,10.41,5.16,11.83,18.93,28.52,27.61,16.7,8.69,41.81-21.4,41.81-21.4-13.3-.74-32.3-16.43-31.62-21.23,.69-4.8,32.25,8.29,37.65,8.91,5.4,.63,17.67-6.66,19.57-30.27,1.9-23.61-33.73-30.19-33.73-30.19,0,0-8.21,6.63-17.49,13.31-1.83-2.58-4.81-5.43-8.28-8.62,3.07-2.94,5.82-5.48,7.53-7.04,3.42,1.01,7.17,1.8,11.34,2.23,28.82,2.98,50.78-55.9,50.78-55.9-19.9,6.71-55.58-5.22-56.95-12.67-1.37-7.45,51.46-6.71,59.7-8.94,8.23-2.24,22.64-20.12,13.72-55.9Zm-146.38,168.27c-1.64-.92-1.53-4-.47-8.05,2.27,.56,4.61,1.04,6.99,1.46-2.4,4.68-4.72,7.6-6.51,6.6Zm-35.15,51.47s-9.45,7.6-16.04,21.7h-6.82c-.84-14.8-1.17-41.22,5.31-58.83,.39-.94,.94-2.3,1.64-3.95,1.72-3.66,2.88-6.35,3.61-8.3,5.14-11.45,12.54-26.36,17.48-29.49,0,0-.62-.95-1.2-2.8,.38,.9,.78,1.82,1.2,2.8,1.22,2.85,3.08,5.4,5.43,7.66-9.38,18.97,8.66,41.84,8.66,41.84,0,0-4.73,15.37-19.27,29.38Zm75.79-93.84c-14.75-4.42-32.55-3.59-39.05-7.4-8.92-5.22,4.12-10.43,21.96-8.94,12,1,19.97,10.09,32.67,16.85-4.95-.47-10.4-.58-15.58-.51Z"/>
      <g>
        <path class="cls-22" d="M1578.31,679.82c-1.25,2.13-.83,4.7,.94,5.73s4.21,.14,5.46-1.99c1.25-2.13,2.01-10.75,2.01-10.75,0,0-7.15,4.88-8.4,7.01Z"/>
        <path class="cls-22" d="M1517.16,640.98c-1.25,2.13-.83,4.7,.94,5.73,1.77,1.04,4.21,.15,5.46-1.99,1.25-2.13,2.01-10.75,2.01-10.75,0,0-7.15,4.88-8.4,7.01Z"/>
        <path class="cls-22" d="M1507.96,711.07c-1.25,2.13-.83,4.7,.94,5.73,1.77,1.03,4.21,.14,5.46-1.99,1.25-2.13,2.01-10.75,2.01-10.75,0,0-7.15,4.88-8.4,7.01Z"/>
        <path class="cls-22" d="M1679.8,584.39c-1.43,2.45-.95,5.39,1.07,6.57,2.03,1.19,4.83,.17,6.26-2.28,1.43-2.44,2.3-12.34,2.3-12.34,0,0-8.2,5.6-9.64,8.04Z"/>
        <path class="cls-22" d="M1674.57,644.25c-1.43,2.44-.95,5.39,1.08,6.58,2.03,1.19,4.83,.17,6.26-2.28,1.43-2.45,2.3-12.34,2.3-12.34,0,0-8.21,5.6-9.64,8.04Z"/>
        <path class="cls-22" d="M1596.63,593.28c-1.43,2.44-.95,5.39,1.07,6.57,2.03,1.19,4.83,.17,6.26-2.28,1.43-2.45,2.3-12.34,2.3-12.34,0,0-8.2,5.6-9.64,8.04Z"/>
        <path class="cls-22" d="M1516,557.09c-1.62,2.77-1.08,6.1,1.22,7.45,2.29,1.34,5.47,.19,7.09-2.58,1.62-2.77,2.61-13.98,2.61-13.98,0,0-9.3,6.34-10.92,9.11Z"/>
        <path class="cls-22" d="M1392.71,547.69c-1.62,2.77-1.08,6.1,1.22,7.45,2.29,1.34,5.47,.19,7.09-2.58,1.62-2.77,2.61-13.98,2.61-13.98,0,0-9.3,6.34-10.92,9.11Z"/>
        <path class="cls-22" d="M1476.15,475.58c-1.62,2.77-1.08,6.1,1.22,7.45,2.29,1.34,5.47,.19,7.09-2.58,1.62-2.77,2.61-13.98,2.61-13.98,0,0-9.29,6.34-10.92,9.11Z"/>
        <path class="cls-22" d="M1407.77,459.66c-1.27,2.17-.84,4.79,.96,5.85,1.8,1.05,4.29,.15,5.56-2.03,1.27-2.17,2.05-10.97,2.05-10.97,0,0-7.29,4.98-8.57,7.15Z"/>
        <path class="cls-22" d="M1413.81,407.47c-1.27,2.17-.85,4.79,.95,5.85,1.8,1.05,4.29,.15,5.57-2.03,1.27-2.17,2.05-10.97,2.05-10.97,0,0-7.29,4.98-8.57,7.15Z"/>
        <path class="cls-22" d="M1355.37,482.18c-1.27,2.17-.85,4.79,.96,5.85s4.29,.15,5.57-2.03c1.27-2.17,2.05-10.97,2.05-10.97,0,0-7.29,4.98-8.57,7.15Z"/>
        <path class="cls-22" d="M1414.35,302.2c1.88-3.21,3.03-16.21,3.03-16.21,0,0-10.78,7.36-12.66,10.57-1.88,3.21-1.25,7.08,1.41,8.64,2.66,1.56,6.34,.22,8.23-2.99Z"/>
        <path class="cls-22" d="M1354.87,220.81c-1.88,3.21-1.25,7.08,1.41,8.64,2.66,1.56,6.34,.22,8.23-2.99,1.88-3.21,3.03-16.21,3.03-16.21,0,0-10.78,7.36-12.66,10.57Z"/>
        <path class="cls-22" d="M1334.13,375.65c-1.88,3.21-1.25,7.08,1.41,8.64,2.66,1.56,6.34,.22,8.23-2.99,1.88-3.21,3.02-16.21,3.02-16.21,0,0-10.78,7.36-12.66,10.57Z"/>
      </g>
      <g>
        <g>
          <g>
            <path class="cls-4" d="M486.71,641.47s-29.59-34.52-1.82-56.45c0,0,20.28-12.28,36.82-11.28,0,0-23.43,39.29-15.85,43.2s22.95-45.67,22.95-45.67c0,0,46.15-4.47,61,2.66,0,0-39.45,32.29-31.14,34.21,8.31,1.92,50.92-29.77,50.92-29.77,0,0,42.95,7.31,40.66,33.51-2.29,26.2-17.09,34.29-23.6,33.6-6.51-.7-44.56-15.22-45.39-9.89-.83,5.33,22.08,22.75,38.12,23.56,0,0-30.28,33.4-50.41,23.76-20.13-9.64-21.84-24.92-34.39-30.65-12.55-5.73-23.26-5.72-18.08,.13,5.18,5.84,27.88,11.52,35.06,24.21s13.61,21.25-7.21,18.12c-20.82-3.13-54.67-18.37-56.16-35.82l-1.49-17.45Z"/>
            <g>
              <path class="cls-19" d="M629.13,612.6s-116.66-4.5-142.43,28.87c0,0-5.7,17.07-23.23,32.6l-2.73,7.45s20.22-21.32,27.45-22.6c0,0-11.31-41.34,140.94-46.32Z"/>
              <path class="cls-19" d="M463.47,674.07s-25.04,18.52-26.78,51.61l4.54,.41s8-34.21,22.45-47.59c14.46-13.38-.22-4.42-.22-4.42Z"/>
            </g>
          </g>
          <g>
            <path class="cls-1" d="M383.25,598.06s47.07-26.36,25.1-62.13c0,0-17.57-21.97-36.4-27.61,0,0,10.04,53.34,0,54.6-10.04,1.26-6.9-60.25-6.9-60.25,0,0-49.58-23.85-69.03-21.97,0,0,30.75,52.09,20.71,50.83-10.04-1.26-44.56-53.97-44.56-53.97,0,0-50.83-9.41-58.99,20.71-8.16,30.12,5.02,45.19,12.55,47.07,7.53,1.88,55.85,1.26,54.6,7.53-1.25,6.28-33.89,16.32-52.09,10.67,0,0,20.08,49.58,46.44,47.07,26.36-2.51,34.52-18.83,50.83-20.08,16.32-1.25,28.24,3.14,20.08,7.53-8.16,4.39-35.77,1.44-48.95,12.64-13.18,11.2-23.85,18.11,.63,23.13,24.47,5.02,68.41,1.88,77.19-16.94l8.79-18.83Z"/>
            <g>
              <path class="cls-4" d="M236.4,507.68s131.79,42.67,146.85,90.37c0,0-.63,21.34,12.55,45.81v9.41s-13.81-32.01-21.34-36.4c0,0,29.5-41.42-138.07-109.2Z"/>
              <path class="cls-4" d="M395.8,643.87s20.32,30.86,8.74,68.43l-5.23-1.41s5.08-41.38-5.56-62.19c-10.63-20.81,2.05-4.84,2.05-4.84Z"/>
            </g>
          </g>
          <g>
            <path class="cls-9" d="M458.13,561.7s-62.04-34.75-33.09-81.9c0,0,23.16-28.95,47.98-36.4,0,0-13.24,70.32,0,71.97,13.24,1.65,9.1-79.42,9.1-79.42,0,0,65.35-31.44,91-28.96,0,0-40.54,68.66-27.3,67.01s58.73-71.14,58.73-71.14c0,0,67.01-12.41,77.76,27.3,10.75,39.71-6.62,59.56-16.54,62.04-9.93,2.48-73.63,1.66-71.97,9.93,1.65,8.27,44.67,21.51,68.66,14.06,0,0-26.47,65.35-61.22,62.05-34.75-3.31-45.5-24.82-67.01-26.47-21.51-1.65-37.23,4.14-26.47,9.93,10.75,5.79,47.15,1.9,64.53,16.67,17.37,14.77,31.44,23.87-.83,30.49-32.26,6.62-90.17,2.48-101.75-22.34l-11.58-24.82Z"/>
            <g>
              <path class="cls-9" d="M651.71,442.58s-173.72,56.25-193.58,119.13c0,0,.83,28.13-16.54,60.39v12.41s18.2-42.19,28.13-47.98c0,0-38.88-54.6,182-143.94Z"/>
              <path class="cls-9" d="M441.59,622.09s-26.79,40.68-11.52,90.21l6.89-1.85s-6.69-54.55,7.33-81.98c14.02-27.43-2.7-6.37-2.7-6.37Z"/>
            </g>
          </g>
          <path class="cls-1" d="M456.04,819.69c67.12,0,121.54-54.41,121.54-121.53h-243.07c0,67.12,54.41,121.53,121.53,121.53Z"/>
          <path class="cls-3" d="M485.95,818.76c-4.94,.62-9.98,.93-15.1,.93-67.12,0-121.53-54.42-121.53-121.54h30.19c0,62.01,46.44,113.17,106.44,120.61Z"/>
          <rect class="cls-1" x="330.51" y="698.16" width="249.83" height="3.73"/>
        </g>
        <path class="cls-1" d="M573.04,820.46h-234.57c0-7.99,6.47-14.46,14.46-14.46h205.65c7.99,0,14.46,6.47,14.46,14.46h0Z"/>
      </g>
      <path class="cls-9" d="M1432.22,123.13c-15.38,5.17-28.22,11.55-35.77,19.37-33.73,34.94-98.25,30.44-98.25,30.44V23.02c59.63,22.16,107.04,58.39,134.02,100.12Z"/>
      <path class="cls-12" d="M1298.2,776.09V23.02c-9.63-3.58-19.58-6.79-29.81-9.6-8.38-2.31-16.95-4.33-25.7-6.07V820.46h571.71c5.51-10.78,10.11-22.06,13.84-33.71,1.13-3.52,2.18-7.08,3.14-10.66h-533.18Z"/>
      <g>
        <path class="cls-23" d="M1252.65,613.53s-53.94-7.64-57.07-16.35c0,0,3.75-7.87-2.17-9.93-1.59-.55-4.26-1.57-5.44-.06l.07,16.05s5.81,5.66,9.08,10.24c1.8,2.52,36.65,17.11,36.65,17.11l18.89-17.07Z"/>
        <path class="cls-23" d="M1363.79,731.29c5.11-7.39-.2-59.59-37.02-43.74-7.82,2.36-17.23,8.02-28.5,18.34,0,0-16.18,38.11,47.61,63.32,0,0,6.32,2.73,7.22,8.54,.9,5.81,1.91,32.04-.26,32.83-2.16,.79-5.37-2.21-7.7,1.09-2.33,3.31-1.51,8.77-1.51,8.77h23.18s11.08-58.87,10.46-63.55c-.62-4.68-19.54-16.86-13.47-25.62Z"/>
        <path class="cls-21" d="M1272.85,517.94s12.27,25.73,5.49,33.44l-19.06-15.31s-.09-7.58,13.57-18.13Z"/>
        <path class="cls-24" d="M1404.28,656.47c-5-9.07-12.5-24.24-2.61-30.43,8.44-5.28,5.2-16.28,.33-18.91-10.27-5.54-20.71,1.47-25.6,8.32-9.31,13.03,3.05,33.4,3.05,33.4,11.69,25.16-12.37,38.26-23.97,42.93-6.62-9.85-13.45-17.25-19.54-23.02-4-3.79-7.66-6.88-10.74-9.5-32.66-27.91-24.75-38.12-32.5-50.67-1.52-2.49-7.53-9.24-9.13-11.41-1.58-2.15-2.15-9.78-2.34-16.5,3.67-3.12,4.08-6.63,4.08-6.63,.35,1.42-.03,2.88-.03,2.88,3.8-3.09,2.94-10.2,2.94-10.2,.84,1.03,1.17,3.23,1.17,3.23,1.91-11.07-4.9-20.09-4.95-20.16,1.2-10.4-7.42-28.48-7.42-28.48,0,0,.62,13.41,1.92,20.24-2.14-2.23-4.69-4.13-7.61-5.58-6.81-3.38-16.12-6.57-25.97,3.1-2.24,2.19-8.86,3.97-11.99,3.57-1.72-.22-5.64,8.41-5.8,9.58-1.71,13.05,2.43,19.5,9.89,26.18,1.04,2.94,1.85,6.89,.01,9.55,0,0,1.57-.64,1.77-1.15-.13,.7-.98,4.8-3.23,6.64,0,0,1.01-.12,1.52-.36-1.96,2.48-9.39,12.76-9.29,25.42-15.64,.13-30.52-.83-31.96-4.84,0,0,3.37-6.6-2.17-9.92-1.44-.86-3.89-1.47-6.08-1.41l-.27,18.03s6.8,5.04,10.06,9.61c1.12,1.57,23.01,11.45,39.38,18.69,9.53,41.32,40.15,65.21,50.28,72.13,1.46,12.62,8.96,29.04,30.45,48.17,0,0,5,4.74,3.84,10.5-1.15,5.76-9.22,30.74-11.53,30.74s-9.99-3.33-13.32-1.02c-3.33,2.31,1.28,11.27,1.28,11.27h23.45s28.95-47.65,29.97-52.26c1.02-4.61-12.55-22.54-3.84-28.69,3.73-2.64,8.92-17.09,7.84-30.37,11.44-3.99,64.33-24.26,48.66-52.67Z"/>
        <path class="cls-24" d="M1263.46,539.44l19.07,15.31c1.09-1.25,1.68-2.96,1.92-4.96,1.2-10.39-7.42-28.48-7.42-28.48-13.66,10.55-13.57,18.14-13.57,18.14Z"/>
        <path class="cls-23" d="M1232.82,542.7s1.06-.74,2.19-.17c0,0-.29,4.34-4.54,4.61,0,0,1.22-3.76,2.35-4.44Z"/>
        <path class="cls-23" d="M1240.62,552.44c.16,.05,16.06,5.98,27.46,19.06h0c-11.59-13.32-27.12-19.53-27.29-19.58l-.17,.52Z"/>
        <path class="cls-23" d="M1239.14,553.56c.17,.11,16.84,11.45,26.28,29.76h0c-9.6-18.64-25.76-30.2-25.93-30.31l-.34,.55Z"/>
        <path class="cls-23" d="M1237.42,554.92c.12,.12,11.84,12.39,16.38,29.14h0c-4.62-17.04-15.88-29.41-16-29.53l-.38,.39Z"/>
      </g>
    </g>
  </g>
</svg>