<?xml version="1.0" encoding="UTF-8"?>
<svg id="Layer_1" data-name="Layer 1" xmlns="http://www.w3.org/2000/svg" viewBox="0 0 229.49 41.51" class="magneto-button--child">
  <path d="M14.19,32.11c-2.7,0-5.12-.5-7.26-1.49-2.14-1-3.84-2.34-5.07-4.05-1.24-1.7-1.86-3.63-1.86-5.79s.67-4.09,2.02-5.81c1.35-1.72,3.18-3.07,5.49-4.07,2.31-.99,4.91-1.49,7.79-1.49s5.47,.5,7.76,1.49c2.29,1,4.11,2.35,5.46,4.07,1.35,1.72,2.02,3.65,2.02,5.81h-2.16c0,2.15-.62,4.08-1.86,5.79-1.24,1.7-2.93,3.05-5.07,4.05-2.14,1-4.57,1.49-7.26,1.49Zm1.11-3.68c1.89,0,3.57-.33,5.05-1,1.48-.67,2.64-1.58,3.49-2.74,.85-1.16,1.28-2.46,1.28-3.91s-.43-2.79-1.28-3.95c-.85-1.16-2.02-2.07-3.49-2.74-1.48-.67-3.16-1-5.05-1s-3.52,.33-5.02,1c-1.5,.67-2.68,1.58-3.55,2.74-.87,1.16-1.3,2.47-1.3,3.95s.43,2.75,1.3,3.91c.87,1.16,2.05,2.07,3.55,2.74,1.5,.67,3.17,1,5.02,1Zm12.42,3.56c-.81,0-1.49-.2-2.02-.59-.54-.4-.8-.89-.8-1.49v-6.26l1.05-4.33,4.6,1.47v9.12c0,.6-.27,1.1-.8,1.49-.54,.4-1.21,.59-2.02,.59Z"/>
  <path d="M44.58,41.51c-.81,0-1.49-.2-2.02-.59-.54-.4-.8-.89-.8-1.49V20.78c.04-2.15,.72-4.09,2.05-5.81,1.33-1.72,3.14-3.07,5.43-4.07,2.29-.99,4.88-1.49,7.76-1.49s5.53,.5,7.82,1.49c2.29,1,4.11,2.35,5.46,4.07,1.35,1.72,2.02,3.65,2.02,5.81s-.62,4.08-1.86,5.79c-1.24,1.7-2.93,3.05-5.07,4.05-2.14,1-4.57,1.49-7.26,1.49-2.18,0-4.19-.33-6.02-1-1.83-.67-3.39-1.57-4.69-2.72v11.04c0,.6-.26,1.1-.78,1.49-.52,.39-1.2,.59-2.05,.59Zm12.42-13.09c1.89,0,3.57-.33,5.05-1,1.48-.67,2.65-1.58,3.52-2.74,.87-1.16,1.3-2.46,1.3-3.91s-.44-2.79-1.3-3.95c-.87-1.16-2.04-2.07-3.52-2.74-1.48-.67-3.16-1-5.05-1s-3.52,.33-5.02,1c-1.5,.67-2.67,1.58-3.52,2.74-.85,1.16-1.28,2.47-1.28,3.95s.42,2.75,1.28,3.91c.85,1.16,2.02,2.07,3.52,2.74,1.5,.67,3.17,1,5.02,1Z"/>
  <path d="M97.25,32.11c-2.99,0-5.64-.48-7.93-1.45-2.29-.97-4.09-2.3-5.41-4.01-1.31-1.7-1.97-3.66-1.97-5.87s.66-4.21,1.97-5.91c1.31-1.7,3.11-3.04,5.41-4.01,2.29-.97,4.93-1.45,7.93-1.45s5.58,.48,7.87,1.45c2.29,.97,4.09,2.3,5.41,4.01,1.31,1.7,1.97,3.67,1.97,5.91s-.65,4.17-1.94,5.87c-1.29,1.7-3.09,3.04-5.38,4.01-2.29,.97-4.93,1.45-7.93,1.45Zm0-3.68c1.92,0,3.62-.33,5.1-.98,1.48-.65,2.63-1.55,3.47-2.7,.83-1.15,1.25-2.47,1.25-3.97s-.42-2.83-1.25-3.99c-.83-1.16-1.99-2.07-3.47-2.72-1.48-.65-3.18-.98-5.1-.98s-3.62,.33-5.1,.98c-1.48,.65-2.64,1.56-3.49,2.72-.85,1.16-1.27,2.49-1.27,3.99s.42,2.82,1.27,3.97c.85,1.15,2.01,2.04,3.49,2.7,1.48,.65,3.18,.98,5.1,.98Z"/>
  <path d="M130.91,31.94c-1.63,0-3.07-.33-4.33-.98s-2.24-1.55-2.94-2.68-1.05-2.43-1.05-3.91V2.04c0-.6,.26-1.09,.78-1.47s1.18-.57,2-.57,1.48,.19,2,.57,.78,.87,.78,1.47V24.38c0,1.01,.26,1.84,.78,2.5,.52,.65,1.18,.98,2,.98h1.39c.74,0,1.34,.19,1.8,.57,.46,.38,.69,.87,.69,1.47s-.35,1.09-1.05,1.47c-.7,.38-1.61,.57-2.72,.57h-.11Z"/>
  <path d="M150.31,31.94c-1.63,0-3.07-.33-4.33-.98s-2.24-1.55-2.94-2.68-1.05-2.43-1.05-3.91V2.04c0-.6,.26-1.09,.78-1.47s1.18-.57,2-.57,1.48,.19,2,.57,.78,.87,.78,1.47V24.38c0,1.01,.26,1.84,.78,2.5,.52,.65,1.18,.98,2,.98h1.39c.74,0,1.34,.19,1.8,.57,.46,.38,.69,.87,.69,1.47s-.35,1.09-1.05,1.47c-.7,.38-1.61,.57-2.72,.57h-.11Z"/>
  <path d="M174.6,32.11c-2.99,0-5.64-.48-7.93-1.45s-4.09-2.3-5.41-4.01c-1.31-1.7-1.97-3.66-1.97-5.87s.66-4.21,1.97-5.91c1.31-1.7,3.11-3.04,5.41-4.01s4.94-1.45,7.93-1.45,5.58,.48,7.87,1.45c2.29,.97,4.09,2.3,5.41,4.01,1.31,1.7,1.97,3.67,1.97,5.91s-.65,4.17-1.94,5.87-3.09,3.04-5.38,4.01c-2.29,.97-4.93,1.45-7.93,1.45Zm0-3.68c1.92,0,3.62-.33,5.1-.98s2.63-1.55,3.47-2.7c.83-1.15,1.25-2.47,1.25-3.97s-.42-2.83-1.25-3.99c-.83-1.16-1.99-2.07-3.47-2.72s-3.18-.98-5.1-.98-3.62,.33-5.1,.98-2.64,1.56-3.49,2.72c-.85,1.16-1.28,2.49-1.28,3.99s.42,2.82,1.28,3.97c.85,1.15,2.01,2.04,3.49,2.7s3.18,.98,5.1,.98Z"/>
  <path d="M203.87,31.98c-.81,0-1.49-.2-2.02-.59-.54-.4-.8-.89-.8-1.49V11.66c0-.63,.27-1.13,.8-1.51,.54-.38,1.21-.57,2.02-.57s1.53,.19,2.05,.57,.78,.89,.78,1.51V29.9c0,.6-.26,1.1-.78,1.49s-1.2,.59-2.05,.59Zm22.79,0c-.81,0-1.49-.2-2.02-.59s-.8-.89-.8-1.49v-10.06c0-1.55-.39-2.82-1.16-3.8s-1.82-1.71-3.13-2.19c-1.31-.48-2.82-.72-4.52-.72-1.55,0-2.96,.23-4.21,.7-1.26,.46-2.26,1.08-2.99,1.86-.74,.78-1.11,1.67-1.11,2.68h-3.49c0-1.72,.56-3.25,1.69-4.6,1.13-1.35,2.67-2.42,4.63-3.21,1.96-.79,4.16-1.19,6.6-1.19s4.83,.4,6.85,1.21c2.01,.8,3.6,1.98,4.77,3.54,1.16,1.55,1.75,3.46,1.75,5.73v10.06c0,.6-.27,1.1-.8,1.49-.54,.4-1.21,.59-2.02,.59Z"/>
</svg>