<?xml version="1.0" encoding="UTF-8"?>
<svg xmlns="http://www.w3.org/2000/svg" viewBox="0 0 500 500">
  <defs>
    <style>
      .cls-1 {
        fill: #fff;
      }

      .cls-2 {
        letter-spacing: 0em;
      }

      .cls-3 {
        fill: #5ad0f1;
      }

      .cls-4 {
        fill: #0069b3;
      }

      .cls-5 {
        letter-spacing: 0em;
      }

      .cls-6 {
        fill: #ff9b00;
      }

      .cls-7 {
        fill: #ffc63b;
      }

      .cls-8 {
        fill: #ffcd28;
      }

      .cls-9 {
        fill: #a3c700;
      }

      .cls-10 {
        letter-spacing: -.02em;
      }

      .cls-11 {
        fill: #e7872c;
      }

      .cls-12 {
        fill: #ff7b83;
      }

      .cls-13 {
        letter-spacing: 0em;
      }

      .cls-14, .cls-15 {
        fill: #202b37;
      }

      .cls-16 {
        fill: #7e470a;
      }

      .cls-17 {
        fill: #d49c6a;
      }

      .cls-15 {
        font-family: ChunkFive-Roman, 'ChunkFive Roman';
        font-size: 25px;
      }

      .cls-18 {
        fill: #ffec00;
      }

      .cls-19 {
        fill: #00cbc5;
      }

      .cls-20 {
        fill: #996232;
      }

      .cls-21 {
        letter-spacing: -.03em;
      }

      .cls-22 {
        fill: #ff7f00;
      }

      .cls-23 {
        fill: #00a99e;
      }

      .cls-24 {
        fill: #00544c;
      }

      .cls-25 {
        letter-spacing: .03em;
      }

      .cls-26 {
        fill: #c4e9f6;
      }

      .cls-27 {
        fill: #00ccc8;
      }

      .cls-28 {
        fill: #ffc7cb;
      }
    </style>
  </defs>
  <g id="BACKGROUND">
    <rect class="cls-1" width="500" height="500"/>
  </g>
  <g id="OBJECTS">
    <text class="cls-15" transform="translate(65.85 75.53)"><tspan class="cls-5" x="0" y="0">C</tspan><tspan x="14.6" y="0">A</tspan><tspan class="cls-13" x="29.9" y="0">R</tspan><tspan class="cls-21" x="43.57" y="0">T</tspan><tspan class="cls-2" x="55.32" y="0">OON OWL </tspan><tspan class="cls-10" x="167" y="0">C</tspan><tspan x="180.97" y="0">OLLE</tspan><tspan class="cls-25" x="234.1" y="0">C</tspan><tspan x="249.3" y="0">TION</tspan></text>
    <g>
      <g>
        <path class="cls-7" d="M366.49,246.01c-.45,.84-.78,1.97-.14,2.67,.57,.62,1.59,.51,2.36,.15,.76-.36,1.46-.91,2.29-1.06-.42,1.48-.17,3.13,.66,4.41,.19,.29,.42,.57,.73,.74,.5,.26,1.12,.15,1.66-.02,1.69-.56,3.16-1.75,4.04-3.3,.41,1.39,1.26,2.69,2.5,3.45,1.24,.76,2.87,.92,4.16,.25,1.88-.98,2.57-3.48,2.01-5.52-.56-2.04-2.09-3.68-3.75-5-2.24-1.79-6.14-4.09-9.17-3.48-3.07,.62-5.96,4.1-7.35,6.7Z"/>
        <path class="cls-7" d="M424.43,246.01c.45,.84,.78,1.97,.14,2.67-.57,.62-1.59,.51-2.36,.15-.76-.36-1.46-.91-2.29-1.06,.42,1.48,.17,3.13-.66,4.41-.19,.29-.42,.57-.73,.74-.5,.26-1.12,.15-1.66-.02-1.69-.56-3.16-1.75-4.04-3.3-.41,1.39-1.26,2.69-2.5,3.45-1.24,.76-2.87,.92-4.16,.25-1.88-.98-2.57-3.48-2.01-5.52,.56-2.04,2.09-3.68,3.75-5,2.24-1.79,6.14-4.09,9.16-3.48,3.07,.62,5.96,4.1,7.35,6.7Z"/>
      </g>
      <g>
        <path class="cls-17" d="M341.79,205.65c-.08,1.3,.08,2.88,1.26,3.43,.55,.26,1.19,.2,1.79,.1,2.14-.38,4.15-1.39,5.74-2.87-.86,5.64,1.76,12.23,7.19,13.97,1.3,.42,2.76,.53,4-.04,2.59-1.17,3.18-4.54,3.24-7.37,.12-5.79-.51-11.57-1.28-17.31-.55-4.07-1.22-8.35-3.32-11.96-2.76-4.74-5.47-2.17-8.65,.88-5.75,5.52-9.46,13.2-9.98,21.17Z"/>
        <path class="cls-17" d="M449.13,205.65c.08,1.3-.08,2.88-1.26,3.43-.55,.26-1.19,.2-1.79,.1-2.14-.38-4.15-1.39-5.74-2.87,.86,5.64-1.76,12.23-7.19,13.97-1.3,.42-2.76,.53-4-.04-2.59-1.17-3.18-4.54-3.24-7.37-.12-5.79,.51-11.57,1.28-17.31,.55-4.07,1.22-8.35,3.32-11.96,2.76-4.74,5.47-2.17,8.65,.88,5.75,5.52,9.46,13.2,9.98,21.17Z"/>
      </g>
      <path class="cls-20" d="M430.01,224.5c-11.27,24.61-34.55,25.17-34.55,25.17,0,0-23.28-.55-34.55-25.17-6.9-15.09-9.29-39.23,.97-77.83,0,0,7.36,13.18,18.82,20.11,2.22,1.34,4.62,2.36,7.1,3.03,2.49,.68,5.07,1.02,7.66,1.02,5.19,0,10.32-1.36,14.76-4.05,11.46-6.94,18.82-20.11,18.82-20.11,10.26,38.6,7.87,62.73,.97,77.83Z"/>
      <path class="cls-17" d="M430.01,224.5c-11.27,24.61-34.55,25.17-34.55,25.17,0,0-23.28-.55-34.55-25.17,7.13-8,19.94-13.34,34.55-13.34s27.42,5.34,34.55,13.34Z"/>
      <g>
        <g>
          <g>
            <circle class="cls-17" cx="377.09" cy="190.77" r="19.03"/>
            <circle class="cls-1" cx="379.59" cy="190.77" r="13.77"/>
            <path d="M384.04,197.72c1.44,0,2.79-.44,3.9-1.19-1.68-.2-2.98-1.62-2.98-3.36,0-1.87,1.51-3.38,3.38-3.38,1.07,0,2.03,.5,2.65,1.28,0-.1,0-.2,0-.29,0-3.84-3.11-6.95-6.95-6.95s-6.95,3.11-6.95,6.95,3.11,6.95,6.95,6.95Z"/>
          </g>
          <g>
            <circle class="cls-17" cx="413.83" cy="190.77" r="19.03"/>
            <circle class="cls-1" cx="411.33" cy="190.77" r="13.77"/>
            <path d="M406.88,197.72c-1.44,0-2.79-.44-3.9-1.19,1.68-.2,2.98-1.62,2.98-3.36,0-1.87-1.51-3.38-3.38-3.38-1.07,0-2.03,.5-2.65,1.28,0-.1,0-.2,0-.29,0-3.84,3.11-6.95,6.95-6.95s6.95,3.11,6.95,6.95-3.11,6.95-6.95,6.95Z"/>
          </g>
        </g>
        <path class="cls-7" d="M400.39,198.51c0,2.21-1.58,10.11-4.93,10.11s-4.93-7.9-4.93-10.11,2.21-4,4.93-4,4.93,1.79,4.93,4Z"/>
      </g>
      <g>
        <path class="cls-16" d="M380.46,219.89c-1.73,2.31-4.84,2.25-7.09,.78-.13-.08-.23,.09-.15,.19,2.2,2.82,6.06,2.36,8.27-.18,.62-.71-.46-1.56-1.03-.79Z"/>
        <path class="cls-16" d="M394.34,216.78c-1.25,.68-2.05,1.49-3.57,1.61-1.36,.1-2.68-.33-3.78-1.12-.45-.32-.93,.37-.57,.74,1.21,1.25,2.81,1.83,4.55,1.72,1.45-.09,3.5-.74,4.17-2.14,.25-.52-.27-1.1-.81-.81Z"/>
        <path class="cls-16" d="M407.45,217.79c-1.07,.03-1.92,.79-3.01,.92-1.53,.19-3.01-.13-3.89-1.49-.25-.39-1.03-.29-.96,.26,.2,1.71,2.05,2.61,3.6,2.81,1.53,.19,4.21-.16,4.76-1.85,.1-.32-.17-.66-.5-.65Z"/>
        <path class="cls-16" d="M416.49,222.37c-1.02-.03-2.02-.29-2.94-.74-.7-.34-1.32-1.01-2.1-1.12-.22-.03-.38,.12-.34,.34,.19,1.09,1.61,1.77,2.54,2.17,1.37,.59,2.83,.79,4.31,.63,.32-.03,.57-.19,.66-.5,.38-1.2-1.63-.76-2.14-.78Z"/>
        <path class="cls-16" d="M379.33,227.67c-2.32,2.33-4.87,2.67-7.91,1.63-.33-.11-.61,.36-.35,.6,2.65,2.31,7.38,1.36,9.34-1.39,.46-.65-.54-1.38-1.09-.84Z"/>
        <path class="cls-16" d="M392.24,225.86c-.93,.86-2.08,1.33-3.34,1.36-1.18,.03-2.04-.55-3.14-.79-.38-.08-.81,.34-.55,.72,1.76,2.54,6.15,1.44,8.06-.26,.7-.62-.34-1.67-1.03-1.03Z"/>
        <path class="cls-16" d="M406.46,227c-.02-.06-.04-.12-.07-.17-.17-.25-.51-.45-.82-.33-1.14,.42-2.31,.55-3.51,.31-1.06-.21-1.88-.81-2.87-1.15-.36-.12-.63,.31-.47,.61,1.25,2.38,5.07,2.48,7.23,1.63,.36-.14,.63-.48,.51-.9Z"/>
        <path class="cls-16" d="M418.98,228.6c-1.28,.37-2.52,.63-3.84,.32-1.18-.28-1.97-1.08-3.05-1.49-.29-.11-.63,.23-.52,.52,1.09,2.71,5.71,3.15,8,2.05,.79-.38,.23-1.64-.59-1.4Z"/>
        <path class="cls-16" d="M387.85,232.76c-1.05,.82-2.03,1.69-3.31,2.13-1.24,.43-2.19,.23-3.45,.05-.42-.06-.76,.39-.43,.74,2.33,2.48,6.42-.04,8.27-1.85,.73-.71-.33-1.67-1.08-1.08Z"/>
        <path class="cls-16" d="M399.84,232.64c-.92,.8-1.95,1.26-3.19,1.28-1.12,.02-1.99-.47-3.01-.82-.31-.11-.56,.27-.41,.53,1.51,2.59,5.9,1.97,7.68,.08,.67-.72-.34-1.7-1.07-1.07Z"/>
        <path class="cls-16" d="M412.66,233.74c-.07-.08-.14-.16-.21-.24-.2-.22-.51-.26-.78-.21-1.1,.22-1.99,.84-3.17,.78-1.26-.07-2.07-.72-3.06-1.41-.6-.42-1.33,.39-.98,.98,1.62,2.66,5.79,2.6,8.08,.93,.29-.21,.35-.56,.11-.83Z"/>
        <path class="cls-16" d="M392.8,239.06c-.89,.98-1.91,1.62-3.26,1.73-1.25,.1-2.11-.56-3.26-.8-.37-.08-.65,.28-.48,.62,.67,1.33,2.77,1.62,4.1,1.49,1.59-.15,3.06-.89,4.01-2.18,.48-.65-.58-1.46-1.12-.86Z"/>
        <path class="cls-16" d="M405.4,238.56c-1.12,.46-2.04,.93-3.3,.74-.94-.15-1.88-1.11-2.79-.99-.19,.02-.32,.13-.33,.33-.13,1.3,1.97,1.91,2.93,2.06,1.36,.21,3.13-.02,4.12-1.06,.41-.43,0-1.34-.63-1.08Z"/>
        <path class="cls-16" d="M400.02,243.78c-.52,.11-.79,.44-1.25,.7-.53,.3-1.16,.48-1.77,.52-1.1,.08-1.98-.58-3.02-.59-.25,0-.44,.25-.37,.49,.73,2.49,6.65,2.1,7.14-.38,.09-.46-.27-.83-.73-.73Z"/>
      </g>
    </g>
    <g>
      <g>
        <path class="cls-7" d="M77.27,407.35c-.44,.9-.83,1.96-.46,2.89,.44,1.11,1.83,1.58,3,1.38,1.17-.21,2.18-.93,3.14-1.63-.2,.92-.2,1.91,.19,2.77,.39,.86,1.21,1.55,2.15,1.62,1.67,.13,2.85-1.55,3.66-3.02,.82,2.14,2.99,3.69,5.28,3.77,.52,.02,1.07-.04,1.5-.34,.3-.21,.52-.51,.7-.83,.56-.96,.85-2.08,.84-3.19-.02-1.91-.93-3.74-2.25-5.13-2.17-2.29-7.03-5.04-10.29-5.15-3.67-.12-6.05,3.99-7.46,6.86Z"/>
        <path class="cls-7" d="M139.25,407.35c.44,.9,.83,1.96,.46,2.89-.44,1.11-1.83,1.58-3,1.38-1.17-.21-2.18-.93-3.14-1.63,.2,.92,.2,1.91-.19,2.77s-1.21,1.55-2.15,1.62c-1.67,.13-2.85-1.55-3.66-3.02-.82,2.14-2.99,3.69-5.28,3.77-.52,.02-1.07-.04-1.5-.34-.3-.21-.52-.51-.7-.83-.56-.96-.85-2.08-.84-3.19,.02-1.91,.93-3.74,2.25-5.13,2.17-2.29,7.03-5.04,10.29-5.15,3.67-.12,6.05,3.99,7.46,6.86Z"/>
      </g>
      <g>
        <path class="cls-28" d="M51.22,363.82c-.43,1.52-.68,3.33,.37,4.51,1.5,1.69,4.25,.76,6.26-.28-1.02,2.18-1.46,4.63-1.27,7.04,.11,1.38,.57,2.94,1.84,3.49,1.76,.77,3.58-.89,4.79-2.39-.35,6.79,6.04,13.13,12.82,12.73-4.05-12.05-6.38-24.67-6.92-37.36-.67-16-16.26,6.51-17.88,12.27Z"/>
        <path class="cls-28" d="M165.3,363.82c.43,1.52,.68,3.33-.37,4.51-1.5,1.69-4.25,.76-6.26-.28,1.02,2.18,1.46,4.63,1.27,7.04-.11,1.38-.57,2.94-1.84,3.49-1.76,.77-3.58-.89-4.79-2.39,.35,6.79-6.04,13.13-12.82,12.73,4.05-12.05,6.38-24.67,6.92-37.36,.67-16,16.26,6.51,17.88,12.27Z"/>
      </g>
      <path class="cls-12" d="M144.94,384.83c-6.92,15.13-18.12,21.69-26.33,24.55-5.97,2.07-10.36,2.18-10.36,2.18,0,0-4.08-.1-9.73-1.96h0c-8.25-2.73-19.85-9.24-26.95-24.76-6.95-15.19-9.59-39.01-.57-76.35,.57-2.35,3.64-2.95,5.05-.99,1.92,2.68,4.6,6.03,7.88,9.25,6.15-3.24,14.77-5.26,24.32-5.26s18.16,2.01,24.32,5.26c3.29-3.22,5.96-6.57,7.88-9.25,1.41-1.96,4.48-1.36,5.05,.99,9.02,37.34,6.38,61.16-.57,76.35Z"/>
      <path class="cls-28" d="M118.61,409.37c-5.97,2.07-10.36,2.18-10.36,2.18,0,0-4.08-.1-9.73-1.96h0c-26.51-22.27-31.19-71.39-17.28-80.3,15.47-9.91,27.01,11.35,27.01,11.35v.33s11.54-21.26,27.01-11.35c13.8,8.84,9.3,57.25-16.65,79.76Z"/>
      <g>
        <g>
          <g>
            <circle class="cls-12" cx="88.05" cy="351.29" r="20.21" transform="translate(-222.61 165.15) rotate(-45)"/>
            <circle class="cls-1" cx="88.05" cy="351.29" r="14.62" transform="translate(-272.81 381.93) rotate(-80.78)"/>
            <path d="M88.05,362.62c2.07,0,4-.63,5.59-1.72-2.41-.28-4.28-2.33-4.28-4.82,0-2.68,2.17-4.85,4.85-4.85,1.54,0,2.91,.72,3.8,1.84,0-.14,.01-.28,.01-.42,0-5.51-4.47-9.98-9.98-9.98s-9.98,4.47-9.98,9.98,4.47,9.98,9.98,9.98Z"/>
            <path class="cls-28" d="M88.05,336.67c-7.18,0-13.15,5.18-14.39,12.01h28.77c-1.23-6.83-7.2-12.01-14.38-12.01Z"/>
          </g>
          <g>
            <circle class="cls-12" cx="128.47" cy="351.29" r="20.21" transform="translate(-245.24 335.54) rotate(-67.5)"/>
            <circle class="cls-1" cx="128.47" cy="351.29" r="14.62" transform="translate(-54.61 25.11) rotate(-9.22)"/>
            <path d="M128.47,362.62c-2.07,0-4-.63-5.59-1.72,2.41-.28,4.28-2.33,4.28-4.82,0-2.68-2.17-4.85-4.85-4.85-1.54,0-2.91,.72-3.8,1.84,0-.14-.01-.28-.01-.42,0-5.51,4.47-9.98,9.98-9.98s9.98,4.47,9.98,9.98-4.47,9.98-9.98,9.98Z"/>
            <path class="cls-28" d="M128.47,336.67c7.18,0,13.15,5.18,14.39,12.01h-28.77c1.23-6.83,7.2-12.01,14.38-12.01Z"/>
          </g>
        </g>
        <path class="cls-7" d="M113.49,355.54c0,2.35-1.68,10.74-5.23,10.74s-5.23-8.39-5.23-10.74,2.34-4.25,5.23-4.25,5.23,1.9,5.23,4.25Z"/>
      </g>
      <path class="cls-1" d="M91.89,377.88c-1.09,.64-1.69,1.58-3.09,1.68-1.55,.11-2.61-.8-3.7-1.77-.14-.13-.39,0-.34,.2,.45,1.59,2.08,2.52,3.68,2.58,1.45,.05,3.62-.72,3.97-2.28,.07-.3-.25-.56-.52-.4Z"/>
      <path class="cls-1" d="M104.98,376.93c-1.11,.95-2.11,1.74-3.67,1.56-1.36-.16-2-1.05-3.05-1.77-.3-.21-.63,.13-.57,.44,.3,1.57,2.28,2.57,3.74,2.72,1.7,.18,3.7-.65,4.47-2.23,.3-.61-.41-1.17-.93-.72Z"/>
      <path class="cls-1" d="M119.14,376.14c-1.13,.59-1.89,1.6-3.19,1.94-1.53,.4-3.1-.05-3.92-1.46-.25-.44-1.05-.14-.85,.36,1.43,3.59,7.26,3.63,8.84,.05,.26-.58-.28-1.21-.89-.89Z"/>
      <path class="cls-1" d="M132.24,375.63c-1.12,.94-1.98,1.92-3.56,2.02-1.47,.09-2.74-.6-3.85-1.49-.48-.39-1.35,.11-.93,.72,2.13,3.13,7.91,3.17,9.48-.59,.29-.69-.68-1.04-1.14-.66Z"/>
      <path class="cls-1" d="M100.56,385.12c-.04-.18-.23-.3-.4-.31-1.05,0-1.74,1.1-2.79,1.37-1.56,.4-3.01-.27-4.09-1.38-.38-.38-1.05,.11-.75,.58,1,1.58,2.75,2.48,4.63,2.32,1.26-.11,3.72-.99,3.41-2.59Z"/>
      <path class="cls-1" d="M111.3,383.47c-.57,1.32-1.87,1.83-3.26,1.77-1.35-.06-2.3-.74-3.37-1.48-.46-.32-1.06,.31-.76,.76,1.73,2.62,7.79,3.21,8.66-.51,.17-.73-.95-1.29-1.27-.54Z"/>
      <path class="cls-1" d="M123.89,383.23c-.98,.67-1.62,1.54-2.88,1.75-1.36,.23-2.58-.33-3.51-1.31-.66-.7-1.66,.33-1.05,1.05,1.16,1.36,2.88,2.07,4.67,1.82,1.44-.2,3.24-1.18,3.58-2.69,.1-.43-.39-.91-.81-.62Z"/>
      <path class="cls-1" d="M95.95,391.79c-.88,.68-1.33,1.51-2.56,1.63-1.12,.11-2.09-.44-2.81-1.26-.38-.43-1.04,.12-.78,.6,.77,1.41,2.3,2.3,3.92,2.12,1.41-.16,3.07-1.16,3.24-2.67,.07-.58-.66-.69-1.02-.42Z"/>
      <path class="cls-1" d="M107.09,391.07c-.83,.74-1.29,1.59-2.5,1.78-1.16,.18-1.92-.45-2.92-.84-.51-.2-.86,.45-.65,.85,1.36,2.63,6.72,1.81,7.19-1.14,.1-.65-.59-1.11-1.11-.65Z"/>
      <path class="cls-1" d="M118.34,391.33c-.98,.59-1.72,1.27-2.95,1.16-1.22-.11-1.81-.95-2.72-1.6-.49-.35-1.05,.23-.94,.72,.67,3.16,6.25,3.45,7.56,.66,.28-.59-.31-1.32-.94-.94Z"/>
      <path class="cls-1" d="M127.11,389.26c-.29,.76-.7,1.41-1.55,1.6-.81,.18-1.6-.2-2.05-.87-.53-.79-1.81-.05-1.28,.75,.77,1.17,2.18,1.92,3.6,1.6,1.34-.3,2.49-1.52,2.54-2.91,.03-.77-1.01-.8-1.26-.17Z"/>
      <path class="cls-1" d="M102.3,399.1c-1.36,1.66-4.44,1.05-5.6-.55-.42-.57-1.3-.09-.96,.56,1.33,2.56,5.98,3.6,7.7,.87,.43-.68-.61-1.52-1.13-.88Z"/>
      <path class="cls-1" d="M112.03,397.39c-.94,.61-1.44,1.48-2.71,1.45-1.12-.03-1.65-.9-2.62-1.24-.28-.1-.54,.16-.56,.42-.07,1.5,1.92,2.37,3.17,2.46,1.4,.1,3.47-.78,3.74-2.31,.09-.55-.47-1.15-1.02-.79Z"/>
      <path class="cls-1" d="M122.17,397.45c-.53,.65-1.23,1.12-2.1,1.07-.83-.04-1.4-.52-2.04-.98-.61-.44-1.29,.39-.97,.97,1.36,2.51,4.84,1.78,6.25-.19,.48-.67-.62-1.53-1.14-.88Z"/>
      <path class="cls-1" d="M107.09,404.74c-.45,.68-1.21,1.11-2.04,1.01-.8-.09-1.19-.65-1.82-1.05-.36-.23-.7,.15-.65,.5,.16,1.14,1.61,1.85,2.64,1.94,1.32,.11,2.43-.57,3.18-1.62,.56-.8-.77-1.59-1.32-.77Z"/>
      <path class="cls-1" d="M118.21,403.74c-1.07,.16-1.79,1.15-2.97,1.22-1.11,.07-1.75-.52-2.43-1.3-.43-.49-1.09,.05-.99,.58,.25,1.36,1.82,2.21,3.11,2.27,1.37,.06,3.55-.68,3.93-2.13,.11-.42-.26-.7-.65-.65Z"/>
    </g>
    <g>
      <g>
        <path class="cls-18" d="M193.06,198.26c-3.38,5.64-5.21,12.2-5.22,18.77,0,.89,.26,1.78,.84,2.46,1.76,2.11,4.54,.63,6-1.21,.14,3.55,1.45,7.04,3.66,9.82,1.07,1.35,3.27,.27,2.78-1.39,0-.01,0-.02-.01-.04,3.19,3.97,8.22,6.4,13.31,6.43-5.51-10.01-6.16-22.02-4.93-33.38,.24-2.26,.53-4.66-.45-6.7-3.67-7.64-13.6,1.27-15.98,5.23Z"/>
        <path class="cls-18" d="M312.34,198.26c3.38,5.64,5.21,12.2,5.22,18.77,0,.89-.26,1.78-.84,2.46-1.76,2.11-4.54,.63-6-1.21-.14,3.55-1.45,7.04-3.66,9.82-1.07,1.35-3.27,.27-2.78-1.39,0-.01,0-.02,.01-.04-3.19,3.97-8.22,6.4-13.31,6.43,5.51-10.01,6.16-22.02,4.93-33.38-.24-2.26-.53-4.66,.45-6.7,3.67-7.64,13.6,1.27,15.98,5.23Z"/>
      </g>
      <g>
        <path class="cls-11" d="M219.55,241.9c-1.7,1.38-2.76,3.51-2.85,5.7-.03,.77,.08,1.59,.59,2.17,.71,.8,2.01,.82,2.97,.35s1.66-1.33,2.33-2.17c-.35,.89-.7,1.88-.37,2.79,.45,1.28,2.14,1.77,3.42,1.32,1.28-.45,2.2-1.57,2.91-2.72-.2,1.82,1.13,3.61,2.87,4.18s3.73,0,5.11-1.19c1.38-1.2,2.19-2.96,2.49-4.76,.19-1.16,.18-2.38-.24-3.48-.86-2.21-3.21-3.47-5.5-4.07-4.01-1.05-10.34-.87-13.72,1.89Z"/>
        <path class="cls-11" d="M280.1,241.9c1.7,1.38,2.76,3.51,2.85,5.7,.03,.77-.08,1.59-.59,2.17-.71,.8-2.01,.82-2.97,.35-.96-.47-1.66-1.33-2.33-2.17,.35,.89,.7,1.88,.37,2.79-.45,1.28-2.14,1.77-3.42,1.32-1.28-.45-2.2-1.57-2.91-2.72,.2,1.82-1.13,3.61-2.87,4.18-1.74,.57-3.73,0-5.11-1.19s-2.19-2.96-2.49-4.76c-.19-1.16-.18-2.38,.24-3.48,.86-2.21,3.21-3.47,5.5-4.07,4.01-1.05,10.34-.87,13.72,1.89Z"/>
      </g>
      <path class="cls-9" d="M297.46,231.89c-11.22,20.91-78.3,20.91-89.52,0-7.42-13.84-6.52-51.27,4.44-86.67,.03-.11,.07-.21,.1-.31,0,0,9.01,8.81,19.31,15.36,3.45-1.88,7.55-3.31,12.07-4.14,2.93-.54,6.04-.84,9.26-.84,3.44,0,6.76,.33,9.87,.95,4.08,.81,7.81,2.11,11,3.78,10.15-6.52,18.93-15.11,18.93-15.11,.03,.11,.07,.21,.1,.31,10.96,35.39,11.86,72.83,4.44,86.67Z"/>
      <ellipse class="cls-18" cx="252.7" cy="221.91" rx="32.65" ry="25.67"/>
      <g>
        <g>
          <circle class="cls-18" cx="273.83" cy="189.84" r="22.67" transform="translate(-54.04 249.23) rotate(-45)"/>
          <g>
            <polygon class="cls-9" points="273.83 173.72 271.96 172.03 270.48 174.07 268.29 172.8 267.27 175.11 264.87 174.33 264.35 176.8 261.84 176.53 261.85 179.05 259.34 179.31 259.87 181.78 257.47 182.56 258.5 184.86 256.31 186.12 257.8 188.16 255.92 189.84 257.8 191.53 256.31 193.57 258.5 194.82 257.47 197.13 259.87 197.9 259.34 200.37 261.85 200.63 261.84 203.15 264.35 202.88 264.87 205.35 267.27 204.57 268.29 206.88 270.48 205.61 271.96 207.66 273.83 205.96 275.7 207.66 277.18 205.61 279.37 206.88 280.39 204.57 282.79 205.35 283.31 202.88 285.82 203.15 285.81 200.63 288.32 200.37 287.79 197.9 290.19 197.13 289.16 194.82 291.35 193.57 289.86 191.53 291.74 189.84 289.86 188.16 291.35 186.12 289.16 184.86 290.19 182.56 287.79 181.78 288.32 179.31 285.81 179.05 285.82 176.53 283.31 176.8 282.79 174.33 280.39 175.11 279.37 172.8 277.18 174.07 275.7 172.03 273.83 173.72"/>
            <circle class="cls-1" cx="273.83" cy="189.84" r="11.52"/>
            <path d="M273.83,197.4c-1.57,0-3.03-.48-4.24-1.3,1.83-.22,3.25-1.77,3.25-3.65,0-2.03-1.65-3.68-3.68-3.68-1.17,0-2.2,.54-2.88,1.39,0-.11,0-.21,0-.32,0-4.18,3.39-7.56,7.56-7.56s7.56,3.39,7.56,7.56-3.39,7.56-7.56,7.56Z"/>
          </g>
        </g>
        <g>
          <circle class="cls-18" cx="231.57" cy="189.84" r="22.67" transform="translate(-54.53 101.45) rotate(-22.18)"/>
          <g>
            <polygon class="cls-9" points="231.57 173.72 233.44 172.03 234.92 174.07 237.11 172.8 238.13 175.11 240.53 174.33 241.05 176.8 243.56 176.53 243.55 179.05 246.06 179.31 245.53 181.78 247.94 182.56 246.9 184.86 249.09 186.12 247.61 188.16 249.49 189.84 247.61 191.53 249.09 193.57 246.9 194.82 247.94 197.13 245.53 197.9 246.06 200.37 243.55 200.63 243.56 203.15 241.05 202.88 240.53 205.35 238.13 204.57 237.11 206.88 234.92 205.61 233.44 207.66 231.57 205.96 229.7 207.66 228.22 205.61 226.04 206.88 225.01 204.57 222.61 205.35 222.1 202.88 219.59 203.15 219.59 200.63 217.08 200.37 217.61 197.9 215.21 197.13 216.24 194.82 214.05 193.57 215.54 191.53 213.66 189.84 215.54 188.16 214.05 186.12 216.24 184.86 215.21 182.56 217.61 181.78 217.08 179.31 219.59 179.05 219.59 176.53 222.1 176.8 222.61 174.33 225.01 175.11 226.04 172.8 228.22 174.07 229.7 172.03 231.57 173.72"/>
            <circle class="cls-1" cx="231.57" cy="189.84" r="11.52"/>
            <path d="M231.57,197.4c1.57,0,3.03-.48,4.24-1.3-1.83-.22-3.25-1.77-3.25-3.65,0-2.03,1.65-3.68,3.68-3.68,1.17,0,2.2,.54,2.88,1.39,0-.11,0-.21,0-.32,0-4.18-3.39-7.56-7.56-7.56s-7.56,3.39-7.56,7.56,3.39,7.56,7.56,7.56Z"/>
          </g>
        </g>
      </g>
      <path class="cls-11" d="M257.63,197.99c0,2.21-1.58,10.12-4.93,10.12s-4.93-7.91-4.93-10.12,2.21-4.01,4.93-4.01,4.93,1.79,4.93,4.01Z"/>
      <path class="cls-18" d="M262.99,156.25l-9.4,17.86-9.73-17.98c2.93-.54,6.04-.84,9.26-.84,3.44,0,6.76,.33,9.87,.95Z"/>
      <g>
        <path class="cls-9" d="M235.23,213.87c-1.15,2.14-5.95,2.48-6.69-.16-.1-.35-.65-.29-.64,.09,.1,3.86,7.12,3.64,8.44,.72,.33-.74-.71-1.39-1.11-.65Z"/>
        <path class="cls-9" d="M248.94,212.81c-1.19,1.19-2.41,2.1-4.18,2.05-1.67-.05-2.69-1-4.01-1.85-.29-.19-.74,.13-.61,.47,1.55,4.01,7.88,3.4,9.8,.1,.36-.62-.48-1.28-1-.77Z"/>
        <path class="cls-9" d="M262.01,211.79c-.84,1.42-2.2,2.35-3.89,2.28-1.59-.07-2.51-1.25-3.92-1.61-.25-.06-.44,.16-.39,.39,.33,1.84,3.15,2.7,4.77,2.63,1.94-.08,3.81-1.23,4.59-3.02,.33-.77-.71-1.44-1.16-.68Z"/>
        <path class="cls-9" d="M276.08,213.1c-.66-.03-.92,.29-1.48,.6-.96,.55-2.06,.8-3.15,.69-1-.1-1.88-.49-2.67-1.11-.56-.44-.89-.92-1.56-1.16-.18-.06-.35,.1-.36,.27-.11,1.95,2.89,3.23,4.49,3.42,1.53,.18,5.03-.35,5.1-2.35,0-.21-.18-.36-.37-.37Z"/>
        <path class="cls-9" d="M243.1,221.07c-2.31,2.55-5.64,2.67-7.69-.3-.24-.35-.92-.15-.75,.31,1.5,3.89,7.37,4.59,9.42,.74,.32-.6-.49-1.31-.98-.76Z"/>
        <path class="cls-9" d="M256.42,220.2c-1.35,.55-2.22,1.57-3.81,1.63-1.69,.05-2.76-.88-4.07-1.76-.46-.31-.85,.27-.68,.68,.74,1.74,2.96,2.66,4.75,2.63,1.63-.02,3.94-.82,4.46-2.52,.11-.36-.27-.81-.65-.65Z"/>
        <path class="cls-9" d="M268.43,219.1c-1.01,.56-1.53,1.55-2.73,1.89-1.53,.44-3.07-.22-4.1-1.35-.4-.43-1.17,.14-.82,.64,1.12,1.58,2.85,2.47,4.81,2.15,1.4-.23,3.47-1.37,3.42-3-.01-.29-.31-.47-.57-.33Z"/>
        <path class="cls-9" d="M236.1,228c-1.06,.91-2.16,1.59-3.62,1.43-1.29-.14-2.04-.94-3.12-1.5-.29-.15-.64,.1-.56,.43,.39,1.58,2.3,2.44,3.79,2.55,1.74,.12,3.53-.67,4.47-2.16,.4-.62-.46-1.19-.97-.75Z"/>
        <path class="cls-9" d="M250.28,227.93c-.07-.13-.12-.19-.25-.25-.31-.14-.6-.12-.86,.11-2.29,2-5.12,1.67-7.67,.43-.5-.24-.94,.33-.58,.75,2.34,2.72,6.85,2.02,9.25-.18,.24-.22,.25-.58,.11-.86Z"/>
        <path class="cls-9" d="M262.18,226.52c-1.69,2.19-4.28,2.64-6.35,.55-.43-.44-1.23,.14-.87,.67,2.06,3.04,7.01,2.89,8.43-.71,.3-.76-.8-1.05-1.21-.51Z"/>
        <path class="cls-9" d="M277.66,225.73c-.23-.4-.76-.34-.99,0-.44,.63-.61,.94-1.39,1.17-.65,.19-1.42,.24-2.1,.24-1.44,0-2.29-.51-3.25-1.54-.4-.43-1.08,.02-.95,.55,1.02,4.17,10.4,2.61,8.68-.42Z"/>
        <path class="cls-9" d="M243.56,235.2c-2.44,.67-4.43,1.79-6.53-.33-.31-.31-.82,0-.72,.42,.82,3.41,5.63,2.39,7.73,1.04,.58-.37,.22-1.32-.48-1.13Z"/>
        <path class="cls-9" d="M257.16,234.15c-1.42,.2-2.3,1.42-3.89,1.38-1.37-.03-2.33-1.01-3.62-1.11-.14-.01-.3,.14-.28,.28,.39,3.31,8.1,3.09,8.17-.27,0-.21-.19-.31-.38-.29Z"/>
        <path class="cls-9" d="M269.59,232.49c-1.07,.62-1.72,1.52-3.04,1.72-1.51,.23-2.53-.49-3.74-1.23-.43-.26-.92,.25-.68,.68,.84,1.46,2.78,2.11,4.4,1.95,1.43-.14,3.41-1.08,3.75-2.6,.09-.39-.32-.74-.68-.53Z"/>
        <path class="cls-9" d="M250.72,239.93c-.88-.02-1.58,.87-2.47,1.06-1.22,.25-2.23-.16-3.28-.74-.5-.27-.9,.34-.57,.74,.89,1.13,2.49,1.46,3.87,1.29,.98-.12,2.94-.7,2.84-1.96-.02-.22-.17-.39-.39-.39Z"/>
        <path class="cls-9" d="M261.9,238.65c-.71,.88-1.66,1.34-2.79,1.39-1.03,.04-1.81-.44-2.74-.77-.41-.14-.74,.36-.54,.71,1.5,2.58,5.58,1.3,7.02-.6,.4-.54-.51-1.25-.94-.72Z"/>
      </g>
    </g>
    <g>
      <g>
        <g>
          <path class="cls-11" d="M222.89,405.24c-1.2,1.38-2.47,2.94-2.41,4.76,.02,.5,.16,1.03,.57,1.32,.57,.4,1.35,.13,1.98-.15,1.2-.53,2.4-1.05,3.61-1.58-.51,.84-.48,1.97,.06,2.79,.54,.82,1.58,1.28,2.55,1.13,1.22-.18,2.14-1.18,2.83-2.21,.52,1.7,1.83,3.21,3.55,3.68,1.72,.47,3.77-.28,4.54-1.89,.44-.92,.44-1.99,.34-3.01-.1-.9-.27-1.8-.66-2.62-1.52-3.22-5.83-4.63-9.04-5.37-3.46-.8-5.61,.5-7.91,3.14Z"/>
          <path class="cls-11" d="M277.27,405.24c1.2,1.38,2.47,2.94,2.41,4.76-.02,.5-.16,1.03-.57,1.32-.57,.4-1.35,.13-1.98-.15-1.2-.53-2.4-1.05-3.61-1.58,.51,.84,.48,1.97-.06,2.79-.54,.82-1.58,1.28-2.55,1.13-1.22-.18-2.14-1.18-2.83-2.21-.52,1.7-1.83,3.21-3.55,3.68-1.72,.47-3.77-.28-4.54-1.89-.44-.92-.44-1.99-.34-3.01,.1-.9,.27-1.8,.66-2.62,1.52-3.22,5.83-4.63,9.04-5.37,3.46-.8,5.61,.5,7.91,3.14Z"/>
        </g>
        <g>
          <g>
            <path class="cls-4" d="M202.03,367.61c-2.54,4.71-6,9.72-11.27,10.62,3.49,3.39,8.7,4.92,13.47,3.95-.44,2.77,.52,5.65,2.25,7.85,1.73,2.2,4.16,3.77,6.76,4.84-.18-1.58-.36-3.15-.54-4.73,4.31,2.77,9.4,4.31,14.52,4.41-2.62-2.72-4.8-5.92-6-9.49-2.49-7.42-.57-15.74-2.87-23.22-1.2-3.9-4.46-8.02-8.48-4.99-3.63,2.74-5.72,6.85-7.84,10.77Z"/>
            <path class="cls-4" d="M298.13,367.61c2.54,4.71,6,9.72,11.27,10.62-3.49,3.39-8.7,4.92-13.47,3.95,.44,2.77-.52,5.65-2.25,7.85-1.73,2.2-4.16,3.77-6.76,4.84,.18-1.58,.36-3.15,.54-4.73-4.31,2.77-9.4,4.31-14.52,4.41,2.62-2.72,4.8-5.92,6-9.49,2.49-7.42,.57-15.74,2.87-23.22,1.2-3.9,4.46-8.02,8.48-4.99,3.63,2.74,5.72,6.85,7.84,10.77Z"/>
          </g>
          <g>
            <path class="cls-3" d="M288.6,366.55c0,21.28-17.25,45.61-38.52,45.61s-38.52-24.33-38.52-45.61c0-2.9,.32-5.6,.93-8.1,3.85-15.77,19.22-23.34,37.59-23.34s33.74,7.57,37.59,23.34c.61,2.49,.93,5.19,.93,8.1Z"/>
            <path class="cls-26" d="M287.67,358.45c-3.85,18.65-19.22,36.8-37.59,36.8s-33.74-18.14-37.59-36.8c3.85-15.77,19.22-23.34,37.59-23.34s33.74,7.57,37.59,23.34Z"/>
          </g>
          <g>
            <path class="cls-3" d="M253.79,337.72c-2.14,.74-3.72,.78-3.72,.78,0,0-1.46-.03-3.49-.7h0c-9.51-7.99-11.19-25.61-6.2-28.81,5.55-3.55,9.69,4.07,9.69,4.07v.12s4.14-7.63,9.69-4.07c4.95,3.17,3.34,20.54-5.97,28.61Z"/>
            <g>
              <path class="cls-3" d="M250.14,338.13s-37.85-14.84-28.83-27.87,28.83,8.84,28.83,27.87Z"/>
              <path class="cls-3" d="M250.02,338.13s37.85-14.84,28.83-27.87-28.83,8.84-28.83,27.87Z"/>
            </g>
            <g>
              <circle class="cls-3" cx="228.93" cy="343.38" r="21.9" transform="translate(-146.68 514.35) rotate(-80.78)"/>
              <circle class="cls-3" cx="271.22" cy="343.38" r="21.9" transform="translate(-140.02 193.87) rotate(-31.72)"/>
              <g>
                <g>
                  <g>
                    <circle class="cls-26" cx="232.28" cy="343.38" r="18.44" transform="translate(-18.63 13.37) rotate(-3.17)"/>
                    <circle class="cls-1" cx="234.71" cy="343.38" r="13.34" transform="translate(-23.75 17.5) rotate(-4.07)"/>
                    <path d="M239.01,350.11c1.4,0,2.7-.43,3.77-1.16-1.63-.19-2.89-1.57-2.89-3.25,0-1.81,1.47-3.28,3.28-3.28,1.04,0,1.96,.48,2.56,1.24,0-.09,0-.19,0-.28,0-3.72-3.01-6.73-6.73-6.73s-6.73,3.01-6.73,6.73,3.01,6.73,6.73,6.73Z"/>
                  </g>
                  <g>
                    <circle class="cls-26" cx="267.87" cy="343.38" r="18.44" transform="translate(-51.54 47.34) rotate(-9.22)"/>
                    <circle class="cls-1" cx="265.45" cy="343.38" r="13.34" transform="translate(-51.58 46.95) rotate(-9.22)"/>
                    <path d="M261.14,350.11c-1.4,0-2.7-.43-3.77-1.16,1.63-.19,2.89-1.57,2.89-3.25,0-1.81-1.47-3.28-3.28-3.28-1.04,0-1.96,.48-2.56,1.24,0-.09,0-.19,0-.28,0-3.72,3.01-6.73,6.73-6.73s6.73,3.01,6.73,6.73-3.01,6.73-6.73,6.73Z"/>
                  </g>
                </g>
                <path class="cls-11" d="M254.85,350.88c0,2.14-1.53,9.79-4.77,9.79s-4.77-7.65-4.77-9.79,2.14-3.88,4.77-3.88,4.77,1.74,4.77,3.88Z"/>
              </g>
            </g>
          </g>
        </g>
      </g>
      <g>
        <path class="cls-1" d="M233.99,370.27c-2.7,1.66-5.44,1.86-7.43-.86-.2-.28-.66-.2-.67,.18-.04,1.64,1.48,2.94,2.95,3.4,2.08,.64,4.24-.13,6.06-1.15,1.02-.57,.08-2.18-.92-1.57Z"/>
        <path class="cls-1" d="M248.87,366.53c-.04-.23-.31-.42-.54-.41-.73,.04-.91,.35-1.47,.81-.78,.64-1.72,1.02-2.73,1.07-.92,.05-1.75-.18-2.57-.59-.61-.31-1.06-.81-1.77-.75-.13,.01-.28,.09-.31,.23-.32,2,3.16,2.93,4.65,2.9,1.63-.03,5.05-1.19,4.73-3.26Z"/>
        <path class="cls-1" d="M261.23,366.89c-1.21,.7-2.54,.97-3.92,.8-1.36-.17-2.35-.88-3.55-1.45-.48-.23-1.06,.25-.76,.76,1.72,3,6.46,2.81,9.03,1.24,.86-.53,.08-1.86-.79-1.35Z"/>
        <path class="cls-1" d="M273.58,369.17c-.59,1.01-2.65,1.13-3.63,1-1.21-.16-2.04-1.09-3.15-1.29-.38-.07-.66,.21-.59,.59,.31,1.69,3,2.29,4.44,2.28,1.2,0,3.98-.56,4.22-2.04,.12-.75-.86-1.29-1.3-.55Z"/>
        <path class="cls-1" d="M240.59,374.57c-1.72,2.17-3.72,2.32-5.93,.74-.45-.32-1.08,.32-.76,.76,1.88,2.63,6.32,2.2,7.74-.69,.31-.63-.55-1.45-1.05-.81Z"/>
        <path class="cls-1" d="M253.35,373.44c-.03-.27-.27-.56-.58-.44-1.06,.39-1.49,1.47-2.68,1.77-1.54,.39-2.45-.46-3.68-1.16-.46-.26-.85,.24-.67,.67,.65,1.53,2.81,2.12,4.33,1.89,1.25-.18,3.43-1.23,3.27-2.72Z"/>
        <path class="cls-1" d="M265.3,372.88c-.22-.09-.51,.02-.67,.18-.93,.9-1.49,1.9-3,1.47-1.18-.34-1.91-1.37-2.85-2.07-.5-.38-1.17,.35-.85,.85,1.13,1.75,3.48,3.41,5.63,2.59,.75-.29,3.29-2.4,1.73-3.01Z"/>
        <path class="cls-1" d="M246.06,380.52c-.8,.89-1.36,1.77-2.63,2.06-1.47,.34-2.51-.37-3.67-1.14-.48-.32-1.05,.3-.77,.77,1.75,2.91,7.27,2.34,8.13-1.08,.15-.59-.62-1.11-1.06-.62Z"/>
        <path class="cls-1" d="M260.15,380.41c-.03-.08-.06-.15-.08-.23-.06-.17-.18-.24-.35-.26-.34-.04-.47,.02-.75,.18-.75,.44-1.1,.94-2.04,1.1-1.6,.26-2.55-.65-3.64-1.63-.4-.36-1.16-.02-.97,.56,1.09,3.18,5.67,3.26,7.65,.97,.16-.18,.27-.44,.18-.69Z"/>
        <path class="cls-1" d="M253.04,385.17c-.85,1.38-2.37,2.19-4.01,1.92-1.02-.17-1.81-.93-2.81-1.05-.09-.01-.17,.09-.17,.17-.02,1.64,2.31,2.45,3.66,2.51,2,.09,3.74-1.05,4.79-2.7,.58-.92-.89-1.78-1.46-.85Z"/>
      </g>
    </g>
    <g>
      <g>
        <path class="cls-22" d="M334.74,382.75c-.1,.52-.18,1.08,.07,1.54,.41,.76,1.47,.84,2.33,.72,2.44-.34,4.77-1.46,6.56-3.16-1.24,2.11-1.18,4.79-.4,7.11,.78,2.32,2.19,4.36,3.59,6.37,.36,.51,.74,1.05,1.31,1.31,1.06,.48,2.35-.22,2.92-1.23,.57-1.01,.6-2.23,.62-3.39,1.7,3.82,5.3,6.73,9.39,7.6,.91,.19,1.93,.27,2.7-.25,.95-.63,1.19-1.91,1.31-3.05,.94-8.61,.27-17.31-.41-25.94-.21-2.73-.43-5.49-1.41-8.05-3.72-9.74-11.65-4.66-17.17,.38-5.77,5.27-9.92,12.37-11.42,20.05Z"/>
        <path class="cls-22" d="M449.05,382.75c.1,.52,.18,1.08-.07,1.54-.41,.76-1.47,.84-2.33,.72-2.44-.34-4.77-1.46-6.56-3.16,1.24,2.11,1.18,4.79,.4,7.11-.78,2.32-2.19,4.36-3.59,6.37-.36,.51-.74,1.05-1.31,1.31-1.06,.48-2.35-.22-2.92-1.23-.57-1.01-.6-2.23-.62-3.39-1.7,3.82-5.3,6.73-9.39,7.6-.91,.19-1.93,.27-2.7-.25-.95-.63-1.19-1.91-1.31-3.05-.94-8.61-.27-17.31,.41-25.94,.21-2.73,.43-5.49,1.41-8.05,3.72-9.74,11.65-4.66,17.17,.38,5.77,5.27,9.92,12.37,11.42,20.05Z"/>
      </g>
      <g>
        <path class="cls-6" d="M376.98,307.07c-3.98-2.04-8.42-3.18-12.16-5.65-3.73-2.47-6.74-6.9-5.64-11.24-5.42,5.44-6.45,14.71-2.36,21.21-4.32,.12-8.61-2.39-10.62-6.22-2,4.94-.61,10.85,2.73,15,3.35,4.15,8.39,6.67,13.6,7.82,6.06,1.33,12.59,.99,18.15,3.73,5.4,2.66,8.49,7.67,9.81,13.36,4.69-4.94,3.07-14.85,1.13-20.62-2.47-7.35-7.7-13.84-14.65-17.39Z"/>
        <path class="cls-6" d="M406.82,307.07c3.98-2.04,8.42-3.18,12.16-5.65,3.73-2.47,6.74-6.9,5.64-11.24,5.42,5.44,6.45,14.71,2.36,21.21,4.32,.12,8.61-2.39,10.62-6.22,2,4.94,.61,10.85-2.73,15-3.35,4.15-8.39,6.67-13.6,7.82-6.06,1.33-12.59,.99-18.15,3.73-5.4,2.66-8.49,7.67-9.81,13.36-4.69-4.94-3.07-14.85-1.13-20.62,2.47-7.35,7.7-13.84,14.65-17.39Z"/>
      </g>
      <g>
        <path class="cls-22" d="M364.9,405.31c-1.19,1.37-2.45,2.92-2.39,4.73,.02,.49,.16,1.03,.57,1.31,.57,.39,1.34,.13,1.97-.15,1.19-.52,2.39-1.05,3.58-1.57-.5,.83-.48,1.96,.06,2.77,.54,.81,1.57,1.27,2.53,1.13,1.21-.18,2.13-1.17,2.81-2.19,.52,1.69,1.82,3.19,3.53,3.66,1.7,.47,3.74-.28,4.51-1.87,.44-.91,.44-1.98,.33-2.99-.09-.89-.27-1.79-.65-2.6-1.51-3.2-5.79-4.6-8.98-5.33-3.44-.79-5.58,.5-7.86,3.12Z"/>
        <path class="cls-22" d="M418.9,405.31c1.19,1.37,2.45,2.92,2.39,4.73-.02,.49-.16,1.03-.57,1.31-.57,.39-1.34,.13-1.97-.15-1.19-.52-2.39-1.05-3.58-1.57,.5,.83,.48,1.96-.06,2.77s-1.57,1.27-2.53,1.13c-1.21-.18-2.13-1.17-2.81-2.19-.52,1.69-1.82,3.19-3.53,3.66-1.7,.47-3.74-.28-4.51-1.87-.44-.91-.44-1.98-.33-2.99,.09-.89,.27-1.79,.65-2.6,1.51-3.2,5.79-4.6,8.98-5.33,3.43-.79,5.58,.5,7.86,3.12Z"/>
      </g>
      <g>
        <path class="cls-6" d="M353.64,380.96c0-21.13,17.13-45.3,38.26-45.3s38.26,24.17,38.26,45.3c0,2.88-.32,5.57-.93,8.04-3.83,15.66-19.09,23.18-37.33,23.18s-33.5-7.52-37.33-23.18c-.61-2.48-.93-5.16-.93-8.04Z"/>
        <path class="cls-8" d="M354.56,389c3.83-18.52,19.09-36.54,37.33-36.54s33.51,18.02,37.33,36.54c-3.83,15.66-19.09,23.18-37.33,23.18s-33.5-7.52-37.33-23.18Z"/>
      </g>
      <g>
        <circle class="cls-6" cx="370.9" cy="343.88" r="21.75" transform="translate(-88.74 554.95) rotate(-67.5)"/>
        <circle class="cls-6" cx="412.9" cy="343.88" r="21.75" transform="translate(7.32 696.36) rotate(-80.78)"/>
        <g>
          <g>
            <g>
              <circle class="cls-8" cx="374.22" cy="343.88" r="18.31" transform="translate(-109.95 189.37) rotate(-24.88)"/>
              <circle class="cls-1" cx="376.64" cy="343.88" r="13.25" transform="translate(-68.7 592.44) rotate(-71.57)"/>
              <path d="M376.64,352.09c1.71,0,3.29-.52,4.61-1.41-1.98-.23-3.52-1.92-3.52-3.97,0-2.21,1.79-4,4-4,1.27,0,2.39,.59,3.13,1.51,0-.12,0-.23,0-.35,0-4.54-3.68-8.21-8.21-8.21s-8.21,3.68-8.21,8.21,3.68,8.21,8.21,8.21Z"/>
            </g>
            <g>
              <circle class="cls-8" cx="409.57" cy="343.88" r="18.31" transform="translate(-75.45 118.58) rotate(-15.1)"/>
              <circle class="cls-1" cx="407.16" cy="343.88" r="13.25" transform="translate(-21.06 661.14) rotate(-76.72)"/>
              <path d="M407.16,352.09c-1.71,0-3.29-.52-4.61-1.41,1.98-.23,3.52-1.92,3.52-3.97,0-2.21-1.79-4-4-4-1.27,0-2.39,.59-3.13,1.51,0-.12,0-.23,0-.35,0-4.54,3.68-8.21,8.21-8.21s8.21,3.68,8.21,8.21-3.68,8.21-8.21,8.21Z"/>
            </g>
          </g>
          <path class="cls-22" d="M396.64,351.32c0,2.13-1.52,9.73-4.74,9.73s-4.74-7.6-4.74-9.73,2.12-3.85,4.74-3.85,4.74,1.72,4.74,3.85Z"/>
        </g>
      </g>
      <g>
        <path class="cls-22" d="M376.62,372.21c-2.19,2.26-5.94,2.38-8.19,.04-.24-.25-.7,.09-.48,.37,1.19,1.56,2.37,2.56,4.44,2.73,2.02,.17,3.9-.65,5.29-2.09,.67-.69-.39-1.75-1.06-1.06Z"/>
        <path class="cls-22" d="M391.34,371.59c-.14-.2-.21-.26-.44-.34-.24-.09-.55,.01-.72,.19-2.18,2.33-5.52,2.22-7.62-.17-.4-.46-1.18,.14-.85,.65,2.19,3.38,6.92,3.67,9.51,.57,.2-.23,.32-.62,.12-.9Z"/>
        <path class="cls-22" d="M403.25,370.26c-.1-.38-.53-.43-.81-.21-.53,.42-.73,1.06-1.26,1.49-.8,.66-1.82,.73-2.8,.53-.71-.15-1.41-.44-2.01-.86-.51-.36-.64-.58-1.24-.65-.16-.02-.28,.15-.29,.29-.03,1.84,3.15,2.8,4.62,2.78,1.62-.02,4.3-1.39,3.78-3.36Z"/>
        <path class="cls-22" d="M413.39,369.55c-.59,.36-.85,.98-1.46,1.35-.78,.47-1.73,.49-2.55,.1-.31-.15-1.59-1.62-2.03-.96l-.09,.14c-.12,.18-.09,.41,0,.59,.72,1.38,2.34,2.1,3.85,1.91,1.26-.16,3.19-1.18,3.13-2.64-.02-.42-.47-.72-.85-.49Z"/>
        <path class="cls-22" d="M370.86,380.55c-1.24,.09-2.09,1.21-3.41,1.33-1.67,.15-3.28-.74-4.25-2.07-.33-.45-1-.07-.75,.44,.87,1.8,2.54,3,4.57,3.1,1.47,.07,4.16-.56,4.27-2.36,.01-.22-.21-.45-.43-.43Z"/>
        <path class="cls-22" d="M383.18,379.63c-.73,1.15-1.9,1.94-3.29,1.98-1.48,.04-2.34-.86-3.57-1.44-.26-.12-.56,.08-.48,.37,.43,1.73,2.66,2.55,4.29,2.5,1.85-.06,3.41-1.1,4.42-2.61,.56-.84-.82-1.65-1.35-.79Z"/>
        <path class="cls-22" d="M396.56,377.74c-1,.93-1.59,2.04-3.02,2.42-1.43,.38-2.64-.2-3.63-1.2-.13-.13-.37-.22-.55-.15-.04,.01-.08,.03-.12,.05h-.01c-.28,.18-.34,.5-.2,.78,1.7,3.57,7.85,2.43,8.57-1.3,.12-.6-.56-1.03-1.03-.6Z"/>
        <path class="cls-22" d="M408.97,377.6c-.7,1.24-1.69,2.24-3.21,2.23-1.37-.01-2.15-.91-3.17-1.64-.33-.24-.71,.15-.64,.49,.38,1.75,2.58,2.68,4.22,2.59,1.84-.09,3.53-1.38,4.12-3.11,.26-.78-.92-1.26-1.32-.56Z"/>
        <path class="cls-22" d="M421.19,378c-.1-.1-.18-.14-.31-.18-.32-.1-.61,.07-.8,.32-1.24,1.68-3.55,1.39-4.62-.29-.39-.62-1.3-.08-.98,.57,1.41,2.82,5,2.79,6.82,.43,.19-.24,.09-.65-.11-.85Z"/>
        <path class="cls-22" d="M378.03,388.64c-1.32,.73-2.06,1.65-3.73,1.41-1.51-.22-2.67-1.21-4.02-1.83-.54-.25-1.07,.37-.64,.84,1.21,1.34,2.97,2.42,4.77,2.66,1.93,.25,2.96-.64,4.47-1.62,.9-.58,.1-1.98-.85-1.45Z"/>
        <path class="cls-22" d="M391.29,387.66c-1.23,.81-2.16,1.67-3.75,1.64-1.51-.02-2.57-.88-3.77-1.66-.25-.16-.62,.11-.51,.4,1.26,3.49,7.22,3.74,8.97,.55,.32-.57-.34-1.33-.94-.94Z"/>
        <path class="cls-22" d="M403.16,386.22c-1.31,3.02-4.4,1.5-6.25-.07-.68-.58-1.67,.39-.99,.99,1.44,1.27,3.18,2.55,5.22,2.29,1.56-.2,3.05-1.26,3.2-2.9,.06-.6-.93-.89-1.17-.32Z"/>
        <path class="cls-22" d="M415.61,386.36c-1.62,2.75-4.5,2.24-6.57,.22-.76-.74-1.93,.42-1.17,1.17,1.41,1.37,3.28,2.45,5.31,2.18,1.62-.21,3.38-1.33,3.7-3.03,.14-.75-.86-1.26-1.28-.54Z"/>
        <path class="cls-22" d="M385.05,397.45c-.75,1.36-2.12,1.87-3.62,1.45-1.24-.35-2.06-1.45-3.26-1.77-.13-.03-.31,.07-.29,.22,.22,1.79,2.58,3.03,4.21,3.16,1.82,.15,3.63-.78,4.29-2.51,.3-.78-.94-1.27-1.33-.56Z"/>
        <path class="cls-22" d="M398.83,396.01c-.98,1.19-2.37,1.93-3.94,1.83-1.67-.11-2.69-1.15-3.74-2.31-.36-.4-1.16,.02-.95,.55,1.58,4.05,7.18,3.98,9.71,1.02,.64-.75-.46-1.85-1.09-1.09Z"/>
        <path class="cls-22" d="M412.64,394.92c-.33-.26-.5-.3-.91-.34-.28-.03-.51,.26-.51,.51,0,.1,0,.18,.01,.26-1.16,.8-2.55,1.16-3.97,.82-1.17-.28-2.17-1.02-3.22-1.57-.23-.12-.49,.08-.43,.33,.88,4.17,6.81,3.64,9.19,1.28,.42-.41,.24-.98-.17-1.3Z"/>
        <path class="cls-22" d="M391,404.14c-1.16,2.46-3.33,2.65-5.24,.8-.29-.28-.85,0-.71,.42,1.14,3.41,6.57,2.72,7.21-.68,.13-.71-.9-1.28-1.25-.53Z"/>
        <path class="cls-22" d="M403.44,403.43c-1.18,3.04-4.92,1.54-6.8,.29-.62-.41-1.36,.54-.8,1.03,2.76,2.39,7.57,3.23,9.23-.87,.41-1-1.24-1.46-1.63-.45Z"/>
      </g>
    </g>
    <g>
      <g>
        <path class="cls-24" d="M55.47,200.52c-2.64,5.11-4.37,10.38-4.59,13.39-.07,.93-.03,1.93,.51,2.69,1.38,1.97,4.45,.83,6.47-.47-1.57,3.58-1.47,7.86,.26,11.36,.38,.76,.87,1.53,1.64,1.89,1.27,.59,2.84-.19,3.6-1.37,.76-1.18,.91-2.63,1.05-4.03,.95,1.62,1.92,3.24,2.89,4.84,.57,.95,1.24,1.96,2.3,2.29,1.39,.43,2.89-.6,3.51-1.92,.62-1.31,.6-2.83,.58-4.29-.08-7.51,.49-15.03,1.69-22.44,.64-3.97,2.61-12.71-2.05-15.03-6.68-3.32-13.51,4.66-17.86,13.08Z"/>
        <path class="cls-24" d="M164.42,200.52c2.64,5.11,4.37,10.38,4.59,13.39,.07,.93,.03,1.93-.51,2.69-1.38,1.97-4.45,.83-6.47-.47,1.57,3.58,1.47,7.86-.26,11.36-.38,.76-.87,1.53-1.64,1.89-1.27,.59-2.84-.19-3.6-1.37-.76-1.18-.91-2.63-1.05-4.03-.95,1.62-1.92,3.24-2.89,4.84-.57,.95-1.24,1.96-2.3,2.29-1.39,.43-2.89-.6-3.51-1.92-.62-1.31-.6-2.83-.58-4.29,.08-7.51-.49-15.03-1.69-22.44-.64-3.97-2.61-12.71,2.05-15.03,6.68-3.32,13.51,4.66,17.86,13.08Z"/>
      </g>
      <g>
        <path class="cls-7" d="M81.37,246.69c-.4,.82-.75,1.77-.42,2.62,.4,1,1.65,1.43,2.72,1.25,1.06-.19,1.98-.84,2.85-1.48-.18,.83-.18,1.73,.17,2.51,.35,.78,1.09,1.4,1.94,1.47,1.52,.12,2.58-1.41,3.32-2.74,.75,1.94,2.71,3.34,4.79,3.41,.47,.02,.97-.04,1.36-.31,.27-.19,.47-.46,.63-.75,.5-.87,.77-1.88,.76-2.89-.02-1.73-.84-3.39-2.03-4.65-1.96-2.07-6.37-4.57-9.32-4.67-3.32-.11-5.48,3.62-6.76,6.22Z"/>
        <path class="cls-7" d="M137.52,246.69c.4,.82,.75,1.77,.42,2.62-.4,1-1.65,1.43-2.72,1.25-1.06-.19-1.98-.84-2.85-1.48,.18,.83,.18,1.73-.17,2.51-.35,.78-1.09,1.4-1.94,1.47-1.52,.12-2.58-1.41-3.32-2.74-.75,1.94-2.71,3.34-4.79,3.41-.47,.02-.97-.04-1.36-.31-.27-.19-.47-.46-.63-.75-.5-.87-.77-1.88-.76-2.89,.02-1.73,.84-3.39,2.03-4.65,1.96-2.07,6.37-4.57,9.32-4.67,3.32-.11,5.48,3.62,6.76,6.22Z"/>
      </g>
      <path class="cls-23" d="M146.16,236.69c-.53,1.16-1.45,2.23-2.69,3.2-12.12,9.49-54.86,9.71-67.05,.05-1.24-.98-2.16-2.07-2.7-3.25-6.29-13.76-5.7-55.98,2.47-89.81,.51-2.13,3.29-2.68,4.57-.9,1.74,2.42,4.17,5.46,7.14,8.38,5.58-2.94,13.38-4.76,22.03-4.76s16.46,1.82,22.03,4.76c2.98-2.91,5.4-5.95,7.14-8.38,1.28-1.78,4.06-1.23,4.57,.9,8.18,33.83,8.77,76.05,2.47,89.81Z"/>
      <g>
        <g>
          <g>
            <circle class="cls-27" cx="87.71" cy="182.95" r="22.23" transform="translate(-103.67 115.61) rotate(-45)"/>
            <circle class="cls-1" cx="87.71" cy="182.95" r="16.08"/>
            <path d="M86.66,194.98c2.28,0,4.4-.7,6.15-1.89-2.65-.31-4.71-2.56-4.71-5.3,0-2.95,2.39-5.34,5.34-5.34,1.69,0,3.2,.79,4.18,2.02,0-.15,.01-.31,.01-.46,0-6.06-4.91-10.97-10.97-10.97s-10.97,4.91-10.97,10.97,4.91,10.97,10.97,10.97Z"/>
            <path class="cls-24" d="M99.09,171.58c-5.59-5.59-14.26-6.2-20.53-1.85l22.38,22.38c4.35-6.27,3.74-14.94-1.85-20.53Z"/>
          </g>
          <g>
            <circle class="cls-27" cx="132.17" cy="182.95" r="22.23" transform="translate(-36.56 33.06) rotate(-12.54)"/>
            <circle class="cls-1" cx="132.17" cy="182.95" r="16.08"/>
            <path d="M132.17,195.41c-2.28,0-4.4-.7-6.15-1.89,2.65-.31,4.71-2.56,4.71-5.3,0-2.95-2.39-5.34-5.34-5.34-1.69,0-3.2,.79-4.18,2.02,0-.15-.01-.31-.01-.46,0-6.06,4.91-10.97,10.97-10.97s10.97,4.91,10.97,10.97-4.91,10.97-10.97,10.97Z"/>
            <path class="cls-24" d="M120.8,171.58c5.59-5.59,14.26-6.2,20.53-1.85l-22.38,22.38c-4.35-6.27-3.74-14.94,1.85-20.53Z"/>
          </g>
        </g>
        <path class="cls-7" d="M115.7,187.62c0,2.58-1.85,11.81-5.75,11.81s-5.75-9.23-5.75-11.81,2.58-4.67,5.75-4.67,5.75,2.09,5.75,4.67Z"/>
      </g>
      <path class="cls-19" d="M144.09,233.37c0,2.23-.22,4.41-.62,6.52-12.12,9.49-54.86,9.71-67.05,.05-.42-2.13-.63-4.32-.63-6.57,0-18.86,15.29-34.15,34.15-34.15s34.15,15.29,34.15,34.15Z"/>
      <g>
        <path class="cls-1" d="M94.36,214.29c-.99,.58-1.53,1.43-2.8,1.52-1.4,.1-2.37-.72-3.35-1.6-.13-.12-.36,0-.3,.18,.41,1.44,1.89,2.28,3.33,2.33,1.31,.05,3.28-.65,3.6-2.07,.06-.27-.22-.51-.47-.36Z"/>
        <path class="cls-1" d="M106.22,213.42c-1,.86-1.91,1.58-3.32,1.42-1.23-.14-1.82-.95-2.76-1.6-.27-.19-.57,.12-.51,.4,.27,1.43,2.07,2.33,3.39,2.46,1.54,.16,3.35-.59,4.05-2.02,.27-.56-.38-1.06-.85-.65Z"/>
        <path class="cls-1" d="M119.05,212.71c-1.03,.53-1.71,1.45-2.89,1.76-1.38,.36-2.81-.04-3.55-1.32-.23-.4-.95-.13-.77,.32,1.3,3.25,6.58,3.29,8.01,.04,.23-.53-.25-1.09-.8-.8Z"/>
        <path class="cls-1" d="M130.91,212.25c-1.02,.85-1.8,1.74-3.22,1.83-1.33,.09-2.48-.54-3.49-1.35-.44-.35-1.22,.1-.85,.65,1.93,2.84,7.17,2.88,8.59-.53,.26-.63-.62-.94-1.03-.6Z"/>
        <path class="cls-1" d="M102.21,220.85c-.03-.16-.21-.28-.36-.28-.95,0-1.58,1-2.53,1.24-1.41,.36-2.72-.24-3.71-1.25-.34-.35-.95,.1-.68,.53,.9,1.44,2.49,2.25,4.2,2.1,1.14-.1,3.37-.9,3.09-2.35Z"/>
        <path class="cls-1" d="M111.94,219.35c-.51,1.2-1.7,1.66-2.95,1.6-1.23-.05-2.09-.67-3.05-1.34-.41-.29-.96,.28-.69,.69,1.56,2.38,7.06,2.91,7.85-.46,.15-.66-.86-1.17-1.15-.49Z"/>
        <path class="cls-1" d="M123.34,219.13c-.89,.61-1.47,1.4-2.61,1.59-1.24,.21-2.34-.3-3.18-1.19-.6-.63-1.51,.3-.95,.95,1.05,1.23,2.61,1.87,4.23,1.65,1.3-.18,2.93-1.07,3.25-2.43,.09-.39-.35-.82-.73-.56Z"/>
        <path class="cls-1" d="M98.03,226.89c-.79,.62-1.21,1.37-2.32,1.48-1.02,.1-1.89-.4-2.54-1.14-.35-.39-.94,.11-.7,.54,.69,1.28,2.08,2.08,3.55,1.92,1.28-.14,2.78-1.05,2.93-2.42,.06-.52-.6-.63-.92-.38Z"/>
        <path class="cls-1" d="M108.12,226.24c-.75,.67-1.17,1.44-2.26,1.61-1.05,.17-1.74-.4-2.65-.76-.46-.18-.78,.4-.59,.77,1.24,2.38,6.09,1.64,6.51-1.03,.09-.59-.53-1.01-1.01-.59Z"/>
        <path class="cls-1" d="M118.32,226.47c-.89,.54-1.55,1.15-2.68,1.05-1.11-.1-1.64-.86-2.47-1.45-.44-.32-.95,.2-.85,.66,.61,2.86,5.66,3.12,6.85,.6,.25-.53-.28-1.2-.85-.85Z"/>
        <path class="cls-1" d="M126.26,224.59c-.27,.68-.63,1.28-1.4,1.45-.73,.16-1.45-.18-1.86-.79-.48-.72-1.64-.05-1.16,.68,.7,1.06,1.97,1.74,3.26,1.45,1.21-.27,2.26-1.38,2.3-2.64,.02-.7-.92-.73-1.14-.15Z"/>
        <path class="cls-1" d="M103.79,233.51c-1.23,1.5-4.02,.95-5.08-.5-.38-.52-1.18-.08-.87,.51,1.21,2.32,5.42,3.26,6.97,.78,.39-.62-.55-1.38-1.03-.79Z"/>
        <path class="cls-1" d="M112.6,231.96c-.85,.56-1.3,1.34-2.46,1.31-1.02-.03-1.5-.81-2.37-1.12-.26-.09-.49,.14-.5,.38-.07,1.36,1.74,2.15,2.88,2.23,1.26,.09,3.15-.71,3.38-2.09,.09-.5-.42-1.04-.93-.71Z"/>
        <path class="cls-1" d="M121.79,232.02c-.48,.59-1.11,1.01-1.9,.97-.75-.04-1.27-.47-1.85-.88-.56-.39-1.17,.36-.88,.88,1.23,2.27,4.39,1.62,5.67-.17,.43-.6-.56-1.38-1.04-.8Z"/>
        <path class="cls-1" d="M108.13,238.62c-.41,.62-1.1,1-1.85,.91-.72-.09-1.08-.59-1.65-.95-.33-.21-.63,.13-.59,.45,.15,1.03,1.46,1.68,2.4,1.75,1.19,.1,2.2-.52,2.88-1.47,.51-.72-.7-1.44-1.19-.7Z"/>
        <path class="cls-1" d="M118.2,237.72c-.97,.15-1.62,1.04-2.69,1.11-1.01,.06-1.59-.47-2.2-1.17-.39-.44-.99,.04-.9,.52,.23,1.23,1.65,2,2.81,2.05,1.24,.05,3.21-.62,3.56-1.93,.1-.38-.24-.64-.59-.59Z"/>
      </g>
      <path class="cls-24" d="M116.08,153.13c-.73-.33-1.34,.46-.84,1.09,.76,.96,2.42,1.36,2.52,2.77,.14,1.89-1.96,2.78-3.51,2.89-2.79,.21-5.25-1.31-6.56-3.73-.47-.87-1.83-.27-1.58,.67,.42,1.6-1.61,1.99-2.76,1.87-1.25-.12-2.12-.7-2.83-1.72-.42-.6-1.32-.24-1.18,.5,.7,3.49,6.72,3.76,8.26,1.25,2.31,2.21,5.78,3.37,8.83,2.2,1.62-.62,2.97-2.1,2.95-3.93-.03-1.87-1.73-3.16-3.3-3.86Z"/>
    </g>
  </g>
  <g id="DESIGNED_BY_FREEPIK" data-name="DESIGNED BY FREEPIK">
    <g id="_2" data-name="2">
      <g>
        <g>
          <path class="cls-14" d="M175.68,486.65v-.17c-.23,.27-.46,.48-.69,.65-.23,.17-.47,.29-.73,.38-.26,.09-.55,.13-.86,.13-.41,0-.8-.09-1.15-.26-.35-.18-.66-.43-.91-.75-.26-.32-.45-.71-.59-1.15s-.2-.91-.2-1.42c0-1.08,.26-1.92,.79-2.53,.53-.6,1.22-.9,2.08-.9,.5,0,.92,.09,1.26,.26,.34,.17,.68,.43,1,.79v-2.55c0-.35,.07-.62,.21-.8,.14-.18,.34-.27,.6-.27s.46,.08,.6,.25c.14,.17,.21,.41,.21,.74v7.62c0,.33-.08,.58-.23,.74-.15,.16-.35,.25-.59,.25s-.43-.09-.59-.26c-.15-.17-.23-.42-.23-.73Zm-3.4-2.54c0,.47,.07,.87,.22,1.2,.15,.33,.35,.58,.6,.74,.25,.17,.53,.25,.83,.25s.58-.08,.83-.24c.25-.16,.45-.4,.6-.73,.15-.33,.22-.74,.22-1.23,0-.46-.07-.86-.22-1.19-.15-.33-.35-.58-.61-.76-.26-.17-.53-.26-.84-.26s-.6,.09-.85,.27c-.25,.18-.44,.44-.58,.77-.14,.34-.21,.73-.21,1.17Z"/>
          <path class="cls-14" d="M183.3,484.55h-3.38c0,.39,.08,.74,.24,1.04,.15,.3,.36,.53,.61,.68,.26,.15,.54,.23,.85,.23,.21,0,.4-.02,.57-.07,.17-.05,.34-.12,.5-.23,.16-.1,.31-.21,.44-.33,.13-.12,.31-.28,.53-.48,.09-.08,.22-.11,.38-.11,.18,0,.32,.05,.43,.15,.11,.1,.17,.23,.17,.41,0,.16-.06,.34-.18,.55-.12,.21-.31,.41-.55,.6-.25,.19-.56,.35-.93,.48-.37,.13-.8,.19-1.29,.19-1.11,0-1.97-.32-2.59-.95-.62-.63-.92-1.49-.92-2.58,0-.51,.08-.98,.23-1.42,.15-.44,.37-.81,.66-1.12,.29-.31,.65-.55,1.08-.72,.43-.17,.9-.25,1.42-.25,.67,0,1.25,.14,1.74,.43,.48,.28,.85,.65,1.09,1.1,.24,.45,.36,.91,.36,1.38,0,.44-.12,.72-.37,.85-.25,.13-.6,.19-1.05,.19Zm-3.38-.98h3.13c-.04-.59-.2-1.03-.48-1.33-.28-.29-.64-.44-1.09-.44s-.78,.15-1.06,.45c-.28,.3-.44,.74-.5,1.32Z"/>
          <path class="cls-14" d="M191.18,485.37c0,.48-.12,.89-.35,1.23-.23,.34-.57,.6-1.03,.77-.45,.18-1.01,.26-1.66,.26s-1.15-.1-1.6-.28c-.44-.19-.77-.43-.98-.71-.21-.29-.32-.57-.32-.86,0-.19,.07-.35,.2-.49,.13-.13,.31-.2,.51-.2,.18,0,.32,.04,.42,.13s.19,.21,.28,.37c.18,.31,.39,.54,.64,.69,.25,.15,.58,.23,1.01,.23,.35,0,.63-.08,.85-.23,.22-.16,.33-.33,.33-.53,0-.3-.11-.52-.35-.66-.23-.14-.61-.27-1.14-.4-.59-.15-1.08-.3-1.45-.47-.37-.16-.67-.38-.9-.64-.22-.27-.34-.59-.34-.98,0-.35,.1-.67,.31-.98,.21-.31,.51-.55,.92-.74,.4-.18,.89-.28,1.46-.28,.45,0,.85,.05,1.21,.14,.36,.09,.66,.22,.89,.37,.24,.16,.42,.33,.54,.52,.12,.19,.19,.38,.19,.56,0,.2-.07,.36-.2,.49-.13,.13-.32,.19-.57,.19-.18,0-.33-.05-.45-.15-.12-.1-.27-.25-.43-.45-.13-.17-.28-.3-.46-.41-.18-.1-.42-.15-.72-.15s-.57,.07-.78,.2c-.21,.13-.31,.3-.31,.5,0,.18,.08,.33,.23,.45,.15,.12,.36,.21,.61,.29,.26,.08,.61,.17,1.06,.28,.54,.13,.97,.29,1.31,.47,.34,.18,.6,.4,.77,.64,.17,.25,.26,.53,.26,.84Z"/>
          <path class="cls-14" d="M192.94,479.8c-.24,0-.45-.07-.62-.22-.17-.15-.26-.36-.26-.63,0-.25,.09-.45,.26-.6,.18-.16,.38-.24,.61-.24s.42,.07,.59,.22c.17,.14,.26,.35,.26,.63s-.08,.47-.25,.62c-.17,.15-.37,.23-.6,.23Zm.85,1.78v4.99c0,.35-.08,.61-.25,.79-.16,.18-.37,.27-.63,.27s-.46-.09-.62-.27c-.16-.18-.24-.44-.24-.78v-4.94c0-.34,.08-.6,.24-.77,.16-.17,.36-.26,.62-.26s.46,.09,.63,.26c.16,.17,.25,.41,.25,.72Z"/>
          <path class="cls-14" d="M201.37,481.87v5.02c0,.57-.06,1.07-.18,1.48-.12,.41-.32,.75-.59,1.03-.27,.27-.62,.47-1.06,.6-.44,.13-.98,.2-1.63,.2-.59,0-1.13-.08-1.6-.25-.47-.17-.83-.38-1.08-.65-.25-.26-.38-.53-.38-.81,0-.21,.07-.38,.22-.52,.14-.13,.32-.2,.52-.2,.25,0,.47,.11,.66,.34,.09,.11,.19,.23,.29,.35,.1,.12,.21,.22,.33,.3,.12,.08,.26,.14,.43,.18,.17,.04,.36,.06,.58,.06,.45,0,.79-.06,1.04-.19,.25-.12,.42-.3,.52-.52,.1-.22,.16-.46,.17-.72,.02-.26,.03-.67,.04-1.23-.27,.37-.57,.66-.92,.85-.35,.19-.76,.29-1.24,.29-.58,0-1.08-.15-1.52-.44-.43-.3-.76-.71-1-1.24-.23-.53-.35-1.15-.35-1.84,0-.52,.07-.99,.21-1.41,.14-.42,.34-.77,.6-1.06,.26-.29,.56-.5,.9-.65,.34-.15,.72-.22,1.13-.22,.49,0,.91,.09,1.27,.28,.36,.19,.69,.48,1,.88v-.23c0-.3,.07-.53,.22-.7,.15-.16,.34-.25,.57-.25,.33,0,.55,.11,.66,.33,.11,.22,.17,.53,.17,.94Zm-5.01,2.19c0,.7,.15,1.23,.46,1.59,.31,.36,.7,.54,1.19,.54,.29,0,.56-.08,.81-.23,.26-.15,.46-.39,.62-.7,.16-.31,.24-.69,.24-1.13,0-.7-.15-1.25-.47-1.65-.31-.39-.72-.59-1.23-.59s-.89,.19-1.19,.56c-.3,.37-.45,.91-.45,1.6Z"/>
          <path class="cls-14" d="M204.11,481.56v.21c.3-.4,.64-.7,1-.88,.36-.19,.78-.28,1.24-.28s.86,.1,1.22,.3c.36,.2,.63,.48,.8,.84,.11,.21,.19,.44,.22,.68,.03,.25,.05,.56,.05,.94v3.22c0,.35-.08,.61-.24,.79-.16,.18-.36,.27-.62,.27s-.47-.09-.63-.27c-.16-.18-.24-.44-.24-.78v-2.88c0-.57-.08-1.01-.24-1.31-.16-.3-.47-.45-.95-.45-.31,0-.59,.09-.84,.28-.25,.18-.44,.44-.56,.76-.08,.26-.13,.74-.13,1.44v2.16c0,.35-.08,.61-.24,.79-.16,.18-.37,.26-.63,.26s-.45-.09-.61-.27c-.16-.18-.24-.44-.24-.78v-4.99c0-.33,.07-.58,.22-.74,.14-.16,.34-.24,.59-.24,.15,0,.29,.04,.41,.11,.12,.07,.22,.18,.29,.32,.07,.14,.11,.32,.11,.53Z"/>
          <path class="cls-14" d="M214.63,484.55h-3.38c0,.39,.08,.74,.24,1.04,.15,.3,.36,.53,.61,.68,.25,.15,.54,.23,.84,.23,.21,0,.4-.02,.57-.07,.17-.05,.34-.12,.5-.23,.16-.1,.31-.21,.44-.33,.13-.12,.31-.28,.52-.48,.09-.08,.22-.11,.38-.11,.18,0,.32,.05,.43,.15,.11,.1,.16,.23,.16,.41,0,.16-.06,.34-.18,.55-.12,.21-.31,.41-.55,.6-.25,.19-.56,.35-.93,.48s-.8,.19-1.29,.19c-1.11,0-1.97-.32-2.59-.95-.62-.63-.92-1.49-.92-2.58,0-.51,.08-.98,.23-1.42,.15-.44,.37-.81,.67-1.12,.29-.31,.65-.55,1.08-.72,.43-.17,.9-.25,1.42-.25,.67,0,1.25,.14,1.74,.43,.48,.28,.85,.65,1.09,1.1,.24,.45,.36,.91,.36,1.38,0,.44-.12,.72-.37,.85-.25,.13-.6,.19-1.05,.19Zm-3.38-.98h3.13c-.04-.59-.2-1.03-.48-1.33-.28-.29-.64-.44-1.09-.44s-.78,.15-1.06,.45c-.28,.3-.44,.74-.5,1.32Z"/>
          <path class="cls-14" d="M221.67,486.65v-.17c-.23,.27-.46,.48-.69,.65-.23,.17-.47,.29-.73,.38-.26,.09-.55,.13-.86,.13-.41,0-.8-.09-1.15-.26-.35-.18-.66-.43-.91-.75-.26-.32-.45-.71-.59-1.15-.13-.44-.2-.91-.2-1.42,0-1.08,.26-1.92,.79-2.53,.53-.6,1.22-.9,2.08-.9,.5,0,.92,.09,1.26,.26,.34,.17,.68,.43,1,.79v-2.55c0-.35,.07-.62,.21-.8,.14-.18,.34-.27,.6-.27s.46,.08,.6,.25c.14,.17,.21,.41,.21,.74v7.62c0,.33-.08,.58-.23,.74-.15,.16-.35,.25-.59,.25s-.43-.09-.59-.26c-.15-.17-.23-.42-.23-.73Zm-3.4-2.54c0,.47,.07,.87,.22,1.2,.15,.33,.34,.58,.6,.74,.25,.17,.53,.25,.83,.25s.58-.08,.83-.24c.25-.16,.45-.4,.6-.73,.15-.33,.22-.74,.22-1.23,0-.46-.07-.86-.22-1.19-.15-.33-.35-.58-.61-.76-.26-.17-.53-.26-.84-.26s-.6,.09-.85,.27c-.25,.18-.44,.44-.58,.77-.14,.34-.21,.73-.21,1.17Z"/>
          <path class="cls-14" d="M228.74,479.03v2.64c.32-.34,.66-.6,.99-.78,.34-.18,.76-.27,1.25-.27,.57,0,1.08,.14,1.51,.41,.43,.27,.77,.67,1.01,1.18,.24,.52,.36,1.13,.36,1.84,0,.52-.07,1-.2,1.44-.13,.44-.33,.82-.58,1.14-.25,.32-.56,.57-.92,.74-.36,.18-.76,.26-1.19,.26-.27,0-.52-.03-.75-.1-.23-.06-.43-.15-.6-.25-.16-.1-.3-.21-.42-.32-.12-.11-.27-.27-.46-.49v.17c0,.32-.08,.57-.23,.74-.16,.17-.35,.25-.59,.25s-.44-.08-.59-.25c-.15-.17-.22-.41-.22-.74v-7.55c0-.35,.07-.62,.21-.79,.14-.18,.34-.27,.59-.27,.27,0,.47,.09,.61,.26,.14,.17,.22,.41,.22,.73Zm.08,5.13c0,.69,.16,1.22,.47,1.58,.31,.37,.73,.56,1.24,.56,.43,0,.81-.19,1.12-.57,.31-.38,.47-.92,.47-1.62,0-.46-.06-.85-.2-1.18-.13-.33-.32-.58-.56-.76-.24-.18-.52-.27-.84-.27s-.62,.09-.88,.27c-.26,.18-.46,.44-.61,.78-.15,.34-.22,.74-.22,1.21Z"/>
          <path class="cls-14" d="M236.1,487.85l.16-.39-2.13-5.36c-.13-.31-.2-.53-.2-.67,0-.15,.04-.28,.11-.41,.08-.13,.18-.23,.31-.3,.13-.08,.27-.11,.41-.11,.25,0,.44,.08,.56,.24,.13,.16,.24,.38,.34,.68l1.46,4.25,1.39-3.96c.11-.32,.21-.57,.3-.75,.09-.18,.18-.3,.28-.37,.1-.06,.24-.1,.42-.1,.13,0,.26,.03,.38,.1,.12,.07,.21,.16,.28,.28,.07,.12,.1,.24,.1,.37-.02,.08-.04,.19-.08,.34-.04,.15-.08,.3-.14,.45l-2.25,5.9c-.19,.52-.38,.93-.57,1.22s-.43,.52-.74,.68c-.31,.16-.72,.24-1.24,.24s-.89-.05-1.14-.16c-.25-.11-.38-.31-.38-.6,0-.2,.06-.35,.18-.46,.12-.11,.3-.16,.53-.16,.09,0,.18,.01,.27,.04,.11,.02,.2,.04,.28,.04,.2,0,.35-.03,.47-.09,.11-.06,.22-.16,.31-.31,.09-.14,.2-.36,.31-.64Z"/>
        </g>
        <g>
          <path class="cls-14" d="M261.13,480.76h.41v-.52c0-.54,.07-.97,.2-1.29,.14-.32,.37-.55,.7-.7,.33-.14,.78-.22,1.34-.22,1.01,0,1.51,.24,1.51,.74,0,.16-.05,.3-.16,.41-.1,.11-.23,.17-.37,.17-.07,0-.19-.01-.35-.04-.16-.02-.3-.04-.42-.04-.31,0-.51,.09-.6,.28-.08,.18-.13,.45-.13,.79v.41h.42c.66,0,.99,.2,.99,.6,0,.28-.08,.46-.26,.54-.17,.08-.42,.11-.73,.11h-.42v4.58c0,.34-.08,.6-.25,.78-.16,.18-.37,.27-.63,.27-.24,0-.45-.09-.61-.27-.16-.18-.24-.44-.24-.78v-4.58h-.48c-.26,0-.45-.06-.6-.17-.14-.11-.21-.27-.21-.45,0-.42,.29-.62,.87-.62"/>
          <path class="cls-14" d="M266.79,485.14v1.44c0,.35-.09,.61-.25,.79-.16,.18-.37,.26-.62,.26s-.46-.09-.62-.27c-.16-.18-.24-.44-.24-.78v-4.81c0-.78,.28-1.17,.84-1.17,.29,0,.5,.09,.62,.27,.13,.18,.2,.45,.21,.81,.2-.36,.42-.62,.63-.81,.22-.18,.51-.27,.87-.27s.71,.09,1.06,.27c.34,.18,.51,.42,.51,.72,0,.21-.07,.39-.22,.52-.15,.14-.3,.21-.47,.21-.07,0-.22-.04-.46-.12-.24-.08-.46-.12-.64-.12-.25,0-.46,.07-.62,.2-.16,.14-.29,.33-.38,.59-.09,.26-.15,.58-.18,.94-.03,.36-.05,.8-.05,1.32"/>
          <path class="cls-14" d="M274.74,484.54h-3.38c0,.39,.08,.74,.24,1.04,.16,.3,.36,.52,.62,.68,.26,.15,.54,.23,.85,.23,.21,0,.4-.02,.57-.07,.17-.05,.34-.12,.5-.23,.16-.1,.31-.21,.44-.33,.13-.12,.31-.28,.53-.48,.09-.08,.22-.12,.38-.12,.18,0,.32,.05,.43,.15,.11,.1,.16,.23,.16,.41,0,.16-.06,.34-.18,.55-.12,.21-.31,.41-.56,.6-.25,.19-.56,.35-.93,.48-.37,.13-.8,.19-1.29,.19-1.11,0-1.98-.32-2.59-.95-.62-.63-.93-1.49-.93-2.58,0-.51,.08-.99,.23-1.42,.15-.44,.37-.81,.67-1.12,.29-.31,.65-.55,1.07-.72,.43-.17,.9-.25,1.42-.25,.67,0,1.25,.14,1.74,.43,.48,.28,.85,.65,1.09,1.1,.24,.45,.36,.91,.36,1.38,0,.43-.13,.71-.37,.84-.25,.13-.6,.19-1.05,.19m-3.38-.98h3.13c-.04-.59-.2-1.03-.48-1.32-.28-.29-.64-.44-1.09-.44-.43,0-.78,.15-1.06,.45-.28,.3-.45,.74-.5,1.32"/>
          <path class="cls-14" d="M281.92,484.54h-3.38c0,.39,.08,.74,.24,1.04,.15,.3,.36,.52,.61,.68,.26,.15,.54,.23,.85,.23,.21,0,.4-.02,.56-.07,.17-.05,.34-.12,.5-.23,.16-.1,.31-.21,.44-.33,.13-.12,.31-.28,.53-.48,.09-.08,.22-.12,.38-.12,.18,0,.32,.05,.43,.15,.11,.1,.16,.23,.16,.41,0,.16-.06,.34-.18,.55-.12,.21-.3,.41-.55,.6-.25,.19-.56,.35-.93,.48-.37,.13-.81,.19-1.29,.19-1.11,0-1.97-.32-2.59-.95-.62-.63-.93-1.49-.93-2.58,0-.51,.08-.99,.23-1.42,.15-.44,.37-.81,.66-1.12,.29-.31,.65-.55,1.08-.72,.43-.17,.9-.25,1.42-.25,.67,0,1.25,.14,1.74,.43,.48,.28,.84,.65,1.08,1.1,.24,.45,.36,.91,.36,1.38,0,.43-.13,.71-.37,.84-.25,.13-.6,.19-1.05,.19m-3.38-.98h3.13c-.04-.59-.2-1.03-.48-1.32-.28-.29-.64-.44-1.09-.44-.43,0-.78,.15-1.06,.45-.28,.3-.44,.74-.5,1.32"/>
          <path class="cls-14" d="M285.71,481.58v.21c.32-.4,.66-.69,1.02-.88,.35-.19,.75-.28,1.19-.28,.53,0,1.02,.14,1.47,.41,.45,.28,.8,.68,1.06,1.2,.26,.53,.39,1.15,.39,1.88,0,.53-.07,1.02-.22,1.47-.15,.45-.36,.82-.62,1.12-.26,.3-.57,.53-.93,.7-.36,.16-.74,.24-1.15,.24-.49,0-.91-.1-1.24-.3-.34-.19-.65-.49-.96-.87v2.59c0,.76-.28,1.14-.83,1.14-.33,0-.54-.1-.65-.29-.1-.2-.16-.48-.16-.86v-7.46c0-.33,.07-.57,.21-.74,.14-.16,.34-.24,.59-.24s.44,.08,.6,.25c.16,.17,.23,.41,.23,.72m3.39,2.51c0-.46-.07-.85-.21-1.17-.14-.33-.33-.58-.58-.75-.24-.18-.52-.26-.82-.26-.48,0-.88,.19-1.21,.56-.33,.38-.49,.93-.49,1.66,0,.68,.16,1.22,.49,1.6,.32,.38,.72,.57,1.21,.57,.29,0,.55-.08,.8-.25,.25-.17,.44-.42,.59-.75,.15-.33,.22-.74,.22-1.21"/>
          <path class="cls-14" d="M292.57,479.8c-.24,0-.45-.08-.62-.22-.17-.15-.26-.35-.26-.62,0-.25,.09-.45,.26-.61,.17-.16,.38-.24,.61-.24s.42,.07,.6,.21c.17,.15,.26,.36,.26,.63s-.08,.47-.25,.62c-.17,.15-.37,.22-.6,.22m.86,1.79v5c0,.34-.08,.61-.25,.78-.17,.18-.37,.27-.63,.27s-.46-.09-.62-.27c-.16-.18-.24-.44-.24-.78v-4.95c0-.34,.08-.6,.24-.77,.16-.18,.36-.26,.62-.26s.46,.08,.63,.26c.16,.17,.25,.41,.25,.72"/>
          <path class="cls-14" d="M299,486.84l-1.52-2.51-.94,.89v1.38c0,.33-.09,.59-.26,.77-.17,.18-.38,.27-.6,.27-.27,0-.48-.09-.63-.27-.15-.18-.23-.44-.23-.78v-7.37c0-.38,.08-.67,.22-.88,.15-.2,.36-.3,.64-.3s.48,.09,.63,.27c.16,.18,.24,.45,.24,.8v4.19l1.94-2.04c.24-.25,.42-.43,.55-.52,.13-.09,.28-.14,.46-.14,.22,0,.4,.07,.54,.21,.14,.14,.21,.31,.21,.52,0,.25-.24,.59-.7,1.01l-.92,.84,1.77,2.79c.13,.21,.23,.36,.28,.47,.06,.11,.09,.21,.09,.31,0,.28-.08,.49-.23,.65-.15,.16-.35,.24-.59,.24-.21,0-.38-.05-.49-.17-.11-.12-.27-.32-.46-.62"/>
          <path class="cls-14" d="M302.76,487.63c-.26,0-.48-.08-.68-.25-.19-.17-.29-.4-.29-.71,0-.26,.09-.48,.27-.66,.18-.19,.4-.28,.67-.28s.49,.09,.68,.27c.19,.18,.28,.41,.28,.67,0,.3-.1,.54-.28,.71-.19,.17-.41,.26-.67,.26"/>
          <path class="cls-14" d="M311.35,485.49c0,.21-.06,.45-.19,.69-.13,.25-.33,.48-.59,.7-.26,.22-.59,.4-1,.54-.4,.13-.85,.2-1.35,.2-1.07,0-1.91-.31-2.5-.93-.6-.62-.9-1.46-.9-2.51,0-.71,.14-1.34,.41-1.88,.27-.54,.67-.96,1.19-1.26,.52-.3,1.14-.45,1.86-.45,.45,0,.86,.07,1.23,.2,.37,.13,.69,.3,.95,.51,.26,.21,.46,.43,.59,.66,.14,.23,.2,.45,.2,.66s-.08,.38-.23,.52c-.16,.14-.34,.22-.56,.22-.15,0-.26-.04-.36-.11-.1-.07-.2-.19-.32-.36-.21-.32-.43-.56-.66-.72-.23-.16-.52-.24-.88-.24-.51,0-.92,.2-1.24,.6-.31,.4-.47,.95-.47,1.64,0,.33,.04,.63,.12,.9,.08,.27,.19,.5,.35,.7,.15,.19,.34,.34,.55,.44,.22,.1,.45,.15,.71,.15,.35,0,.64-.08,.89-.24,.25-.16,.47-.4,.66-.73,.11-.19,.22-.35,.34-.46,.12-.11,.27-.17,.45-.17,.21,0,.39,.08,.52,.24,.14,.16,.21,.33,.21,.51"/>
          <path class="cls-14" d="M318.81,484.12c0,.51-.08,.99-.24,1.43-.16,.43-.39,.81-.7,1.12-.3,.31-.67,.55-1.09,.72-.43,.16-.9,.25-1.43,.25s-1-.09-1.41-.26c-.42-.17-.78-.41-1.08-.72-.31-.32-.54-.69-.7-1.12-.15-.43-.23-.9-.23-1.42s.08-1,.24-1.44c.16-.44,.39-.81,.69-1.11,.3-.31,.66-.54,1.09-.71,.43-.17,.9-.25,1.41-.25s1,.08,1.43,.25c.43,.17,.79,.41,1.1,.72,.31,.32,.53,.69,.69,1.11,.16,.43,.24,.91,.24,1.43m-1.74,0c0-.71-.16-1.25-.47-1.65-.31-.4-.73-.59-1.25-.59-.34,0-.64,.09-.89,.26-.26,.17-.45,.43-.59,.78-.14,.34-.21,.74-.21,1.2s.07,.84,.21,1.18c.14,.34,.33,.6,.59,.78,.26,.18,.56,.27,.9,.27,.52,0,.94-.2,1.25-.59,.31-.39,.47-.94,.47-1.63"/>
          <path class="cls-14" d="M325.41,484.25v2.3c0,.36-.08,.63-.25,.82-.17,.18-.38,.27-.65,.27s-.48-.09-.63-.27c-.16-.18-.25-.45-.25-.82v-2.75c0-.44-.01-.77-.04-1.02-.03-.24-.11-.44-.24-.59-.13-.16-.34-.23-.62-.23-.57,0-.94,.19-1.12,.59-.18,.38-.27,.94-.27,1.67v2.33c0,.36-.08,.63-.24,.82-.17,.18-.38,.27-.64,.27s-.48-.09-.64-.27c-.17-.18-.25-.46-.25-.82v-4.94c0-.33,.07-.57,.22-.74,.15-.17,.35-.25,.59-.25s.43,.08,.59,.24c.16,.16,.24,.38,.24,.66v.16c.3-.36,.62-.62,.96-.79,.34-.17,.72-.26,1.14-.26s.81,.09,1.12,.26c.31,.17,.57,.44,.77,.78,.29-.35,.61-.61,.94-.79,.33-.17,.7-.26,1.11-.26,.47,0,.88,.09,1.22,.28,.34,.19,.59,.45,.76,.8,.15,.31,.22,.81,.22,1.48v3.37c0,.36-.08,.63-.24,.82-.16,.18-.38,.27-.65,.27s-.48-.09-.64-.27c-.17-.18-.25-.46-.25-.82v-2.91c0-.37-.02-.67-.05-.89-.03-.22-.12-.41-.26-.56-.14-.15-.35-.23-.64-.23-.23,0-.44,.07-.65,.2-.2,.13-.36,.32-.48,.54-.12,.29-.19,.81-.19,1.55"/>
        </g>
        <g>
          <path class="cls-14" d="M244.96,483.7s0,0,0-.01c0,0,0,0,0,.01Z"/>
          <path class="cls-14" d="M245.05,484.25h0c-.03-.16-.06-.31-.08-.47,.02,.16,.05,.31,.08,.47Z"/>
          <path class="cls-14" d="M245.62,485.86s0-.01-.01-.02c0,0,0,.02,.01,.02Z"/>
          <path class="cls-14" d="M245.56,485.75s-.03-.06-.04-.09c.01,.03,.03,.06,.04,.09Z"/>
          <path class="cls-14" d="M245.21,484.87c.08,.27,.19,.53,.3,.77-.12-.25-.22-.51-.3-.77h0Z"/>
          <path class="cls-14" d="M251.65,477.08c.33,0,.58,.03,.86,.07l.08-.51s-.78-.24-1.81-.16l-.08-.28c.32-.07,.56-.35,.56-.69,0-.39-.32-.7-.7-.7s-.7,.31-.7,.7c0,.34,.24,.62,.56,.69l.09,.31c-1.09,.15-1.96,.57-1.96,.57l.15,.47c.66-.22,1.23-.35,1.75-.41,.51-.05,.89-.08,1.2-.08Z"/>
          <path class="cls-14" d="M245.6,479.65h0s.05-.07,.08-.1l-.21-.15-.33-.24s-.53,.5-.93,1.36c-.02-.03-.04-.05-.06-.08-.12-.13-.29-.2-.51-.2h0c-.13,0-.22-.04-.28-.1,.06-.08,.1-.17,.1-.28,0-.25-.2-.45-.45-.45s-.45,.2-.45,.45,.2,.45,.45,.45c.04,0,.08,0,.11-.01,.11,.12,.28,.23,.54,.22,.13,0,.23,.03,.29,.1,.07,.08,.1,.2,.11,.28,0,0,0,0,0,0-.29,.79-.21,1.78-.21,1.78l.7,.03c.01-.36,.07-.99,.25-1.49,.35-.97,.79-1.57,.81-1.6Z"/>
          <path class="cls-14" d="M257.78,477.67c-.25,0-.45,.2-.45,.45,0,.04,0,.07,.02,.11-.12,.11-.23,.29-.22,.54,0,.13-.03,.23-.1,.29-.06,.05-.13,.08-.2,.09-.52-.73-1.17-1.18-1.17-1.18l-.51,.54c.38,.35,.77,.78,1.15,1.33,.26,.38,.53,.86,.76,1.34l.68-.32s-.31-.77-.75-1.46c.08-.03,.15-.07,.22-.13,.13-.12,.2-.29,.2-.51,0-.14,.04-.23,.1-.29,.08,.06,.17,.1,.27,.1,.25,0,.45-.2,.45-.45s-.2-.45-.45-.45Z"/>
          <path class="cls-14" d="M256.01,483.8c-.94,.46-2.48,1.06-4.52,1.35-.8,.11-1.57,.15-2.28,.15-.93,0-1.75-.07-2.37-.15-.72-.09-1.28-.2-1.62-.28,.08,.26,.18,.52,.3,.77,0,0,0,.01,0,.02,.01,.03,.03,.06,.04,.09,.01,.03,.03,.06,.04,.08,0,0,0,.02,.01,.02,.2,.38,.44,.73,.72,1.03,.96,1.05,1.94,1.22,1.95,1.22h.02s.01,0,.01,0c0,0,.88,.28,2.19,.28s2.57-.26,3.78-.78c.9-.46,1.75-1.16,2.17-1.78,.33-.48,.56-1,.7-1.53,.07-.28,.13-.74,.1-1.22-.26,.18-.68,.43-1.25,.71Z"/>
          <path class="cls-14" d="M245.91,479.87s-.43,.62-.76,1.5c-.24,.66-.23,1.63-.23,1.64h0c0,.23,.01,.45,.04,.68,0,0,0,0,0,.01,0,.03,0,.06,.01,.08,.02,.15,.05,.31,.08,.47,.47,.12,3.25,.77,6.36,.33,1.95-.27,3.43-.85,4.33-1.28,.75-.36,1.23-.69,1.41-.83-.18-.69-.69-1.76-1.16-2.43-1.34-1.91-2.78-2.4-3.52-2.52-.28-.05-.51-.07-.83-.07-.3,0-.67,.02-1.16,.08-.5,.05-1.05,.18-1.69,.4-.9,.3-1.71,.77-2.35,1.36l-.02,.02c-.09,.09-.29,.27-.52,.56Zm8.18-.44c.64,0,1.16,.52,1.16,1.16s-.52,1.16-1.16,1.16-1.16-.52-1.16-1.16,.52-1.16,1.16-1.16Zm-5.49-.05c1.04,0,1.88,.84,1.88,1.88s-.84,1.88-1.88,1.88-1.88-.84-1.88-1.88,.84-1.88,1.88-1.88Z"/>
        </g>
      </g>
    </g>
  </g>
</svg>