<?xml version="1.0" encoding="UTF-8"?>
<svg id="Layer_1" data-name="Layer 1" xmlns="http://www.w3.org/2000/svg" viewBox="0 0 500 500">
  <defs>
    <style>
      .cls-1 {
        fill: #c2e9fc;
      }

      .cls-2 {
        fill: #f46a60;
      }

      .cls-3 {
        fill: #fff;
      }

      .cls-4 {
        fill: #49ad9f;
      }

      .cls-5 {
        fill: #ff98aa;
      }

      .cls-6 {
        fill: #cad6db;
      }

      .cls-7 {
        fill: #4859b8;
      }

      .cls-8 {
        fill: #ff438d;
      }

      .cls-9 {
        fill: #5767bf;
      }

      .cls-10 {
        fill: #8ad779;
      }

      .cls-11 {
        fill: #21defc;
      }

      .cls-12 {
        fill: #4848b6;
      }

      .cls-13 {
        stroke: #4c2e6d;
        stroke-linecap: round;
        stroke-linejoin: round;
      }

      .cls-13, .cls-14 {
        fill: none;
      }

      .cls-15 {
        fill: #fa2d7e;
      }

      .cls-16 {
        fill: #4c2e6d;
      }

      .cls-17 {
        fill: #984aff;
      }

      .cls-18 {
        fill: #393999;
      }

      .cls-19 {
        fill: #ff8095;
      }

      .cls-20 {
        fill: #f9a125;
      }

      .cls-21 {
        fill: #addbf2;
      }

      .cls-22 {
        fill: #f08e16;
      }

      .cls-23 {
        fill: #d93475;
      }

      .cls-24 {
        fill: #fef047;
      }
    </style>
  </defs>
  <g id="BACKGROUND">
    <rect class="cls-14" width="500" height="500"/>
  </g>
  <g id="OBJECTS">
    <g>
      <g>
        <path class="cls-1" d="M237.3,448.6c-100.53,2.93-242.54-96.18-195.62-196.62,42.95-91.94,147.84-25.22,212.67-18.51,64.83,6.71,128.9-44.57,183.93,9.12s29.53,199.31-200.98,206.02h0Z"/>
        <path class="cls-1" d="M100.73,125.82c0,54.04,76.5,86.34,120.34,72.03,43.84-14.32,55.79-45,40.26-68.9-15.52-23.9-62.15-11.11-91.27-37.58-24.61-22.37-69.34-.89-69.34,34.45h0Z"/>
        <circle class="cls-1" cx="420.75" cy="185.18" r="22.15"/>
        <circle class="cls-1" cx="68.35" cy="168.03" r="22.15"/>
        <path class="cls-21" d="M61.11,267.07c-15.03,20.57-3.3,54.2,24.26,60.4,26.62,5.99,59.08-24,43.52-54.07-14.28-27.59-50.75-29.63-67.78-6.33Z"/>
        <path class="cls-21" d="M384.58,373.88c-14.69-7.48-33.49-28.75-24.53-51.16,8.97-22.42,35.34-16.35,36.66-1.05,1.32,15.3,1.23,19.1,10.2,26.12,13.8,10.8,6.15,40.6-22.33,26.1h0Z"/>
      </g>
      <g>
        <path class="cls-13" d="M116.89,192.69c0-1.31-1.06-2.37-2.37-2.37s-2.37,1.06-2.37,2.37,1.06,2.37,2.37,2.37,2.37-1.06,2.37-2.37Z"/>
        <path class="cls-13" d="M390.25,86.67c0-1.31-1.06-2.37-2.37-2.37s-2.37,1.06-2.37,2.37,1.06,2.37,2.37,2.37,2.37-1.06,2.37-2.37Z"/>
        <circle class="cls-13" cx="415.44" cy="276.96" r="2.37"/>
        <path class="cls-13" d="M127.97,63.33c0-1.31-1.06-2.37-2.37-2.37s-2.37,1.06-2.37,2.37,1.06,2.37,2.37,2.37,2.37-1.06,2.37-2.37Z"/>
        <path class="cls-13" d="M95.26,365.84c0-1.31-1.06-2.37-2.37-2.37s-2.37,1.06-2.37,2.37,1.06,2.37,2.37,2.37,2.37-1.06,2.37-2.37Z"/>
        <polygon class="cls-13" points="383.4 350.7 376.8 350.7 380.12 345.1 383.4 350.7"/>
        <polygon class="cls-13" points="184.93 230.27 178.34 230.27 181.65 224.68 184.93 230.27"/>
        <polygon class="cls-13" points="64.93 151.36 71.53 151.36 68.21 156.96 64.93 151.36"/>
        <polygon class="cls-13" points="429.2 196.24 433.86 191.58 435.47 197.87 429.2 196.24"/>
        <polygon class="cls-13" points="90.07 284.78 94.74 280.12 96.35 286.42 90.07 284.78"/>
        <polygon class="cls-13" points="432.21 119.04 436.88 114.38 438.49 120.68 432.21 119.04"/>
      </g>
      <g>
        <path class="cls-3" d="M137.15,119.35c-1.7-.11-.39,7.08-2.43,9.44-2.03,2.36-8.59,1.31-8.98,3.02-.39,1.7,8.46-.39,9.18,3.15s.46,10.49,2.23,10.49-.39-8.33,2.89-10.69,6.88-.33,6.89-2.36c0-1.51-6.69-.45-7.74-3.4s0-9.51-2.03-9.65h-.01Z"/>
        <path class="cls-3" d="M72.86,337.57c-1.7-.11-.39,7.08-2.43,9.44-2.03,2.36-8.59,1.31-8.98,3.02-.39,1.7,8.46-.39,9.18,3.15s.46,10.49,2.23,10.49-.39-8.33,2.89-10.69,6.88-.33,6.89-2.36c0-1.51-6.7-.45-7.74-3.4-1.05-2.95,0-9.51-2.03-9.65h-.01Z"/>
        <path class="cls-3" d="M391.49,390.15c-1.7-.11-.39,7.08-2.43,9.44-2.03,2.36-8.59,1.31-8.98,3.02-.39,1.7,8.46-.39,9.18,3.15s.46,10.49,2.23,10.49-.39-8.33,2.89-10.69,6.88-.33,6.89-2.36c0-1.51-6.69-.45-7.74-3.4-1.05-2.95,0-9.51-2.03-9.65h-.01Z"/>
        <path class="cls-3" d="M426.9,302.49c-1.7-.11-.39,7.08-2.43,9.44-2.03,2.36-8.59,1.31-8.98,3.02-.39,1.7,8.46-.39,9.18,3.15s.46,10.49,2.23,10.49-.39-8.33,2.89-10.69,6.88-.33,6.89-2.36c0-1.51-6.69-.45-7.74-3.4-1.05-2.95,0-9.51-2.03-9.65h-.01Z"/>
        <path class="cls-3" d="M133.59,246.64c0,1.97,7.28,.26,9.64,2.62s1.9,9.38,3.34,9.38-.2-8.13,1.97-10.43c2.16-2.3,8.52-.98,8.52-2.62s-8.26-.07-9.31-2.1-1.38-9.51-2.89-9.51-.33,7.61-1.9,9.9-9.38,1.05-9.38,2.75h0Z"/>
        <path class="cls-3" d="M60.83,91.4c0,1.97,7.28,.26,9.64,2.62s1.9,9.38,3.34,9.38-.2-8.13,1.97-10.43c2.16-2.3,8.52-.98,8.52-2.62s-8.26-.07-9.31-2.1c-1.05-2.03-1.38-9.51-2.89-9.51s-.33,7.61-1.9,9.9-9.38,1.05-9.38,2.75h0Z"/>
        <path class="cls-3" d="M393.28,104.73c0,1.97,7.28,.26,9.64,2.62s1.9,9.38,3.34,9.38-.2-8.13,1.97-10.43c2.16-2.3,8.52-.98,8.52-2.62s-8.26-.07-9.31-2.1-1.38-9.51-2.89-9.51-.33,7.61-1.9,9.9-9.38,1.05-9.38,2.75h.01Z"/>
      </g>
    </g>
    <g>
      <g>
        <g>
          <path class="cls-16" d="M147.73,434.07l-1.27,31.81c-.09,2.33,3.14,2.99,3.97,.82l11.18-29.19-13.89-3.44h.01Z"/>
          <path class="cls-16" d="M336.43,436.36l11.33,29.75c.83,2.17,4.06,1.52,3.98-.81l-1.18-31.23-14.12,2.29h-.01Z"/>
        </g>
        <g>
          <path class="cls-20" d="M159.42,369.75s-34.94-.19-37.62,25.24c-2.68,25.43,4.03,43.88,57.38,55.96s107.37,14.76,151.66-1.01c44.29-15.77,46.97-37.24,36.57-55.7-10.4-18.45-21.81-11.74-22.48-70.8-.67-59.05-.48-66.55-52.68-74.15-49.06-7.15-72.03-7.83-92.38-4.7-19.23,2.96-32.88,23.49-36.46,76.73-3.01,44.8-3.98,48.43-3.98,48.43h-.01Z"/>
          <path class="cls-22" d="M245.94,374.45c-40.94,.57-107.15,.11-110.95,11.3-3.8,11.18,77.4,24.16,109.83,24.61,32.43,.45,105.62-2.87,107.37-18.34,1.75-15.48-41.58-18.47-106.25-17.56h0Z"/>
          <path class="cls-22" d="M372.17,407.46c-19.02,14.75-61.56,40.88-124.55,41.14-64.19,.27-105.35-17.96-122.86-27.79,6.04,12.62,21.17,22.62,54.41,30.14,53.35,12.08,107.37,14.76,151.66-1.01,34.02-12.11,43.49-27.59,41.34-42.48h0Z"/>
          <path class="cls-22" d="M296.73,249.97l5.14,58.53,16.52-.1c-.79-17.01-8.41-23.24-10.38-36.79-1.22-8.35-4.15-12.76-4.15-12.76,.08-3.33,.52-6,.84-7.55-2.5-.46-5.14-.9-7.96-1.34h-.01Z"/>
        </g>
        <g>
          <path class="cls-3" d="M143.27,320.77l7.72,62.41s98.11-7.39,190.15-2.35l11.17-66.43s-93.28-32.55-209.04,6.38h0Z"/>
          <path class="cls-6" d="M343.51,360.58s-.1,13.1-13.15,18.71c0,0-5.08,.86-5.27,.73-.2-.13-2.37-12.53-2.37-12.53l20.8-6.91h-.01Zm-24.1-53.98c-3.86-.66-8.02-1.3-12.46-1.89l-2.19,41.01,13.13-5.73c4.71-14.12,2.67-27.91,1.52-33.39Zm-126.39,59.5l-32.57-16.48s-4.5,19.99,15.06,32.05c4.51-.24,9.56-.49,15.07-.74l2.44-14.83h0Zm-3.03-25.32l9.23-16.09-18.1-14.43c-1.59,.35-3.18,.72-4.79,1.09-.64,6.77,.13,20.07,13.65,29.43h.01Z"/>
        </g>
      </g>
      <g>
        <g>
          <g>
            <path class="cls-12" d="M269.65,226.93s-26.28,6.82-31.99-15.32c-5.7-22.15,11.99-26.43-3.11-37.51s-50.18,3.16-61.45-18.99c-5.23-10.28-2.57-29.08,24.86-31.97,19.45-2.05,29.64-7.16,24.38-25.28-5.26-18.12-12.97-43.51,10.29-51.78,23.26-8.28,31.21,3.53,38.81,14.65,8.67,12.69,17.96-1.89,26.67-9.86,18.4-16.81,41.55,4.4,41.34,19.78-.22,16.55-11.09,29.9,7.93,30.45,19.01,.56,32.1,1.01,35.38,10.85,3.7,11.11-6.9,17.1-4.4,26.28,3.36,12.34,21.55,10.01,32.73,36.5,15.98,37.87-1.99,68.16-30.17,78.75-28.18,10.59-58.26,3.96-91.37-23.13l-19.91-3.43h0Z"/>
            <path class="cls-12" d="M394.69,135.33c-2.7,7.88,9.05,11.15,15.31,15.89,6.08,4.6,4.37,13.86,11.76,17.88,7.38,4.03,16.66-9.51,6.71-26.32-8.74-14.76-31.09-15.28-33.77-7.45h-.01Z"/>
            <path class="cls-12" d="M196.84,96.41c-9.1,.84-12.08,16.11,2.24,16.22,14.32,.11,12.3-17.56-2.24-16.22Z"/>
            <path class="cls-12" d="M347.57,87.35c2.58,5.16,19.09,4.92,22.52-7.38s-2.31-25.05-11.18-22.97c-8.87,2.09-9.15,10.54-8.35,15.66,1.19,7.68-5.82,9.02-2.98,14.69h0Z"/>
            <path class="cls-12" d="M230.95,189.48c2.01-5.41-9.43-17.31-20.77-11.42-11.33,5.89-16.73,18.79-9.15,23.85s13.95-.51,17.14-4.59c4.8-6.11,10.56-1.91,12.77-7.85h0Z"/>
          </g>
          <g>
            <path class="cls-21" d="M231.75,147.16v-3.61l-3.38-.22c-.25-1.19-.72-2.3-1.36-3.28l2.24-2.55-2.55-2.55-2.55,2.24c-.99-.64-2.09-1.11-3.28-1.36l-.22-3.38h-3.61l-.22,3.38c-1.19,.25-2.3,.72-3.28,1.36l-2.55-2.24-2.55,2.55,2.24,2.55c-.64,.99-1.11,2.09-1.36,3.28l-3.38,.22v3.61l3.38,.22c.25,1.19,.72,2.3,1.36,3.28l-2.24,2.55,2.55,2.55,2.55-2.24c.99,.64,2.09,1.11,3.28,1.36l.22,3.38h3.61l.22-3.38c1.19-.25,2.3-.72,3.28-1.36l2.55,2.24,2.55-2.55-2.24-2.55c.64-.99,1.11-2.09,1.36-3.28l3.38-.22Zm-12.91,1.9c-2.04,0-3.7-1.66-3.7-3.7s1.66-3.7,3.7-3.7,3.7,1.66,3.7,3.7-1.66,3.7-3.7,3.7Z"/>
            <path class="cls-21" d="M254.27,133.36v-3.61l-3.38-.22c-.25-1.19-.72-2.3-1.36-3.28l2.24-2.55-2.55-2.55-2.55,2.24c-.99-.64-2.09-1.11-3.28-1.36l-.22-3.38h-3.61l-.22,3.38c-1.19,.25-2.3,.72-3.28,1.36l-2.55-2.24-2.55,2.55,2.24,2.55c-.64,.99-1.11,2.09-1.36,3.28l-3.38,.22v3.61l3.38,.22c.25,1.19,.72,2.3,1.36,3.28l-2.24,2.55,2.55,2.55,2.55-2.24c.99,.64,2.09,1.11,3.28,1.36l.22,3.38h3.61l.22-3.38c1.19-.25,2.3-.72,3.28-1.36l2.55,2.24,2.55-2.55-2.24-2.55c.64-.99,1.11-2.09,1.36-3.28l3.38-.22Zm-12.91,1.9c-2.04,0-3.7-1.66-3.7-3.7s1.66-3.7,3.7-3.7,3.7,1.66,3.7,3.7-1.66,3.7-3.7,3.7Z"/>
            <g>
              <path class="cls-4" d="M290.17,99.3s-13.55-2.84-16.94-12.47c-4.7-13.35,17.9-12.82,16.94,12.47Z"/>
              <path class="cls-4" d="M295.7,115.88s3.15-8.7,10.21-14.04c10.64-8.05,21.46,12.68-10.21,14.04Z"/>
              <path class="cls-4" d="M296.15,121.45s-3.9-11.85-16.21-13.75c-12.3-1.9-8.16,16.89,16.21,13.75Z"/>
              <path class="cls-4" d="M292.99,144.89s3.2-7.01,12.79-10.49c11.51-4.18,16.81,14.17-12.79,10.49Z"/>
              <path class="cls-4" d="M290.36,152.57s1.37-14.52-6.46-20.11-14.44,10.54,6.46,20.11Z"/>
              <path class="cls-4" d="M284.82,169.63s4.3-7.43,13.01-11.22c10.81-4.7,17.07,15.13-13.01,11.22Z"/>
              <path class="cls-13" d="M281.7,88.06c4.02,4.12,8.47,11.24,8.47,11.24,9.88,16.51,6.24,40.14-1.28,56.72-8.72,19.24-2.01,31.99-2.01,31.99"/>
            </g>
            <g>
              <path class="cls-4" d="M366.28,171.9s-4.65-13.04,1.79-20.96c8.93-10.98,20.28,8.56-1.79,20.96Z"/>
              <path class="cls-4" d="M355.66,183.64s8-4.65,16.84-4.21c13.32,.66,8.3,23.5-16.84,4.21Z"/>
              <path class="cls-4" d="M350.9,187.24s9.07-8.57,5.56-20.51c-3.5-11.95-18.76-.22-5.56,20.51Z"/>
              <path class="cls-4" d="M338.9,193.3s7.13-2.92,16.51,1.09c11.26,4.82,2.58,21.83-16.51-1.09Z"/>
              <path class="cls-4" d="M330.49,195.6s11.54-8.91,10.29-18.45-17.56-3.36-10.29,18.45Z"/>
              <path class="cls-4" d="M318.53,196.74s8.53,.97,15.48,7.46c8.62,8.04-7.07,21.69-15.48-7.46Z"/>
              <path class="cls-13" d="M371.2,161.93c-1.9,5.96-4.92,9.97-4.92,9.97-23.26,33.33-60.62,23.49-60.62,23.49"/>
            </g>
            <g>
              <path class="cls-4" d="M266.48,118.07s-3.35-1.65-6.93-2.59c-7.57-2.68-15.56,.53-20.87-5.3-1.76-1.93-2.06-7.08,1.67-9.31,0,0-9.1-11.33-4.25-17.37s13.94,3.36,13.94,3.36c0,0,.6-5.52,4.55-6.11,3.95-.59,5.67,4.1,6.04,9.47,0,0,1.94-3.8,6.19-2.68s4.28,6.9,2.83,12.6c-2.01,7.9,2.6,10.39-3.18,17.95v-.02Z"/>
              <path class="cls-13" d="M246.99,93.23s24.27,11.3,20.02,40.71"/>
            </g>
            <g>
              <path class="cls-4" d="M358.66,230.9s-5.08-10.28-9.82-9.29c-3.41,.71-1.57,5.26-1.57,5.26,0,0-6.14-8.29-10.83-6.27-4.69,2.02-2.79,8.38-2.79,8.38,0,0-10.67-.87-9.69,5.41s8.21,8.31,13.42,4.82c0,0-3.48,7.13,1.04,8.79,4.51,1.66,8.58-6.45,8.58-6.45,0,0-.32,3.47,3.29,3.78,5.07,.43,8.37-14.42,8.37-14.42h0Z"/>
              <path class="cls-13" d="M335.94,235.08s17.17-8.27,36.18-1.65"/>
            </g>
            <path class="cls-3" d="M217.18,161.1c-7.31,0-6.08-4.12-3.67-4.85,2.4-.73,3.91,.78,3.91,.78,0,0-.89-4.81,2.96-6.6,3.86-1.79,5.7,2.18,5.7,2.18,0,0,.22-6.38,4.87-6.49,4.64-.11,5.82,4.81,5.82,4.81,0,0,.5-3.13,2.35-3.13s2.18,3.13,2.18,3.13c0,0,1.51-7.1,6.71-5.54,5.2,1.57,3.88,10.4,3.88,10.4,0,0,8.13-1.08,8.13,2.1s-4.24,3.19-8.77,3.19h-34.08v.02Z"/>
            <path class="cls-3" d="M371.95,221.49c-6.94,0-9.12-1.57-8.51-4.08s6.67-.61,6.67-.61c0,0-2.25-2.66-.95-4.97,1.29-2.31,5.45-1.5,5.45-1.5,0,0-2.31-9.82,5.92-12.4,8.24-2.58,12.39,4.44,10.42,9.75,0,0,5.48-2.45,6.26,3.1,0,0,2.84-2.26,5.58-.48s.51,6.62,.51,6.62c0,0,5.81-1.72,6.18,1.35,.37,3.09-3.57,3.23-7,3.23h-30.53Z"/>
            <path class="cls-3" d="M296.99,75.11c-5.22,0-7.62-1.39-7.39-3.8,.23-2.42,5.01-2.31,6.72,0,0,0-1.34-10.22,8.43-8.57,0,0-.52-10.14,7.57-10.14s6.23,10.29,6.23,10.29c0,0,3.21-3.73,6.34-1.12,3.13,2.61,1.04,8.13,1.04,8.13,0,0,5-.86,5,2.13,0,2.07-1.86,3.09-5.89,3.09h-28.05Z"/>
            <g>
              <path class="cls-2" d="M234.49,38.77l-13.78,2.91c-2.17,.46-3.56,2.59-3.1,4.77l2.91,13.78,6.42-1.36s1.47,5.93,3.74,5.62c2.27-.32,1.5-6.72,1.5-6.72l6.07-1.28-3.74-17.72h-.02Z"/>
              <path class="cls-17" d="M248.27,35.86l-13.78,2.91,1.62,7.69s-6.97,.33-6.24,3.22,7.07,.73,7.07,.73l1.28,6.08,17.72-3.74-2.91-13.78c-.46-2.17-2.59-3.56-4.77-3.1h.01Z"/>
              <path class="cls-11" d="M249.27,54.15s-.26-7.16-3.56-6.06c-3.3,1.11-.7,6.96-.7,6.96l-6.78,1.43,3.74,17.72,13.78-2.91c2.17-.46,3.56-2.59,3.1-4.77l-2.91-13.78-6.68,1.41h0Z"/>
              <path class="cls-24" d="M246.73,63.95c-.57-2.7-7.1-.86-7.1-.86l-1.39-6.6-6.07,1.28s.77,6.4-1.5,6.72-3.74-5.62-3.74-5.62l-6.42,1.36,2.91,13.78c.46,2.17,2.59,3.56,4.77,3.1l13.78-2.91-1.43-6.75s6.75-.8,6.18-3.5h.01Z"/>
            </g>
            <g>
              <path class="cls-2" d="M322.15,143.99h14.76s-2.89-13.32,8.23-17.57,16.82,11.07,16.82,11.07l11.86-7.72s-3.91-23.71-31.65-18.9-20.02,33.12-20.02,33.12h0Z"/>
              <path class="cls-20" d="M339.13,114.01c-16.24,5.09-14.86,24.14-14.03,29.98h11.81s-2.89-13.32,8.23-17.57,16.82,11.07,16.82,11.07l10.81-7.04c-4.18-9.67-16.2-21.92-33.64-16.45h0Z"/>
              <path class="cls-24" d="M370.87,131.7c-5.56-8.57-15.61-20.32-30.27-14.96-13.05,4.77-13.87,21.77-13.79,27.25h10.09s-2.89-13.32,8.23-17.57,16.82,11.07,16.82,11.07l8.9-5.8h.02Z"/>
              <path class="cls-10" d="M342.09,119.3c-11.53,5.21-12.06,19.7-11.89,24.69h6.71s-2.89-13.32,8.23-17.57,16.82,11.07,16.82,11.07l6.89-4.48c-4.51-5.9-15.85-18.64-26.76-13.71Z"/>
              <path class="cls-11" d="M343.66,122.95c-10.11,3.75-10.44,16.41-10.2,21.04h3.46s-2.89-13.32,8.23-17.57,16.82,11.07,16.82,11.07l3.84-2.5c-4.52-5.89-13.4-15.29-22.14-12.04h0Z"/>
            </g>
            <polygon class="cls-20" points="308.42 86.53 314.6 82.28 318.12 88.73 324.16 83.92 326.41 91.97 330.57 90.53 329.9 106.51 326.84 97.52 322.37 99.99 321.1 92.34 314.6 95.55 308.42 86.53"/>
            <polygon class="cls-20" points="270.12 185.72 254.73 184.65 256.55 177.17 248.19 174.73 251.64 167.09 264.15 173.63 261.28 179.27 270.12 185.72"/>
          </g>
          <g>
            <circle class="cls-18" cx="326.41" cy="161.94" r="7.09"/>
            <circle class="cls-18" cx="391.5" cy="179.1" r="7.09"/>
            <circle class="cls-18" cx="189.17" cy="147.26" r="7.09"/>
            <path class="cls-18" d="M298.05,181c0-2.27-1.84-4.1-4.1-4.1s-4.1,1.84-4.1,4.1,1.84,4.1,4.1,4.1,4.1-1.84,4.1-4.1Z"/>
            <circle class="cls-18" cx="273.99" cy="165.74" r="4.1"/>
            <circle class="cls-18" cx="384.47" cy="234.23" r="4.1"/>
          </g>
        </g>
        <g>
          <g>
            <path class="cls-8" d="M226.35,242.01c11.22-1.26,23.55,3.18,35.47,8.85,14.09,6.71,30.87,8.28,33.55,26.4s.22,84.11,.22,84.11c0,0-52.57,19.01-103.34-18.12l34.1-101.24h0Z"/>
            <g>
              <g>
                <polygon class="cls-5" points="256.51 244.26 264.67 233.47 273.23 239.85 268.98 250.86 256.51 244.26"/>
                <path class="cls-19" d="M271.29,244.87l1.94-5.03-8.56-6.38-3.14,4.15c1.29,2.08,4.16,5.51,9.75,7.25h.01Z"/>
              </g>
              <path class="cls-5" d="M268.38,239.45c-12.29-9.22-12.68-26.54-7.01-36.69,5.67-10.14,12.45-11.93,16.03-6.56,3.58,5.37,7.83,5.52,10.96,2.09,3.13-3.43,6.64-4.62,9.54-1.12,2.91,3.5-2.39,7.16-.37,10.89,2.01,3.73,6.64,1.19,8.2,5.14,1.57,3.95-.97,4.92-.67,8.65s.73,8.92-7.05,16.05c-7.79,7.13-19.79,8.92-29.63,1.54h0Z"/>
              <g>
                <path class="cls-5" d="M266.24,197.29s-3.64-8.84-11.74-5.48c-8.93,3.69-9.9,21.36,4.92,20.91l6.82-15.43h0Z"/>
                <g>
                  <path class="cls-13" d="M252.09,199.3s3.58-3.86,8.5-.95"/>
                  <path class="cls-13" d="M256.45,203.27s-1.3-3.32,.11-5.99"/>
                </g>
              </g>
              <g>
                <g>
                  <path class="cls-13" d="M271.72,202.85l-.42,3.04s6.9-1.34,8.16,5.03"/>
                  <line class="cls-13" x1="274.68" y1="204.11" x2="274.26" y2="205.88"/>
                  <line class="cls-13" x1="276.94" y1="205.43" x2="276.47" y2="206.6"/>
                </g>
                <g>
                  <path class="cls-13" d="M301.83,223l-2.65,1.55s-1.41-6.88-7.78-5.61"/>
                  <line class="cls-13" x1="299.53" y1="220.76" x2="298.05" y2="221.83"/>
                  <line class="cls-13" x1="297.44" y1="219.17" x2="296.54" y2="220.06"/>
                </g>
                <path class="cls-13" d="M286.54,212.47c-1.8,3.02-4.77,1.41-5.51,2.52-.54,.81,.92,1.57,.92,1.57"/>
                <path class="cls-13" d="M273.32,218.21s2.66,6.89,11.52,7.91"/>
              </g>
              <g>
                <path class="cls-19" d="M262.34,218.65c-1.78,0-3.34,.9-4.27,2.27,.3,2.52,.91,5.02,1.86,7.42,.72,.38,1.53,.6,2.4,.6,2.84,0,5.14-2.3,5.14-5.14s-2.3-5.14-5.14-5.14h.01Z"/>
                <path class="cls-19" d="M288.91,243.17c.73-.89,1.17-2.03,1.17-3.26,0-2.84-2.3-5.14-5.14-5.14s-5.14,2.3-5.14,5.14c0,1.8,.92,3.37,2.31,4.29,2.32,0,4.62-.35,6.81-1.03h0Z"/>
              </g>
            </g>
            <path class="cls-15" d="M240.3,242.96s.05,13.28,16.27,20.21,24.08-4.54,24.08-4.54c0,0,1.09-7.09-5.96-9.11s-11.78-1.7-18.99-8.36c-7.38-6.82-15.39,1.8-15.39,1.8h0Z"/>
            <path class="cls-23" d="M296.22,287.44l-.2-3.51c-.06-.98-.13-1.91-.21-2.78l-16.95-10.12c-1.31,6.95-3.3,24.53-6.73,33.89-3.43,9.36-7.25,35.08,9.89,44.84l13.96-.42c.46-16.08,1.06-44.55,.24-61.89h0Z"/>
          </g>
          <g>
            <path class="cls-8" d="M226.35,242.01c-5.48,.62-10.76,2.73-15.76,7.06-15.21,13.2-37.58,36.24-34.67,60.62s26.51,41.05,56.48,40.94l7.2-16.18s-8.68-16.4-31.57-24.91l13.67-38.47c.3-.86,4.65-29.06,4.65-29.06h0Z"/>
            <path class="cls-5" d="M241.54,335.49s12.25,11.74,8.47,21.79l-15.11-5.83-.04-10.49,6.67-5.46h0Z"/>
            <polygon class="cls-8" points="239.6 334.45 241.54 335.49 234.9 351.45 232.41 350.63 230.58 339.97 239.6 334.45"/>
            <path class="cls-13" d="M241.54,335.49l-1.94-1.04s-8.68-16.4-31.57-24.91l13.67-38.47"/>
            <path class="cls-13" d="M208.03,309.54c-2.57-.96-5.32-1.81-8.25-2.53"/>
          </g>
        </g>
        <g>
          <path class="cls-9" d="M207.69,364.27s50.55-6.11,81.65-19.57c23.07-9.99,45.86-10.4,53.91,5.48s-14.81,35.92-65.99,39.82c-51.18,3.9-66.73-2.31-66.73-2.31l-2.83-23.41h0Z"/>
          <path class="cls-7" d="M301.67,350.74c8.19-1.4,11.98-7.73,13.74-12.95-8.07,.57-17.05,3.01-26.08,6.91-2.18,.94-4.46,1.85-6.81,2.72,3.02,2.05,9.32,5,19.15,3.31h0Z"/>
        </g>
        <path class="cls-16" d="M192.59,375.23s-20.24,2.01-19.46,10.29,21.7,6.04,33.44,1.57l-13.98-11.86h0Z"/>
        <g>
          <polygon class="cls-5" points="313.77 392.74 319.81 381.67 308.24 374.06 302.53 373.67 302.53 373.67 295.1 385.19 300.83 394.32 300.83 394.32 313.77 392.74"/>
          <path class="cls-16" d="M300.83,394.32c23.52-.94,37.05-3.16,37.05-8.42,0-8.65-17.75-12.53-35.34-12.23,0,0,12.82,1.27,13.2,10.07,.37,8.8-14.9,10.59-14.9,10.59h-.01Z"/>
          <g>
            <path class="cls-9" d="M160.71,344.29c-9.25,24.01,32.21,50.7,83.21,50.7,22.48,0,41.76-.07,56.9-.67l1.7-20.65s-32.36-7.9-67.63-22.22c-35.27-14.32-66.9-26.08-74.19-7.16h0Z"/>
            <path class="cls-13" d="M302.53,373.67s-32.36-7.9-67.63-22.22c-35.27-14.32-66.9-26.08-74.19-7.16"/>
          </g>
        </g>
        <g>
          <g>
            <path class="cls-5" d="M292.8,257.8l-8.95-3.8s-.78-6.6,3.3-10.07,12.04-16.53,14.67-14.69c2.08,1.46-1.35,5.32-3.81,8.67,0,0,1.88-1.88,4.46-5.5,2.83-3.98,3.62-7.16,5.52-6.38s.62,4.36,.62,4.36c0,0,1.07-1.08,1.85-.56,1.51,1.01-.64,6.45-3.52,10.79-3.63,5.46-5.52,10.68-5.86,15.71l-8.28,1.45v.02Z"/>
            <g>
              <path class="cls-13" d="M308.62,230.4s-.77,2.96-5.36,8.72"/>
              <path class="cls-13" d="M283.8,252.15c.07-2.21,.63-5.91,3.35-8.22,4.08-3.47,12.04-16.53,14.67-14.69,2.08,1.46-1.35,5.32-3.81,8.67,0,0,1.88-1.88,4.46-5.5,2.83-3.98,3.62-7.16,5.52-6.38s.62,4.36,.62,4.36c0,0,1.07-1.08,1.85-.56,1.51,1.01-.64,6.45-3.52,10.79"/>
            </g>
          </g>
          <g>
            <path class="cls-8" d="M284.98,257.52c7.61-3.66,13.97-1.66,17.4,3.71s1.94,14.91,8.65,28.93,8.95,56.97-13.42,57.56-25.5-22.37-22.82-37.88,3.88-25.35,2.54-33.4,3.25-16.8,7.65-18.92h0Z"/>
            <path class="cls-8" d="M283.58,258.41l.28-4.42s10.07-5.03,17.22,2.35l-.34,5.03-17.16-2.96Z"/>
            <path class="cls-13" d="M301.08,256.34c-7.16-7.38-17.22-2.35-17.22-2.35l-.28,4.42c-3.91,3.08-7.45,10.83-6.25,18.03,1.34,8.05,.15,17.9-2.54,33.4-2.68,15.51,.45,38.47,22.82,37.88,8.45-.23,13.39-6.49,15.9-14.96"/>
          </g>
        </g>
      </g>
    </g>
  </g>
</svg>