<svg width="502" height="502" viewBox="0 0 502 502" fill="none" xmlns="http://www.w3.org/2000/svg">
<path d="M152.307 101.047C125.962 204.732 108.84 434.316 196.235 487.665C246.101 518.091 336.379 505.803 391.087 350.777C468.624 131 331.19 67.9028 267.835 96.4974C176.692 137.558 186.55 344.337 277.981 369.86C318.104 381.085 361.629 353.613 380.076 315.388C408.209 257.077 379.788 176.61 320.698 152.801C261.609 128.991 185.628 170.938 175.021 235.099C164.356 299.2 225.751 365.429 288.415 355.267C426.022 333.053 420.027 75.2287 277.635 56.5595C193.237 45.5115 129.939 135.726 167.123 214.185C196.466 276.159 286.916 294.238 338.8 250.46C390.684 206.681 392.471 115.462 344.45 67.2529C296.428 19.0437 210.474 20.9934 162.338 69.0253C114.144 117.057 108.667 202.073 147.58 258.258C216.182 357.335 363.877 333.585 381.518 240.475C399.792 143.761 233.476 7.22776 136.454 67.9028C-10.0311 159.595 170.466 431.244 353.327 333.821C420.718 297.901 450.234 213.298 415.127 144.234C355.46 26.9604 178.307 69.8524 177.615 203.964C176.923 326.614 333.323 377.245 378.462 291.166C413.628 224.051 332.747 77.0011 239.529 83.0272C104.516 91.712 99.1551 335.121 263.972 371.278C336.667 387.229 417.49 343.215 445.219 272.555C473.006 201.896 444.527 112.744 381.345 72.6292C297.235 19.221 213.53 77.001 224.31 144.293C238.664 233.799 400.369 245.379 457.095 152.092C483.094 109.377 477.156 46.2205 437.898 15.9125C398.639 -14.3955 330.844 3.91926 318.046 52.542C329.98 56.4413 345.199 52.4239 359.553 45.2161C382.843 33.5774 372.467 -1.98875 346.755 1.20157C270.948 10.7134 206.439 71.6839 196.005 154.455C183.207 255.954 263.338 316.215 325.195 288.034C398.178 254.831 383.362 134.486 290.836 120.425C223.618 110.204 159.917 180.627 167.353 249.869C174.732 319.11 242.642 372.519 310.552 370.805C455.135 367.261 511.227 179.387 399.331 96.0839C295.679 18.9256 148.675 114.694 181.708 241.893C212.78 361.53 371.256 370.51 413.57 262.866C458.536 148.429 322.312 14.5536 163.26 96.8519C-11.4724 187.244 68.3708 384.216 202.346 396.269C374.83 411.807 464.647 161.663 339.492 94.6069C295.967 71.2704 238.607 87.6945 206.093 125.387C156.458 182.99 166.489 281.654 223.215 331.872C344.565 439.279 543.452 309.244 492.952 125.092C467.125 30.8597 385.783 -26.0933 273.311 20.5798C128.21 80.7821 119.678 228.6 201.02 278.05C273.6 322.123 357.882 235.867 321.275 189.194C306.574 170.465 251.866 159.477 234.975 259.971M234.975 259.971C396.621 74.4606 423.082 113.631 234.975 259.971ZM234.975 259.971C246.678 249.396 256.824 233.563 266.624 216.311C275.214 201.187 253.077 187.421 244.199 202.309C227.077 231.081 218.43 265.111 221.774 298.669C459.574 169.993 197.561 -43.8172 144.87 255.6C150.462 221.097 142.564 185.472 125.27 155.459C89.4702 93.0708 -6.74516 124.088 1.49857 195.988C8.1858 254.536 78.2865 263.221 116.738 217.434C140.547 189.135 148.272 150.319 156.631 114.28C150.712 110.302 144.774 106.344 138.817 102.405C89.182 142.462 62.5484 210.758 72.0027 274.859C125.731 299.2 196.639 253.591 198.599 193.448C241.489 210.876 294.929 180.686 307.612 135.254C320.295 89.7623 294.238 37.8902 252.5 17.6258C180.036 -17.5268 86.0113 39.0127 82.5523 116.821C78.9205 197.406 171.908 226.65 202.98 169.875C216.47 145.238 208.63 113.04 184.129 100.101C144.582 79.2461 104.055 126.392 107.975 168.398C113.625 229.486 202.807 309.185 252.673 316.806C289.914 322.537 334.649 296.128 328.308 253.827C325.31 233.74 311.186 217.434 292.969 209.517C223.964 179.505 140.028 270.488 140.777 345.165C141.757 440.933 250.598 463.029 285.994 391.601C325.541 311.844 225.117 235.808 170.409 290.752C145.043 316.215 151.327 368.206 184.302 381.676C214.856 386.343 241.893 348.768 230.94 319.169C219.986 289.57 179.114 278.463 153.575 296.187C128.037 313.911 121.638 353.613 137.722 380.613C169.602 434.257 255.901 425.927 284.956 352.786" stroke="#E7DFDF" stroke-miterlimit="10"/>
</svg>
