<svg width="750" height="500" viewBox="0 0 750 500" fill="none" xmlns="http://www.w3.org/2000/svg">
<g id="img__long_hair_woman" clip-path="url(#clip0_494_2159)">
<g id="object">
<g id="Group">
<g id="Group_2">
<g id="Group_3">
<path id="Vector" d="M176.758 253.115C176.518 252.735 176.268 252.375 175.978 252.065C175.718 251.785 175.268 251.515 174.658 251.255C175.418 251.915 176.118 252.545 176.758 253.125V253.115Z" fill="#FFCBA6"/>
<path id="Vector_2" d="M253.949 375.502C242.682 362.946 226.226 356.877 212.799 366.405C199.372 375.932 191.144 395.867 179.877 386.34C168.619 376.812 176.847 361.206 175.548 355.588C174.258 349.949 168.19 345.19 168.19 337.822C168.19 330.454 184.646 333.493 192.874 322.666C198.732 314.968 192.544 301.372 187.075 291.654C184.186 291.084 179.017 290.794 171.459 293.004C159.032 296.633 155.822 303.151 153.223 302.111C150.624 301.072 143.605 293.534 144.385 281.577C145.165 269.62 158.682 264.161 157.382 260.262C156.082 256.363 147.504 257.923 133.988 257.143C120.471 256.363 121.511 255.064 121.511 255.064C121.511 255.064 125.67 251.425 124.37 251.685C123.07 251.944 114.232 251.425 110.593 251.425C106.954 251.425 103.055 252.464 103.055 252.464L105.395 248.565C105.395 248.565 103.055 249.085 101.236 249.865L93.9573 252.984C93.9573 252.984 93.6974 251.165 93.6974 250.125C93.6974 249.085 91.8778 243.627 91.8778 246.486C91.8778 249.345 92.1378 252.464 92.1378 252.464C92.1378 252.464 88.4586 252.464 85.8593 249.865C83.1699 255.454 79.6508 263.561 79.3808 268.07C78.9509 275.428 81.9802 276.728 79.8107 282.367C77.6413 288.005 78.511 291.894 78.511 291.894C78.511 291.894 83.2799 274.999 84.1497 276.728C85.0095 278.468 85.8793 289.285 79.8207 295.793C73.7522 302.281 64.4344 307.66 67.2537 310.519C70.0731 313.379 78.9609 315.708 77.2213 317.008C75.4918 318.307 71.5827 331.304 71.5827 331.304C71.5827 331.304 73.3223 332.174 74.622 336.942C75.9217 341.711 75.4918 357.727 79.8207 359.906C82.5801 361.286 86.909 361.956 89.6984 362.266C91.298 362.446 92.3777 362.506 92.3777 362.506L99.7359 364.665C99.7359 364.665 91.9378 369.004 88.9085 378.092C85.8693 387.189 81.1004 398.027 81.1004 398.027C81.1004 398.027 75.0219 395.587 73.7422 401.925C72.4625 408.264 75.9117 411.023 75.9117 411.023C75.9117 411.023 67.6736 409.294 66.384 414.052C65.0843 418.821 65.5142 425.319 65.5142 425.319C65.5142 425.319 59.0257 434.247 59.4456 437.006C59.8755 439.786 62.9048 444.814 62.9048 444.814C62.9048 444.814 59.4456 447.414 59.8755 450.873C60.3054 454.332 65.0743 461.27 65.0743 461.27C65.0743 461.27 62.4749 463.429 64.2045 467.758C65.9441 472.087 68.1035 472.087 75.0419 475.566C81.9702 479.025 88.4686 482.924 88.4686 482.924C88.4686 482.924 64.2045 479.895 60.7453 467.338C60.7453 467.338 60.7453 479.025 58.1359 488.123C55.5366 497.221 54.6768 499.81 54.6768 499.81C54.6768 499.81 55.7865 499.87 57.6361 499.96H269.965V434.407C269.965 417.511 265.196 388.059 253.939 375.492L253.949 375.502Z" fill="#FFCBA6"/>
</g>
<path id="Vector_3" d="M92.4477 363.605C97.9664 361.486 103.395 365.725 104.025 366.185C108.894 369.794 113.213 386.619 122.071 393.088C130.918 399.556 160.281 412.073 166.54 413.383C175.118 415.172 184.406 407.304 184.406 407.304C184.406 407.304 193.413 395.857 194.763 392.298C197.622 384.79 203.581 372.183 208.7 370.144C213.799 368.104 238.503 374.023 244.291 398.866C250.09 423.73 245.661 446.534 245.661 446.534C245.661 446.534 260.107 444.834 263.017 447.214C265.936 449.603 264.386 449.603 257.578 451.643C250.76 453.682 236.123 454.702 230.345 456.061C224.546 457.431 219.447 458.791 219.447 458.791C219.447 458.791 227.625 460.84 233.404 461.52C239.193 462.2 259.958 459.141 259.958 459.141C259.958 459.141 264.047 457.101 261.997 462.2C259.958 467.298 252.129 468.328 244.291 469.008C236.463 469.688 222.856 470.378 222.856 470.378L227.955 472.757C227.955 472.757 225.226 474.797 227.275 476.166C229.315 477.526 246.001 479.575 246.001 479.575C246.001 479.575 253.839 481.955 250.43 483.324C247.021 484.684 238.863 485.014 232.384 484.684C225.916 484.344 220.127 488.093 220.127 488.093C220.127 488.093 229.655 491.842 233.744 493.192C237.833 494.561 247.021 494.211 247.371 496.251C247.71 498.3 245.331 499.66 239.193 499.66C233.054 499.66 220.127 498.64 215.698 497.271C211.269 495.911 207.52 497.271 207.52 497.271C207.52 497.271 195.703 496.361 184.926 499.98H269.975V434.427C269.975 417.531 265.206 388.079 253.949 375.512C242.682 362.956 226.226 356.887 212.799 366.415C199.372 375.942 191.144 395.877 179.877 386.35C168.619 376.822 176.847 361.216 175.548 355.598C174.258 349.959 168.19 345.2 168.19 337.832C168.19 330.464 184.646 333.503 192.874 322.676C201.112 311.839 185.515 289.315 181.616 282.397C178.457 276.778 180.127 264.051 178.117 256.433L146.585 253.514C146.585 253.514 129.559 266.791 130.579 274.279C131.598 281.767 136.167 282.986 136.527 297.633C136.957 315.088 131.368 317.457 127.599 326.575C119.021 347.3 101.306 351.569 95.8569 355.987C92.6977 358.557 82.82 362.946 82.3401 364.175C81.9802 365.075 90.1483 364.515 92.4577 363.625V363.605H92.4477Z" fill="#D17978"/>
<path id="Vector_4" d="M104.245 285.816C104.245 285.816 107.614 281.257 106.314 277.248C105.014 273.239 94.1971 278.138 94.7869 283.746C95.3768 289.365 100.995 291.774 104.245 285.816Z" fill="#D17978"/>
<path id="Vector_5" d="M114.593 380.101C114.593 380.101 116.662 387.199 115.482 391.038C114.303 394.877 111.643 384.83 106.025 386.899C100.406 388.969 106.325 398.726 110.753 403.745C115.182 408.774 125.24 427.979 127.31 419.701C129.379 411.423 119.331 384.83 114.603 380.101H114.593Z" fill="#D17978"/>
<path id="Vector_6" d="M112.823 472.907C118.302 480.215 131.518 491.502 142.046 499.98H150.354L142.966 486.803L151.833 483.254C151.833 483.254 145.035 480.005 135.577 470.838C126.12 461.68 114.592 432.118 106.314 421.18C98.0364 410.243 87.3989 406.694 87.3989 406.694C87.3989 406.694 97.4465 421.77 98.0364 434.777C98.6262 447.784 103.065 459.9 112.813 472.907H112.823Z" fill="#D17978"/>
<path id="Vector_7" d="M235.483 433.887C235.483 433.887 235.783 433.887 232.824 437.726C229.865 441.565 225.726 442.155 216.868 446.004C208 449.843 202.381 454.572 202.381 454.572L224.846 448.953C224.846 448.953 233.714 446.584 238.733 443.335C243.761 440.086 243.162 430.628 235.483 433.877V433.887Z" fill="#D17978"/>
<path id="Vector_8" d="M94.7871 494.481C95.6069 496.781 96.5067 498.71 97.1465 499.98H103.995C103.215 498.65 102.495 497.471 101.885 496.551C97.7464 490.342 86.2191 483.254 83.8597 482.065C81.5003 480.885 74.1021 478.516 74.1021 478.516C74.1021 478.516 93.3174 490.342 94.7871 494.471V494.481Z" fill="#D17978"/>
<path id="Vector_9" d="M74.1425 315.008C74.1425 315.008 66.7143 308.82 67.954 313.768C69.1937 318.727 76.8019 321.286 77.8616 319.647C78.9314 318.017 74.1425 314.998 74.1425 314.998V315.008Z" fill="#D17978"/>
</g>
<g id="hair">
<path id="Vector_10" d="M266.146 0.00999451C262.657 2.75928 259.398 5.14866 257.658 6.00843C252.739 8.4678 237.373 14.0064 233.074 37.9801C228.765 61.9639 221.997 77.3299 206.63 93.3157C191.254 109.302 157.442 81.6288 138.996 97.6246C120.551 113.61 127.919 136.974 127.919 148.651C127.919 160.328 101.485 151.721 92.8775 152.95C84.2696 154.19 59.6755 167.097 68.2834 192.92C70.7928 200.448 74.5019 205.717 78.531 209.655C80.2905 213.415 80.5105 216.394 77.3212 218.443C70.8428 222.632 63.2146 213.864 58.6357 225.691C54.0668 237.518 71.9825 242.097 68.1734 248.955C64.3544 255.823 56.7362 252.384 59.7854 260.782C62.1949 267.41 70.2929 267.121 73.5821 266.701C74.4519 266.601 74.9818 266.481 74.9818 266.481C74.9818 266.481 76.6414 252.954 82.69 245.146L82.7699 245.336C82.7699 245.336 82.7699 246.216 85.3793 249.335C87.9787 252.454 92.1377 252.454 92.1377 252.454C92.1377 252.454 91.8777 249.335 91.8777 246.476C91.8777 246.266 91.8877 246.116 91.9077 245.986C92.0777 246.006 92.2577 246.026 92.4276 246.056C92.9675 247.016 93.6973 249.455 93.6973 250.115C93.6973 251.155 93.9573 252.974 93.9573 252.974L101.236 249.855C103.055 249.075 105.395 248.555 105.395 248.555L103.055 252.454C103.055 252.454 106.954 251.415 110.593 251.415C114.232 251.415 123.07 251.934 124.37 251.675C125.67 251.415 121.511 255.054 121.511 255.054C121.511 255.054 120.471 256.353 133.988 257.133C147.504 257.913 156.082 256.353 157.382 260.252C158.682 264.151 145.165 269.61 144.385 281.567C143.605 293.524 140.626 301.062 143.225 302.101C144.325 302.541 145.535 301.622 147.494 300.162C151.513 301.032 166.18 300.462 170.099 298.872C177.987 295.663 180.327 294.533 180.586 294.403H180.606C180.686 294.653 182.156 299.082 181.906 306.23C181.646 313.578 178.227 318.827 175.338 322.776C172.448 326.715 155.892 324.356 153.523 324.086C151.154 323.826 150.374 329.354 147.744 333.813C145.105 338.272 138.856 340.551 138.856 340.551C138.856 340.551 157.212 346.16 164.57 355.618C171.919 365.075 157.212 370.334 162.731 382.68C164.18 385.92 166.2 388.559 168.509 390.668C174.978 396.597 183.616 398.296 187.695 397.127C188.944 396.767 190.314 395.727 191.724 394.257C192.804 393.138 193.903 391.768 195.013 390.249C197.342 387.059 199.682 383.24 201.791 379.781C201.811 379.751 201.821 379.731 201.841 379.711C202.221 379.081 202.591 378.462 202.971 377.862C203.891 376.342 204.761 374.943 205.55 373.753C208.97 368.624 216.478 363.645 223.976 361.946C226.865 361.296 229.745 361.136 232.394 361.646C235.323 362.206 238.293 363.515 241.152 365.395C247.58 369.594 253.489 376.612 257.308 384.26C262.827 395.297 266.506 418.411 266.506 418.411C266.506 418.411 266.716 418.751 267.056 419.261C267.576 420.031 268.415 421.19 269.275 422.09C269.945 422.78 270.635 423.32 271.225 423.4C273.074 423.66 280.403 426.569 280.403 426.569C282.832 426.729 284.931 427.149 287.101 427.299C293.159 427.739 299.758 426.129 315.564 411.153C328.191 399.196 330.8 403.335 346.797 421.78C362.783 440.226 375.87 436.367 406.612 435.747C436.605 435.147 434.835 469.118 441.584 499.89H749.81V0.00999451H266.146Z" fill="#1F3146"/>
<path id="Vector_11" d="M93.9575 252.984C93.9575 252.984 127.519 217.903 142.516 217.903C157.512 217.903 171.129 223.482 179.157 216.154C187.185 208.826 189.625 197.309 201.492 193.82C213.359 190.331 221.077 193.03 221.077 193.03C221.077 193.03 204.281 192.07 195.913 208.126C187.545 224.182 181.606 237.088 170.439 238.138C159.272 239.188 136.237 235.699 124.38 241.627C112.513 247.556 93.9675 252.984 93.9675 252.984H93.9575Z" fill="#2E3F53"/>
<path id="Vector_12" d="M703.741 426.379C674.958 411.623 632.168 438.916 597.487 450.723C562.815 462.53 515.596 420.471 491.242 401.296C473.846 387.589 454.351 384.32 407.872 396.867C361.383 409.404 360.653 392.438 354.745 382.111C352.015 377.332 346.907 373.973 340.738 372.403C344.277 371.433 347.866 370.744 351.456 370.484C357.714 370.014 363.983 370.934 369.301 373.833C370.691 374.643 372.121 375.452 373.5 376.292L375.51 377.632L376.52 378.302L377.479 379.031C380.099 380.921 382.378 383.05 384.708 385.46C385.347 386.09 385.887 386.679 386.597 387.329L387.637 388.289L388.867 389.229C389.257 389.549 389.756 389.809 390.246 390.069C390.736 390.319 391.206 390.608 391.736 390.758L393.296 391.258C393.805 391.368 394.315 391.428 394.825 391.508C395.875 391.708 396.795 391.648 397.764 391.668C398.754 391.708 399.614 391.558 400.534 391.498C400.984 391.458 401.444 391.428 401.893 391.368L403.203 391.168C404.073 391.028 404.953 390.908 405.803 390.748C407.502 390.388 409.192 390.099 410.891 389.689C412.601 389.299 414.28 388.859 415.95 388.359C419.279 387.389 422.549 386.26 425.758 385.06C432.176 382.66 438.405 379.961 444.663 377.532C450.912 375.132 457.23 372.943 463.679 371.973C466.898 371.503 470.137 371.343 473.326 371.673C474.916 371.863 476.496 372.103 478.035 372.533C479.585 372.923 481.015 373.493 482.484 374.173C485.393 375.552 488.183 377.362 490.892 379.291C493.601 381.231 496.241 383.3 498.85 385.43C509.248 393.988 519.255 403.245 530.343 411.183C533.112 413.173 535.971 415.032 538.891 416.802C541.84 418.531 544.879 420.121 548.008 421.49C551.168 422.82 554.437 423.91 557.796 424.62C561.145 425.379 564.644 425.529 568.034 425.319C574.822 425 581.63 424.06 588.089 421.89C589.718 421.4 591.268 420.681 592.838 420.021L595.107 418.851C595.847 418.441 596.557 417.961 597.277 417.511C597.986 417.042 598.646 416.502 599.326 416.002C599.946 415.422 600.626 414.902 601.196 414.272C602.385 413.063 603.445 411.703 604.125 410.143C603.415 411.683 602.325 413.013 601.116 414.182C600.536 414.792 599.856 415.302 599.216 415.852C598.526 416.332 597.856 416.852 597.147 417.301C596.417 417.721 595.707 418.181 594.967 418.571L592.698 419.681C591.128 420.301 589.588 420.971 587.959 421.41C581.51 423.4 574.752 424.17 568.024 424.31C564.664 424.43 561.335 424.2 558.086 423.39C554.837 422.62 551.688 421.48 548.638 420.111C545.609 418.691 542.67 417.072 539.82 415.302C536.991 413.492 534.222 411.593 531.542 409.564C520.775 401.466 511.077 392.038 500.79 383.13C498.21 380.911 495.571 378.732 492.822 376.662C490.072 374.603 487.203 372.623 484.034 371.024C482.454 370.244 480.745 369.514 479.015 369.044C477.305 368.514 475.536 368.204 473.766 367.944C470.217 367.494 466.648 367.594 463.159 368.014C456.16 368.884 449.542 371.034 443.114 373.313C436.685 375.622 430.417 378.162 424.088 380.351C420.929 381.441 417.76 382.451 414.57 383.29C411.381 384.16 408.182 384.76 404.903 385.31C404.093 385.44 403.293 385.53 402.483 385.64L401.274 385.8C400.874 385.84 400.494 385.85 400.104 385.88C399.334 385.91 398.514 386.03 397.804 385.97C397.085 385.93 396.305 385.97 395.685 385.81C395.365 385.75 395.025 385.71 394.715 385.64C394.435 385.53 394.155 385.43 393.875 385.33C393.575 385.27 393.346 385.07 393.086 384.93C392.826 384.78 392.566 384.67 392.316 384.43L391.546 383.82L390.746 383.04C390.216 382.541 389.626 381.871 389.077 381.301C386.757 378.792 384.138 376.212 381.308 374.063L380.259 373.233L379.169 372.463L376.989 370.934C375.5 369.984 374.01 369.074 372.491 368.154C369.231 366.285 365.662 364.995 362.023 364.265C358.384 363.525 354.695 363.326 351.076 363.495C343.817 363.855 336.849 365.615 330.231 368.024C326.911 369.234 323.692 370.634 320.533 372.163C318.953 372.933 317.394 373.733 315.854 374.583C314.294 375.442 312.825 376.282 311.215 377.322L311.325 377.482C297.818 384.1 283.262 392.758 283.262 392.758C260.307 395.617 268.915 367.874 245.941 351.599C222.976 335.333 199.042 371.693 191.394 360.206C183.736 348.729 198.092 337.252 199.042 319.057C199.462 311.149 196.033 305.461 192.024 301.552C186.955 296.603 180.957 294.513 180.637 294.413C180.637 294.413 179.247 293.934 177.327 293.524C170.209 290.674 161.641 288.585 161.831 284.136C162.081 278.188 176.448 275.218 170.259 264.071C164.76 254.184 151.284 254.434 144.495 256.173C141.886 254.084 136.357 250.345 127.449 247.496C114.432 243.337 106.404 247.776 103.075 252.484C103.075 252.484 118.032 251.375 118.032 254.974C118.032 258.573 118.312 268.55 126.62 271.869C131.708 273.909 136.167 272.399 141.086 270.86C137.737 271.929 133.838 274.659 133.108 278.288C132.248 282.587 132.278 289.975 133.978 294.054C135.957 298.802 142.456 302.451 146.655 304.971C149.084 306.43 151.514 308.07 153.013 310.469C154.513 312.869 154.863 316.198 153.123 318.437C151.264 320.827 147.874 321.416 145.495 323.166C142.866 325.095 140.796 327.875 139.536 330.874C136.567 337.922 139.207 346.08 145.605 350.359C149.594 353.028 154.573 353.908 158.602 356.527C159.192 356.917 159.782 357.357 160.112 357.987C162.201 361.986 154.483 367.514 152.263 369.884C145.595 377.012 143.995 388.579 145.175 397.917C145.745 402.395 147.345 406.844 150.364 410.203C153.513 413.712 158.112 415.832 162.811 416.192C167.57 416.552 172.569 415.182 176.418 412.363C178.237 411.033 179.987 409.334 181.136 407.374C181.406 406.924 181.746 405.535 182.136 405.235C182.136 405.235 172.499 413.842 167.33 402.485C165.06 397.497 165.65 392.838 167.02 389.179C167.5 389.709 168 390.209 168.519 390.688C174.988 396.617 183.626 398.316 187.705 397.147C188.955 396.787 190.324 395.747 191.734 394.277C192.814 393.158 193.913 391.788 195.023 390.269C197.353 387.079 199.692 383.26 201.802 379.801C201.822 379.771 201.831 379.751 201.851 379.731C202.231 379.101 202.601 378.482 202.981 377.882C203.901 376.362 204.771 374.962 205.561 373.773C208.98 368.644 216.488 363.665 223.996 361.966C226.885 361.316 229.765 361.156 232.414 361.666C235.343 362.226 238.313 363.535 241.172 365.415C247.601 369.614 253.509 376.632 257.328 384.28C262.847 395.317 266.526 418.431 266.526 418.431C266.526 418.431 266.736 418.771 267.076 419.281C267.596 420.051 268.435 421.21 269.295 422.11C269.965 422.8 270.655 423.34 271.245 423.42C273.094 423.68 280.423 426.589 280.423 426.589C285.151 426.909 288.641 428.189 293.809 426.619C293.869 426.599 293.939 426.579 293.999 426.559C294.189 426.499 294.389 426.439 294.589 426.369C294.649 426.349 294.709 426.329 294.769 426.299C295.119 426.169 295.479 426.029 295.849 425.879C295.949 425.839 296.049 425.799 296.159 425.749C296.339 425.669 296.519 425.589 296.699 425.509C296.829 425.449 296.969 425.379 297.109 425.319C297.279 425.239 297.459 425.149 297.629 425.059C297.828 424.96 298.038 424.85 298.238 424.74C298.468 424.62 298.698 424.49 298.938 424.36C299.138 424.25 299.348 424.13 299.548 424.01C299.708 423.92 299.868 423.82 300.038 423.72C300.258 423.59 300.478 423.45 300.698 423.31C300.848 423.22 300.988 423.13 301.138 423.03C301.498 422.8 301.857 422.56 302.237 422.3C302.357 422.22 302.477 422.13 302.597 422.05C302.887 421.85 303.177 421.64 303.477 421.43C303.627 421.33 303.767 421.22 303.917 421.11C304.237 420.881 304.567 420.631 304.897 420.381C305.007 420.301 305.107 420.221 305.217 420.141C305.657 419.801 306.106 419.451 306.566 419.091C306.676 419.001 306.796 418.911 306.906 418.811C307.276 418.511 307.656 418.201 308.036 417.891C308.176 417.771 308.316 417.661 308.456 417.541C308.906 417.162 309.366 416.772 309.836 416.372C309.886 416.332 309.926 416.292 309.976 416.252C310.505 415.802 311.045 415.322 311.595 414.832C311.725 414.712 311.865 414.592 311.995 414.472C312.425 414.082 312.865 413.682 313.315 413.273C313.475 413.133 313.625 412.983 313.785 412.843C314.364 412.303 314.954 411.763 315.554 411.183C328.181 399.226 330.791 403.365 346.787 421.81C362.773 440.256 375.86 436.397 406.602 435.777C436.595 435.177 434.826 469.148 441.574 499.92H746.351C741.662 483.364 727.065 438.376 703.721 426.409L703.741 426.379ZM129.639 263.541C129.369 262.262 129.639 261.342 130.309 260.632C133.928 262.642 140.026 266.331 141.116 269.18C137.457 268.32 130.219 266.291 129.629 263.541H129.639Z" fill="#2E3F53"/>
<path id="Vector_13" d="M266.146 0.0099974C262.647 2.75928 259.398 5.14866 257.658 6.00844C252.739 8.4578 237.373 13.9964 233.074 37.9801C228.765 61.9639 221.997 77.3299 206.63 93.3057C191.254 109.292 157.442 81.6288 138.997 97.6146C120.551 113.6 127.919 136.964 127.919 148.641C127.919 157.479 112.793 154.7 101.706 153.36C103.045 152.87 104.365 152.28 105.635 151.541C106.664 150.891 107.674 150.221 108.594 149.361C109.524 148.531 110.373 147.542 110.993 146.392C111.633 145.252 112.033 143.973 112.193 142.703C112.343 141.433 112.283 140.194 112.133 139.004C111.823 136.624 111.183 134.425 110.563 132.256C109.934 130.086 109.304 127.957 108.784 125.797C107.714 121.498 107.064 117.12 107.084 112.701C107.134 108.292 107.624 103.833 109.184 99.7341C110.693 95.6051 113.283 91.8961 116.572 88.9369C119.861 85.9576 123.78 83.6982 127.919 82.0087C129.989 81.1589 132.108 80.4391 134.268 79.8192C136.417 79.1794 138.617 78.7195 140.776 78.0997C138.597 78.6495 136.387 79.0394 134.208 79.6093C132.028 80.1492 129.869 80.819 127.749 81.5988C123.53 83.1684 119.461 85.3278 115.982 88.277C112.503 91.2063 109.664 94.9853 107.944 99.2542C107.074 101.384 106.434 103.603 106.034 105.862C105.655 108.112 105.405 110.381 105.315 112.671C105.145 117.25 105.675 121.838 106.634 126.287C107.104 128.517 107.674 130.716 108.224 132.875C108.764 135.045 109.304 137.194 109.504 139.284C109.594 140.323 109.604 141.343 109.464 142.313C109.304 143.273 108.984 144.163 108.504 144.962C107.564 146.592 105.875 147.842 104.095 148.871C100.436 150.841 96.1168 151.601 91.7579 152.03C87.3689 152.46 82.87 152.58 78.2811 153.12C75.9917 153.39 73.6622 153.78 71.3528 154.45C69.0433 155.12 66.7339 156.049 64.6244 157.469C62.5249 158.879 60.6853 160.738 59.2957 162.888C57.896 165.037 56.9762 167.426 56.4264 169.826C55.3266 174.655 55.4766 179.493 56.1164 184.152C57.5061 193.47 60.7253 202.227 64.9243 210.505C65.9941 212.565 67.1338 214.604 68.3835 216.594L69.3433 218.073L70.1631 219.373C70.1631 219.373 70.2131 219.463 70.2331 219.503C65.8441 219.003 61.5851 218.003 58.6158 225.681C54.0469 237.498 71.9726 242.087 68.1536 248.945C64.3345 255.813 56.7163 252.374 59.7656 260.762C62.8148 269.15 74.9619 266.461 74.9619 266.461C74.9619 266.461 76.6615 252.614 82.89 244.836C82.89 244.836 84.9195 245.086 88.3187 245.516C88.4787 244.976 88.6786 244.396 88.8986 243.787C95.327 226.211 125.32 222.362 112.883 207.046C100.436 191.74 111.543 154.54 126.28 163.987C141.006 173.445 185.615 156.329 181.786 134.315C177.967 112.301 210.719 105.233 232.624 103.033C254.529 100.814 271.745 79.7693 277.493 45.3182C281.032 24.1137 297.609 8.71773 309.846 0H266.146V0.0099974ZM68.2835 192.93C70.7929 200.448 74.502 205.726 78.5311 209.665C80.2906 213.424 80.5106 216.394 77.3214 218.443C77.2514 218.483 77.1814 218.523 77.1114 218.563C76.6615 217.623 76.1616 216.794 75.6618 215.984C75.3218 215.464 74.9719 214.964 74.632 214.464L73.7222 213.145C72.5225 211.365 71.4028 209.516 70.343 207.626C66.164 200.038 62.8448 191.79 61.3252 183.352C60.5954 179.153 60.3654 174.855 61.1452 170.876C61.8851 166.877 63.9246 163.387 67.1238 161.088C70.343 158.799 74.522 157.689 78.821 157.049C80.3606 156.819 81.9202 156.639 83.4999 156.469C73.5023 162.008 61.975 173.985 68.2835 192.92V192.93Z" fill="#2E3F53"/>
</g>
<g id="Group_4">
<path id="Vector_14" d="M115.872 355.478C116.252 355.228 116.652 354.978 117.112 354.738C118.362 354.088 119.881 353.438 121.441 352.678C124.55 351.169 127.11 350.879 129.679 349.259C132.248 347.64 136.637 346 139.577 343.631C142.526 341.281 145.145 338.932 146.595 337.562C146.955 337.232 146.875 337.142 146.495 337.442C144.925 338.682 142.126 340.791 139.047 342.921C135.977 345.07 131.498 346.52 128.959 348.119C126.42 349.729 124 350.179 121.031 351.899C119.551 352.758 118.102 353.528 116.872 354.318C116.122 354.798 115.492 355.298 114.982 355.787" fill="#1F3146"/>
<path id="Vector_15" d="M81.8899 364.185H81.8599C80.9101 364.325 79.9804 364.375 79.0606 364.335C78.1508 364.295 77.241 364.165 76.4912 363.895C75.7214 363.625 75.1515 363.226 74.8116 362.706C74.4417 362.166 74.1918 361.356 73.9218 360.476C73.382 358.757 72.8921 357.117 72.4522 355.598C70.6826 349.519 68.8231 344.091 67.6933 336.932C66.5236 329.784 66.0637 323.176 65.9138 319.437C65.8638 318.457 65.6438 318.447 65.6038 319.437C65.4039 323.176 65.2639 329.844 65.9437 337.152C66.5736 344.46 68.0632 350.139 69.8628 356.347C70.3127 357.897 70.8326 359.556 71.4324 361.296C71.7324 362.136 72.0123 363.146 72.7321 364.175C73.4819 365.225 74.6417 365.885 75.7314 366.205C77.9409 366.835 80.1103 366.685 82.2098 366.285C84.2893 365.865 86.2489 365.165 88.1184 364.465C89.0382 364.115 90.4279 364.515 90.8478 365.705C89.6381 366.515 88.1084 367.694 86.6388 369.174C84.5893 371.193 82.7097 373.753 81.51 375.952C80.2903 378.152 79.0706 381.241 78.1608 384.19C77.241 387.129 76.5512 389.909 76.1613 391.488C76.0713 391.868 76.2813 391.948 76.4612 391.598C77.181 390.139 78.4507 387.579 79.8004 384.86C81.1601 382.141 82.7197 379.341 83.8694 377.252C85.0092 375.152 86.4288 372.553 87.9984 370.314C89.5081 368.114 91.1477 366.295 92.1874 365.265C92.6473 365.125 93.1072 364.985 93.5671 364.875C95.3267 364.425 97.0863 364.205 98.6859 364.365C100.295 364.535 101.755 365.045 102.915 365.765C103.455 366.095 103.915 366.485 104.305 366.885C104.115 366.795 104.105 366.965 104.395 367.334C105.964 369.294 108.494 372.933 110.883 377.152C113.292 381.361 115.662 386.12 117.761 389.859C119.831 393.588 122.71 398.446 124.76 403.285C125.789 405.704 126.609 408.114 127.139 410.283C127.659 412.453 127.949 414.382 128.039 415.792C128.099 416.472 128.329 416.482 128.349 415.792C128.429 414.362 128.389 412.393 128.099 410.103C127.809 407.824 127.239 405.255 126.409 402.665C124.77 397.487 122.18 392.298 120.101 388.539C118.011 384.8 115.242 380.201 112.363 376.182C109.983 372.833 107.494 369.994 105.664 368.134C105.224 367.155 104.425 366.105 103.265 365.245C102.085 364.375 100.555 363.695 98.8259 363.385C97.0763 363.076 93.5671 362.036 95.3767 362.706C95.9865 362.926 89.878 362.196 87.5685 362.796C85.9789 363.206 84.4193 363.725 82.8397 364.025" fill="#1F3146"/>
<path id="Vector_16" d="M119.051 296.433C118.212 296.613 116.712 296.813 115.122 296.783C113.533 296.753 111.883 296.463 110.663 296.183C109.434 295.923 107.924 295.513 106.574 294.953C105.225 294.403 104.065 293.724 103.425 293.294C103.255 293.184 103.185 293.264 103.325 293.414C103.855 293.974 104.865 294.923 106.165 295.743C107.464 296.563 109.034 297.223 110.364 297.503C111.683 297.803 113.503 297.903 115.162 297.673C116.822 297.453 118.292 296.943 119.091 296.593C119.291 296.513 119.251 296.403 119.041 296.443H119.051V296.433Z" fill="#1F3146"/>
<path id="Vector_17" d="M77.0615 271.359C76.2017 272.099 75.7618 273.008 75.6018 273.498C75.5518 273.628 75.7318 273.758 75.8518 273.688C76.2817 273.418 77.0615 273.058 77.8913 272.918C78.7211 272.758 79.5509 272.808 80.1507 272.828C80.7506 272.828 81.6204 272.828 82.5102 273.088C83.39 273.328 84.1998 273.838 84.6197 274.218C84.7296 274.308 84.9296 274.198 84.8896 274.058C84.7596 273.488 84.3397 272.459 83.4499 271.599C82.5902 270.729 81.2605 270.15 80.2007 270.15C79.141 270.11 77.8913 270.62 77.0615 271.369V271.359Z" fill="#1F3146"/>
<path id="Vector_18" d="M84.0099 276.638C83.9899 276.048 83.79 276.078 83.71 276.738C83.71 276.778 83.71 276.818 83.69 276.858C83.5301 278.188 83.1701 279.967 82.4503 281.917C81.8805 283.466 81.0806 285.136 80.0409 286.735C79.731 287.215 79.401 287.685 79.0511 288.155C78.8312 288.455 78.6012 288.745 78.3513 289.025C77.6915 289.835 76.9516 290.584 76.1718 291.304C75.0721 290.904 73.7624 290.395 72.8526 290.035C72.6127 289.955 72.3527 289.865 72.0828 289.775C72.3727 287.935 72.7027 285.926 73.0726 283.866C73.9524 278.798 75.0321 273.439 75.7919 269.39C76.5517 265.341 77.3215 260.292 78.5513 255.803C79.721 251.295 81.5105 247.416 82.7702 245.346C82.9302 245.076 82.9602 244.906 82.9102 244.866C82.8602 244.816 82.7103 244.916 82.5103 245.166C80.9507 247.046 78.5712 250.755 76.8717 255.254C75.422 258.963 74.3423 263.082 73.5824 266.711C73.4225 267.46 73.2725 268.2 73.1426 268.9C72.3727 272.989 71.7029 278.488 71.313 283.646C71.163 285.656 71.0531 287.605 70.9631 289.415C69.8933 289.065 68.8236 288.705 68.2837 288.485C68.1637 288.435 68.1038 288.535 68.2037 288.615C68.6736 289.075 69.7634 289.935 70.9131 290.594V290.654C69.9433 290.434 68.7536 290.165 67.6639 289.825C66.5441 289.485 65.5444 289.075 64.9845 288.825C64.8345 288.765 64.7746 288.855 64.8945 288.965C65.3744 289.365 66.2442 290.035 67.3139 290.634C68.3837 291.234 69.6434 291.744 70.6931 291.984C70.7531 291.984 70.8131 292.004 70.8631 292.014C70.8231 293.274 70.8031 294.413 70.7831 295.383C69.5934 296.153 68.4137 296.873 67.3139 297.533C66.3242 298.122 65.2644 298.762 64.1447 299.442C63.005 300.152 61.7453 300.972 60.6555 302.171C59.5458 303.351 58.736 305.121 58.836 306.87C58.896 308.63 59.6358 310.149 60.4656 311.409C61.2954 312.679 62.2752 313.758 63.2049 314.758C64.1147 315.738 64.9245 316.708 65.5544 317.697C66.8741 319.657 67.294 321.766 66.7841 323.186C66.5441 323.846 66.7341 323.986 67.084 323.296C67.4039 322.576 67.6039 321.606 67.4739 320.547C67.3639 319.477 66.984 318.337 66.4142 317.218C65.8543 316.088 65.0945 314.968 64.2547 313.868C63.4449 312.799 62.6151 311.689 61.9852 310.499C61.3354 309.32 60.8955 308.04 60.9555 306.87C61.0055 305.691 61.5453 304.671 62.4051 303.831C63.2749 302.991 64.3747 302.321 65.4744 301.692C66.6041 301.052 67.7039 300.432 68.6936 299.832C70.6931 298.632 72.9126 297.183 75.0121 295.403C76.2618 294.353 77.4515 293.174 78.5113 291.904C79.2611 291.024 79.9309 290.105 80.5108 289.145C81.9504 286.815 82.8702 284.376 83.3901 282.207C83.91 280.027 84.0399 278.118 84.0199 276.758C84.0199 276.718 84.0199 276.678 84.0099 276.638ZM71.273 295.053C71.403 294.203 71.5429 293.224 71.7029 292.154C72.5827 292.274 73.5824 292.314 74.5222 292.254C74.7422 292.234 74.9521 292.214 75.1621 292.194C73.9124 293.234 72.5927 294.184 71.273 295.053Z" fill="#1F3146"/>
<path id="Vector_19" d="M120.081 410.063C118.752 408.304 117.012 406.174 115.422 404.195C113.843 402.215 112.413 400.376 111.613 399.326C111.403 399.056 111.213 399.156 111.343 399.476C111.833 400.706 112.753 402.855 113.933 405.155C115.112 407.454 116.562 409.873 117.922 411.683C119.271 413.492 121.311 415.712 123.35 417.651C125.38 419.601 127.399 421.27 128.569 422.19C128.849 422.42 129.009 422.25 128.789 421.97C127.869 420.801 126.3 418.731 124.68 416.492C123.051 414.252 121.391 411.833 120.071 410.073H120.081V410.063Z" fill="#1F3146"/>
<path id="Vector_20" d="M102.975 290.684C103.535 289.695 105.085 287.405 105.794 285.816C106.134 285.006 106.444 283.866 106.754 282.766C107.064 281.677 107.374 280.627 107.574 280.027C107.614 279.877 107.434 279.757 107.314 279.847C106.824 280.257 105.994 281.007 105.214 281.907C104.425 282.806 103.695 283.876 103.325 284.756C102.535 286.525 102.545 289.485 102.685 290.604C102.695 290.754 102.915 290.804 102.985 290.674H102.975V290.684Z" fill="#1F3146"/>
<path id="Vector_21" d="M103.775 292.984C105.655 293.894 107.874 294.613 109.704 294.853C111.533 295.113 114.013 295.053 116.262 294.643C118.512 294.253 120.511 293.564 121.611 293.104C121.881 293.004 121.821 292.774 121.541 292.794C120.361 292.904 118.312 292.994 116.162 292.874C114.003 292.764 111.763 292.414 110.084 292.184C108.404 291.964 106.295 291.704 104.355 291.304C102.415 290.914 100.646 290.404 99.6461 290.075C99.3862 289.995 99.2762 290.185 99.4962 290.355C100.336 290.994 101.886 292.074 103.785 292.984H103.775Z" fill="#1F3146"/>
<path id="Vector_22" d="M105.265 273.349C106.395 273.359 108.404 273.349 110.554 273.429C112.713 273.499 114.983 273.719 116.762 273.969C118.532 274.189 120.891 274.579 122.991 275.438C125.1 276.268 126.85 277.598 127.72 278.508C127.94 278.718 128.129 278.598 127.97 278.318C127.38 277.178 125.95 275.288 123.831 273.879C121.751 272.449 119.112 271.539 117.102 271.299C115.093 271.02 112.583 271.229 110.404 271.669C108.214 272.099 106.295 272.709 105.215 273.049C104.935 273.139 104.965 273.359 105.265 273.359V273.349Z" fill="#1F3146"/>
<path id="Vector_23" d="M77.8212 319.177C78.3611 319.367 79.2908 319.357 79.9107 318.967C80.5305 318.597 80.8605 318.127 81.1204 317.727C81.3603 317.317 81.5603 316.948 81.7502 316.548C82.5101 314.988 82.93 313.438 83.0999 312.559C83.1499 312.349 82.93 312.259 82.81 312.439C82.3101 313.169 81.3803 314.398 80.2806 315.558C79.7507 316.128 79.0709 316.828 78.8309 316.798C78.731 316.778 78.801 316.758 78.641 316.688C78.491 316.618 78.2311 316.458 77.9412 316.288C75.6317 314.988 71.7926 313.778 70.273 313.329C70.073 313.269 69.9631 313.458 70.123 313.598C71.3028 314.668 74.312 317.327 76.6215 318.627C76.9014 318.777 77.2613 318.997 77.8212 319.167V319.177Z" fill="#1F3146"/>
<path id="Vector_24" d="M72.6127 330.214C71.073 330.114 69.6934 329.834 68.9135 329.634C68.7036 329.584 68.6136 329.844 68.7736 330.004C69.4034 330.624 70.5731 331.644 72.0128 332.404C73.4425 333.173 75.152 333.653 76.6017 333.633C78.0414 333.633 80.0309 333.133 81.8804 332.274C83.73 331.424 85.4196 330.264 86.3594 329.534C86.5893 329.364 86.5693 329.094 86.3394 329.164C85.3796 329.474 83.72 329.894 82.0004 330.094C80.2708 330.304 78.5012 330.254 77.1616 330.264C75.8219 330.284 74.1423 330.354 72.6127 330.234V330.214Z" fill="#1F3146"/>
<path id="Vector_25" d="M139.516 432.428C142.726 432.508 148.424 432.588 154.473 431.358C157.482 430.738 160.581 429.798 163.351 428.479C166.13 427.189 168.599 425.619 170.599 424.13C174.598 421.121 178.807 416.562 182.116 412.073C185.465 407.604 188.135 403.315 189.664 400.916C190.064 400.286 189.884 400.156 189.414 400.736C187.595 402.925 184.446 406.874 180.757 410.953C177.097 415.072 172.748 419.141 168.979 421.99C167.09 423.4 164.83 424.96 162.281 426.319C159.752 427.709 156.902 428.809 154.053 429.648C148.344 431.318 142.696 431.848 139.506 432.118C138.727 432.178 138.737 432.408 139.506 432.428H139.516Z" fill="#1F3146"/>
<path id="Vector_26" d="M71.8224 409.114C72.6322 410.663 74.8217 414.522 76.8012 416.702C78.7507 418.901 82.7098 421.86 84.3194 422.97C84.5094 423.11 84.6793 422.95 84.5394 422.75C83.4296 421.13 80.7203 417.062 78.8007 414.902C76.8512 412.753 73.422 410.013 72.0624 408.914C71.8824 408.774 71.7124 408.914 71.8224 409.114Z" fill="#1F3146"/>
<path id="Vector_27" d="M70.3232 406.574C69.3234 406.244 68.0437 406.184 66.774 406.574C65.4743 406.954 64.3146 407.834 63.4548 408.844C62.595 409.863 62.0252 411.023 61.6852 412.063C60.9954 414.142 60.8155 417.122 61.5653 419.701C62.2451 422.32 63.8847 424.3 64.9545 425.099C65.2044 425.309 65.3644 425.139 65.1844 424.88C64.3746 423.84 63.4148 421.73 63.3049 419.391C63.1149 417.052 63.6748 414.612 64.2346 412.903C64.7745 411.213 65.7443 409.154 67.4339 408.204C68.2737 407.724 69.2634 407.494 70.1232 407.534C70.993 407.574 71.7128 407.874 72.1727 408.214C72.4127 408.384 72.5926 408.254 72.3927 407.994C72.0228 407.504 71.3229 406.904 70.3132 406.574H70.3232Z" fill="#1F3146"/>
<path id="Vector_28" d="M57.2058 459.62C58.1556 460.69 59.2753 461.4 60.2551 461.92C61.2449 462.44 62.1147 462.79 62.7445 463.05C63.0544 463.17 63.1644 462.97 62.8945 462.78C61.8447 461.96 59.7752 460.56 58.6255 458.581C57.4558 456.631 57.7057 454.202 58.0856 452.372C58.2556 451.453 58.5055 450.403 58.8155 449.303C59.1254 448.183 59.4653 447.004 59.7252 445.834C60.0252 444.624 60.1651 443.435 60.2051 442.395C60.4951 442.645 60.775 442.835 61.0049 442.975C61.2249 443.115 61.3648 442.935 61.2149 442.735C60.865 442.335 60.4851 441.705 60.1751 440.955C60.1451 440.605 60.1051 440.286 60.0452 440.026C60.0052 439.806 59.8952 439.766 59.8152 439.846C59.7152 439.446 59.6453 439.026 59.6153 438.596C59.4453 436.816 59.8652 435.017 60.3251 433.767C60.755 432.468 61.4648 430.848 62.4046 429.418C63.3244 427.979 64.3841 426.749 64.994 426.059C65.1539 425.879 65.024 425.699 64.804 425.809C63.9742 426.219 62.4946 427.009 61.0749 428.249C59.6453 429.468 58.3356 431.218 57.7857 432.887C57.1758 434.547 57.1359 437.006 57.8957 439.006C58.2756 440.066 58.8454 440.955 59.4453 441.635C59.1654 442.695 58.6955 443.965 58.0656 445.264C57.5758 446.304 57.0359 447.384 56.546 448.493C56.0561 449.613 55.6662 450.773 55.4563 451.863C55.2463 452.942 55.1463 454.272 55.3763 455.691C55.5962 457.101 56.2461 458.561 57.2058 459.63V459.62Z" fill="#1F3146"/>
<path id="Vector_29" d="M47.9485 499.97C50.7078 495.751 53.1872 490.952 54.7068 487.193C56.2465 483.444 57.6761 478.586 58.5759 474.067C59.4257 469.868 59.8456 465.989 60.0256 463.579C60.7554 465.909 62.415 469.748 65.4343 473.237C66.9839 475.066 68.9034 476.746 70.893 478.136C72.8925 479.525 74.962 480.645 76.8315 481.535C80.5606 483.344 85.6894 485.044 90.1583 487.233C92.3978 488.333 94.4673 489.563 96.1569 490.842C96.8067 491.342 97.3866 491.832 97.9165 492.322C98.9562 493.742 100.176 495.521 101.376 497.481C101.806 498.18 102.245 498.91 102.665 499.64C102.255 499.76 101.816 499.88 101.346 499.99H105.515C104.645 498.78 103.735 497.571 102.805 496.451C101.086 494.361 99.3261 492.562 97.9365 491.272C97.5865 490.882 97.2066 490.492 96.7967 490.093C95.2171 488.573 93.2176 487.053 91.0181 485.694C86.6092 482.964 81.5704 480.855 77.9813 479.115C74.3521 477.416 69.9632 475.166 66.704 472.027C63.3848 468.958 61.1953 465.309 60.1955 463.16C60.1455 463.05 60.0955 462.98 60.0456 462.92C60.0456 462.47 59.8656 462.47 59.7356 463.01C59.2258 465.299 58.226 469.328 56.8363 473.637C55.4667 477.956 53.6871 482.545 52.1874 486.204C50.7078 489.863 48.6683 494.701 46.3888 499.1C46.2289 499.4 46.0789 499.7 45.9189 500H47.9085L47.9485 499.97Z" fill="#1F3146"/>
<path id="Vector_30" d="M254.599 496.871C254.239 496.251 253.759 495.761 253.219 495.381C252.13 494.591 250.84 494.331 249.74 494.241C248.6 494.161 247.611 494.182 246.601 494.132C244.581 494.062 242.562 493.862 240.602 493.572C236.683 492.992 232.994 492.002 229.875 490.882C228.305 490.323 226.896 489.723 225.616 489.153C225.346 489.033 225.086 488.923 224.826 488.813C228.975 489.543 234.294 490.103 239.932 489.873C244.061 489.723 248.32 489.203 252.309 488.343C254.299 487.893 256.229 487.403 258.048 486.833C258.958 486.534 259.808 486.314 260.757 485.904C261.667 485.494 262.637 484.974 263.347 483.944C263.697 483.434 263.937 482.794 263.987 482.115C264.027 481.435 263.867 480.755 263.577 480.195C263.007 479.065 262.017 478.276 260.887 477.866C259.798 477.466 258.708 477.426 257.718 477.436C256.728 477.456 255.829 477.516 254.869 477.566C251.08 477.756 247.201 477.986 243.512 477.966C239.812 477.966 236.293 477.666 233.274 477.086C230.245 476.516 227.745 475.626 226.016 474.837C225.096 474.437 224.986 474.627 225.876 475.116C227.545 476.076 230.005 477.206 233.054 478.046C236.093 478.895 239.682 479.485 243.452 479.735C247.221 480.015 251.16 480.015 254.949 479.985C256.838 480.005 258.788 479.825 259.978 480.325C260.537 480.535 260.997 480.965 261.197 481.395C261.397 481.825 261.347 482.105 261.137 482.445C260.927 482.784 260.368 483.174 259.688 483.484C259.018 483.794 258.118 484.064 257.258 484.364C255.529 484.964 253.679 485.494 251.77 486.004C247.951 486.993 243.841 487.723 239.832 488.123C231.794 488.953 224.196 488.203 219.947 487.453C218.907 487.283 218.857 487.513 219.887 487.763C220.347 487.883 220.857 488.013 221.397 488.133C221.517 488.193 221.737 488.253 222.067 488.313C224.056 488.743 226.416 490.472 229.535 491.802C232.624 493.192 236.313 494.471 240.312 495.321C242.312 495.751 244.381 496.071 246.481 496.261C248.6 496.461 250.7 496.401 251.81 497.331C252.389 497.791 252.699 498.37 252.619 498.85C252.589 499.25 252.339 499.63 251.89 499.97H254.959C255.059 499.65 255.129 499.32 255.139 499C255.189 498.26 254.979 497.481 254.619 496.871H254.599Z" fill="#1F3146"/>
<path id="Vector_31" d="M204.811 499.86H204.791C202.461 499.68 198.322 499.48 193.753 499.75C192.764 499.8 191.744 499.88 190.724 499.98H212.619C211.619 499.87 210.639 499.78 209.69 499.73C207.93 499.63 206.29 499.69 204.801 499.86H204.811Z" fill="#1F3146"/>
<path id="Vector_32" d="M72.1826 407.624C73.2523 408.864 74.3021 409.843 75.1818 410.673C76.0416 411.473 76.2016 411.303 75.4018 410.453C74.592 409.563 73.6122 408.514 72.6625 407.234C71.7127 405.964 70.7729 404.445 70.243 402.675C69.9931 401.796 69.8231 400.836 69.8931 399.926C69.9631 398.996 70.253 398.057 70.7229 397.197C71.6327 395.487 73.4023 394.018 75.2218 394.058C76.1116 394.098 76.9814 394.497 77.6912 395.157C78.4111 395.817 79.0009 396.717 79.5708 397.667C80.1407 398.626 80.7005 399.676 81.4104 400.656C82.0902 401.646 82.86 402.545 83.6498 403.405C86.869 406.774 90.3882 409.214 93.0076 411.583C94.3373 412.763 95.6669 414.052 96.8167 415.542C97.9764 417.022 98.9561 418.721 99.746 420.591C101.356 424.32 102.245 428.559 103.305 432.598C104.935 439.016 107.364 444.644 109.354 448.553C109.634 449.663 109.964 450.833 110.353 452.052C111.563 455.831 113.353 460.03 115.592 464.239C120.091 472.667 126.33 481.005 131.578 487.443C132.118 488.113 132.708 488.813 133.298 489.513C132.798 489.663 132.858 489.743 133.448 489.693C136.167 492.912 139.346 496.421 142.736 499.95H145.865C142.516 496.251 139.326 492.552 136.517 489.193C139.526 488.603 143.226 487.663 147.275 486.114C152.383 484.174 158.022 481.285 163.311 477.326C168.619 473.377 173.438 468.398 177.907 463.529C182.376 458.641 186.645 453.912 190.804 450.123C192.874 448.233 195.183 446.244 197.802 444.524C200.422 442.795 203.351 441.385 206.65 440.805C209.95 440.166 213.529 440.136 217.178 439.756C218.997 439.566 220.857 439.266 222.656 438.756C224.456 438.246 226.156 437.546 227.795 436.826C229.435 436.107 231.024 435.367 232.614 434.717C233.404 434.387 234.194 434.097 234.994 433.837C235.793 433.577 236.573 433.317 237.143 433.417C237.703 433.497 238.163 433.957 238.393 434.577C238.633 435.207 238.633 435.897 238.393 436.537C237.913 437.856 236.723 438.896 235.623 439.896C231.324 443.775 227.015 446.434 223.716 448.163C215.008 450.103 207.48 452.602 203.101 454.222C201.801 454.692 201.871 454.902 203.201 454.522C208.22 453.052 217.198 450.713 227.245 449.223C237.283 447.674 248.33 447.014 257.208 447.044H258.888C259.418 447.044 259.958 447.094 260.497 447.154C261.567 447.294 262.667 447.564 263.487 448.073C264.316 448.563 264.706 449.253 264.666 450.083C264.616 450.883 263.947 451.833 263.057 452.382C262.117 452.972 260.887 453.282 259.558 453.532C258.188 453.772 256.798 454.022 255.419 454.272C252.649 454.772 249.86 455.272 247.121 455.771C236.183 457.811 225.976 459.71 220.157 460.79C218.747 461.06 218.777 461.28 220.207 461.1C222.616 460.78 225.766 460.37 229.405 459.89C229.045 459.92 229.025 460.11 229.425 460.19C231.004 460.53 233.824 461.06 236.953 461.4C240.092 461.75 243.541 461.9 246.311 461.74C249.08 461.59 252.729 461.06 256.088 460.3C259.448 459.561 262.517 458.631 264.246 458.051C264.666 457.911 264.616 457.691 264.176 457.741C264.007 457.761 263.817 457.781 263.627 457.811C264.047 457.681 264.496 457.561 264.986 457.461C265.886 457.291 266.946 457.211 267.916 457.521C268.895 457.821 269.875 458.531 270.205 459.481C270.545 460.44 270.175 461.48 269.325 462.33C268.475 463.18 267.356 463.859 266.106 464.439L264.226 465.349C263.587 465.629 262.957 465.909 262.327 466.179C259.798 467.249 257.308 468.188 255.049 468.898C250.57 470.388 244.421 471.927 238.493 472.457C232.584 473.077 226.975 472.727 223.806 472.347C223.036 472.267 222.986 472.487 223.756 472.657C226.865 473.387 232.484 474.357 238.593 474.227C244.701 474.197 251.21 473.017 255.878 471.457C258.228 470.718 260.797 469.648 263.347 468.378C263.977 468.048 264.616 467.718 265.256 467.388L267.126 466.309C268.375 465.599 269.665 464.709 270.655 463.499C271.145 462.89 271.555 462.16 271.735 461.35C271.915 460.53 271.805 459.67 271.465 458.951C270.925 457.881 270.035 457.231 269.115 456.871C269.375 454.962 269.725 451.913 269.915 448.623C270.125 445.094 270.135 441.295 269.905 438.466C269.685 435.627 269.095 432.128 268.375 428.958C268.196 428.169 268.016 427.409 267.836 426.669C267.256 420.301 266.436 413.143 264.876 405.834C263.297 398.126 260.817 390.289 257.458 383.23C254.169 376.162 249.69 369.894 244.551 365.815C241.992 363.785 238.913 361.956 235.373 360.966C231.864 359.906 227.935 359.846 224.216 360.606C220.487 361.396 216.938 362.986 213.759 365.045C210.589 367.125 207.79 369.694 205.421 372.453C200.652 377.992 197.333 384.06 194.433 389.269C191.554 394.497 189.105 398.966 187.325 402.195C186.395 403.895 186.585 404.005 187.595 402.355C189.514 399.216 192.174 394.867 195.283 389.769C198.402 384.7 201.941 378.822 206.74 373.643C209.13 371.054 211.859 368.714 214.898 366.845C217.938 364.995 221.277 363.625 224.686 362.986C228.095 362.386 231.534 362.496 234.644 363.485C237.773 364.395 240.522 366.065 242.882 367.924C247.6 371.673 251.949 377.502 255.289 384.3C258.698 391.078 261.347 398.676 263.147 406.234C264.416 411.383 265.326 416.492 266.046 421.31C266.046 421.35 266.036 421.38 266.046 421.44C266.196 423.09 266.426 426.019 266.626 429.218C266.836 432.418 267.006 435.897 267.216 438.686C267.476 441.465 267.816 445.164 268.146 448.653C268.415 451.833 268.605 454.822 268.715 456.741C268.525 456.681 268.335 456.631 268.146 456.591C266.876 456.351 265.756 456.591 264.816 456.881C263.877 457.181 263.117 457.561 262.477 457.871C262.397 457.911 262.327 457.951 262.277 457.981C260.507 458.171 258.228 458.391 255.829 458.561C252.449 458.801 248.85 458.921 246.151 459.061C243.451 459.211 240.092 459.481 236.993 459.64C233.904 459.8 231.064 459.87 229.455 459.88C234.684 459.191 240.902 458.371 247.391 457.521C250.15 457.141 252.949 456.761 255.749 456.371C257.148 456.171 258.548 455.981 259.928 455.782C261.337 455.572 262.877 455.282 264.306 454.462C265.736 453.602 266.936 452.222 267.186 450.353C267.286 449.423 267.086 448.493 266.656 447.684C266.206 446.874 265.546 446.274 264.886 445.854C263.537 445.004 262.157 444.704 260.857 444.504C260.207 444.414 259.568 444.364 258.938 444.354H257.208C248.19 444.324 236.983 445.424 226.935 447.484C226.336 447.604 225.736 447.724 225.136 447.854C228.345 446.264 232.274 443.945 236.263 440.645C237.403 439.676 238.763 438.666 239.492 436.966C239.852 436.127 239.922 435.077 239.602 434.157C239.322 433.237 238.533 432.278 237.393 432.068C236.283 431.868 235.383 432.218 234.564 432.428C233.724 432.667 232.884 432.947 232.054 433.247C230.395 433.847 228.765 434.547 227.125 435.187C225.486 435.837 223.836 436.447 222.157 436.856C220.487 437.276 218.757 437.506 216.988 437.626C213.469 437.886 209.84 437.816 206.23 438.416C202.591 438.956 199.202 440.505 196.393 442.315C193.543 444.135 191.144 446.184 189.005 448.133C184.706 452.042 180.457 456.931 176.128 461.91C171.799 466.879 167.26 471.897 162.251 475.926C157.252 479.975 151.853 483.054 146.925 485.204C142.916 486.953 139.226 488.083 136.227 488.823C135.347 487.763 134.488 486.723 133.688 485.734C128.489 479.345 122.001 471.367 117.152 463.36C114.792 459.451 112.843 455.552 111.413 451.992C111.433 451.903 111.353 451.653 111.153 451.213C111.053 451.003 110.953 450.773 110.843 450.533C109.674 447.384 108.944 444.584 108.524 442.475C108.254 441.235 108.044 441.255 108.214 442.525C108.304 443.265 108.434 444.095 108.594 444.984C107.284 441.375 105.944 436.966 105.035 432.198C104.225 428.159 103.575 423.79 101.995 419.671C101.226 417.621 100.186 415.652 98.9062 413.942C97.6365 412.233 96.1968 410.803 94.7971 409.554C92.0078 407.054 88.4587 404.695 85.3894 401.696C84.6396 400.936 83.8998 400.146 83.2599 399.286C82.6001 398.446 82.0302 397.497 81.3804 396.507C80.7205 395.527 80.0007 394.497 78.9809 393.648C77.9712 392.798 76.6215 392.228 75.2318 392.258C73.8422 392.308 72.6025 392.908 71.6627 393.708C70.7129 394.507 69.9931 395.497 69.5032 396.547C69.0133 397.597 68.7434 398.736 68.7334 399.846C68.7334 400.986 68.9933 401.995 69.3333 402.945C70.0331 404.845 71.1328 406.354 72.2026 407.584L72.1826 407.624Z" fill="#1F3146"/>
<path id="Vector_33" d="M202.051 438.906C202.401 437.666 203.241 434.517 203.241 432.398C203.241 430.278 202.411 426.769 202.051 425.369C202.011 425.199 201.781 425.199 201.741 425.369C201.382 426.769 200.552 430.278 200.552 432.398C200.552 434.517 201.392 437.666 201.741 438.906C201.791 439.066 202.011 439.066 202.051 438.906Z" fill="#1F3146"/>
<path id="Vector_34" d="M270.725 499.97C270.925 496.231 271.095 492.482 271.145 489.523C271.245 482.095 270.765 471.018 270.595 466.639C270.575 466.069 270.355 466.059 270.285 466.629C269.745 470.968 268.555 482.015 268.456 489.483C268.396 492.462 268.496 496.221 268.665 499.97H270.725Z" fill="#1F3146"/>
</g>
</g>
<g id="shape">
<g id="leaf">
<path id="Vector_35" d="M430.266 414.952C430.266 414.952 435.705 412.393 438.984 406.844C442.263 401.286 446.282 405.904 444.573 408.274C442.863 410.643 441.674 413.093 441.674 413.093C441.674 413.093 448.172 407.264 452.851 407.764C457.53 408.254 450.431 414.512 450.431 414.512C450.431 414.512 463.968 407.714 465.568 410.883C467.167 414.052 462.889 416.002 459.239 417.261C455.6 418.521 450.961 419.361 450.961 419.361C450.961 419.361 459.549 420.221 456.51 422.64C453.471 425.059 440.874 421.161 440.874 421.161C440.874 421.161 450.821 426.739 444.853 427.629C438.884 428.519 430.886 415.842 430.236 414.942H430.266V414.952Z" fill="#F5B539"/>
<path id="Vector_36" d="M430.266 414.952C430.266 414.952 441.973 421.081 459.339 415.162" stroke="#FECA51" stroke-linecap="round" stroke-linejoin="round"/>
</g>
<g id="leaf_2">
<path id="Vector_37" d="M441.084 132.686C441.084 132.686 451.571 134.755 459.63 142.923C467.688 151.091 472.616 141.393 468.657 138.034C464.688 134.685 461.579 130.966 461.579 130.966C461.579 130.966 475.306 138.214 483.174 135.345C491.042 132.476 476.096 124.738 476.096 124.738C476.096 124.738 502.389 130.636 503.789 124.478C505.189 118.319 496.951 116.8 490.122 116.19C483.294 115.58 474.936 116.14 474.936 116.14C474.936 116.14 489.392 110.941 483.104 108.082C476.815 105.223 456.76 117.369 456.76 117.369C456.76 117.369 471.507 103.453 460.839 104.493C450.162 105.533 441.824 130.856 441.094 132.686H441.084Z" fill="#F5B539"/>
<path id="Vector_38" d="M441.084 132.686C441.084 132.686 458.64 117.06 491.152 119.779" stroke="#FECA51" stroke-linecap="round" stroke-linejoin="round"/>
</g>
<g id="leaf_3">
<path id="Vector_39" d="M276.033 119.099C276.033 119.099 278.453 111.561 276.043 103.413C273.634 95.2652 281.692 95.5452 282.442 99.3142C283.192 103.083 284.491 106.432 284.491 106.432C284.491 106.432 284.711 94.9453 289.39 90.8764C294.069 86.8074 293.729 99.2642 293.729 99.2642C293.729 99.2642 299.328 80.1192 303.817 81.4188C308.306 82.7185 306.346 88.597 304.286 93.2458C302.227 97.8846 298.878 103.103 298.878 103.103C298.878 103.103 307.416 95.6052 307.026 100.694C306.636 105.783 291.57 114.43 291.57 114.43C291.57 114.43 305.866 109.861 301.367 116.4C296.868 122.938 277.473 119.279 276.033 119.089V119.099Z" fill="#F5B539"/>
<path id="Vector_40" d="M276.033 119.099C276.033 119.099 292.449 113.321 302.327 91.2863" stroke="#FECA51" stroke-linecap="round" stroke-linejoin="round"/>
</g>
<g id="flower">
<path id="Vector_41" d="M366.681 333.653C366.272 333.373 365.842 333.163 365.392 332.983C367.001 332.724 368.511 331.844 369.521 330.394C371.47 327.575 370.76 323.706 367.941 321.756C365.342 319.967 361.883 320.437 359.823 322.726C360.163 320.457 359.253 318.077 357.234 316.678C354.414 314.728 350.545 315.438 348.596 318.257C347.506 319.827 347.276 321.716 347.746 323.426C345.496 323.116 343.157 324.026 341.777 326.025C339.828 328.845 340.538 332.714 343.357 334.663C344.757 335.623 346.406 335.933 347.956 335.663C346.426 338.422 347.176 341.941 349.835 343.771C352.555 345.65 356.214 345.04 358.233 342.481C358.623 343.001 359.073 343.481 359.643 343.871C362.462 345.82 366.331 345.11 368.281 342.291C370.231 339.472 369.521 335.603 366.701 333.653H366.681Z" fill="#FE6B71"/>
<path id="Vector_42" d="M358.733 334.093C360.083 332.144 359.593 329.464 357.644 328.115C355.694 326.765 353.015 327.255 351.665 329.204C350.315 331.154 350.805 333.833 352.755 335.183C354.704 336.533 357.384 336.043 358.733 334.093Z" stroke="#FECA51" stroke-linecap="round" stroke-linejoin="round"/>
</g>
<g id="flower_2">
<path id="Vector_43" d="M419.01 106.782C418.6 106.502 418.17 106.292 417.72 106.112C419.329 105.852 420.839 104.973 421.849 103.523C423.798 100.704 423.089 96.8348 420.269 94.8854C417.67 93.0958 414.211 93.5657 412.151 95.8551C412.491 93.5857 411.581 91.2063 409.562 89.8067C406.742 87.8572 402.873 88.567 400.924 91.3863C399.834 92.9559 399.604 94.8454 400.074 96.5549C397.825 96.245 395.485 97.1548 394.106 99.1542C392.156 101.974 392.866 105.842 395.685 107.792C397.085 108.752 398.734 109.062 400.284 108.792C398.754 111.551 399.504 115.07 402.164 116.9C404.883 118.779 408.542 118.169 410.562 115.61C410.951 116.13 411.401 116.61 411.971 117C414.791 118.949 418.66 118.239 420.609 115.42C422.559 112.601 421.849 108.732 419.03 106.782H419.01Z" fill="#FE6B71"/>
<path id="Vector_44" d="M411.052 107.222C412.401 105.273 411.911 102.593 409.962 101.244C408.012 99.894 405.333 100.384 403.983 102.333C402.634 104.283 403.124 106.962 405.073 108.312C407.023 109.662 409.702 109.172 411.052 107.222Z" stroke="#FECA51" stroke-linecap="round" stroke-linejoin="round"/>
</g>
<g id="flower_3">
<path id="Vector_45" d="M334.459 455.072C334.049 454.792 333.619 454.582 333.17 454.402C334.779 454.142 336.289 453.262 337.299 451.813C339.248 448.993 338.538 445.124 335.719 443.175C333.12 441.375 329.66 441.855 327.601 444.145C327.941 441.875 327.031 439.496 325.011 438.096C322.192 436.147 318.323 436.856 316.374 439.676C315.284 441.245 315.054 443.135 315.524 444.844C313.274 444.534 310.935 445.444 309.555 447.444C307.606 450.263 308.316 454.132 311.135 456.081C312.534 457.041 314.184 457.351 315.734 457.081C314.204 459.84 314.954 463.359 317.613 465.189C320.333 467.069 323.992 466.459 326.011 463.899C326.401 464.419 326.851 464.899 327.421 465.289C330.24 467.238 334.109 466.529 336.059 463.709C338.008 460.89 337.299 457.021 334.479 455.072H334.459Z" fill="#FE6B71"/>
<path id="Vector_46" d="M326.501 455.512C327.851 453.562 327.361 450.883 325.412 449.533C323.462 448.183 320.783 448.673 319.433 450.623C318.083 452.572 318.573 455.252 320.523 456.601C322.472 457.951 325.152 457.461 326.501 455.512Z" stroke="#FECA51" stroke-linecap="round" stroke-linejoin="round"/>
</g>
<g id="flower_4">
<path id="Vector_47" d="M183.276 153.86C182.926 153.62 182.546 153.44 182.166 153.29C183.556 153.07 184.856 152.31 185.715 151.061C187.395 148.631 186.785 145.302 184.356 143.633C182.126 142.093 179.147 142.503 177.367 144.462C177.667 142.503 176.877 140.463 175.138 139.264C172.708 137.584 169.379 138.194 167.71 140.623C166.78 141.973 166.57 143.603 166.98 145.072C165.05 144.802 163.041 145.592 161.851 147.302C160.172 149.731 160.781 153.06 163.211 154.73C164.41 155.56 165.83 155.83 167.16 155.59C165.84 157.959 166.49 160.988 168.769 162.558C171.109 164.167 174.258 163.647 175.988 161.448C176.328 161.888 176.718 162.308 177.197 162.638C179.627 164.317 182.956 163.707 184.626 161.278C186.295 158.849 185.695 155.52 183.266 153.85L183.276 153.86Z" fill="#FE6B71"/>
<path id="Vector_48" d="M176.438 154.24C177.597 152.56 177.177 150.261 175.498 149.101C173.818 147.942 171.519 148.361 170.359 150.041C169.199 151.721 169.619 154.02 171.299 155.18C172.978 156.339 175.278 155.919 176.438 154.24Z" stroke="#FECA51" stroke-linecap="round" stroke-linejoin="round"/>
</g>
<g id="flower_5">
<path id="Vector_49" d="M234.333 165.617C234.113 165.467 233.884 165.357 233.644 165.257C234.503 165.117 235.313 164.647 235.853 163.867C236.893 162.358 236.523 160.288 235.003 159.239C233.614 158.279 231.754 158.539 230.654 159.758C230.834 158.539 230.354 157.269 229.265 156.519C227.755 155.48 225.686 155.849 224.636 157.369C224.056 158.209 223.926 159.219 224.176 160.138C222.976 159.968 221.716 160.458 220.977 161.528C219.937 163.038 220.307 165.107 221.826 166.157C222.576 166.677 223.456 166.837 224.286 166.697C223.466 168.176 223.866 170.056 225.286 171.036C226.735 172.035 228.705 171.715 229.785 170.346C229.994 170.626 230.234 170.876 230.534 171.086C232.044 172.125 234.113 171.755 235.163 170.236C236.203 168.726 235.833 166.657 234.313 165.607H234.333V165.617Z" fill="#FE6B71"/>
<path id="Vector_50" d="M230.074 165.857C230.794 164.807 230.534 163.378 229.484 162.658C228.434 161.938 227.005 162.198 226.285 163.248C225.565 164.297 225.825 165.727 226.875 166.447C227.925 167.167 229.354 166.907 230.074 165.857Z" stroke="#FECA51" stroke-linecap="round" stroke-linejoin="round"/>
</g>
<g id="flower_6">
<path id="Vector_51" d="M119.391 216.684C119.171 216.534 118.941 216.424 118.701 216.324C119.561 216.184 120.371 215.714 120.911 214.934C121.95 213.425 121.581 211.355 120.061 210.305C118.671 209.346 116.812 209.606 115.712 210.825C115.892 209.606 115.412 208.336 114.322 207.586C112.813 206.546 110.743 206.916 109.693 208.436C109.114 209.276 108.984 210.285 109.233 211.205C108.034 211.035 106.774 211.525 106.034 212.595C104.994 214.104 105.364 216.174 106.884 217.224C107.634 217.743 108.514 217.903 109.343 217.763C108.524 219.243 108.924 221.123 110.343 222.102C111.793 223.102 113.762 222.782 114.842 221.412C115.052 221.692 115.292 221.942 115.592 222.152C117.102 223.192 119.171 222.822 120.221 221.302C121.261 219.793 120.891 217.723 119.371 216.674H119.391V216.684Z" fill="#FE6B71"/>
<path id="Vector_52" d="M115.132 216.914C115.852 215.864 115.592 214.434 114.542 213.714C113.492 212.995 112.062 213.255 111.343 214.304C110.623 215.354 110.883 216.784 111.932 217.503C112.982 218.223 114.412 217.963 115.132 216.914Z" stroke="#FECA51" stroke-linecap="round" stroke-linejoin="round"/>
</g>
<g id="flower_7">
<path id="Vector_53" d="M331.74 126.187C331.52 126.037 331.29 125.927 331.05 125.827C331.91 125.687 332.72 125.217 333.26 124.438C334.3 122.928 333.93 120.859 332.41 119.809C331.02 118.849 329.161 119.109 328.061 120.329C328.241 119.109 327.761 117.839 326.671 117.09C325.162 116.05 323.092 116.42 322.042 117.939C321.463 118.779 321.333 119.789 321.583 120.709C320.383 120.539 319.123 121.029 318.383 122.098C317.344 123.608 317.714 125.677 319.233 126.727C319.983 127.247 320.863 127.407 321.693 127.267C320.873 128.747 321.273 130.626 322.692 131.606C324.142 132.606 326.112 132.286 327.191 130.916C327.401 131.196 327.641 131.446 327.941 131.656C329.451 132.696 331.52 132.326 332.57 130.806C333.61 129.296 333.24 127.227 331.72 126.177H331.74V126.187Z" fill="#FE6B71"/>
<path id="Vector_54" d="M327.481 126.427C328.201 125.377 327.941 123.948 326.891 123.228C325.841 122.508 324.412 122.768 323.692 123.818C322.972 124.868 323.232 126.297 324.282 127.017C325.331 127.737 326.761 127.477 327.481 126.427Z" stroke="#FECA51" stroke-linecap="round" stroke-linejoin="round"/>
</g>
<g id="flower_8">
<path id="Vector_55" d="M517.365 307.06C517.115 306.88 516.835 306.75 516.565 306.65C517.565 306.49 518.505 305.94 519.135 305.041C520.344 303.281 519.905 300.872 518.155 299.662C516.535 298.542 514.376 298.842 513.096 300.262C513.306 298.842 512.746 297.363 511.487 296.493C509.727 295.283 507.318 295.723 506.108 297.483C505.428 298.462 505.288 299.642 505.578 300.702C504.178 300.512 502.719 301.072 501.859 302.321C500.649 304.081 501.089 306.49 502.839 307.7C503.708 308.3 504.738 308.49 505.698 308.33C504.748 310.049 505.218 312.239 506.868 313.379C508.557 314.548 510.847 314.168 512.096 312.579C512.336 312.899 512.626 313.199 512.976 313.438C514.736 314.648 517.145 314.208 518.355 312.449C519.565 310.689 519.125 308.28 517.375 307.07H517.365V307.06Z" fill="#FE6B71"/>
<path id="Vector_56" d="M512.417 307.34C513.256 306.12 512.957 304.461 511.737 303.621C510.517 302.781 508.858 303.081 508.018 304.301C507.178 305.521 507.478 307.18 508.698 308.02C509.917 308.86 511.577 308.56 512.417 307.34Z" stroke="#FECA51" stroke-linecap="round" stroke-linejoin="round"/>
</g>
<g id="flower_9">
<path id="Vector_57" d="M448.682 200.128C448.432 199.948 448.152 199.818 447.882 199.718C448.882 199.558 449.822 199.008 450.452 198.109C451.661 196.349 451.221 193.94 449.472 192.73C447.852 191.61 445.693 191.91 444.413 193.33C444.623 191.91 444.063 190.431 442.803 189.561C441.044 188.351 438.634 188.791 437.425 190.55C436.745 191.53 436.605 192.71 436.895 193.77C435.495 193.58 434.036 194.14 433.176 195.389C431.966 197.149 432.406 199.558 434.156 200.768C435.025 201.368 436.055 201.558 437.015 201.398C436.065 203.117 436.535 205.307 438.185 206.446C439.874 207.616 442.164 207.236 443.413 205.647C443.653 205.966 443.943 206.266 444.293 206.506C446.053 207.716 448.462 207.276 449.672 205.527C450.882 203.767 450.442 201.358 448.692 200.148V200.128H448.682Z" fill="#FE6B71"/>
<path id="Vector_58" d="M443.733 200.398C444.573 199.178 444.273 197.519 443.053 196.679C441.834 195.839 440.174 196.139 439.334 197.359C438.494 198.578 438.794 200.238 440.014 201.078C441.234 201.918 442.893 201.618 443.733 200.398Z" stroke="#FECA51" stroke-linecap="round" stroke-linejoin="round"/>
</g>
<g id="leaf_4">
<path id="Vector_59" d="M299.238 204.927C299.238 204.927 308.616 198.328 315.414 195.449C322.213 192.58 334.51 199.688 334.51 199.688C334.51 199.688 321.693 205.287 315.674 208.016C309.656 210.745 299.228 204.917 299.228 204.917H299.238V204.927Z" fill="#F5B539"/>
<path id="Vector_60" d="M299.238 204.927C299.238 204.927 316.784 198.458 331.22 199.478" stroke="#FECA51" stroke-linecap="round" stroke-linejoin="round"/>
</g>
<g id="leaf_5">
<path id="Vector_61" d="M345.157 87.5872C345.157 87.5872 354.535 80.989 361.333 78.1097C368.131 75.2405 380.428 82.3486 380.428 82.3486C380.428 82.3486 367.612 87.9472 361.593 90.6764C355.574 93.4057 345.147 87.5772 345.147 87.5772H345.157V87.5872Z" fill="#F5B539"/>
<path id="Vector_62" d="M345.157 87.5872C345.157 87.5872 362.703 81.1189 377.139 82.1387" stroke="#FECA51" stroke-linecap="round" stroke-linejoin="round"/>
</g>
<g id="leaf_6">
<path id="Vector_63" d="M194.433 160.948C194.433 160.948 200.442 168.766 203.161 174.505C205.871 180.243 200.212 191.06 200.212 191.06C200.212 191.06 194.933 180.253 192.374 175.184C189.815 170.116 194.443 160.948 194.443 160.948H194.433Z" fill="#AC9F41"/>
<path id="Vector_64" d="M194.434 160.948C194.434 160.948 200.622 175.784 200.262 188.221" stroke="#FECA51" stroke-linecap="round" stroke-linejoin="round"/>
</g>
<g id="butterfly">
<path id="Vector_65" d="M348.286 290.065C348.286 290.065 353.285 277.968 347.926 275.178C342.567 272.389 337.998 287.525 337.998 287.525C337.998 287.525 330.24 284.906 328.631 287.895C327.021 290.884 333.219 291.744 337.658 293.904C337.658 293.904 331.05 300.022 334.509 304.241C337.978 308.46 344.597 297.113 344.597 297.113C344.597 297.113 352.885 305.761 358.573 303.301C365.192 300.442 352.725 292.224 348.286 290.075V290.065Z" fill="#AC9F41"/>
<path id="Vector_66" d="M350.525 286.825C350.525 286.825 332.059 294.293 331.609 296.113C331.16 297.923 350.085 291.314 352.834 290.814C355.574 290.315 354.314 285.976 350.535 286.825H350.525Z" fill="#1A2E35" stroke="#FECA51" stroke-linecap="round" stroke-linejoin="round"/>
<path id="Vector_67" d="M352.825 290.814C352.825 290.814 362.502 289.515 363.892 293.664C365.282 297.813 361.613 295.813 361.743 294.843" stroke="#FECA51" stroke-linecap="round" stroke-linejoin="round"/>
<path id="Vector_68" d="M351.815 286.116C351.815 286.116 358.913 279.307 358.233 276.448C357.554 273.579 355.334 275.248 355.724 277.378" stroke="#FECA51" stroke-linecap="round" stroke-linejoin="round"/>
</g>
<g id="heart_shape">
<path id="Vector_69" d="M297.929 175.204C297.949 166.317 287.511 167.776 284.542 168.376C284.052 165.397 281.722 155.11 273.414 158.279C264.387 161.718 271.565 186.851 271.755 186.891C271.865 187.051 297.909 184.862 297.929 175.204Z" fill="#FE6B71"/>
<path id="Vector_70" d="M267.446 70.8516C264.936 65.353 258.898 69.222 257.228 70.4317C256.078 68.7321 251.719 63.0336 247.48 67.3525C242.882 72.0413 254.449 85.5378 254.589 85.5078C254.699 85.5777 270.175 76.83 267.446 70.8516Z" fill="#FE6B71"/>
<path id="Vector_71" d="M381.468 449.293C380.069 446.234 376.72 448.383 375.79 449.063C375.15 448.114 372.73 444.954 370.371 447.354C367.812 449.963 374.25 457.461 374.32 457.441C374.38 457.481 382.988 452.612 381.468 449.293Z" fill="#FE6B71"/>
<path id="Vector_72" d="M546.269 71.1015C541.57 67.3025 537.891 73.4609 536.941 75.2804C535.152 74.2707 528.703 71.1215 526.843 76.87C524.814 83.1184 541.2 90.0366 541.3 89.9466C541.43 89.9566 551.378 75.2204 546.269 71.0915V71.1015Z" fill="#FE6B71"/>
<path id="Vector_73" d="M252.889 327.465C258.928 327.155 257.558 320.117 257.048 318.127C259.058 317.687 265.956 315.738 263.507 310.209C260.847 304.201 244.031 309.979 244.011 310.109C243.901 310.189 246.331 327.805 252.889 327.465Z" fill="#FE6B71"/>
<path id="Vector_74" d="M188.235 272.979C194.273 272.679 192.913 265.641 192.404 263.641C194.413 263.202 201.311 261.262 198.872 255.724C196.223 249.715 179.397 255.464 179.377 255.604C179.267 255.684 181.666 273.299 188.235 272.979Z" fill="#FE6B71"/>
</g>
<path id="Vector_75" d="M267.625 253.784C272.014 254.074 276.413 254.884 280.722 256.343" stroke="#FECA51" stroke-linecap="round" stroke-linejoin="round"/>
<path id="Vector_76" d="M207.67 261.912C207.67 261.912 234.364 249.855 260.767 252.654" stroke="#FECA51" stroke-linecap="round" stroke-linejoin="round"/>
<g id="Group_5">
<path id="Vector_77" d="M184.965 236.389C182.766 237.458 180.426 238.438 177.917 239.298" stroke="#FECA51" stroke-linecap="round" stroke-linejoin="round"/>
<path id="Vector_78" d="M225.805 186.562C224.166 188.131 222.556 190.231 221.077 193.04C215.308 203.987 208.989 219.453 194.733 230.37" stroke="#FECA51" stroke-linecap="round" stroke-linejoin="round"/>
<path id="Vector_79" d="M239.972 182.832C239.972 182.832 235.853 181.253 230.904 183.222" stroke="#FECA51" stroke-linecap="round" stroke-linejoin="round"/>
</g>
<g id="Group_6">
<path id="Vector_80" d="M372.86 174.325C378.159 173.595 383.498 172.045 389.146 168.936" stroke="#FECA51" stroke-linecap="round" stroke-linejoin="round"/>
<path id="Vector_81" d="M303.207 186.562C308.826 182.852 315.594 179.453 323.492 177.284C337.989 173.305 349.686 174.685 360.813 174.885" stroke="#FECA51" stroke-linecap="round" stroke-linejoin="round"/>
<path id="Vector_82" d="M282.962 206.076C282.962 206.076 285.551 202.047 290.66 196.889" stroke="#FECA51" stroke-linecap="round" stroke-linejoin="round"/>
</g>
<g id="Group_7">
<path id="Vector_83" d="M281.252 295.103C288.131 299.032 295.809 305.811 302.287 317.497C318.404 346.56 318.304 364.935 342.568 366.235" stroke="#FECA51" stroke-linecap="round" stroke-linejoin="round"/>
<path id="Vector_84" d="M262.607 289.725C262.607 289.725 265.926 289.545 270.915 290.844" stroke="#FECA51" stroke-linecap="round" stroke-linejoin="round"/>
<g id="Group_8">
<path id="Vector_85" d="M181.196 276.558C174.338 268.33 169.889 257.983 165.34 255.244C158.052 250.855 148.014 249.855 141.986 254.874" stroke="#FECA51" stroke-linecap="round" stroke-linejoin="round"/>
<path id="Vector_86" d="M246.821 278.318C242.822 278.698 238.473 279.357 234.334 280.477C221.287 283.986 213.759 290.514 196.683 287.005C192.364 286.116 188.695 283.926 185.496 281.077" stroke="#FECA51" stroke-linecap="round" stroke-linejoin="round"/>
<path id="Vector_87" d="M262.447 277.958C262.447 277.958 259.208 277.738 254.429 277.858" stroke="#FECA51" stroke-linecap="round" stroke-linejoin="round"/>
</g>
</g>
<g id="music_note">
<path id="Vector_88" d="M381.678 274.169C381.678 274.169 380.179 273.139 377.939 271.589C375.7 270.04 373.39 264.581 376.81 263.631C380.229 262.682 382.968 272.309 382.968 272.309L389.497 250.865L405.333 253.524L398.834 273.329C398.834 273.329 393.426 265.171 390.346 268.02C387.277 270.87 393.146 274.369 397.535 275.198" stroke="#FECA51" stroke-linecap="round" stroke-linejoin="round"/>
<path id="Vector_89" d="M388.037 255.364L403.503 257.763" stroke="#FECA51" stroke-linecap="round" stroke-linejoin="round"/>
</g>
<g id="music_note_2">
<path id="Vector_90" d="M447.183 271.349C447.183 271.349 446.193 270.67 444.713 269.64C443.233 268.62 441.704 265.011 443.963 264.381C446.223 263.751 448.032 270.12 448.032 270.12L452.351 255.943L462.819 257.703L458.52 270.8C458.52 270.8 454.941 265.411 452.911 267.291C450.882 269.17 454.761 271.489 457.67 272.039" stroke="#FECA51" stroke-linecap="round" stroke-linejoin="round"/>
<path id="Vector_91" d="M451.392 258.923L461.609 260.512" stroke="#FECA51" stroke-linecap="round" stroke-linejoin="round"/>
</g>
<g id="music_note_3">
<path id="Vector_92" d="M460.689 68.5522C460.689 68.5522 459.7 67.8724 458.22 66.8426C456.74 65.8229 455.211 62.2139 457.47 61.584C459.73 60.9542 461.539 67.3225 461.539 67.3225L465.858 53.1462L476.326 54.9058L472.027 68.0023C472.027 68.0023 468.448 62.6137 466.418 64.4933C464.388 66.3728 468.268 68.6922 471.177 69.242" stroke="#FECA51" stroke-linecap="round" stroke-linejoin="round"/>
<path id="Vector_93" d="M464.889 56.1154L475.116 57.7051" stroke="#FECA51" stroke-linecap="round" stroke-linejoin="round"/>
</g>
<g id="music_note_4">
<path id="Vector_94" d="M285.331 355.947C285.331 355.947 284.342 355.268 282.862 354.238C281.382 353.218 279.853 349.609 282.112 348.979C284.372 348.349 286.181 354.718 286.181 354.718L290.5 340.541L300.968 342.301L296.669 355.398C296.669 355.398 293.09 350.009 291.06 351.888C289.031 353.768 292.91 356.087 295.819 356.637" stroke="#FECA51" stroke-linecap="round" stroke-linejoin="round"/>
<path id="Vector_95" d="M289.541 343.521L299.758 345.1" stroke="#FECA51" stroke-linecap="round" stroke-linejoin="round"/>
</g>
<g id="music_note_5">
<path id="Vector_96" d="M202.871 128.707C202.871 128.707 202.021 128.117 200.742 127.237C199.462 126.357 198.152 123.258 200.102 122.708C202.041 122.168 203.601 127.637 203.601 127.637L207.31 115.44L216.318 116.95L212.619 128.207C212.619 128.207 209.54 123.568 207.8 125.187C206.051 126.807 209.39 128.797 211.889 129.266" stroke="#FECA51" stroke-linecap="round" stroke-linejoin="round"/>
<path id="Vector_97" d="M206.48 118.019L215.278 119.379" stroke="#FECA51" stroke-linecap="round" stroke-linejoin="round"/>
</g>
<g id="flower_10">
<path id="Vector_98" d="M434.896 339.762C434.896 339.762 447.123 343.691 449.642 336.612C451.782 330.594 443.514 332.384 443.514 332.384C443.514 332.384 449.732 329.644 446.873 324.436C444.014 319.227 438.635 324.486 438.635 324.486C438.635 324.486 441.684 318.197 435.935 318.097C430.187 318.007 428.827 337.742 428.827 337.742L434.896 339.762Z" fill="#F5B539"/>
<path id="Vector_99" d="M407.052 352.428C420.559 346.9 428.827 337.742 428.827 337.742L442.324 327.395" stroke="#FECA51" stroke-linecap="round" stroke-linejoin="round"/>
<path id="Vector_100" d="M419.559 345.55C419.559 345.55 422.848 342.651 423.248 336.473C423.648 330.284 422.398 325.545 422.398 325.545C422.398 325.545 417.76 329.454 416.52 333.113C415.28 336.782 419.559 345.55 419.559 345.55Z" fill="#AC9F41"/>
<path id="Vector_101" d="M415.83 348.149C415.83 348.149 419.53 347.47 423.469 350.189C427.408 352.908 431.777 355.927 431.777 355.927C431.777 355.927 415.541 356.987 415.83 348.149Z" fill="#AC9F41"/>
<path id="Vector_102" d="M435.125 325.765L429.297 337.012L440.394 336.622" stroke="#FECA51" stroke-linecap="round" stroke-linejoin="round"/>
</g>
<g id="flower_11">
<path id="Vector_103" d="M142.326 176.324C142.326 176.324 141.506 165.317 135.048 165.597C129.569 165.837 133.658 171.845 133.658 171.845C133.658 171.845 129.459 167.776 126.24 171.745C123.021 175.714 128.949 178.294 128.949 178.294C128.949 178.294 122.951 177.894 124.74 182.513C126.53 187.121 142.686 181.823 142.686 181.823L142.336 176.334H142.326V176.324Z" fill="#F5B539"/>
<path id="Vector_104" d="M161.421 194.399C152.643 185.422 142.676 181.803 142.676 181.803L130.069 174.405" stroke="#FECA51" stroke-linecap="round" stroke-linejoin="round"/>
<path id="Vector_105" d="M151.904 186.661C151.904 186.661 148.535 184.972 143.476 186.661C138.417 188.351 135.048 190.88 135.048 190.88C135.048 190.88 139.657 193.31 142.976 193.11C146.295 192.91 151.904 186.661 151.904 186.661Z" fill="#AC9F41"/>
<path id="Vector_106" d="M155.172 188.801C155.172 188.801 153.433 186.072 154.333 182.063C155.222 178.044 156.212 173.585 156.212 173.585C156.212 173.585 162.311 186.182 155.172 188.801Z" fill="#AC9F41"/>
<path id="Vector_107" d="M131.099 180.663L141.936 181.673L138.037 172.955" stroke="#FECA51" stroke-linecap="round" stroke-linejoin="round"/>
</g>
<g id="flower_12">
<path id="Vector_108" d="M52.4574 380.181C52.4574 380.181 62.8249 383.98 65.2343 377.982C67.2838 372.893 60.1155 374.133 60.1155 374.133C60.1155 374.133 65.5542 371.993 63.2748 367.414C60.9953 362.846 56.1965 367.175 56.1965 367.175C56.1965 367.175 59.0358 361.876 54.097 361.596C49.1582 361.316 47.3086 378.222 47.3086 378.222L52.4474 380.171H52.4574V380.181Z" fill="#F5B539"/>
<path id="Vector_109" d="M28.103 390.099C39.9002 385.82 47.3184 378.242 47.3184 378.242L59.2655 369.824" stroke="#FECA51" stroke-linecap="round" stroke-linejoin="round"/>
<path id="Vector_110" d="M39.0804 384.63C39.0804 384.63 42.0097 382.261 42.5595 376.952C43.1194 371.653 42.2096 367.534 42.2096 367.534C42.2096 367.534 38.0906 370.734 36.9009 373.833C35.7112 376.942 39.0804 384.62 39.0804 384.62V384.63Z" fill="#AC9F41"/>
<path id="Vector_111" d="M35.7913 386.729C35.7913 386.729 38.9905 386.28 42.2797 388.749C45.5689 391.218 49.2181 393.968 49.2181 393.968C49.2181 393.968 35.2314 394.317 35.7913 386.729Z" fill="#AC9F41"/>
<path id="Vector_112" d="M53.1368 368.164L47.748 377.622L57.2958 377.672" stroke="#FECA51" stroke-linecap="round" stroke-linejoin="round"/>
</g>
<g id="small_blob">
<path id="Vector_113" d="M229.885 231.08C231.184 230.75 232.344 230.35 232.984 230.12C238.133 228.231 242.862 225.061 242.902 218.973C242.962 208.646 224.276 225.071 223.286 228.371C222.087 232.39 226.486 231.96 229.885 231.09V231.08Z" fill="#FEAEAD"/>
<path id="Vector_114" d="M250.339 152.06C251.589 151.551 252.679 151.001 253.279 150.681C258.118 148.102 262.367 144.312 261.557 138.264C260.187 128.027 243.951 146.872 243.431 150.281C242.801 154.43 247.1 153.39 250.339 152.06Z" fill="#FEAEAD"/>
<path id="Vector_115" d="M170.689 243.007C169.849 242.807 169.069 242.687 168.639 242.627C165.14 242.147 161.491 242.527 159.641 245.986C156.502 251.845 172.078 248.126 173.638 246.536C175.528 244.606 172.898 243.537 170.699 243.007H170.689Z" fill="#FEAEAD"/>
<path id="Vector_116" d="M365.722 230.85C364.242 230.36 362.852 230.02 362.083 229.84C355.864 228.441 349.236 228.561 345.367 234.499C338.808 244.566 367.421 240.268 370.461 237.658C374.16 234.479 369.591 232.14 365.722 230.85Z" fill="#FEAEAD"/>
<path id="Vector_117" d="M307.656 272.469C306.536 271.719 305.476 271.119 304.876 270.8C300.048 268.21 294.529 266.781 289.96 270.81C282.212 277.638 306.906 280.667 310.025 279.197C313.824 277.418 310.575 274.419 307.666 272.469H307.656Z" fill="#FEAEAD"/>
<path id="Vector_118" d="M235.453 209.386C236.093 209.226 236.653 209.026 236.963 208.916C239.472 207.996 241.781 206.446 241.801 203.477C241.831 198.438 232.714 206.456 232.234 208.066C231.654 210.025 233.793 209.815 235.453 209.396V209.386Z" fill="#FEAEAD"/>
<path id="Vector_119" d="M202.221 146.922C202.741 146.522 203.191 146.132 203.431 145.902C205.39 144.083 206.93 141.763 205.8 139.014C203.881 134.355 198.552 145.262 198.732 146.932C198.952 148.971 200.851 147.942 202.211 146.912H202.221V146.922Z" fill="#FEAEAD"/>
<path id="Vector_120" d="M252.699 229.17C253.339 229.01 253.899 228.811 254.208 228.701C256.718 227.781 259.027 226.231 259.047 223.262C259.077 218.223 249.949 226.241 249.47 227.851C248.89 229.81 251.029 229.6 252.689 229.18H252.699V229.17Z" fill="#FEAEAD"/>
<path id="Vector_121" d="M165.83 123.018C166.14 122.438 166.38 121.888 166.51 121.588C167.53 119.119 167.96 116.37 165.78 114.34C162.091 110.901 161.811 123.048 162.671 124.488C163.721 126.247 165.02 124.528 165.83 123.018Z" fill="#FEAEAD"/>
<path id="Vector_122" d="M137.037 204.507C137.087 203.847 137.087 203.257 137.077 202.927C137.007 200.248 136.287 197.569 133.467 196.599C128.699 194.959 133.377 206.166 134.747 207.136C136.417 208.316 136.907 206.216 137.037 204.507Z" fill="#FEAEAD"/>
<path id="Vector_123" d="M269.725 150.401C270.335 150.151 270.865 149.881 271.155 149.721C273.514 148.461 275.593 146.612 275.194 143.663C274.524 138.664 266.596 147.862 266.346 149.531C266.036 151.561 268.135 151.051 269.715 150.401H269.725Z" fill="#FEAEAD"/>
<path id="Vector_124" d="M380.339 21.8143C379.719 21.6044 379.139 21.4644 378.809 21.3944C376.2 20.8046 373.42 20.8546 371.791 23.3439C369.031 27.5628 381.048 25.7733 382.318 24.6736C383.868 23.3439 381.958 22.3542 380.329 21.8143H380.339Z" fill="#FEAEAD"/>
<path id="Vector_125" d="M420.319 144.073C419.699 143.863 419.119 143.723 418.789 143.653C416.18 143.063 413.4 143.113 411.771 145.602C409.011 149.821 421.028 148.032 422.298 146.932C423.848 145.602 421.938 144.612 420.309 144.073H420.319Z" fill="#FEAEAD"/>
<path id="Vector_126" d="M228.355 290.744C227.725 290.574 227.135 290.464 226.805 290.405C224.166 289.965 221.397 290.165 219.907 292.744C217.398 297.113 229.285 294.643 230.494 293.484C231.974 292.064 230.005 291.194 228.345 290.744H228.355Z" fill="#FEAEAD"/>
<path id="Vector_127" d="M373.01 206.206C372.29 205.946 371.62 205.767 371.24 205.677C368.221 204.927 364.982 204.917 363.032 207.776C359.733 212.625 373.74 210.815 375.249 209.576C377.089 208.066 374.879 206.876 373 206.206H373.01Z" fill="#FEAEAD"/>
<path id="Vector_128" d="M331.11 151.421C330.35 151.531 329.681 151.681 329.301 151.781C326.281 152.53 323.412 154.04 323.032 157.469C322.372 163.298 333.92 155.16 334.669 153.35C335.589 151.151 333.08 151.131 331.11 151.421Z" fill="#FEAEAD"/>
<path id="Vector_129" d="M379.859 96.4349C379.099 96.5449 378.429 96.6949 378.049 96.7949C375.03 97.5447 372.161 99.0543 371.781 102.483C371.121 108.312 382.668 100.174 383.418 98.3644C384.338 96.165 381.828 96.145 379.859 96.4349Z" fill="#FEAEAD"/>
<path id="Vector_130" d="M125.539 224.072C125.359 224.702 125.239 225.291 125.179 225.611C124.699 228.241 124.849 231.02 127.409 232.55C131.738 235.139 129.468 223.202 128.319 221.972C126.929 220.473 126.019 222.432 125.539 224.072Z" fill="#FEAEAD"/>
<path id="Vector_131" d="M396.894 223.572C396.285 223.112 395.695 222.742 395.375 222.542C392.715 220.923 389.636 219.943 386.917 222.082C382.308 225.711 396.215 228.191 398.034 227.461C400.244 226.571 398.494 224.772 396.904 223.572H396.894Z" fill="#FEAEAD"/>
</g>
</g>
</g>
</g>
<defs>
<clipPath id="clip0_494_2159">
<rect width="749.82" height="500" fill="white"/>
</clipPath>
</defs>
</svg>
