<svg width="500" height="500" viewBox="0 0 500 500" fill="none" xmlns="http://www.w3.org/2000/svg">
<g id="img__mental-health 1" clip-path="url(#clip0_493_2002)">
<g id="object">
<g id="back">
<g id="blobs">
<path id="blob" d="M237.3 448.6C136.77 451.53 -5.23977 352.42 41.6802 251.98C84.6302 160.04 189.52 226.76 254.35 233.47C319.18 240.18 383.25 188.9 438.28 242.59C493.31 296.28 467.81 441.9 237.3 448.61V448.6Z" fill="#C2E9FC"/>
<path id="blob_2" d="M100.73 125.82C100.73 179.86 177.23 212.16 221.07 197.85C264.91 183.53 276.86 152.85 261.33 128.95C245.81 105.05 199.18 117.84 170.06 91.37C145.45 69 100.72 90.48 100.72 125.82H100.73Z" fill="#C2E9FC"/>
<path id="circle" d="M420.75 207.33C432.983 207.33 442.9 197.413 442.9 185.18C442.9 172.947 432.983 163.03 420.75 163.03C408.517 163.03 398.6 172.947 398.6 185.18C398.6 197.413 408.517 207.33 420.75 207.33Z" fill="#C2E9FC"/>
<path id="circle_2" d="M68.3502 190.18C80.5833 190.18 90.5002 180.263 90.5002 168.03C90.5002 155.797 80.5833 145.88 68.3502 145.88C56.1171 145.88 46.2002 155.797 46.2002 168.03C46.2002 180.263 56.1171 190.18 68.3502 190.18Z" fill="#C2E9FC"/>
<path id="circle_3" d="M61.1101 267.07C46.0802 287.64 57.8102 321.27 85.3702 327.47C111.99 333.46 144.45 303.47 128.89 273.4C114.61 245.81 78.1402 243.77 61.1101 267.07Z" fill="#ADDBF2"/>
<path id="blob_3" d="M384.58 373.88C369.89 366.4 351.09 345.13 360.05 322.72C369.02 300.3 395.39 306.37 396.71 321.67C398.03 336.97 397.94 340.77 406.91 347.79C420.71 358.59 413.06 388.39 384.58 373.89V373.88Z" fill="#ADDBF2"/>
</g>
<g id="triangle_and_circle">
<path id="Vector" d="M116.89 192.69C116.89 191.38 115.83 190.32 114.52 190.32C113.21 190.32 112.15 191.38 112.15 192.69C112.15 194 113.21 195.06 114.52 195.06C115.83 195.06 116.89 194 116.89 192.69Z" stroke="#4C2E6D" stroke-linecap="round" stroke-linejoin="round"/>
<path id="Vector_2" d="M390.25 86.67C390.25 85.36 389.19 84.3 387.88 84.3C386.57 84.3 385.51 85.36 385.51 86.67C385.51 87.98 386.57 89.04 387.88 89.04C389.19 89.04 390.25 87.98 390.25 86.67Z" stroke="#4C2E6D" stroke-linecap="round" stroke-linejoin="round"/>
<path id="Vector_3" d="M415.44 279.33C416.749 279.33 417.81 278.269 417.81 276.96C417.81 275.651 416.749 274.59 415.44 274.59C414.131 274.59 413.07 275.651 413.07 276.96C413.07 278.269 414.131 279.33 415.44 279.33Z" stroke="#4C2E6D" stroke-linecap="round" stroke-linejoin="round"/>
<path id="Vector_4" d="M127.97 63.33C127.97 62.02 126.91 60.96 125.6 60.96C124.29 60.96 123.23 62.02 123.23 63.33C123.23 64.64 124.29 65.7 125.6 65.7C126.91 65.7 127.97 64.64 127.97 63.33Z" stroke="#4C2E6D" stroke-linecap="round" stroke-linejoin="round"/>
<path id="Vector_5" d="M95.26 365.84C95.26 364.53 94.2 363.47 92.89 363.47C91.58 363.47 90.52 364.53 90.52 365.84C90.52 367.15 91.58 368.21 92.89 368.21C94.2 368.21 95.26 367.15 95.26 365.84Z" stroke="#4C2E6D" stroke-linecap="round" stroke-linejoin="round"/>
<path id="Vector_6" d="M383.4 350.7H376.8L380.12 345.1L383.4 350.7Z" stroke="#4C2E6D" stroke-linecap="round" stroke-linejoin="round"/>
<path id="Vector_7" d="M184.93 230.27H178.34L181.65 224.68L184.93 230.27Z" stroke="#4C2E6D" stroke-linecap="round" stroke-linejoin="round"/>
<path id="Vector_8" d="M64.9302 151.36H71.5302L68.2102 156.96L64.9302 151.36Z" stroke="#4C2E6D" stroke-linecap="round" stroke-linejoin="round"/>
<path id="Vector_9" d="M429.2 196.24L433.86 191.58L435.47 197.87L429.2 196.24Z" stroke="#4C2E6D" stroke-linecap="round" stroke-linejoin="round"/>
<path id="Vector_10" d="M90.0703 284.78L94.7403 280.12L96.3503 286.42L90.0703 284.78Z" stroke="#4C2E6D" stroke-linecap="round" stroke-linejoin="round"/>
<path id="Vector_11" d="M432.21 119.04L436.88 114.38L438.49 120.68L432.21 119.04Z" stroke="#4C2E6D" stroke-linecap="round" stroke-linejoin="round"/>
</g>
<g id="stars">
<path id="Vector_12" d="M137.151 119.35C135.451 119.24 136.761 126.43 134.721 128.79C132.691 131.15 126.131 130.1 125.741 131.81C125.351 133.51 134.201 131.42 134.921 134.96C135.641 138.5 135.381 145.45 137.151 145.45C138.921 145.45 136.761 137.12 140.041 134.76C143.321 132.4 146.921 134.43 146.931 132.4C146.931 130.89 140.241 131.95 139.191 129C138.141 126.05 139.191 119.49 137.161 119.35H137.151Z" fill="white"/>
<path id="Vector_13" d="M72.8605 337.57C71.1605 337.46 72.4705 344.65 70.4305 347.01C68.4005 349.37 61.8405 348.32 61.4505 350.03C61.0605 351.73 69.9105 349.64 70.6305 353.18C71.3505 356.72 71.0905 363.67 72.8605 363.67C74.6305 363.67 72.4705 355.34 75.7505 352.98C79.0305 350.62 82.6305 352.65 82.6405 350.62C82.6405 349.11 75.9405 350.17 74.9005 347.22C73.8505 344.27 74.9005 337.71 72.8705 337.57H72.8605Z" fill="white"/>
<path id="Vector_14" d="M391.49 390.15C389.79 390.04 391.1 397.23 389.06 399.59C387.03 401.95 380.47 400.9 380.08 402.61C379.69 404.31 388.54 402.22 389.26 405.76C389.98 409.3 389.72 416.25 391.49 416.25C393.26 416.25 391.1 407.92 394.38 405.56C397.66 403.2 401.26 405.23 401.27 403.2C401.27 401.69 394.58 402.75 393.53 399.8C392.48 396.85 393.53 390.29 391.5 390.15H391.49Z" fill="white"/>
<path id="Vector_15" d="M426.9 302.49C425.2 302.38 426.51 309.57 424.47 311.93C422.44 314.29 415.88 313.24 415.49 314.95C415.1 316.65 423.95 314.56 424.67 318.1C425.39 321.64 425.13 328.59 426.9 328.59C428.67 328.59 426.51 320.26 429.79 317.9C433.07 315.54 436.67 317.57 436.68 315.54C436.68 314.03 429.99 315.09 428.94 312.14C427.89 309.19 428.94 302.63 426.91 302.49H426.9Z" fill="white"/>
<path id="Vector_16" d="M133.59 246.64C133.59 248.61 140.87 246.9 143.23 249.26C145.59 251.62 145.13 258.64 146.57 258.64C148.01 258.64 146.37 250.51 148.54 248.21C150.7 245.91 157.06 247.23 157.06 245.59C157.06 243.95 148.8 245.52 147.75 243.49C146.7 241.46 146.37 233.98 144.86 233.98C143.35 233.98 144.53 241.59 142.96 243.88C141.39 246.17 133.58 244.93 133.58 246.63L133.59 246.64Z" fill="white"/>
<path id="Vector_17" d="M60.8303 91.4C60.8303 93.37 68.1103 91.66 70.4703 94.02C72.8303 96.38 72.3703 103.4 73.8103 103.4C75.2503 103.4 73.6103 95.27 75.7803 92.97C77.9403 90.67 84.3003 91.99 84.3003 90.35C84.3003 88.71 76.0403 90.28 74.9903 88.25C73.9403 86.22 73.6103 78.74 72.1003 78.74C70.5903 78.74 71.7703 86.35 70.2003 88.64C68.6303 90.93 60.8203 89.69 60.8203 91.39L60.8303 91.4Z" fill="white"/>
<path id="Vector_18" d="M393.281 104.73C393.281 106.7 400.561 104.99 402.921 107.35C405.281 109.71 404.821 116.73 406.261 116.73C407.701 116.73 406.061 108.6 408.231 106.3C410.391 104 416.751 105.32 416.751 103.68C416.751 102.04 408.491 103.61 407.441 101.58C406.391 99.55 406.061 92.07 404.551 92.07C403.041 92.07 404.221 99.68 402.651 101.97C401.081 104.26 393.271 103.02 393.271 104.72H393.281V104.73Z" fill="white"/>
</g>
</g>
<g id="front">
<g id="Group">
<g id="Group_2">
<path id="Vector_19" d="M147.73 434.07L146.46 465.88C146.37 468.21 149.6 468.87 150.43 466.7L161.61 437.51L147.72 434.07H147.73Z" fill="#4C2E6D"/>
<path id="Vector_20" d="M336.43 436.36L347.76 466.11C348.59 468.28 351.82 467.63 351.74 465.3L350.56 434.07L336.44 436.36H336.43Z" fill="#4C2E6D"/>
</g>
<g id="Group_3">
<path id="Vector_21" d="M159.42 369.75C159.42 369.75 124.48 369.56 121.8 394.99C119.12 420.42 125.83 438.87 179.18 450.95C232.53 463.03 286.55 465.71 330.84 449.94C375.13 434.17 377.81 412.7 367.41 394.24C357.01 375.79 345.6 382.5 344.93 323.44C344.26 264.39 344.45 256.89 292.25 249.29C243.19 242.14 220.22 241.46 199.87 244.59C180.64 247.55 166.99 268.08 163.41 321.32C160.4 366.12 159.43 369.75 159.43 369.75H159.42Z" fill="#F9A125"/>
<path id="Vector_22" d="M245.94 374.45C205 375.02 138.79 374.56 134.99 385.75C131.19 396.93 212.39 409.91 244.82 410.36C277.25 410.81 350.44 407.49 352.19 392.02C353.94 376.54 310.61 373.55 245.94 374.46V374.45Z" fill="#F08E16"/>
<path id="Vector_23" d="M372.17 407.46C353.15 422.21 310.61 448.34 247.62 448.6C183.43 448.87 142.27 430.64 124.76 420.81C130.8 433.43 145.93 443.43 179.17 450.95C232.52 463.03 286.54 465.71 330.83 449.94C364.85 437.83 374.32 422.35 372.17 407.46Z" fill="#F08E16"/>
<path id="Vector_24" d="M296.73 249.97L301.87 308.5L318.39 308.4C317.6 291.39 309.98 285.16 308.01 271.61C306.79 263.26 303.86 258.85 303.86 258.85C303.94 255.52 304.38 252.85 304.7 251.3C302.2 250.84 299.56 250.4 296.74 249.96H296.73V249.97Z" fill="#F08E16"/>
</g>
<g id="Group_4">
<path id="Vector_25" d="M143.27 320.77L150.99 383.18C150.99 383.18 249.1 375.79 341.14 380.83L352.31 314.4C352.31 314.4 259.03 281.85 143.27 320.78V320.77Z" fill="white"/>
<path id="Vector_26" d="M343.51 360.58C343.51 360.58 343.41 373.68 330.36 379.29C330.36 379.29 325.28 380.15 325.09 380.02C324.89 379.89 322.72 367.49 322.72 367.49L343.52 360.58H343.51ZM319.41 306.6C315.55 305.94 311.39 305.3 306.95 304.71L304.76 345.72L317.89 339.99C322.6 325.87 320.56 312.08 319.41 306.6ZM193.02 366.1L160.45 349.62C160.45 349.62 155.95 369.61 175.51 381.67C180.02 381.43 185.07 381.18 190.58 380.93L193.02 366.1ZM189.99 340.78L199.22 324.69L181.12 310.26C179.53 310.61 177.94 310.98 176.33 311.35C175.69 318.12 176.46 331.42 189.98 340.78H189.99Z" fill="#CAD6DB"/>
</g>
</g>
<g id="Group_5">
<g id="on_head">
<g id="blob_on_head">
<path id="Vector_27" d="M269.65 226.93C269.65 226.93 243.37 233.75 237.66 211.61C231.96 189.46 249.65 185.18 234.55 174.1C219.45 163.02 184.37 177.26 173.1 155.11C167.87 144.83 170.53 126.03 197.96 123.14C217.41 121.09 227.6 115.98 222.34 97.86C217.08 79.74 209.37 54.35 232.63 46.08C255.89 37.8 263.84 49.61 271.44 60.73C280.11 73.42 289.4 58.84 298.11 50.87C316.51 34.06 339.66 55.27 339.45 70.65C339.23 87.2 328.36 100.55 347.38 101.1C366.39 101.66 379.48 102.11 382.76 111.95C386.46 123.06 375.86 129.05 378.36 138.23C381.72 150.57 399.91 148.24 411.09 174.73C427.07 212.6 409.1 242.89 380.92 253.48C352.74 264.07 322.66 257.44 289.55 230.35L269.64 226.92L269.65 226.93Z" fill="#4848B6"/>
<path id="Vector_28" d="M394.69 135.33C391.99 143.21 403.74 146.48 410 151.22C416.08 155.82 414.37 165.08 421.76 169.1C429.14 173.13 438.42 159.59 428.47 142.78C419.73 128.02 397.38 127.5 394.7 135.33H394.69Z" fill="#4848B6"/>
<path id="Vector_29" d="M196.84 96.41C187.74 97.25 184.76 112.52 199.08 112.63C213.4 112.74 211.38 95.07 196.84 96.41Z" fill="#4848B6"/>
<path id="Vector_30" d="M347.57 87.35C350.15 92.51 366.66 92.27 370.09 79.97C373.52 67.67 367.78 54.92 358.91 57C350.04 59.09 349.76 67.54 350.56 72.66C351.75 80.34 344.74 81.68 347.58 87.35H347.57Z" fill="#4848B6"/>
<path id="Vector_31" d="M230.95 189.48C232.96 184.07 221.52 172.17 210.18 178.06C198.85 183.95 193.45 196.85 201.03 201.91C208.61 206.97 214.98 201.4 218.17 197.32C222.97 191.21 228.73 195.41 230.94 189.47L230.95 189.48Z" fill="#4848B6"/>
</g>
<g id="stuff_on_head">
<path id="large_gear" d="M231.75 147.16V143.55L228.37 143.33C228.12 142.14 227.65 141.03 227.01 140.05L229.25 137.5L226.7 134.95L224.15 137.19C223.16 136.55 222.06 136.08 220.87 135.83L220.65 132.45H217.04L216.82 135.83C215.63 136.08 214.52 136.55 213.54 137.19L210.99 134.95L208.44 137.5L210.68 140.05C210.04 141.04 209.57 142.14 209.32 143.33L205.94 143.55V147.16L209.32 147.38C209.57 148.57 210.04 149.68 210.68 150.66L208.44 153.21L210.99 155.76L213.54 153.52C214.53 154.16 215.63 154.63 216.82 154.88L217.04 158.26H220.65L220.87 154.88C222.06 154.63 223.17 154.16 224.15 153.52L226.7 155.76L229.25 153.21L227.01 150.66C227.65 149.67 228.12 148.57 228.37 147.38L231.75 147.16ZM218.84 149.06C216.8 149.06 215.14 147.4 215.14 145.36C215.14 143.32 216.8 141.66 218.84 141.66C220.88 141.66 222.54 143.32 222.54 145.36C222.54 147.4 220.88 149.06 218.84 149.06Z" fill="#ADDBF2"/>
<path id="small_gear" d="M254.27 133.36V129.75L250.89 129.53C250.64 128.34 250.17 127.23 249.53 126.25L251.77 123.7L249.22 121.15L246.67 123.39C245.68 122.75 244.58 122.28 243.39 122.03L243.17 118.65H239.56L239.34 122.03C238.15 122.28 237.04 122.75 236.06 123.39L233.51 121.15L230.96 123.7L233.2 126.25C232.56 127.24 232.09 128.34 231.84 129.53L228.46 129.75V133.36L231.84 133.58C232.09 134.77 232.56 135.88 233.2 136.86L230.96 139.41L233.51 141.96L236.06 139.72C237.05 140.36 238.15 140.83 239.34 141.08L239.56 144.46H243.17L243.39 141.08C244.58 140.83 245.69 140.36 246.67 139.72L249.22 141.96L251.77 139.41L249.53 136.86C250.17 135.87 250.64 134.77 250.89 133.58L254.27 133.36ZM241.36 135.26C239.32 135.26 237.66 133.6 237.66 131.56C237.66 129.52 239.32 127.86 241.36 127.86C243.4 127.86 245.06 129.52 245.06 131.56C245.06 133.6 243.4 135.26 241.36 135.26Z" fill="#ADDBF2"/>
<g id="leaves">
<path id="Vector_32" d="M290.17 99.3C290.17 99.3 276.62 96.46 273.23 86.83C268.53 73.48 291.13 74.01 290.17 99.3Z" fill="#49AD9F"/>
<path id="Vector_33" d="M295.7 115.88C295.7 115.88 298.85 107.18 305.91 101.84C316.55 93.79 327.37 114.52 295.7 115.88Z" fill="#49AD9F"/>
<path id="Vector_34" d="M296.15 121.45C296.15 121.45 292.25 109.6 279.94 107.7C267.64 105.8 271.78 124.59 296.15 121.45Z" fill="#49AD9F"/>
<path id="Vector_35" d="M292.99 144.89C292.99 144.89 296.19 137.88 305.78 134.4C317.29 130.22 322.59 148.57 292.99 144.89Z" fill="#49AD9F"/>
<path id="Vector_36" d="M290.36 152.57C290.36 152.57 291.73 138.05 283.9 132.46C276.07 126.87 269.46 143 290.36 152.57Z" fill="#49AD9F"/>
<path id="Vector_37" d="M284.82 169.63C284.82 169.63 289.12 162.2 297.83 158.41C308.64 153.71 314.9 173.54 284.82 169.63Z" fill="#49AD9F"/>
<path id="Vector_38" d="M281.7 88.06C285.72 92.18 290.17 99.3 290.17 99.3C300.05 115.81 296.41 139.44 288.89 156.02C280.17 175.26 286.88 188.01 286.88 188.01" stroke="#4C2E6D" stroke-linecap="round" stroke-linejoin="round"/>
</g>
<g id="leaves_2">
<path id="Vector_39" d="M366.28 171.9C366.28 171.9 361.63 158.86 368.07 150.94C377 139.96 388.35 159.5 366.28 171.9Z" fill="#49AD9F"/>
<path id="Vector_40" d="M355.66 183.64C355.66 183.64 363.66 178.99 372.5 179.43C385.82 180.09 380.8 202.93 355.66 183.64Z" fill="#49AD9F"/>
<path id="Vector_41" d="M350.9 187.24C350.9 187.24 359.97 178.67 356.46 166.73C352.96 154.78 337.7 166.51 350.9 187.24Z" fill="#49AD9F"/>
<path id="Vector_42" d="M338.9 193.3C338.9 193.3 346.03 190.38 355.41 194.39C366.67 199.21 357.99 216.22 338.9 193.3Z" fill="#49AD9F"/>
<path id="Vector_43" d="M330.49 195.6C330.49 195.6 342.03 186.69 340.78 177.15C339.53 167.61 323.22 173.79 330.49 195.6Z" fill="#49AD9F"/>
<path id="Vector_44" d="M318.53 196.74C318.53 196.74 327.06 197.71 334.01 204.2C342.63 212.24 326.94 225.89 318.53 196.74Z" fill="#49AD9F"/>
<path id="Vector_45" d="M371.2 161.93C369.3 167.89 366.28 171.9 366.28 171.9C343.02 205.23 305.66 195.39 305.66 195.39" stroke="#4C2E6D" stroke-linecap="round" stroke-linejoin="round"/>
</g>
<g id="leaves_3">
<path id="Vector_46" d="M266.48 118.07C266.48 118.07 263.13 116.42 259.55 115.48C251.98 112.8 243.99 116.01 238.68 110.18C236.92 108.25 236.62 103.1 240.35 100.87C240.35 100.87 231.25 89.54 236.1 83.5C240.95 77.46 250.04 86.86 250.04 86.86C250.04 86.86 250.64 81.34 254.59 80.75C258.54 80.16 260.26 84.85 260.63 90.22C260.63 90.22 262.57 86.42 266.82 87.54C271.07 88.66 271.1 94.44 269.65 100.14C267.64 108.04 272.25 110.53 266.47 118.09V118.07H266.48Z" fill="#49AD9F"/>
<path id="Vector_47" d="M246.99 93.23C246.99 93.23 271.26 104.53 267.01 133.94" stroke="#4C2E6D" stroke-linecap="round" stroke-linejoin="round"/>
</g>
<g id="leaves_4">
<path id="Vector_48" d="M358.66 230.9C358.66 230.9 353.58 220.62 348.84 221.61C345.43 222.32 347.27 226.87 347.27 226.87C347.27 226.87 341.13 218.58 336.44 220.6C331.75 222.62 333.65 228.98 333.65 228.98C333.65 228.98 322.98 228.11 323.96 234.39C324.94 240.67 332.17 242.7 337.38 239.21C337.38 239.21 333.9 246.34 338.42 248C342.93 249.66 347 241.55 347 241.55C347 241.55 346.68 245.02 350.29 245.33C355.36 245.76 358.66 230.91 358.66 230.91V230.9Z" fill="#49AD9F"/>
<path id="Vector_49" d="M335.94 235.08C335.94 235.08 353.11 226.81 372.12 233.43" stroke="#4C2E6D" stroke-linecap="round" stroke-linejoin="round"/>
</g>
<path id="cloud" d="M217.18 161.1C209.87 161.1 211.1 156.98 213.51 156.25C215.91 155.52 217.42 157.03 217.42 157.03C217.42 157.03 216.53 152.22 220.38 150.43C224.24 148.64 226.08 152.61 226.08 152.61C226.08 152.61 226.3 146.23 230.95 146.12C235.59 146.01 236.77 150.93 236.77 150.93C236.77 150.93 237.27 147.8 239.12 147.8C240.97 147.8 241.3 150.93 241.3 150.93C241.3 150.93 242.81 143.83 248.01 145.39C253.21 146.96 251.89 155.79 251.89 155.79C251.89 155.79 260.02 154.71 260.02 157.89C260.02 161.07 255.78 161.08 251.25 161.08H217.17V161.1H217.18Z" fill="white"/>
<path id="cloud_2" d="M371.95 221.49C365.01 221.49 362.83 219.92 363.44 217.41C364.05 214.9 370.11 216.8 370.11 216.8C370.11 216.8 367.86 214.14 369.16 211.83C370.45 209.52 374.61 210.33 374.61 210.33C374.61 210.33 372.3 200.51 380.53 197.93C388.77 195.35 392.92 202.37 390.95 207.68C390.95 207.68 396.43 205.23 397.21 210.78C397.21 210.78 400.05 208.52 402.79 210.3C405.53 212.08 403.3 216.92 403.3 216.92C403.3 216.92 409.11 215.2 409.48 218.27C409.85 221.36 405.91 221.5 402.48 221.5H371.95V221.49Z" fill="white"/>
<path id="cloud_3" d="M296.99 75.11C291.77 75.11 289.37 73.72 289.6 71.31C289.83 68.89 294.61 69 296.32 71.31C296.32 71.31 294.98 61.09 304.75 62.74C304.75 62.74 304.23 52.6 312.32 52.6C320.41 52.6 318.55 62.89 318.55 62.89C318.55 62.89 321.76 59.16 324.89 61.77C328.02 64.38 325.93 69.9 325.93 69.9C325.93 69.9 330.93 69.04 330.93 72.03C330.93 74.1 329.07 75.12 325.04 75.12H296.99V75.11Z" fill="white"/>
<g id="piece">
<path id="Vector_50" d="M234.49 38.77L220.71 41.68C218.54 42.14 217.15 44.27 217.61 46.45L220.52 60.23L226.94 58.87C226.94 58.87 228.41 64.8 230.68 64.49C232.95 64.17 232.18 57.77 232.18 57.77L238.25 56.49L234.51 38.77H234.49Z" fill="#F46A60"/>
<path id="Vector_51" d="M248.27 35.86L234.49 38.77L236.11 46.46C236.11 46.46 229.14 46.79 229.87 49.68C230.6 52.57 236.94 50.41 236.94 50.41L238.22 56.49L255.94 52.75L253.03 38.97C252.57 36.8 250.44 35.41 248.26 35.87H248.27V35.86Z" fill="#984AFF"/>
<path id="Vector_52" d="M249.27 54.15C249.27 54.15 249.01 46.99 245.71 48.09C242.41 49.2 245.01 55.05 245.01 55.05L238.23 56.48L241.97 74.2L255.75 71.29C257.92 70.83 259.31 68.7 258.85 66.52L255.94 52.74L249.26 54.15H249.27Z" fill="#21DEFC"/>
<path id="Vector_53" d="M246.73 63.95C246.16 61.25 239.63 63.09 239.63 63.09L238.24 56.49L232.17 57.77C232.17 57.77 232.94 64.17 230.67 64.49C228.4 64.81 226.93 58.87 226.93 58.87L220.51 60.23L223.42 74.01C223.88 76.18 226.01 77.57 228.19 77.11L241.97 74.2L240.54 67.45C240.54 67.45 247.29 66.65 246.72 63.95H246.73Z" fill="#FEF047"/>
</g>
<g id="rainbow">
<path id="Vector_54" d="M322.15 143.99H336.91C336.91 143.99 334.02 130.67 345.14 126.42C356.26 122.17 361.96 137.49 361.96 137.49L373.82 129.77C373.82 129.77 369.91 106.06 342.17 110.87C314.43 115.68 322.15 143.99 322.15 143.99Z" fill="#F46A60"/>
<path id="Vector_55" d="M339.13 114.01C322.89 119.1 324.27 138.15 325.1 143.99H336.91C336.91 143.99 334.02 130.67 345.14 126.42C356.26 122.17 361.96 137.49 361.96 137.49L372.77 130.45C368.59 120.78 356.57 108.53 339.13 114V114.01Z" fill="#F9A125"/>
<path id="Vector_56" d="M370.87 131.7C365.31 123.13 355.26 111.38 340.6 116.74C327.55 121.51 326.73 138.51 326.81 143.99H336.9C336.9 143.99 334.01 130.67 345.13 126.42C356.25 122.17 361.95 137.49 361.95 137.49L370.85 131.69H370.87V131.7Z" fill="#FEF047"/>
<path id="Vector_57" d="M342.09 119.3C330.56 124.51 330.03 139 330.2 143.99H336.91C336.91 143.99 334.02 130.67 345.14 126.42C356.26 122.17 361.96 137.49 361.96 137.49L368.85 133.01C364.34 127.11 353 114.37 342.09 119.3Z" fill="#8AD779"/>
<path id="Vector_58" d="M343.66 122.95C333.55 126.7 333.22 139.36 333.46 143.99H336.92C336.92 143.99 334.03 130.67 345.15 126.42C356.27 122.17 361.97 137.49 361.97 137.49L365.81 134.99C361.29 129.1 352.41 119.7 343.67 122.95H343.66Z" fill="#21DEFC"/>
</g>
<path id="lightning" d="M308.42 86.53L314.6 82.28L318.12 88.73L324.16 83.92L326.41 91.97L330.57 90.53L329.9 106.51L326.84 97.52L322.37 99.99L321.1 92.34L314.6 95.55L308.42 86.53Z" fill="#F9A125"/>
<path id="lightning_2" d="M270.12 185.72L254.73 184.65L256.55 177.17L248.19 174.73L251.64 167.09L264.15 173.63L261.28 179.27L270.12 185.72Z" fill="#F9A125"/>
</g>
<g id="dots">
<path id="Vector_59" d="M326.41 169.03C330.326 169.03 333.5 165.856 333.5 161.94C333.5 158.024 330.326 154.85 326.41 154.85C322.495 154.85 319.32 158.024 319.32 161.94C319.32 165.856 322.495 169.03 326.41 169.03Z" fill="#393999"/>
<path id="Vector_60" d="M391.5 186.19C395.416 186.19 398.59 183.016 398.59 179.1C398.59 175.184 395.416 172.01 391.5 172.01C387.584 172.01 384.41 175.184 384.41 179.1C384.41 183.016 387.584 186.19 391.5 186.19Z" fill="#393999"/>
<path id="Vector_61" d="M189.17 154.35C193.086 154.35 196.26 151.176 196.26 147.26C196.26 143.344 193.086 140.17 189.17 140.17C185.254 140.17 182.08 143.344 182.08 147.26C182.08 151.176 185.254 154.35 189.17 154.35Z" fill="#393999"/>
<path id="Vector_62" d="M298.05 181C298.05 178.73 296.21 176.9 293.95 176.9C291.69 176.9 289.85 178.74 289.85 181C289.85 183.26 291.69 185.1 293.95 185.1C296.21 185.1 298.05 183.26 298.05 181Z" fill="#393999"/>
<path id="Vector_63" d="M273.99 169.84C276.254 169.84 278.09 168.004 278.09 165.74C278.09 163.476 276.254 161.64 273.99 161.64C271.726 161.64 269.89 163.476 269.89 165.74C269.89 168.004 271.726 169.84 273.99 169.84Z" fill="#393999"/>
<path id="Vector_64" d="M384.47 238.33C386.734 238.33 388.57 236.494 388.57 234.23C388.57 231.966 386.734 230.13 384.47 230.13C382.206 230.13 380.37 231.966 380.37 234.23C380.37 236.494 382.206 238.33 384.47 238.33Z" fill="#393999"/>
</g>
</g>
<g id="Group_6">
<g id="Group_7">
<path id="Vector_65" d="M226.35 242.01C237.57 240.75 249.9 245.19 261.82 250.86C275.91 257.57 292.69 259.14 295.37 277.26C298.05 295.38 295.59 361.37 295.59 361.37C295.59 361.37 243.02 380.38 192.25 343.25L226.35 242.01Z" fill="#FF438D"/>
<g id="Group_8">
<g id="Group_9">
<path id="Vector_66" d="M256.511 244.26L264.671 233.47L273.231 239.85L268.981 250.86L256.511 244.26Z" fill="#FF98AA"/>
<path id="Vector_67" d="M271.291 244.87L273.231 239.84L264.671 233.46L261.531 237.61C262.821 239.69 265.691 243.12 271.281 244.86H271.291V244.87Z" fill="#FF8095"/>
</g>
<path id="Vector_68" d="M268.381 239.45C256.091 230.23 255.701 212.91 261.371 202.76C267.041 192.62 273.821 190.83 277.401 196.2C280.981 201.57 285.231 201.72 288.361 198.29C291.491 194.86 295.001 193.67 297.901 197.17C300.811 200.67 295.511 204.33 297.531 208.06C299.541 211.79 304.171 209.25 305.731 213.2C307.301 217.15 304.761 218.12 305.061 221.85C305.361 225.58 305.791 230.77 298.011 237.9C290.221 245.03 278.221 246.82 268.381 239.44V239.45Z" fill="#FF98AA"/>
<g id="Group_10">
<path id="Vector_69" d="M266.241 197.29C266.241 197.29 262.601 188.45 254.501 191.81C245.571 195.5 244.601 213.17 259.421 212.72L266.241 197.29Z" fill="#FF98AA"/>
<g id="Group_11">
<path id="Vector_70" d="M252.091 199.3C252.091 199.3 255.671 195.44 260.591 198.35" stroke="#4C2E6D" stroke-linecap="round" stroke-linejoin="round"/>
<path id="Vector_71" d="M256.451 203.27C256.451 203.27 255.151 199.95 256.561 197.28" stroke="#4C2E6D" stroke-linecap="round" stroke-linejoin="round"/>
</g>
</g>
<g id="Group_12">
<g id="Group_13">
<path id="Vector_72" d="M271.721 202.85L271.301 205.89C271.301 205.89 278.201 204.55 279.461 210.92" stroke="#4C2E6D" stroke-linecap="round" stroke-linejoin="round"/>
<path id="Vector_73" d="M274.681 204.11L274.261 205.88" stroke="#4C2E6D" stroke-linecap="round" stroke-linejoin="round"/>
<path id="Vector_74" d="M276.941 205.43L276.471 206.6" stroke="#4C2E6D" stroke-linecap="round" stroke-linejoin="round"/>
</g>
<g id="Group_14">
<path id="Vector_75" d="M301.831 223L299.181 224.55C299.181 224.55 297.771 217.67 291.401 218.94" stroke="#4C2E6D" stroke-linecap="round" stroke-linejoin="round"/>
<path id="Vector_76" d="M299.531 220.76L298.051 221.83" stroke="#4C2E6D" stroke-linecap="round" stroke-linejoin="round"/>
<path id="Vector_77" d="M297.441 219.17L296.541 220.06" stroke="#4C2E6D" stroke-linecap="round" stroke-linejoin="round"/>
</g>
<path id="Vector_78" d="M286.541 212.47C284.741 215.49 281.771 213.88 281.031 214.99C280.491 215.8 281.951 216.56 281.951 216.56" stroke="#4C2E6D" stroke-linecap="round" stroke-linejoin="round"/>
<path id="Vector_79" d="M273.321 218.21C273.321 218.21 275.981 225.1 284.841 226.12" stroke="#4C2E6D" stroke-linecap="round" stroke-linejoin="round"/>
</g>
<g id="Group_15">
<path id="Vector_80" d="M262.341 218.65C260.561 218.65 259.001 219.55 258.071 220.92C258.371 223.44 258.981 225.94 259.931 228.34C260.651 228.72 261.461 228.94 262.331 228.94C265.171 228.94 267.471 226.64 267.471 223.8C267.471 220.96 265.171 218.66 262.331 218.66H262.341V218.65Z" fill="#FF8095"/>
<path id="Vector_81" d="M288.911 243.17C289.641 242.28 290.081 241.14 290.081 239.91C290.081 237.07 287.781 234.77 284.941 234.77C282.101 234.77 279.801 237.07 279.801 239.91C279.801 241.71 280.721 243.28 282.111 244.2C284.431 244.2 286.731 243.85 288.921 243.17H288.911Z" fill="#FF8095"/>
</g>
</g>
<path id="Vector_82" d="M240.3 242.96C240.3 242.96 240.35 256.24 256.57 263.17C272.79 270.1 280.65 258.63 280.65 258.63C280.65 258.63 281.74 251.54 274.69 249.52C267.64 247.5 262.91 247.82 255.7 241.16C248.32 234.34 240.31 242.96 240.31 242.96H240.3Z" fill="#FA2D7E"/>
<path id="Vector_83" d="M296.22 287.44L296.02 283.93C295.96 282.95 295.89 282.02 295.81 281.15L278.86 271.03C277.55 277.98 275.561 295.56 272.131 304.92C268.701 314.28 264.88 340 282.02 349.76L295.981 349.34C296.441 333.26 297.04 304.79 296.22 287.45V287.44Z" fill="#D93475"/>
</g>
<g id="Group_16">
<path id="Vector_84" d="M226.35 242.01C220.87 242.63 215.59 244.74 210.59 249.07C195.38 262.27 173.01 285.31 175.92 309.69C178.83 334.07 202.43 350.74 232.4 350.63L239.6 334.45C239.6 334.45 230.92 318.05 208.03 309.54L221.7 271.07C222 270.21 226.35 242.01 226.35 242.01Z" fill="#FF438D"/>
<path id="Vector_85" d="M241.54 335.49C241.54 335.49 253.79 347.23 250.01 357.28L234.9 351.45L234.86 340.96L241.53 335.5L241.54 335.49Z" fill="#FF98AA"/>
<path id="Vector_86" d="M239.601 334.45L241.541 335.49L234.901 351.45L232.411 350.63L230.581 339.97L239.601 334.45Z" fill="#FF438D"/>
<path id="Vector_87" d="M241.54 335.49L239.6 334.45C239.6 334.45 230.92 318.05 208.03 309.54L221.7 271.07" stroke="#4C2E6D" stroke-linecap="round" stroke-linejoin="round"/>
<path id="Vector_88" d="M208.03 309.54C205.46 308.58 202.71 307.73 199.78 307.01" stroke="#4C2E6D" stroke-linecap="round" stroke-linejoin="round"/>
</g>
</g>
<g id="Group_17">
<path id="Vector_89" d="M207.69 364.27C207.69 364.27 258.24 358.16 289.34 344.7C312.41 334.71 335.2 334.3 343.25 350.18C351.3 366.06 328.44 386.1 277.26 390C226.08 393.9 210.53 387.69 210.53 387.69L207.7 364.28L207.69 364.27Z" fill="#5767BF"/>
<path id="Vector_90" d="M301.671 350.74C309.861 349.34 313.651 343.01 315.411 337.79C307.341 338.36 298.361 340.8 289.331 344.7C287.151 345.64 284.871 346.55 282.521 347.42C285.541 349.47 291.841 352.42 301.671 350.73V350.74Z" fill="#4859B8"/>
</g>
<path id="Vector_91" d="M192.59 375.23C192.59 375.23 172.35 377.24 173.13 385.52C173.91 393.8 194.83 391.56 206.57 387.09L192.59 375.23Z" fill="#4C2E6D"/>
<g id="Group_18">
<path id="Vector_92" d="M313.77 392.74L319.81 381.67L308.24 374.06L302.53 373.67L295.1 385.19L300.83 394.32L313.77 392.74Z" fill="#FF98AA"/>
<path id="Vector_93" d="M300.83 394.32C324.35 393.38 337.88 391.16 337.88 385.9C337.88 377.25 320.13 373.37 302.54 373.67C302.54 373.67 315.36 374.94 315.74 383.74C316.11 392.54 300.84 394.33 300.84 394.33H300.83V394.32Z" fill="#4C2E6D"/>
<g id="Group_19">
<path id="Vector_94" d="M160.71 344.29C151.46 368.3 192.92 394.99 243.92 394.99C266.4 394.99 285.68 394.92 300.82 394.32L302.52 373.67C302.52 373.67 270.16 365.77 234.89 351.45C199.62 337.13 167.99 325.37 160.7 344.29H160.71Z" fill="#5767BF"/>
<path id="Vector_95" d="M302.53 373.67C302.53 373.67 270.17 365.77 234.9 351.45C199.63 337.13 168 325.37 160.71 344.29" stroke="#4C2E6D" stroke-linecap="round" stroke-linejoin="round"/>
</g>
</g>
<g id="Group_20">
<g id="Group_21">
<path id="Vector_96" d="M292.8 257.8L283.85 254C283.85 254 283.07 247.4 287.15 243.93C291.23 240.46 299.19 227.4 301.82 229.24C303.9 230.7 300.47 234.56 298.01 237.91C298.01 237.91 299.89 236.03 302.47 232.41C305.3 228.43 306.09 225.25 307.99 226.03C309.89 226.81 308.61 230.39 308.61 230.39C308.61 230.39 309.68 229.31 310.46 229.83C311.97 230.84 309.82 236.28 306.94 240.62C303.31 246.08 301.42 251.3 301.08 256.33L292.8 257.78V257.8Z" fill="#FF98AA"/>
<g id="Group_22">
<path id="Vector_97" d="M308.62 230.4C308.62 230.4 307.85 233.36 303.26 239.12" stroke="#4C2E6D" stroke-linecap="round" stroke-linejoin="round"/>
<path id="Vector_98" d="M283.8 252.15C283.87 249.94 284.43 246.24 287.15 243.93C291.23 240.46 299.19 227.4 301.82 229.24C303.9 230.7 300.47 234.56 298.01 237.91C298.01 237.91 299.89 236.03 302.47 232.41C305.3 228.43 306.09 225.25 307.99 226.03C309.89 226.81 308.61 230.39 308.61 230.39C308.61 230.39 309.68 229.31 310.46 229.83C311.97 230.84 309.82 236.28 306.94 240.62" stroke="#4C2E6D" stroke-linecap="round" stroke-linejoin="round"/>
</g>
</g>
<g id="Group_23">
<path id="Vector_99" d="M284.98 257.52C292.59 253.86 298.95 255.86 302.38 261.23C305.81 266.6 304.32 276.14 311.03 290.16C317.74 304.18 319.98 347.13 297.61 347.72C275.24 348.31 272.11 325.35 274.79 309.84C277.47 294.33 278.67 284.49 277.33 276.44C275.99 268.39 280.58 259.64 284.98 257.52Z" fill="#FF438D"/>
<path id="Vector_100" d="M283.58 258.41L283.86 253.99C283.86 253.99 293.93 248.96 301.08 256.34L300.74 261.37L283.58 258.41Z" fill="#FF438D"/>
<path id="Vector_101" d="M301.08 256.34C293.92 248.96 283.86 253.99 283.86 253.99L283.58 258.41C279.67 261.49 276.13 269.24 277.33 276.44C278.67 284.49 277.48 294.34 274.79 309.84C272.11 325.35 275.24 348.31 297.61 347.72C306.06 347.49 311 341.23 313.51 332.76" stroke="#4C2E6D" stroke-linecap="round" stroke-linejoin="round"/>
</g>
</g>
</g>
</g>
</g>
</g>
<defs>
<clipPath id="clip0_493_2002">
<rect width="500" height="500" fill="white"/>
</clipPath>
</defs>
</svg>
