<svg width="407" height="117" viewBox="0 0 407 117" fill="none" xmlns="http://www.w3.org/2000/svg">
<g id="img__logo 1">
<path id="Vector" d="M33.8091 82.314L33.8129 82.3163C38.2752 85.013 43.3137 86.3672 48.9021 86.3672C54.4666 86.3672 59.5277 85.041 63.9952 82.314C65.9832 81.1005 67.7847 79.6962 69.3989 78.1025V79.5989C69.3989 81.4254 70.0184 82.9752 71.3092 84.2242L71.3116 84.2265C72.5797 85.4454 74.201 86.0525 76.0591 86.0525H76.0792C77.9308 86.0525 79.5352 85.4756 80.8279 84.2254C82.0995 83.0025 82.7394 81.4258 82.7394 79.5989V55.6867V55.0205L82.7135 55.0097C82.6137 49.4397 81.2275 44.4147 78.522 39.9119C75.7222 35.2522 71.9434 31.5921 67.2012 28.887L67.1974 28.8848C62.4381 26.1971 57.0676 24.8489 51.1301 24.8489C45.1925 24.8489 39.8034 26.1971 35.0057 28.883L35.0057 28.883L35.002 28.8851C30.2193 31.5897 26.4188 35.2501 23.6177 39.9119C20.8073 44.5894 19.4204 49.8304 19.4204 55.6605C19.4204 61.4745 20.6993 66.7051 23.2793 71.3266C25.8338 75.9647 29.3692 79.6039 33.8091 82.314ZM60.7573 72.2357C57.9575 73.8914 54.765 74.7184 51.1301 74.7184C47.5798 74.7184 44.4041 73.8933 41.5581 72.2327C38.6989 70.5645 36.4554 68.3049 34.7959 65.4144C33.1436 62.5365 32.3193 59.3807 32.3193 55.6605C32.3193 51.935 33.146 48.6754 34.7959 45.8017C36.4554 42.9112 38.6989 40.6516 41.5581 38.9833C44.4058 37.3217 47.5016 36.4977 51.1301 36.4977C54.7643 36.4977 57.9564 37.3244 60.7558 38.9795C63.557 40.6476 65.78 42.9065 67.3991 45.793C69.0129 48.6698 69.8405 52.0116 69.8405 55.6605C69.8405 59.3042 69.0152 62.5422 67.3991 65.4231C65.7785 68.3122 63.5749 70.5695 60.7573 72.2357Z" stroke="white" stroke-width="2"/>
<path id="Vector_2" d="M87.5377 109.188L87.5354 109.185C86.2445 107.936 85.625 106.386 85.625 104.56V55.6605V55.6534L85.6251 55.6462C85.7077 49.8501 87.1133 44.5901 89.8792 39.9175C92.6393 35.2547 96.3997 31.5928 101.143 28.887L101.147 28.8848L101.147 28.8848C105.906 26.1971 111.277 24.8489 117.214 24.8489C123.148 24.8489 128.64 26.1953 133.402 28.8848L133.406 28.887C138.148 31.5921 141.927 35.2522 144.727 39.9119C147.537 44.5894 148.924 49.8304 148.924 55.6605C148.924 61.4769 147.644 66.6808 145.065 71.3269L145.064 71.3291C142.492 75.9344 138.98 79.601 134.535 82.314C130.068 85.041 125.007 86.3672 119.442 86.3672C114.931 86.3672 110.747 85.4743 106.928 83.6474C103.924 82.2108 101.265 80.3798 98.9454 78.1283V104.56C98.9454 106.376 98.3328 107.953 97.0797 109.181C95.8273 110.408 94.2053 111.009 92.2852 111.014L87.5377 109.188ZM87.5377 109.188C88.8012 110.402 90.4154 111.009 92.2651 111.014L87.5377 109.188ZM100.945 65.3968L100.943 65.3925C99.3099 62.5155 98.5039 59.3586 98.5039 55.6343C98.5039 51.9086 99.3306 48.6451 100.945 45.7668C102.564 42.881 104.785 40.6242 107.642 38.9571C110.49 37.2955 113.586 36.4714 117.214 36.4714C120.849 36.4714 124.042 37.2984 126.841 38.9541C129.66 40.6212 131.886 42.8805 133.547 45.7732C135.18 48.6503 136.025 51.9902 136.025 55.6343C136.025 59.2778 135.2 62.5119 133.548 65.3882C131.887 68.2819 129.661 70.542 126.841 72.2095C124.042 73.8652 120.849 74.6922 117.214 74.6922C113.664 74.6922 110.488 73.8671 107.642 72.2065C104.785 70.5394 102.564 68.2826 100.945 65.3968Z" stroke="white" stroke-width="2"/>
<path id="Vector_3" d="M155.718 71.5594L155.718 71.5601C158.46 76.1999 162.204 79.8123 166.954 82.4403C171.72 85.0777 177.211 86.3672 183.355 86.3672C189.519 86.3672 194.99 85.0776 199.756 82.4403C204.507 79.8116 208.253 76.1709 210.935 71.5536C213.622 66.9272 214.964 61.6899 214.964 55.6605C214.964 49.6318 213.603 44.2868 210.871 39.6566L210.871 39.656C208.129 35.0162 204.385 31.4037 199.635 28.7757C194.872 26.1401 189.523 24.8489 183.355 24.8489C177.191 24.8489 171.721 26.1383 166.955 28.7752C162.183 31.4043 158.439 35.0442 155.718 39.6566C152.986 44.2878 151.625 49.7118 151.625 55.6605C151.625 61.6127 152.988 66.931 155.718 71.5594ZM193.094 72.2815C190.291 73.8896 187.054 74.7184 183.355 74.7184C179.657 74.7184 176.421 73.8902 173.619 72.2832C170.8 70.6406 168.6 68.4348 166.984 65.5772C165.374 62.7325 164.564 59.4459 164.564 55.6605C164.564 51.8746 165.374 48.5603 166.985 45.6881C168.606 42.7982 170.808 40.5455 173.616 38.9346C176.419 37.3265 179.656 36.4977 183.355 36.4977C187.054 36.4977 190.291 37.3265 193.094 38.9346C195.902 40.5458 198.1 42.7968 199.679 45.6793C201.255 48.5562 202.065 51.8746 202.065 55.6605C202.065 59.4448 201.256 62.7347 199.682 65.5835C198.082 68.4438 195.903 70.67 193.094 72.2815Z" stroke="white" stroke-width="2"/>
<path id="Vector_4" d="M226.075 88.8072C228.778 90.629 231.865 91.5474 235.325 91.5474H235.365H235.586C237.959 91.5474 240.005 91.0162 241.624 89.8686C243.264 88.7055 244.153 87.1303 244.153 85.1986C244.153 83.416 243.623 81.8749 242.501 80.6646C241.37 79.4437 239.89 78.8498 238.155 78.8498H235.365C234.156 78.8498 233.118 78.2501 232.205 76.7609C231.281 75.2273 230.785 73.2441 230.785 70.7254V12.151C230.785 10.332 230.17 8.77656 228.91 7.57342C227.656 6.37653 226.073 5.80225 224.205 5.80225C222.337 5.80225 220.754 6.37653 219.5 7.57342C218.24 8.77655 217.625 10.3319 217.625 12.151V70.6992C217.625 74.7016 218.35 78.2609 219.829 81.3795C221.303 84.4882 223.383 86.993 226.075 88.8072Z" stroke="white" stroke-width="2"/>
<path id="Vector_5" d="M253.575 88.8072C256.278 90.629 259.365 91.5474 262.825 91.5474H262.865H263.086C265.459 91.5474 267.505 91.0162 269.124 89.8686C270.764 88.7055 271.653 87.1303 271.653 85.1986C271.653 83.416 271.123 81.8749 270.001 80.6646C268.87 79.4437 267.389 78.8498 265.655 78.8498H262.865C261.656 78.8498 260.618 78.2501 259.705 76.7609C258.781 75.2273 258.285 73.2441 258.285 70.7254V12.151C258.285 10.332 257.67 8.77656 256.41 7.57342C255.156 6.37653 253.573 5.80225 251.705 5.80225C249.837 5.80225 248.254 6.37653 247 7.57342C245.74 8.77656 245.125 10.332 245.125 12.151V70.6992C245.125 74.7015 245.85 78.2609 247.329 81.3795C248.803 84.4882 250.883 86.993 253.575 88.8072Z" stroke="white" stroke-width="2"/>
<path id="Vector_6" d="M267.093 71.5594L267.093 71.5601C269.835 76.1999 273.579 79.8123 278.329 82.4403C283.095 85.0777 288.586 86.3672 294.73 86.3672C300.894 86.3672 306.365 85.0776 311.131 82.4403C315.882 79.8116 319.628 76.1709 322.31 71.5536C324.997 66.9272 326.339 61.6899 326.339 55.6605C326.339 49.6318 324.978 44.2868 322.246 39.6566L322.246 39.656C319.504 35.0162 315.76 31.4037 311.01 28.7757C306.247 26.14 300.878 24.8489 294.73 24.8489C288.585 24.8489 283.115 26.1388 278.33 28.7748C273.558 31.404 269.814 35.044 267.093 39.6566C264.361 44.2878 263 49.7118 263 55.6605C263 61.6127 264.363 66.931 267.093 71.5594ZM278.359 65.5772L278.356 65.5728C276.729 62.7305 275.919 59.4459 275.919 55.6605C275.919 51.8786 276.747 48.5634 278.36 45.6881C279.981 42.7982 282.183 40.5455 284.991 38.9346C287.794 37.3265 291.031 36.4977 294.73 36.4977C298.429 36.4977 301.666 37.3265 304.469 38.9346C307.277 40.5458 309.475 42.7968 311.054 45.6793C312.63 48.5562 313.44 51.8746 313.44 55.6605C313.44 59.4448 312.631 62.7347 311.057 65.5835C309.457 68.4438 307.278 70.67 304.469 72.2815C301.666 73.8896 298.429 74.7184 294.73 74.7184C291.026 74.7184 287.792 73.9135 284.997 72.2848C282.177 70.6421 279.976 68.4358 278.359 65.5772Z" stroke="white" stroke-width="2"/>
<path id="Vector_7" d="M330.91 84.3029L330.913 84.3052C332.181 85.5241 333.802 86.1312 335.66 86.1312C337.589 86.1312 339.218 85.5298 340.475 84.2986C341.728 83.0708 342.34 81.494 342.34 79.6775V50.4464H342.381V49.4464C342.381 46.9998 343.062 44.874 344.418 43.0072L344.418 43.0073L344.421 43.002C345.777 41.1106 347.645 39.588 350.04 38.4454L350.041 38.4455L350.051 38.4404C352.404 37.2844 355.08 36.7074 358.06 36.7074C361.349 36.7074 364.228 37.3135 366.701 38.4972C369.151 39.6702 371.112 41.4487 372.558 43.8527C373.983 46.2217 374.743 49.3576 374.743 53.3007V79.6775C374.743 81.505 375.384 83.0821 376.656 84.3052C377.887 85.4881 379.45 86.0948 381.24 86.1296L381.325 86.1574H381.484C383.335 86.1574 384.94 85.5805 386.233 84.3303C387.504 83.1073 388.144 81.5307 388.144 79.7038V53.3269C388.144 47.2441 386.934 42.0551 384.499 37.806L384.499 37.8052C382.059 33.556 378.73 30.3241 374.52 28.1349C370.302 25.9259 365.342 24.8489 360.308 24.8489C355.263 24.8489 350.685 25.9306 346.595 28.0842C345.032 28.907 343.595 29.8433 342.284 30.8931C342.106 29.4397 341.512 28.1693 340.465 27.1707C339.199 25.9618 337.488 25.3995 335.66 25.3995C333.81 25.3995 332.216 25.9747 330.929 27.1578L330.929 27.1578L330.922 27.1641C329.634 28.3709 329 29.9577 329 31.8531V79.6775C329 81.504 329.62 83.0538 330.91 84.3029Z" stroke="white" stroke-width="2"/>
</g>
</svg>
