<svg width="500" height="216" viewBox="0 0 500 216" fill="none" xmlns="http://www.w3.org/2000/svg">
<g id="img__depressed_woman" clip-path="url(#clip0_491_1901)">
<g id="&#38;lt;Layer&#38;gt;">
<g id="Group">
<path id="behind_the_scene" d="M480.394 184.403C480.407 186.924 480.268 189.44 479.973 191.927C479.483 196.075 478.559 200.141 477.173 204.038C476.199 206.783 474.999 209.443 473.561 211.983C473.148 212.713 472.712 213.434 472.261 214.141H34.4522C34.4522 214.141 -5.42099 122.83 48.9012 78.6214C49.5798 78.0707 50.261 77.5278 50.9448 76.9954C51.5765 76.5099 52.2081 76.0296 52.8449 75.5598C53.4609 75.1005 54.0847 74.6542 54.7059 74.2131C71.0785 62.6481 89.0066 56.927 107.814 53.3826C108.477 53.2573 109.14 53.1346 109.806 53.0146C110.437 52.8997 111.069 52.7875 111.701 52.6779C126.948 50.0496 142.734 48.6637 158.707 46.6096C164.266 45.8918 169.849 45.0958 175.44 44.1353C197.81 40.296 220.301 33.8519 241.953 19.6168C248.792 15.1224 255.682 11.4867 262.546 8.62086C263.019 8.42511 263.491 8.22936 263.964 8.03883C264.428 7.85352 264.888 7.67082 265.352 7.49073C278.94 2.23677 292.366 -0.0365495 304.988 -9.30885e-06C305.484 -9.30885e-06 305.98 0.00521072 306.475 0.0130408C306.948 0.0208708 307.42 0.0339209 307.888 0.0495809C311.894 0.172252 315.811 0.532433 319.622 1.09881C321.217 1.33632 322.793 1.60776 324.344 1.91835C326.627 2.37249 328.864 2.90232 331.051 3.50263C359.164 11.2178 379.065 30.5946 380.206 50.6316C380.976 64.1384 382.578 77.1154 386.125 88.375C387.77 93.5872 389.831 98.434 392.421 102.793C393.125 103.983 393.869 105.131 394.652 106.243C402.396 117.208 414.159 124.435 432.09 125.636C444.553 126.473 455.053 132.056 463.045 140.319C463.118 140.398 463.194 140.473 463.269 140.552C474.153 151.942 480.326 168.328 480.396 184.403H480.394Z" fill="#D2E4FF"/>
<path id="shadow_of_person" d="M247.218 156.776C246.743 153.202 241.217 152.025 239.97 151.128C239.223 150.59 237.49 148.217 236.287 146.49C236.459 146.372 236.556 146.302 236.556 146.302C233.056 135.543 230.172 126.734 227.794 119.52C228.076 118.977 228.345 118.153 228.561 116.91C229.42 111.951 225.098 110.069 225.098 110.069C225.077 110.056 225.053 110.043 225.03 110.033C227.606 88.3515 221.407 86.8795 221.407 86.8795C221.407 86.8795 219.173 86.1173 216.487 86.4671C215.574 84.2642 213.744 82.9123 210.724 82.74C209.816 82.6878 208.827 82.8888 207.767 83.3064C207.908 83.0584 208.047 82.8105 208.182 82.5599C208.811 82.124 214.11 78.3134 213.653 73.7276C213.561 72.8193 213.371 72.1329 213.115 71.6161C213.042 71.2455 212.948 70.8958 212.841 70.5721C213.311 68.2675 213.34 66.3961 212.805 65.326C211.828 63.3711 210.004 62.006 208.629 61.1996C209.205 61.0769 209.96 61.3979 209.96 61.3979C209.221 60.7271 206.846 60.3122 206.846 60.3122C198.387 48.2748 185.339 63.8644 182.964 67.9282C180.587 71.9893 177.606 76.4994 169.57 76.181C153.753 75.5572 152.748 91.4653 155.985 99.6111C156.029 99.7259 163.783 113.457 163.783 113.457C163.929 113.188 164.172 112.849 164.498 112.452C163.966 118.181 163.715 122.877 162.836 124.195C160.996 126.954 152.312 143.384 159.824 151.054C153.897 149.107 145.516 156.389 144.503 157.298H144.401V214.141H214.934H250.201V157.298C249.316 157.123 248.316 156.948 247.22 156.776H247.218ZM199.848 146.795C200.558 145.727 203.163 140.857 206.358 134.332C206.264 140.883 206.222 145.631 206.222 145.631C206.123 146.552 206.454 147.241 207.049 147.753C206.684 148.591 206.23 149.402 205.875 150.193C205.478 151.075 205.309 152.065 205.251 152.941C199.287 152.662 194.762 152.607 193.274 152.884C193.013 152.934 192.705 152.981 192.366 153.03C195.913 151.352 198.382 149.006 199.848 146.795ZM224.252 154.22C222.921 151.793 218.385 152.01 217.341 151.13C216.545 150.457 216.01 149.752 215.655 149.06C215.973 149.032 216.158 149.011 216.158 149.011C217.516 144.475 218.693 140.27 219.713 136.371C223.607 142.919 226.828 147.753 226.828 147.753C227.225 148.718 227.93 149.18 228.788 149.314C228.736 149.598 228.647 149.89 228.512 150.196C227.836 151.691 227.823 153.508 227.885 154.539C226.682 154.429 225.468 154.325 224.255 154.223L224.252 154.22Z" fill="#C3DAFC"/>
<path id="behind_the_scene_2" d="M480.394 184.403C480.375 186.924 480.237 189.44 479.974 191.927C479.587 195.542 478.932 199.105 477.993 202.56C477.742 203.495 477.468 204.424 477.173 205.343C476.199 208.386 474.999 211.327 473.561 214.141H324.344V1.91574C326.628 2.36988 328.864 2.89972 331.051 3.50002C333.722 4.23343 336.318 5.07125 338.832 6.00563C354.395 11.7894 366.77 21.2455 373.811 32.1371C377.601 38.0018 379.846 44.2815 380.206 50.629C380.976 64.1358 382.578 77.1128 386.125 88.3724C387.77 93.5846 389.832 98.4314 392.421 102.79C393.125 103.98 393.869 105.129 394.652 106.241C402.396 117.205 414.16 124.432 432.09 125.633C444.553 126.471 455.053 132.054 463.045 140.317C463.118 140.395 463.194 140.471 463.269 140.549C474.153 151.939 480.326 168.325 480.396 184.4L480.394 184.403Z" fill="#EBF3FA"/>
<path id="land" d="M0.532442 214.141H499.468C499.762 214.141 500 214.381 500 214.673V214.934C500 215.229 499.762 215.467 499.468 215.467H0.532442C0.237511 215.467 0 215.229 0 214.934V214.673C0 214.379 0.240121 214.141 0.532442 214.141Z" fill="#2E3552"/>
<g id="person">
<path id="Vector" d="M306.747 148.481L284.656 146.748C284.656 146.748 284.126 143.381 285.279 140.826C286.386 138.375 284.864 136.603 283.351 133.682C284.755 135.128 289.589 134.914 292.783 134.486C293.175 135.12 297.113 140.959 298.421 141.899C299.864 142.935 306.303 144.3 306.747 148.478V148.481Z" fill="#233862"/>
<path id="Vector_2" d="M280.8 146.748H258.709C258.709 146.748 258.18 143.381 259.333 140.826C260.44 138.375 262.366 135.744 260.852 132.826C262.256 134.272 266.691 134.113 269.883 133.685C270.274 134.319 268.406 138.464 272.475 141.901C273.832 143.047 280.357 142.569 280.8 146.751V146.748Z" fill="#233862"/>
<path id="Vector_3" d="M277.136 68.2414C277.136 68.2414 266.618 64.6526 262.577 75.3406C243.313 90.9459 215.759 130.803 213.433 133.588C208.777 139.168 212.374 146.936 231.419 146.751C242.553 146.641 249.368 141.531 252.422 136.934C253.236 135.71 256.225 130.125 259.884 122.647C259.774 130.159 259.73 135.601 259.73 135.601C259.158 140.925 271.117 139.469 271.117 139.469C291.397 71.6291 277.133 68.2414 277.133 68.2414H277.136Z" fill="#163560"/>
<path id="Vector_4" d="M267.273 43.535C266.153 41.2956 264.063 39.7296 262.486 38.8056C263.147 38.6647 264.013 39.0327 264.013 39.0327C263.167 38.2628 260.445 37.7904 260.445 37.7904C250.746 23.9886 235.788 41.8646 233.066 46.5208C230.341 51.1745 226.925 56.3475 217.709 55.9848C199.577 55.2696 199.601 73.1221 202.132 82.847C203.471 87.9887 211.601 100.008 211.601 100.008C213.695 96.1737 231.988 78.6057 244.516 78.7258C248.724 77.0267 253.168 72.0233 253.516 71.6265C250.222 75.7504 247.834 77.6974 246.242 78.6292C258.154 76.7865 270.241 49.4754 267.273 43.5376V43.535Z" fill="#B5453C"/>
<path id="Vector_5" d="M245.266 78.7154C245.3 78.7623 243.629 84.9455 238.605 82.2337C235.308 80.4536 230.015 72.8559 232.056 70.2824C233.025 69.0583 237.295 66.7354 241.739 58.8636L242.275 59.3256L251.248 67.0878C251.248 67.0878 249.204 70.1389 247.492 73.1325C246.051 75.646 244.845 78.1203 245.268 78.718L245.266 78.7154Z" fill="#F4A269"/>
<path id="Vector_6" d="M241.943 57.3785C241.943 57.3785 242.11 50.9996 243.997 46.714C245.344 43.6551 253.529 34.4522 262.737 42.7363C262.737 42.7363 265.501 45.0097 267.022 48.7524C268.234 51.7278 269.264 57.0914 259.767 63.546L256.838 65.9132L241.945 57.3811L241.943 57.3785Z" fill="#B5453C"/>
<path id="Vector_7" d="M229.882 66.9129C229.882 66.9129 233.178 67.5419 234.572 65.6731C235.966 63.8043 239.001 59.8554 239.709 62.1209C240.416 64.389 247.111 70.9793 248.658 71.1541C250.206 71.3264 251.292 71.7597 250.415 72.5635C249.54 73.3674 249.903 76.5777 249.029 76.8701C248.152 77.1624 231.899 66.7354 229.882 66.9129Z" fill="#F99746"/>
<path id="Vector_8" d="M250.608 71.4177C250.608 71.4177 237.668 63.05 243.003 55.0712C248.337 47.0924 250.258 40.6405 258.746 45.6439C267.234 50.6473 266.788 54.7554 265.655 57.8509C264.522 60.9464 254.111 73.3857 250.608 71.4151V71.4177Z" fill="#FFB27D"/>
<path id="Vector_9" d="M251.245 77.8906C251.245 77.8906 229.331 61.7424 221.66 67.8238C210.348 76.7944 212.611 107.081 209.983 111.022C207.355 114.963 192.551 143.222 216.628 146.098C240.708 148.972 246.254 133.792 247.348 122.407C248.442 111.022 251.242 77.888 251.242 77.888L251.245 77.8906Z" fill="#F99746"/>
<path id="Vector_10" d="M222.412 77.687C222.412 77.687 216.101 112.57 228.608 122.102C241.113 131.631 247.408 76.6091 222.412 77.687Z" fill="#ED7D2B"/>
<path id="Vector_11" d="M234.998 72.112C234.998 72.112 235.238 68.0352 238.834 69.5933C242.431 71.1515 249.084 73.4901 251.66 72.5296C254.239 71.5717 247.515 84.4574 241.376 80.143C235.238 75.826 234.998 72.112 234.998 72.112Z" fill="#ED7D2B"/>
<path id="Vector_12" d="M264.707 49.3579C264.707 49.3579 254.933 56.3632 248.629 54.1421C242.324 51.921 240.956 48.9168 240.956 48.9168C240.956 48.9168 247.278 48.4053 251.968 43.2583C251.968 43.2583 265.046 43.1357 264.707 49.3605V49.3579Z" fill="#B5453C"/>
<path id="Vector_13" d="M281.367 94.8296C281.367 94.8296 286.324 96.988 285.337 102.673C284.353 108.36 282.382 106.455 282.382 106.455L281.367 94.8296Z" fill="#FFB27D"/>
<path id="Vector_14" d="M263.329 49.5354C263.329 49.5354 264.548 53.3773 263.825 55.836C263.102 58.2946 260.588 62.6664 261.901 63.3398C261.901 63.3398 268.802 58.7514 268.246 53.1659C267.656 47.2438 263.329 49.5354 263.329 49.5354Z" fill="#B5453C"/>
<path id="Vector_15" d="M271.679 68.244C270.702 65.4382 268.565 63.7026 264.89 63.4938C248.828 62.5855 210.213 130.08 207.287 133.588C202.631 139.168 206.227 146.936 225.273 146.751C236.407 146.641 240.799 141.311 243.851 136.715C245.247 134.611 255.374 118.526 263.157 101.965C269.682 117.511 283.353 138.03 283.353 138.03C285.384 142.984 294.508 136.373 294.508 136.373C272.642 69.1418 271.679 68.244 271.679 68.244Z" fill="#1C468A"/>
<path id="Vector_16" d="M220.598 70.2902C220.598 70.2902 214.825 79.206 232.776 87.3858C250.728 95.5656 252.839 97.5622 256.342 98.293C261.797 99.431 282.748 99.2718 282.748 99.2718C282.748 99.2718 283.298 95.9492 281.367 94.8269C278.277 93.0313 260.432 90.1133 258.026 89.1502C255.619 88.1871 229.981 60.6279 220.598 70.2876V70.2902Z" fill="#ED985F"/>
<path id="Vector_17" d="M225.693 66.4692C225.693 66.4692 234.862 66.8398 253.988 84.46C253.988 84.46 256.917 88.0148 258.37 88.2523C259.827 88.4899 263.77 89.526 263.857 90.5309C263.943 91.5357 258.999 104.121 252.707 104.481C246.414 104.842 216.101 82.4216 218.171 75.137C220.238 67.8551 225.693 66.4692 225.693 66.4692Z" fill="#F99746"/>
</g>
<g id="box">
<path id="Vector_18" d="M269.716 148.974H188.853V214.144H269.716V148.974Z" fill="#C6601A"/>
<path id="Vector_19" d="M310.145 148.974H236.984V214.141H310.145V148.974Z" fill="#F1A34F"/>
<g id="Group_2">
<path id="Vector_20" d="M249.167 161.508C249.167 160.792 249.768 160.21 250.509 160.21C251.25 160.21 251.851 160.79 251.851 161.508C251.851 162.225 251.25 162.805 250.509 162.805C249.768 162.805 249.167 162.225 249.167 161.508Z" fill="#D3671E"/>
<path id="Vector_21" d="M298.374 161.508C298.374 160.792 298.974 160.21 299.716 160.21C300.457 160.21 301.057 160.79 301.057 161.508C301.057 162.225 300.457 162.805 299.716 162.805C298.974 162.805 298.374 162.225 298.374 161.508Z" fill="#D3671E"/>
<path id="Vector_22" d="M249.167 202.56C249.167 201.845 249.768 201.263 250.509 201.263C251.25 201.263 251.851 201.843 251.851 202.56C251.851 203.278 251.25 203.858 250.509 203.858C249.768 203.858 249.167 203.278 249.167 202.56Z" fill="#D3671E"/>
<path id="Vector_23" d="M298.374 202.56C298.374 201.845 298.974 201.263 299.716 201.263C300.457 201.263 301.057 201.843 301.057 202.56C301.057 203.278 300.457 203.858 299.716 203.858C298.974 203.858 298.374 203.278 298.374 202.56Z" fill="#D3671E"/>
</g>
<g id="Group_3">
<path id="Vector_24" d="M196.466 161.508C196.466 160.792 196.836 160.21 197.296 160.21C197.755 160.21 198.126 160.79 198.126 161.508C198.126 162.225 197.755 162.805 197.296 162.805C196.836 162.805 196.466 162.225 196.466 161.508Z" fill="#B25618"/>
<path id="Vector_25" d="M226.945 161.508C226.945 160.792 227.319 160.21 227.775 160.21C228.232 160.21 228.605 160.79 228.605 161.508C228.605 162.225 228.232 162.805 227.775 162.805C227.319 162.805 226.945 162.225 226.945 161.508Z" fill="#B25618"/>
<path id="Vector_26" d="M196.466 202.56C196.466 201.845 196.836 201.263 197.296 201.263C197.755 201.263 198.126 201.843 198.126 202.56C198.126 203.278 197.755 203.858 197.296 203.858C196.836 203.858 196.466 203.278 196.466 202.56Z" fill="#B25618"/>
<path id="Vector_27" d="M226.945 202.56C226.945 201.845 227.319 201.263 227.775 201.263C228.232 201.263 228.605 201.843 228.605 202.56C228.605 203.278 228.232 203.858 227.775 203.858C227.319 203.858 226.945 203.278 226.945 202.56Z" fill="#B25618"/>
</g>
<path id="Vector_28" d="M188.853 149.079C188.853 149.079 199.841 138.928 207.091 142.024C216.634 146.098 239.197 144.963 244.889 143.911C250.582 142.859 295.051 145.999 310.148 148.972L188.853 149.076V149.079Z" fill="#D3671E"/>
<path id="Vector_29" d="M310.145 197.045V214.141H236.984V148.974H249.259L249.499 149.079C249.499 149.079 256.068 193.284 310.145 197.048V197.045Z" fill="#E78B37"/>
</g>
<g id="behind_the_scene_3">
<path id="Vector_30" d="M109.806 53.0198V98.6872H52.8447V75.5625C52.2105 76.0323 51.5763 76.5099 50.9473 76.998V100.585H111.703V52.6857C111.069 52.7953 110.437 52.9049 109.806 53.0224V53.0198Z" fill="#BDD8FF"/>
<path id="Vector_31" d="M107.814 53.3852V96.6827H54.7056V74.2131C71.0782 62.6481 89.0089 56.9296 107.814 53.3826V53.3852Z" fill="#BDD8FF"/>
</g>
<g id="behind_the_scene_4">
<path id="Vector_32" d="M306.475 0.0130463V21.2716H263.966V8.04666C263.491 8.23459 263.021 8.43034 262.549 8.6287V22.6862H307.89V0.0495864C307.42 0.0339264 306.948 0.0234863 306.478 0.0130463H306.475Z" fill="#BDD8FF"/>
<path id="Vector_33" d="M304.988 -9.31394e-06V19.7761H265.352V7.50117C278.94 2.23677 292.366 -0.0365495 304.988 -9.31394e-06Z" fill="#BDD8FF"/>
</g>
<path id="grass" d="M463.423 207.611C463.423 207.611 472.109 161.369 460.915 160.469C449.723 159.568 463.423 207.611 463.423 207.611Z" fill="#9FC1F4"/>
<path id="grass_2" d="M461.889 208.697C461.889 208.697 445.521 178.817 436.188 179.919C426.857 181.02 461.889 208.697 461.889 208.697Z" fill="#9FC1F4"/>
<path id="shadow_of_pot" d="M131.292 122.365C128.964 113.027 114.457 115.945 114.457 115.945C114.457 115.945 104.607 132.286 101.741 132.675C98.8753 133.064 107.65 116.918 107.65 116.918C102.099 116.333 87.9498 123.728 87.9498 123.728C87.9498 123.728 88.845 142.791 85.9792 142.402C83.1135 142.013 85.9792 125.479 85.9792 125.479C80.6052 127.23 75.5914 134.037 75.5914 134.037C69.3221 145.124 82.7559 153.296 82.7559 153.296C82.7559 153.296 82.936 159.91 79.1749 167.498C79.1749 167.498 74.4482 175.296 75.962 185.384H71.8017C72.5977 178.126 69.2621 172.618 69.2621 172.618C66.4094 166.863 66.5451 161.847 66.5451 161.847C66.5451 161.847 76.7346 155.648 71.9791 147.236C71.9791 147.236 68.1737 142.071 64.0995 140.742C64.0995 140.742 66.2737 153.286 64.0995 153.581C61.9254 153.876 62.604 139.414 62.604 139.414C62.604 139.414 51.8716 133.805 47.659 134.249C47.659 134.249 54.3172 146.497 52.143 146.202C49.9689 145.907 42.4964 133.51 42.4964 133.51C42.4964 133.51 31.4926 131.297 29.7257 138.38C27.9587 145.464 30.8114 149.006 32.4427 149.449C34.0739 149.893 44.5349 149.744 44.2634 151.219C43.992 152.694 36.9267 155.056 32.9856 153.727C32.9856 153.727 37.3338 165.386 43.0393 164.796C48.7448 164.206 50.5118 160.37 54.0431 160.075C57.5745 159.78 60.1558 160.813 58.3914 161.847C56.6244 162.88 50.6475 162.186 47.7948 164.82C44.942 167.453 42.6322 169.077 47.9305 170.259C53.2288 171.439 62.7397 170.703 64.6424 166.273C64.7259 166.08 64.8042 165.898 64.8799 165.72C64.7651 166.086 64.6424 166.273 64.6424 166.273C65.6211 166.892 67.0854 169.847 68.1033 172.112C68.2468 172.498 68.4765 173.031 68.8184 173.756C68.9567 174.085 69.0664 174.351 69.1421 174.539C70.3166 177.729 70.3609 182.372 70.233 185.387H55.1263V186.264H56.0059C56.3008 196.92 61.9671 206.107 70.1626 210.745H59.9783C58.2505 210.745 56.8489 212.267 56.8489 214.146H107.632C107.632 212.267 106.23 210.745 104.502 210.745H94.4461C102.642 206.107 108.308 196.918 108.603 186.264H109.214V185.387H81.1716C81.8084 183.868 82.5862 182.377 83.4945 181.278C83.6041 181.153 83.766 180.976 83.9617 180.759C84.4211 180.297 84.7421 179.95 84.9587 179.691C86.3707 178.219 88.323 176.34 89.2626 176.158C89.2626 176.158 89.2157 175.97 89.2235 175.646C89.2365 175.81 89.2496 175.98 89.2626 176.158C89.5837 180.26 96.9126 183.844 101.42 184.58C105.928 185.316 104.534 183.304 102.981 180.321C101.428 177.337 96.5106 176.001 95.3909 174.625C94.2686 173.25 96.5889 173.247 99.3034 174.594C102.02 175.941 102.391 179.535 106.747 181.8C111.106 184.068 117.66 176.215 117.66 176.215C114.188 176.022 109.229 171.927 109.407 170.674C109.587 169.421 117.824 172.838 119.233 172.999C120.643 173.164 123.845 171.261 124.341 165.099C124.837 158.937 115.538 157.219 115.538 157.219C115.538 157.219 113.395 158.95 110.973 160.693C110.495 160.02 109.717 159.276 108.812 158.443C109.613 157.676 110.331 157.013 110.777 156.606C111.67 156.87 112.648 157.076 113.737 157.188C121.259 157.966 126.99 142.598 126.99 142.598C121.796 144.349 112.484 141.236 112.126 139.291C111.769 137.347 125.557 137.54 127.708 136.958C129.856 136.373 133.617 131.706 131.289 122.368L131.292 122.365ZM93.0863 166.284C92.6583 166.044 92.687 165.24 92.9636 164.183C93.5561 164.329 94.1669 164.454 94.788 164.564C94.1616 165.785 93.5561 166.547 93.0889 166.286L93.0863 166.284ZM83.9121 179.718C83.9121 179.718 81.4457 181.701 79.7257 185.381H77.9456C77.7264 181.519 77.6403 174.623 79.3315 170.027C79.4333 169.781 79.5769 169.426 79.7596 168.996C80.2085 168.04 80.5113 167.338 80.7018 166.829C82.0433 163.841 83.9748 159.949 85.2641 159.132C85.2641 159.132 85.1023 158.884 84.9509 158.402C85.0501 158.637 85.1545 158.877 85.2641 159.132C85.5825 159.876 86.068 160.542 86.6813 161.132C84.2331 166.083 88.9416 172.052 88.9416 172.052C88.9416 172.052 87.7071 176.064 83.9121 179.72V179.718ZM103.693 155.225C99.8436 154.072 95.1978 154.288 93.5013 153.294C91.1732 151.931 94.5766 150.572 99.2329 150.96C102.365 151.221 104.445 153.594 107.76 155.358C106.468 155.236 105.045 155.207 103.693 155.225Z" fill="#C3DAFC"/>
<g id="Group_4">
<path id="Vector_34" d="M411.941 177.434C411.614 177.99 411.724 178.661 412.186 178.929C412.648 179.198 413.285 178.966 413.611 178.41C413.937 177.854 414.136 175.604 414.136 175.604C414.136 175.604 412.27 176.878 411.943 177.434H411.941Z" fill="#D2E4FF"/>
<path id="Vector_35" d="M395.98 167.297C395.654 167.852 395.764 168.523 396.226 168.792C396.688 169.064 397.324 168.831 397.651 168.273C397.977 167.717 398.175 165.467 398.175 165.467C398.175 165.467 396.309 166.741 395.983 167.297H395.98Z" fill="#D2E4FF"/>
<path id="Vector_36" d="M393.579 185.59C393.253 186.146 393.363 186.817 393.825 187.086C394.287 187.354 394.924 187.122 395.25 186.566C395.576 186.01 395.774 183.76 395.774 183.76C395.774 183.76 393.908 185.034 393.582 185.59H393.579Z" fill="#D2E4FF"/>
<path id="Vector_37" d="M438.43 152.527C438.057 153.166 438.182 153.933 438.709 154.241C439.239 154.552 439.97 154.286 440.343 153.646C440.716 153.009 440.943 150.425 440.943 150.425C440.943 150.425 438.803 151.887 438.427 152.524L438.43 152.527Z" fill="#D2E4FF"/>
<path id="Vector_38" d="M437.064 168.15C436.691 168.787 436.816 169.557 437.346 169.867C437.876 170.178 438.607 169.912 438.98 169.272C439.353 168.633 439.58 166.052 439.58 166.052C439.58 166.052 437.438 167.513 437.064 168.15Z" fill="#D2E4FF"/>
<path id="Vector_39" d="M416.722 154.847C416.349 155.484 416.474 156.254 417.002 156.562C417.531 156.872 418.262 156.606 418.635 155.966C419.009 155.327 419.236 152.746 419.236 152.746C419.236 152.746 417.095 154.207 416.72 154.844L416.722 154.847Z" fill="#D2E4FF"/>
<path id="Vector_40" d="M395.678 145.401C395.255 146.124 395.396 146.993 395.996 147.346C396.594 147.695 397.424 147.395 397.847 146.672C398.269 145.949 398.528 143.023 398.528 143.023C398.528 143.023 396.101 144.678 395.678 145.401Z" fill="#D2E4FF"/>
<path id="Vector_41" d="M363.499 142.948C363.076 143.671 363.217 144.54 363.817 144.892C364.415 145.242 365.245 144.942 365.668 144.219C366.091 143.496 366.349 140.57 366.349 140.57C366.349 140.57 363.922 142.225 363.499 142.948Z" fill="#D2E4FF"/>
<path id="Vector_42" d="M385.277 124.127C384.854 124.85 384.995 125.719 385.595 126.071C386.193 126.421 387.023 126.121 387.446 125.398C387.869 124.675 388.127 121.749 388.127 121.749C388.127 121.749 385.702 123.404 385.277 124.127Z" fill="#D2E4FF"/>
<path id="Vector_43" d="M367.43 119.972C367.098 120.538 367.21 121.222 367.68 121.499C368.15 121.773 368.8 121.538 369.131 120.969C369.463 120.402 369.667 118.106 369.667 118.106C369.667 118.106 367.764 119.405 367.43 119.972Z" fill="#D2E4FF"/>
<path id="Vector_44" d="M369.006 106.35C368.674 106.917 368.784 107.6 369.254 107.877C369.724 108.151 370.373 107.916 370.708 107.347C371.039 106.781 371.243 104.484 371.243 104.484C371.243 104.484 369.34 105.784 369.006 106.35Z" fill="#D2E4FF"/>
<path id="Vector_45" d="M353.753 125.85C353.422 126.416 353.531 127.1 354.004 127.376C354.476 127.653 355.123 127.416 355.458 126.847C355.789 126.28 355.993 123.983 355.993 123.983C355.993 123.983 354.09 125.283 353.756 125.85H353.753Z" fill="#D2E4FF"/>
<path id="Vector_46" d="M369.147 78.8746C369.637 78.0368 369.937 74.6437 369.937 74.6437C369.937 74.6437 367.124 76.5647 366.633 77.4025C366.143 78.2403 366.307 79.2504 367.001 79.6576C367.695 80.0647 368.656 79.715 369.149 78.8772L369.147 78.8746Z" fill="#D2E4FF"/>
<path id="Vector_47" d="M353.622 57.6317C353.132 58.4695 353.296 59.4796 353.99 59.8867C354.685 60.2939 355.645 59.9441 356.139 59.1063C356.629 58.2685 356.929 54.8755 356.929 54.8755C356.929 54.8755 354.116 56.7965 353.625 57.6343L353.622 57.6317Z" fill="#D2E4FF"/>
<path id="Vector_48" d="M348.209 98.0451C347.719 98.8829 347.883 99.893 348.577 100.3C349.272 100.707 350.232 100.358 350.725 99.5198C351.216 98.682 351.514 95.2889 351.514 95.2889C351.514 95.2889 348.7 97.2099 348.209 98.0477V98.0451Z" fill="#D2E4FF"/>
</g>
<g id="big_pant_pot">
<g id="Group_5">
<g id="Group_6">
<path id="Vector_49" d="M127.032 167.424C127.032 167.424 119.309 158.415 126.557 152.691C126.557 152.691 131.85 149.486 136.167 149.747C136.167 149.747 130.052 160.002 132.03 161.022C134.008 162.043 138.02 149.102 138.02 149.102C138.02 149.102 150.065 147.935 153.941 149.796C153.941 149.796 143.644 158.224 145.813 158.725C147.982 159.226 159.104 150.955 159.104 150.955C159.104 150.955 170.314 152.863 169.716 159.701C169.118 166.54 165.255 168.651 163.556 168.471C161.857 168.288 151.926 164.499 151.709 165.89C151.493 167.281 157.472 171.828 161.659 172.039C161.659 172.039 153.756 180.756 148.502 178.24C143.248 175.724 142.801 171.736 139.526 170.241C136.25 168.745 133.455 168.748 134.807 170.275C136.159 171.799 142.084 173.281 143.958 176.593C145.832 179.906 147.51 182.14 142.076 181.323C136.642 180.506 127.807 176.528 127.418 171.974L127.029 167.419L127.032 167.424Z" fill="#6A9AD3"/>
<g id="Group_7">
<path id="Vector_50" d="M164.203 159.889C164.203 159.889 133.755 158.715 127.029 167.424C127.029 167.424 125.541 171.88 120.966 175.933L120.253 177.878C120.253 177.878 125.531 172.313 127.418 171.979C127.418 171.979 124.466 161.189 164.203 159.889Z" fill="#5588BC"/>
<path id="Vector_51" d="M120.966 175.933C120.966 175.933 114.431 180.767 113.977 189.403L115.162 189.51C115.162 189.51 117.25 180.582 121.021 177.089C124.795 173.597 120.964 175.936 120.964 175.936L120.966 175.933Z" fill="#5588BC"/>
</g>
</g>
<g id="Group_8">
<path id="Vector_52" d="M100.029 156.094C100.029 156.094 112.314 149.214 106.58 139.878C106.58 139.878 101.994 134.144 97.0794 132.672C97.0794 132.672 99.6999 146.594 97.0794 146.923C94.459 147.252 95.2785 131.197 95.2785 131.197C95.2785 131.197 82.3381 124.973 77.2616 125.463C77.2616 125.463 85.2874 139.059 82.6669 138.73C80.0465 138.401 71.0367 124.644 71.0367 124.644C71.0367 124.644 57.77 122.188 55.6403 130.049C53.5105 137.91 56.9505 141.844 58.9158 142.334C60.8812 142.825 73.4927 142.663 73.1665 144.3C72.8402 145.939 64.3212 148.559 59.5709 147.085C59.5709 147.085 64.8118 160.025 71.6918 159.37C78.5718 158.715 80.7016 154.455 84.9585 154.129C89.2181 153.803 92.3292 154.949 90.1994 156.094C88.0697 157.24 80.8634 156.47 77.4234 159.393C73.9834 162.317 71.1985 164.12 77.5879 165.43C83.9746 166.741 95.4429 165.921 97.7345 161.009L100.029 156.094Z" fill="#77A4E5"/>
<g id="Group_9">
<path id="Vector_53" d="M61.7009 132.505C61.7009 132.505 96.0982 143.642 100.029 156.092C100.029 156.092 99.8644 161.662 103.304 168.048V170.504C103.304 170.504 99.7 162.15 97.7347 161.004C97.7347 161.004 105.434 150.193 61.6982 132.502L61.7009 132.505Z" fill="#6A9AD3"/>
<path id="Vector_54" d="M103.304 168.051C103.304 168.051 108.608 176.105 105.586 185.911L104.22 185.543C104.22 185.543 105.546 174.743 102.769 169.311C99.9949 163.88 103.304 168.048 103.304 168.048V168.051Z" fill="#6A9AD3"/>
</g>
</g>
<g id="Group_10">
<path id="Vector_55" d="M119.573 146.604C119.573 146.604 103.38 137.535 110.936 125.228C110.936 125.228 116.981 117.672 123.459 115.728C123.459 115.728 120.003 134.082 123.459 134.512C126.915 134.943 125.834 113.783 125.834 113.783C125.834 113.783 142.891 105.578 149.585 106.225C149.585 106.225 139.004 124.145 142.46 123.715C145.916 123.284 157.789 105.147 157.789 105.147C157.789 105.147 175.278 101.908 178.084 112.272C180.89 122.637 176.356 127.818 173.767 128.465C171.175 129.112 154.549 128.898 154.983 131.057C155.413 133.215 166.642 136.671 172.903 134.726C172.903 134.726 165.994 151.783 156.925 150.921C147.855 150.057 145.049 144.443 139.435 144.013C133.821 143.582 129.718 145.093 132.526 146.604C135.332 148.116 144.832 147.1 149.369 150.955C153.902 154.81 157.574 157.185 149.152 158.913C140.732 160.641 125.617 159.56 122.595 153.082L119.573 146.604Z" fill="#9FC1F4"/>
<g id="Group_11">
<path id="Vector_56" d="M170.097 115.514C170.097 115.514 124.756 130.195 119.572 146.607C119.572 146.607 119.789 153.949 115.255 162.369V165.608C115.255 165.608 120.006 154.596 122.597 153.085C122.597 153.085 112.45 138.834 170.1 115.516L170.097 115.514Z" fill="#9FC1F4"/>
<path id="Vector_57" d="M115.256 162.366C115.256 162.366 108.263 172.984 112.249 185.911L114.047 185.428C114.047 185.428 112.301 171.191 115.96 164.031C119.62 156.872 115.256 162.369 115.256 162.369V162.366Z" fill="#9FC1F4"/>
</g>
</g>
<path id="Vector_58" d="M119.027 213.94C136.545 213.94 150.749 199.739 150.749 182.221H87.3076C87.3076 199.739 101.509 213.94 119.027 213.94Z" fill="#77A4E5"/>
<path id="Vector_59" d="M126.833 213.697C125.544 213.859 124.229 213.94 122.892 213.94C105.374 213.94 91.1729 199.736 91.1729 182.218H99.0525C99.0525 198.403 111.173 211.755 126.833 213.697Z" fill="#AFCDFB"/>
<path id="Vector_60" d="M151.47 182.221H86.2637V183.194H151.47V182.221Z" fill="#77A4E5"/>
</g>
<path id="Vector_61" d="M149.564 214.141H88.3413C88.3413 212.056 90.03 210.367 92.1154 210.367H145.79C147.876 210.367 149.564 212.056 149.564 214.141Z" fill="#77A4E5"/>
</g>
<path id="behind_the_scene_5" d="M373.811 32.1371C369.797 33.4864 366.445 35.1516 364.475 37.1927C355.671 46.312 338.832 45.1375 338.832 45.1375V6.00824C354.395 11.792 366.769 21.2481 373.811 32.1397V32.1371Z" fill="#9FC1F4"/>
<path id="behind_the_scene_6" d="M338.832 202.56V6.00824C336.318 5.07385 333.722 4.23604 331.051 3.50263C328.864 2.89971 326.628 2.37249 324.344 1.91835V214.141H473.561C474.999 211.327 476.199 208.383 477.173 205.343C477.468 204.424 477.742 203.495 477.993 202.56H338.832Z" fill="#BDD8FF"/>
<g id="cat">
<path id="Vector_62" d="M326.943 160.132C326.943 160.132 312.865 158.138 312.048 155.865C312.048 155.865 313.027 153.811 311.481 153.273C311.066 153.129 310.37 152.863 310.062 153.257L310.08 157.446C310.08 157.446 311.596 158.924 312.45 160.119C312.919 160.777 322.015 164.585 322.015 164.585L326.946 160.129L326.943 160.132Z" fill="#163560"/>
<path id="Vector_63" d="M355.951 190.868C357.284 188.939 355.899 175.315 346.288 179.451C344.247 180.067 341.791 181.545 338.85 184.238C338.85 184.238 334.627 194.185 351.276 200.765C351.276 200.765 352.926 201.477 353.161 202.994C353.396 204.51 353.659 211.356 353.093 211.562C352.529 211.769 351.691 210.986 351.083 211.847C350.475 212.711 350.689 214.136 350.689 214.136H356.739C356.739 214.136 359.631 198.771 359.469 197.549C359.307 196.328 354.369 193.149 355.953 190.862L355.951 190.868Z" fill="#163560"/>
<path id="Vector_64" d="M332.216 135.183C332.216 135.183 335.418 141.899 333.648 143.911L328.674 139.915C328.674 139.915 328.65 137.937 332.216 135.183Z" fill="#233862"/>
<path id="Vector_65" d="M366.519 171.339C365.214 168.972 363.256 165.013 365.838 163.397C368.04 162.019 367.195 159.148 365.924 158.462C363.243 157.016 360.518 158.845 359.242 160.633C356.812 164.034 360.038 169.351 360.038 169.351C363.089 175.917 356.81 179.337 353.782 180.555C352.054 177.985 350.271 176.053 348.682 174.547C347.638 173.558 346.683 172.751 345.879 172.068C337.355 164.783 339.419 162.118 337.396 158.843C337 158.193 335.431 156.431 335.013 155.865C334.601 155.304 334.452 153.312 334.403 151.558C335.36 150.744 335.468 149.828 335.468 149.828C335.559 150.198 335.46 150.579 335.46 150.579C336.451 149.773 336.227 147.917 336.227 147.917C336.446 148.186 336.532 148.76 336.532 148.76C337.031 145.871 335.253 143.517 335.24 143.498C335.554 140.784 333.304 136.065 333.304 136.065C333.304 136.065 333.466 139.565 333.805 141.348C333.246 140.766 332.581 140.27 331.819 139.891C330.041 139.009 327.611 138.177 325.04 140.701C324.456 141.272 322.728 141.737 321.911 141.632C321.462 141.575 320.439 143.827 320.397 144.133C319.951 147.539 321.032 149.222 322.979 150.966C323.25 151.733 323.461 152.764 322.981 153.458C322.981 153.458 323.391 153.291 323.443 153.158C323.409 153.341 323.187 154.411 322.6 154.891C322.6 154.891 322.864 154.86 322.997 154.797C322.485 155.444 320.546 158.128 320.572 161.432C316.49 161.466 312.606 161.215 312.231 160.169C312.231 160.169 313.11 158.446 311.664 157.579C311.288 157.355 310.649 157.196 310.077 157.211L310.007 161.917C310.007 161.917 311.782 163.233 312.632 164.426C312.925 164.835 318.638 167.414 322.911 169.304C325.398 180.088 333.39 186.324 336.034 188.13C336.415 191.424 338.372 195.709 343.981 200.702C343.981 200.702 345.286 201.939 344.984 203.443C344.683 204.946 342.577 211.466 341.974 211.466C341.371 211.466 339.367 210.597 338.498 211.2C337.629 211.802 338.832 214.141 338.832 214.141H344.952C344.952 214.141 352.508 201.704 352.774 200.501C353.041 199.298 349.499 194.618 351.772 193.013C352.746 192.324 354.1 188.552 353.818 185.086C356.804 184.045 370.609 178.755 366.519 171.339Z" fill="#2B478B"/>
<path id="Vector_66" d="M329.765 140.795L334.742 144.79C335.026 144.464 335.18 144.018 335.243 143.496C335.556 140.784 333.306 136.063 333.306 136.063C329.741 138.816 329.765 140.797 329.765 140.797V140.795Z" fill="#2B478B"/>
<path id="Vector_67" d="M321.768 141.645C321.768 141.645 322.044 141.452 322.339 141.601C322.339 141.601 322.264 142.734 321.154 142.804C321.154 142.804 321.473 141.823 321.768 141.645Z" fill="#163560"/>
<path id="Vector_68" d="M323.803 144.188C323.845 144.201 327.995 145.748 330.97 149.162C327.945 145.686 323.892 144.065 323.848 144.052L323.803 144.188Z" fill="#163560"/>
<path id="Vector_69" d="M323.417 144.48C323.461 144.509 327.812 147.468 330.276 152.247C327.77 147.382 323.553 144.365 323.508 144.336L323.42 144.48H323.417Z" fill="#163560"/>
<path id="Vector_70" d="M322.968 144.835C323 144.866 326.059 148.069 327.243 152.44C326.038 147.993 323.099 144.764 323.067 144.733L322.968 144.835Z" fill="#163560"/>
</g>
</g>
</g>
</g>
<defs>
<clipPath id="clip0_491_1901">
<rect width="500" height="215.467" fill="white"/>
</clipPath>
</defs>
</svg>
