<svg width="1440" height="680" viewBox="0 0 1440 680" fill="none" xmlns="http://www.w3.org/2000/svg">
<g id="object">
<mask id="mask0_495_2338" style="mask-type:luminance" maskUnits="userSpaceOnUse" x="0" y="0" width="1440" height="680">
<g id="clip0_88_2608">
<path id="Vector" d="M1440 0H0V680H1440V0Z" fill="white"/>
</g>
</mask>
<g mask="url(#mask0_495_2338)">
<path id="full" d="M0 680H1440V0H0V680Z" fill="#3D424A"/>
<path id="left_side" d="M911.268 680H0V0H541.962C597.377 56.6613 628.77 140.543 608.122 219.321C575.808 342.598 650.175 410.882 732.744 439.767C815.312 468.652 952.26 555.14 921.608 654.615C918.86 663.53 915.384 672.023 911.268 679.996V680Z" fill="#3D424A"/>
<path id="middle_vector" d="M755.51 439.767C659.209 410.882 572.479 342.598 610.163 219.321C634.244 140.539 597.635 56.6613 533 0H593.007C631.794 55.8006 648.649 122.855 629.086 186.856C587.634 322.462 683.037 397.575 788.967 429.346C894.896 461.117 1070.59 556.256 1031.27 665.681C1029.51 670.577 1027.52 675.356 1025.31 680.004H963.725C968.525 672.027 972.58 663.538 975.785 654.623C1011.53 555.148 851.806 468.66 755.51 439.775V439.767Z" fill="#FEAE49"/>
</g>
</g>
</svg>
