<svg width="550" height="310" viewBox="0 0 550 310" fill="none" xmlns="http://www.w3.org/2000/svg">
<g id="reading_letter" clip-path="url(#clip0_490_1784)">
<g id="Clip path group">
<mask id="mask0_490_1784" style="mask-type:luminance" maskUnits="userSpaceOnUse" x="0" y="0" width="550" height="310">
<g id="clip0_75_770">
<path id="Vector" d="M550 0H0V310H550V0Z" fill="white"/>
</g>
</mask>
<g mask="url(#mask0_490_1784)">
<g id="Group">
<g id="leaf-4">
<path id="Vector_2" d="M384.206 141.857C384.206 141.857 375.429 128.664 384.75 121.337C384.75 121.337 391.484 117.341 396.754 118.078C396.754 118.078 388.474 131.803 390.821 133.391C393.167 134.979 399.077 117.344 399.077 117.344C399.077 117.344 413.931 116.765 418.54 119.691C418.54 119.691 405.274 130.509 407.893 131.394C410.512 132.28 424.78 121.748 424.78 121.748C424.78 121.748 438.377 125.372 437.12 134.828C435.865 144.281 430.967 146.881 428.9 146.482C426.833 146.082 414.948 139.949 414.576 141.865C414.204 143.779 421.183 150.618 426.3 151.277C426.3 151.277 415.945 162.708 409.697 158.756C403.45 154.804 403.206 149.223 399.308 146.859C395.41 144.496 391.983 144.259 393.522 146.495C395.064 148.732 402.214 151.307 404.255 156.076C406.297 160.844 408.185 164.092 401.587 162.484C394.986 160.877 384.464 154.581 384.337 148.219L384.211 141.854L384.206 141.857Z" fill="#82B378"/>
<path id="Vector_3" d="M430.349 134.61C430.349 134.61 393.114 130.335 384.206 141.857C384.206 141.857 382.041 147.918 376.122 153.158L375.098 155.797C375.098 155.797 381.993 148.522 384.332 148.219C384.332 148.219 381.538 132.966 430.349 134.607V134.61Z" fill="#82B378"/>
<path id="Vector_4" d="M376.122 153.161C376.122 153.161 367.742 159.313 366.523 171.279L367.97 171.529C367.97 171.529 371.212 159.299 376.105 154.771C380.998 150.243 376.124 153.161 376.124 153.161H376.122Z" fill="#82B378"/>
</g>
<g id="leaf-3">
<path id="Vector_5" d="M341.144 110.318C341.144 110.318 321.683 97.9605 330.764 81.1911C330.764 81.1911 338.028 70.894 345.813 68.2467C345.813 68.2467 341.662 93.2559 345.813 93.8433C349.964 94.4307 348.668 65.5993 348.668 65.5993C348.668 65.5993 369.167 54.4197 377.209 55.3022C377.209 55.3022 364.495 79.7213 368.646 79.1339C372.798 78.5465 387.068 53.8324 387.068 53.8324C387.068 53.8324 408.085 49.4201 411.458 63.5421C414.831 77.6641 409.381 84.7265 406.268 85.6089C403.155 86.4914 383.175 86.1963 383.695 89.1387C384.213 92.0811 397.705 96.7885 405.23 94.1411C405.23 94.1411 396.927 117.385 386.03 116.208C375.132 115.03 371.759 107.381 365.013 106.793C358.267 106.206 353.337 108.263 356.71 110.323C360.083 112.383 371.499 110.999 376.949 116.252C382.399 121.505 386.808 124.74 376.689 127.095C366.569 129.45 348.408 127.978 344.774 119.15L341.141 110.323L341.144 110.318Z" fill="#A8D29F"/>
<path id="Vector_6" d="M401.859 67.9489C401.859 67.9489 347.372 87.9557 341.143 110.318C341.143 110.318 341.404 120.322 335.954 131.794V136.207C335.954 136.207 341.661 121.202 344.777 119.142C344.777 119.142 332.581 99.7227 401.859 67.9489Z" fill="#82B378"/>
<path id="Vector_7" d="M335.956 131.794C335.956 131.794 327.554 146.264 332.345 163.877L334.507 163.218C334.507 163.218 332.408 143.818 336.805 134.061C341.202 124.304 335.959 131.794 335.959 131.794H335.956Z" fill="#82B378"/>
</g>
<g id="leaf-2">
<path id="Vector_8" d="M238.524 116.649C238.524 116.649 261.17 105.781 253.011 86.1549C253.011 86.1549 246.15 73.8723 237.903 69.9013C237.903 69.9013 239.781 97.8778 235.167 97.9522C230.554 98.0267 235.058 66.6086 235.058 66.6086C235.058 66.6086 213.791 51.5407 204.88 51.4028C204.88 51.4028 216.203 79.9116 211.716 78.6954C207.229 77.4793 194.233 48.4356 194.233 48.4356C194.233 48.4356 171.675 40.7114 166.468 55.7241C161.261 70.7368 166.478 79.2249 169.797 80.6203C173.114 82.0157 195.041 84.4397 194.158 87.5917C193.275 90.7437 177.986 94.0501 170.023 90.1122C170.023 90.1122 176.638 116.724 188.705 116.933C200.773 117.14 205.286 109.223 212.743 109.504C220.199 109.785 225.381 112.72 221.464 114.515C217.548 116.307 205.184 113.221 198.652 118.229C192.12 123.237 186.94 126.177 197.777 130.148C208.613 134.119 228.674 135.001 233.599 125.829L238.524 116.655V116.649Z" fill="#A8D29F"/>
<path id="Vector_9" d="M176.517 61.8765C176.517 61.8765 234.09 91.2897 238.523 116.649C238.523 116.649 237.171 127.575 241.916 140.9L241.444 145.737C241.444 145.737 236.792 128.51 233.601 125.824C233.601 125.824 249.042 106.22 176.519 61.8765H176.517Z" fill="#82B378"/>
<path id="Vector_10" d="M241.916 140.9C241.916 140.9 249.579 157.912 242.446 176.554L240.148 175.536C240.148 175.536 244.521 154.564 240.746 143.269C236.972 131.974 241.916 140.9 241.916 140.9Z" fill="#82B378"/>
</g>
<path id="leaf-1" d="M192.074 179.717C188.071 173.17 187.626 167.076 187.626 167.076C187.626 167.076 198.698 158.061 192.171 148.58C192.171 148.58 187.137 142.888 182.249 141.885C182.249 141.885 186.281 156.751 183.793 157.432C181.308 158.111 180.354 140.497 180.354 140.497C180.354 140.497 167.229 135.296 162.397 136.457C162.397 136.457 171.592 150.304 169.036 150.268C166.48 150.232 156.319 136.331 156.319 136.331C156.319 136.331 143.289 135.28 142.093 144.121C140.896 152.959 144.632 156.826 146.577 157.121C148.523 157.416 160.639 155.687 160.5 157.512C160.361 159.341 152.453 163.245 147.723 162.222C147.723 162.222 154.167 175.696 160.716 174.135C167.263 172.575 168.851 167.666 172.913 166.786C176.974 165.904 180.094 166.772 178.168 168.286C176.244 169.798 169.226 169.844 166.234 173.457C163.243 177.07 160.758 179.378 167.047 180.023C173.336 180.668 184.277 178.366 185.95 172.721C186.023 172.475 186.094 172.241 186.159 172.015C186.069 172.475 185.95 172.721 185.95 172.721C187.159 173.325 189.214 176.686 190.666 179.278C190.88 179.725 191.21 180.337 191.692 181.162C191.891 181.54 192.052 181.846 192.164 182.061C194.941 187.932 194.849 198.692 194.849 198.692L196.201 198.924C198.047 187.855 192.071 179.717 192.071 179.717H192.074Z" fill="#82B378"/>
<g id="person_standing">
<path id="Vector_11" d="M118.063 29.0217C117.953 28.3433 116.548 21.0741 106.63 22.315C106.63 22.315 111.567 22.1716 112.715 24.4522C112.715 24.4522 109.028 22.0062 106.46 23.4098C103.892 24.8135 102.997 30.4198 103.206 32.1819C103.415 33.9441 105.636 39.3656 107.406 39.567C108.077 39.6442 108.814 39.4704 109.476 39.2305C109.125 40.1102 108.792 41.0699 108.493 42.1316C105.728 51.9461 110.937 60.2356 114.143 58.6969C116.2 57.7096 117.333 61.7468 117.333 61.7468L135.665 39.2609C135.665 39.2609 125.745 22.6156 118.063 29.0244V29.0217Z" fill="#2C3A64"/>
<path id="Vector_12" d="M141.944 299.857L137.487 301.741C137.487 301.741 118.121 271.285 115.738 244.492C115.312 239.707 115.453 235.074 116.375 230.794C116.375 230.794 116.185 229.567 115.855 227.402C115.701 226.39 115.512 225.174 115.298 223.779C114.668 219.689 113.802 214.091 112.812 207.718C110.534 193.053 107.581 174.306 105.288 160.526L106.489 160.088L119.488 155.334L122.173 145.66L131.852 142.77C131.852 142.77 134.014 147.565 135.947 170.22C136.305 173.192 136.628 176.468 136.871 180.023C137.625 190.869 137.679 204.324 135.95 219.709C135.505 223.647 134.945 227.711 134.25 231.889C133.739 234.953 133.664 239.125 133.878 243.915C134.853 265.819 141.944 299.86 141.944 299.86V299.857Z" fill="#2B478B"/>
<path id="Vector_13" d="M136.869 180.02L115.852 227.4C115.699 226.388 115.509 225.172 115.295 223.776C114.665 219.687 113.8 214.088 112.81 207.716C110.531 193.05 107.579 174.304 105.286 160.524L106.487 160.085L119.486 155.331L122.17 145.657L131.849 142.767C131.849 142.767 134.011 147.563 135.945 170.217C136.302 173.19 136.626 176.466 136.869 180.02Z" fill="#233862"/>
<path id="Vector_14" d="M127.625 148.845L127.139 144.113C118.987 146.567 97.2092 137.252 97.2092 137.252C97.2092 137.252 89.3127 145.122 90.3487 163.99C90.8546 173.198 91.7787 212.329 92.7442 223.908C93.0944 228.106 93.3984 231.092 93.5248 232.286C93.5272 232.292 93.5272 232.295 93.5272 232.297C93.5661 232.661 93.4543 233.006 93.2913 233.323C91.8711 236.059 90.694 238.907 89.7286 241.82C80.2538 270.452 91.1877 305.712 91.1877 305.712L94.0258 304.416C94.0258 304.416 100.249 265.174 105.305 247.839C106.163 244.9 106.985 242.589 107.739 241.207C109.938 237.184 111.978 230.61 113.829 222.792C117.328 208.011 120.147 188.779 122.02 173.937C122.277 173.951 127.625 148.845 127.625 148.845Z" fill="#2B478B"/>
<path id="Vector_15" d="M140.767 110.924C140.925 111.112 141.081 111.297 141.271 111.468C148.238 118.828 157.621 125.339 162.64 126.773C165.943 127.729 173.221 126.447 179.267 125.038C183.294 124.139 186.804 123.141 188.248 122.752C188.71 122.631 188.968 122.537 188.968 122.537L188.336 117.912C188.336 117.912 184.712 117.587 180.211 117.01C173.939 116.175 165.991 114.893 163.956 113.527C159.233 110.345 150.945 96.998 144.296 88.6065C143.948 88.1487 143.603 87.7102 143.26 87.2773C143.009 86.9629 142.759 86.6541 142.511 86.3507C142.46 86.29 142.397 86.1908 142.314 86.1411C142.008 85.8074 141.747 85.4986 141.497 85.2256C141.487 85.1925 141.443 85.1677 141.402 85.1401C140.22 83.7944 138.148 82.1618 138.148 82.1618C136.986 81.4117 136.03 81.2656 135.356 81.9054C135.356 81.9054 134.488 82.8678 133.634 84.6878C133.452 85.0684 133.274 85.4876 133.104 85.9426C132.963 86.1935 132.893 86.4555 132.825 86.723C132.26 88.4024 131.849 90.512 131.922 92.9691C131.973 94.8305 132.287 96.885 133.017 99.1518C134.179 102.869 137.112 107.003 140.767 110.924Z" fill="#FFB27D"/>
<path id="Vector_16" d="M134.7 91.4276C132.338 93.1759 129.396 94.5851 125.726 95.4234C111.968 98.5672 107.056 85.3 105.312 76.2439C107.207 75.0939 108.967 74.8844 109.984 74.7796C110.976 74.6803 112.017 74.6251 112.878 74.6031C114.447 73.318 116.869 67.935 117.586 59.48L118.223 59.6951L128.914 63.3821C128.914 63.3821 128.323 67.2484 127.99 70.9106C127.732 73.7758 127.635 76.5196 128.097 77.2063C128.934 77.4407 129.435 77.5924 129.435 77.5924C129.435 77.5924 129.435 77.5951 129.439 77.6034C129.578 77.8764 132.557 83.8054 134.702 91.4221L134.7 91.4276Z" fill="#FFB27D"/>
<path id="Vector_17" d="M139.491 101.173C139.427 101.507 139.349 101.829 139.264 102.166C136.849 111.321 134.897 147.924 134.897 147.924C136.176 152.499 112.72 153.436 99.7843 151.321C95.081 150.555 91.7687 149.385 91.5401 147.838C89.2249 141.923 94.8889 130.873 98.1598 125.256C98.5708 124.553 98.9234 123.811 99.2153 123.041C99.9546 121.108 100.312 119.004 100.237 116.884C100.137 113.983 99.9205 111.164 99.653 108.522C99.152 103.545 98.4833 99.1987 98.1331 96.1211C98.814 95.3517 99.4755 94.6403 100.093 93.9619C101.034 92.9167 101.859 91.9515 102.438 91.0139C103.075 89.9908 103.43 88.9953 103.35 87.9474C103.289 87.156 103.165 86.3535 102.99 85.562C102.909 85.187 102.817 84.8147 102.717 84.4424C101.667 80.5403 99.7333 77.165 99.7333 77.165C103.235 74.843 109.984 74.7713 109.984 74.7713C109.984 74.7713 110.03 75.1905 110.115 75.8716C110.444 78.6155 111.368 85.6503 112.311 86.8526C113.493 88.3528 132.146 92.7016 132.795 90.2969C133.435 87.9336 129.583 77.9785 129.437 77.6007C129.432 77.5924 129.432 77.5896 129.432 77.5896C135.407 79.2001 138.002 81.0202 138.119 81.1277C138.119 81.1277 138.114 81.1277 138.112 81.1277C134.87 84.3487 141.19 92.3955 139.488 101.17L139.491 101.173Z" fill="#FF9843"/>
<path id="Vector_18" d="M128.912 63.3876C128.912 63.3876 128.321 67.2511 127.99 70.9161C121.903 70.0281 119.235 63.349 118.223 59.6979L128.914 63.3849L128.912 63.3876Z" fill="#ED985F"/>
<path id="Vector_19" d="M130.643 67.0912C130.643 67.0912 116.178 65.7207 117.071 55.5201C117.961 45.3195 116.694 38.2736 125.967 38.7149C135.239 39.1588 136.691 43.2512 137.124 46.7369C137.557 50.2226 134.43 67.1822 130.643 67.0885V67.0912Z" fill="#FFB27D"/>
<path id="Vector_20" d="M137.195 41.0202C135.235 37.7 133.486 38.1798 132.46 38.9961C125.001 33.1802 119.274 39.8758 119.274 39.8758C117.662 47.0843 112.637 50.7493 112.637 50.7493C112.637 50.7493 115.106 52.892 121.331 51.811C123.233 51.4801 125.018 50.1757 126.587 48.5238C123.72 52.9113 120.079 55.8951 120.079 55.8951C127.662 52.9196 131.582 41.82 131.978 40.6424C132.781 41.6407 134.347 43.7862 134.707 45.7579C135.198 48.4384 135.05 53.8213 136.438 53.7937C136.438 53.7937 140.135 45.9978 137.195 41.0175V41.0202Z" fill="#2C3A64"/>
<path id="Vector_21" d="M201.728 117.303C200.281 118.866 198.82 122.774 194.365 122.7C191.186 122.669 187.969 123.075 186.41 123.292C185.804 123.414 185.452 123.461 185.452 123.461L185.293 117.738C185.293 117.738 185.357 117.747 185.503 117.719C186.58 117.534 192.044 116.583 194.209 114.956C196.638 113.111 202.317 114.821 202.317 114.821C202.317 114.821 203.188 115.772 201.731 117.306L201.728 117.303Z" fill="#FFB27D"/>
<path id="Vector_22" d="M107.683 308.345H85.2294C85.2294 308.345 84.692 304.465 85.8641 301.52C86.9877 298.696 88.7484 297.411 88.3277 293.995C89.7552 295.66 92.0802 297.527 95.3268 297.031C95.7256 297.761 97.8949 301.675 99.2227 302.758C100.689 303.955 107.233 303.528 107.686 308.348L107.683 308.345Z" fill="#233862"/>
<path id="Vector_23" d="M155.896 308.345H133.442C133.442 308.345 132.603 304.283 134.077 301.52C135.383 299.074 134.882 297.682 133.917 295.66C134.933 296.132 136.249 296.562 137.698 296.468C138.817 296.396 139.999 295.82 141.037 295.136C142.003 296.385 146.142 301.705 147.436 302.758C148.902 303.955 155.446 303.528 155.899 308.348L155.896 308.345Z" fill="#233862"/>
<path id="Vector_24" d="M127.195 61.1925C127.195 61.1925 127.397 62.5438 130.327 62.5466C130.327 62.5466 132.788 62.5493 132.793 61.0822C132.793 61.0822 130.473 59.8716 127.192 61.1925H127.195Z" fill="white"/>
<path id="Vector_25" d="M102.849 126.025C101.961 132.406 97.8923 145.205 99.7843 151.321C95.081 150.555 91.7687 149.385 91.5401 147.838C89.2249 141.923 94.8889 130.873 98.1598 125.256C98.5708 124.553 98.9234 123.811 99.2153 123.041C99.9546 121.108 100.312 119.004 100.237 116.884C100.137 113.983 99.9205 111.164 99.653 108.522C99.653 108.522 103.795 119.244 102.849 126.022V126.025Z" fill="#ED7D2B"/>
<path id="Vector_26" d="M134.634 82.9836C134.79 88.6534 138.406 104.22 139.264 102.166C140.245 99.8219 144.041 90.9146 145.826 90.5865C145.731 90.1756 138.433 81.0229 138.114 81.1305C138.114 81.1305 136.132 81.8171 134.634 82.9836Z" fill="#FF9843"/>
<path id="Vector_27" d="M100.203 163.419L96.477 166.232C96.477 166.232 95.5334 164.897 94.0427 162.76C93.5976 162.118 93.3569 161.731 93.3569 161.731C92.1749 160.005 90.8033 157.89 89.3028 155.596L89.2785 155.568C86.7615 151.561 83.9988 147.006 81.8854 142.886C80.4166 139.965 79.2711 137.26 78.7118 135.134C78.651 134.921 78.6169 134.734 78.578 134.494C77.4837 129.103 79.49 118.397 82.6831 107.951C83.1209 106.506 83.5854 105.086 84.028 103.696C85.7255 98.5727 87.6345 93.7605 89.5509 89.8695C90.6744 87.531 91.7956 85.4903 92.8753 83.9681C93.2499 83.422 93.6001 82.9091 93.9819 82.4707C94.1886 82.2059 94.3929 81.9522 94.5971 81.7068C96.8345 81.9219 101.528 82.9257 105.013 87.4896C104.955 87.7295 104.891 87.9694 104.828 88.2121C103.42 93.3662 101.244 99.6895 98.9892 105.886C97.7611 109.292 96.5062 112.67 95.4094 115.847C94.7114 117.747 94.0816 119.558 93.5125 121.23C92.44 124.431 91.6448 127.095 91.3286 128.965C91.1146 130.175 91.4186 132.456 91.9974 135.258C92.9872 140.142 94.8695 146.721 96.6181 152.306C97.3331 154.639 98.0383 156.806 98.6268 158.604C99.568 161.514 100.208 163.416 100.208 163.416L100.203 163.419Z" fill="#FFB27D"/>
<path id="Vector_28" d="M101.832 103.619C98.1113 97.249 87.4473 94.5106 87.4473 94.5106C93.4639 72.8575 109.264 74.865 109.264 74.865C109.264 74.865 103.517 97.3896 101.832 103.619Z" fill="#FF9843"/>
<path id="Vector_29" d="M96.4771 166.229C96.4771 166.229 97.4547 167.867 97.5641 169.045C97.6736 170.222 98.6026 174.13 99.8064 175.371C101.01 176.612 103.744 179.091 104.128 178.721C104.51 178.349 105.619 175.423 104.592 173.358C104.128 172.426 103.5 169.822 102.671 169.194C101.664 168.427 100.203 163.419 100.203 163.419L96.4771 166.232V166.229Z" fill="#FFB27D"/>
<path id="Vector_30" d="M100.217 164.053C100.217 164.053 103.179 165.758 103.581 167.123C103.982 168.488 105.638 171.237 105.468 171.557C105.285 171.899 102.71 170.038 101.835 168.342C100.959 166.646 100.217 164.053 100.217 164.053Z" fill="#FFB27D"/>
<path id="Vector_31" d="M186.351 117.565C186.351 117.565 189.559 116.189 189.921 115.237C190.286 114.286 191.344 113.872 192.618 113.21C193.895 112.549 194.661 111.349 194.844 111.514C195.026 111.68 195.062 112.507 194.552 113.128C194.041 113.748 191.879 118.089 191.064 118.585C190.25 119.081 186.351 117.565 186.351 117.565Z" fill="#FFB27D"/>
</g>
<path id="big_envelope--component-3" d="M170.717 148.186L279.205 74.5369C285.188 70.4748 292.656 70.4748 298.639 74.5369L407.127 148.186V268.221L170.719 254.781V148.186H170.717Z" fill="#ED7D2B"/>
<g id="letter">
<path id="Vector_32" d="M386.774 95.0015H191.064V286.786H386.774V95.0015Z" fill="#FCECDB"/>
<path id="Vector_33" d="M197.037 103.371C197.037 102.111 197.937 101.09 199.048 101.09C200.16 101.09 201.06 102.111 201.06 103.371C201.06 104.631 200.16 105.652 199.048 105.652C197.937 105.652 197.037 104.631 197.037 103.371Z" fill="#EFCBAB"/>
<path id="Vector_34" d="M376.655 103.371C376.655 102.111 377.557 101.09 378.666 101.09C379.775 101.09 380.677 102.111 380.677 103.371C380.677 104.631 379.777 105.652 378.666 105.652C377.554 105.652 376.655 104.631 376.655 103.371Z" fill="#EFCBAB"/>
<path id="Vector_35" d="M378.668 103.123H199.051V103.619H378.668V103.123Z" fill="#EFCBAB"/>
<path id="Vector_36" d="M199.27 102.464H198.832V306.139H199.27V102.464Z" fill="#EFCBAB"/>
<path id="Vector_37" d="M378.958 102.464H378.52V306.139H378.958V102.464Z" fill="#EFCBAB"/>
<path id="Vector_38" d="M325.005 121.572H253.65C252.614 121.572 251.765 120.609 251.765 119.434C251.765 118.26 252.614 117.297 253.65 117.297H325.005C326.041 117.297 326.89 118.26 326.89 119.434C326.89 120.609 326.041 121.572 325.005 121.572Z" fill="#EFCBAB"/>
<path id="Vector_39" d="M343.386 130.142H235.27C234.234 130.142 233.385 129.18 233.385 128.005C233.385 126.83 234.234 125.868 235.27 125.868H343.386C344.422 125.868 345.27 126.83 345.27 128.005C345.27 129.18 344.424 130.142 343.386 130.142Z" fill="#EFCBAB"/>
<path id="Vector_40" d="M329.366 156.729H251.14C250.391 156.729 249.776 156.034 249.776 155.185C249.776 154.335 250.389 153.64 251.14 153.64H329.366C330.115 153.64 330.728 154.335 330.728 155.185C330.728 156.034 330.115 156.729 329.366 156.729Z" fill="#EFCBAB"/>
<path id="Vector_41" d="M258.993 164.801H236.935C236.186 164.801 235.573 164.106 235.573 163.254C235.573 162.404 236.186 161.709 236.935 161.709H258.993C259.742 161.709 260.355 162.404 260.355 163.254C260.355 164.103 259.742 164.801 258.993 164.801Z" fill="#EFCBAB"/>
<path id="Vector_42" d="M292.259 164.801H265.613C264.864 164.801 264.251 164.106 264.251 163.254C264.251 162.404 264.864 161.709 265.613 161.709H292.259C293.008 161.709 293.621 162.404 293.621 163.254C293.621 164.103 293.008 164.801 292.259 164.801Z" fill="#EFCBAB"/>
<path id="Vector_43" d="M343.566 164.801H297.5C296.751 164.801 296.136 164.106 296.136 163.254C296.136 162.404 296.749 161.709 297.5 161.709H343.566C344.315 161.709 344.93 162.404 344.93 163.254C344.93 164.103 344.317 164.801 343.566 164.801Z" fill="#EFCBAB"/>
<path id="Vector_44" d="M292.434 174.185H249.586C248.837 174.185 248.224 173.49 248.224 172.641C248.224 171.791 248.837 171.096 249.586 171.096H292.434C293.183 171.096 293.796 171.791 293.796 172.641C293.796 173.49 293.183 174.185 292.434 174.185Z" fill="#EFCBAB"/>
<path id="Vector_45" d="M330.917 174.185H297.169C296.42 174.185 295.805 173.49 295.805 172.641C295.805 171.791 296.418 171.096 297.169 171.096H330.917C331.666 171.096 332.279 171.791 332.279 172.641C332.279 173.49 331.666 174.185 330.917 174.185Z" fill="#EFCBAB"/>
<path id="hand_writing_letter" d="M304.47 193.268C301.892 195.695 299.134 197.716 296.231 199.561C296.476 198.687 296.683 197.782 296.644 196.974C296.593 195.863 295.81 195.375 295.024 194.914C294.83 194.801 294.65 194.68 294.47 194.559C294.774 194.222 294.93 193.753 294.73 193.24C294.399 192.399 293.473 192.535 293.157 193.315C293.098 193.458 293.064 193.599 293.05 193.737C292.923 193.662 292.828 193.58 292.743 193.464C293.222 192.452 293.672 191.423 294.086 190.37C294.178 190.133 294.061 189.854 293.894 189.711C293.205 189.123 292.267 189.314 291.712 190.053C291.055 190.93 291.221 192.264 291.535 193.26C291.556 193.329 291.581 193.398 291.605 193.469C290.997 194.716 290.336 195.926 289.626 197.101C289.56 197.024 289.492 196.95 289.426 196.875C289.241 196.671 289.044 196.409 288.874 196.119C289.197 195.16 289.407 194.153 289.484 193.103C289.519 192.634 289.105 192.405 288.76 192.548C287.806 192.948 287.291 194.048 287.415 195.179C287.459 195.568 287.568 195.937 287.726 196.282C287.512 196.806 287.262 197.314 286.963 197.804C286.768 198.122 286.907 198.444 287.135 198.596C286.821 199.776 286.401 200.984 285.681 201.836C285.092 202.531 283.998 203.058 283.283 202.233C282.831 201.712 282.772 200.838 282.712 200.148C282.558 198.447 282.446 196.679 282.5 194.97C282.527 194.159 282.602 193.337 282.848 192.57C282.999 192.093 283.213 191.374 283.417 192.193C283.517 192.595 283.378 193.218 283.344 193.629C283.278 194.36 284.28 194.446 284.343 193.718C284.419 192.86 284.757 191.062 283.903 190.524C283.196 190.077 282.541 190.717 282.213 191.385C281.031 193.789 281.503 197.093 281.68 199.707C281.821 201.792 282.51 204.351 284.859 203.687C287.067 203.063 287.879 199.906 288.388 197.73C288.419 197.595 288.41 197.471 288.373 197.366C288.383 197.347 288.39 197.33 288.4 197.314C288.49 197.418 288.582 197.52 288.677 197.625C288.808 197.758 288.932 197.895 289.052 198.039C288.821 198.403 288.582 198.764 288.341 199.123C288.205 199.324 288.244 199.63 288.38 199.815C289.125 200.83 290.46 200.077 290.435 198.83C290.428 198.541 290.367 198.284 290.268 198.05C290.965 196.911 291.617 195.739 292.223 194.537C292.537 194.887 292.938 195.11 293.427 195.085C293.461 195.085 293.495 195.08 293.529 195.074C293.787 195.383 294.108 195.64 294.404 195.827C294.689 196.009 295.017 196.122 295.275 196.359C295.752 196.801 295.61 197.305 295.506 197.934C295.367 198.759 295.136 199.583 294.925 200.388C293.915 201.045 292.918 201.88 292.578 203.201C292.267 204.404 292.544 205.669 293.453 206.417C293.726 206.64 294.091 206.461 294.207 206.133C294.779 204.544 295.292 202.928 295.735 201.287C295.749 201.235 295.764 201.183 295.778 201.13C296.671 200.557 297.605 200.049 298.485 199.456C300.827 197.884 303.047 196.095 305.139 194.123C305.635 193.654 304.973 192.799 304.477 193.268H304.47ZM292.276 191.751C292.267 191.296 292.478 190.464 292.943 190.472C292.734 190.985 292.517 191.492 292.293 191.997C292.286 191.914 292.279 191.831 292.276 191.751ZM293.551 204.9C293.13 204.004 293.733 202.895 294.424 202.164C294.154 203.085 293.862 203.995 293.551 204.9Z" fill="#F99746"/>
</g>
<path id="big_envelope--component-2" d="M407.124 147.855V308.345H170.714V147.855L288.918 228.1L407.124 147.855Z" fill="#FF9843"/>
<path id="big_envelope--component-1" d="M170.716 308.345L278.998 220.318C284.929 215.495 292.911 215.495 298.843 220.318L407.124 308.345H170.716Z" fill="#ED7D2B"/>
<g id="envelope-3" opacity="0.5">
<path id="Vector_46" d="M284.694 16.2426L294.886 41.74L257.327 61.0436L247.135 35.5463L271.012 38.6431L284.694 16.2426Z" fill="#CDE0FB"/>
<path id="Vector_47" d="M247.135 35.5463L284.694 16.2426L273.465 37.7028C272.58 39.396 270.863 40.2894 269.154 39.9475L247.135 35.5463Z" fill="#B1CFF2"/>
</g>
<g id="envelope-2" opacity="0.5">
<path id="Vector_48" d="M63.8893 182.728L69.2493 199.029L45.2364 209.185L39.874 192.882L54.5628 195.957L63.8893 182.728Z" fill="#CDE0FB"/>
<path id="Vector_49" d="M39.874 192.882L63.8893 182.728L56.1193 195.493C55.5064 196.5 54.4072 196.972 53.3615 196.677L39.874 192.882Z" fill="#B1CFF2"/>
</g>
<g id="envelope-1" opacity="0.5">
<path id="Vector_50" d="M475.135 85.6972L467.604 117.708L420.449 103.44L427.983 71.429L447.793 94.5686L475.135 85.6972Z" fill="#CDE0FB"/>
<path id="Vector_51" d="M427.983 71.429L475.138 85.6972L450.663 95.7957C448.732 96.5927 446.57 95.9502 445.23 94.1853L427.983 71.429Z" fill="#B1CFF2"/>
</g>
<g id="paper_airplane-2">
<path id="Vector_52" d="M200.821 246.913L227.769 229.595L203.185 231.241L205.082 235.951L200.004 242.33L200.821 246.913Z" fill="#AFCDFB"/>
<path id="Vector_53" d="M227.769 229.595L199.53 235.463L178.961 251.662L227.769 229.595Z" fill="white"/>
<path id="Vector_54" d="M203.185 231.241L227.77 229.595L202.054 221.049L203.185 231.241Z" fill="white"/>
</g>
<g id="paper_airplane-1">
<path id="Vector_55" d="M346.598 19.3616L377.194 24.8521L357.058 8.77216L355.956 13.7966L348.478 15.1975L346.598 19.3616Z" fill="#AFCDFB"/>
<path id="Vector_56" d="M377.194 24.8521L351.878 9.4919L326.89 7.63324L377.194 24.8521Z" fill="white"/>
<path id="Vector_57" d="M357.058 8.77213L377.194 24.8521L361.774 0L357.058 8.77213Z" fill="white"/>
</g>
<g id="person_sitting">
<path id="Vector_58" d="M439.245 159.931C439.245 159.931 433.007 160.422 428.401 173.162C423.756 186.013 434.145 185.883 430.646 194.071C427.146 202.258 435.682 207.139 438.277 213.843C440.87 220.544 453.934 236.712 454.968 244.089C456.001 251.463 467.618 236.423 467.618 236.423C467.618 236.423 479.425 222.141 475.191 213.846C468.214 200.171 474.258 197.201 474.039 189.562C473.82 181.926 461.035 151.831 439.248 159.933L439.245 159.931Z" fill="#233862"/>
<path id="Vector_59" d="M435.857 205.633C435.857 205.633 411.706 217.571 407.117 217.343C402.528 217.116 374.259 207.578 374.259 207.578L374.979 213.093C374.979 213.093 396.796 227.323 404.425 228.128C411.935 228.922 437.611 220.486 440.091 218.705C442.57 216.923 443.063 207.434 435.86 205.633H435.857Z" fill="#FFAD76"/>
<path id="Vector_60" d="M433.909 218.721C436.13 220.467 438.912 221.906 442.407 222.822C455.505 226.253 460.524 213.7 462.409 205.085C460.624 203.927 458.944 203.67 457.971 203.538C457.025 203.411 456.028 203.328 455.203 203.281C453.732 202.004 451.541 196.776 451.057 188.66L450.442 188.848L440.118 192.052C440.118 192.052 440.592 195.772 440.823 199.291C441.003 202.043 441.317 203.64 440.857 204.285C440.052 204.484 439.282 205.645 439.282 205.645C439.282 205.645 439.282 205.647 439.277 205.656C439.138 205.912 436.144 211.499 433.909 218.724V218.721Z" fill="#FFB27D"/>
<path id="Vector_61" d="M440.118 192.052C440.118 192.052 440.592 195.769 440.823 199.291C446.672 198.626 449.386 192.314 450.442 188.85L440.118 192.055V192.052Z" fill="#ED985F"/>
<path id="Vector_62" d="M438.372 195.546C438.372 195.546 452.253 194.677 451.643 184.882C451.033 175.087 452.414 168.38 443.525 168.521C434.637 168.661 433.151 172.536 432.652 175.862C432.154 179.187 434.746 195.518 438.372 195.546Z" fill="#FFB27D"/>
<path id="Vector_63" d="M466.364 250.724C467.618 243.458 471.704 214.425 467.618 205.085C466.15 201.729 460.391 201.425 454.07 201.72C452.103 203.16 444.61 208.601 441.534 207.92C441.502 207.911 441.441 207.898 441.361 207.873C439.911 207.462 439.651 205.275 440.86 204.279C440.86 204.279 437.443 204.969 433.557 205.799C431.361 206.268 425.439 209.742 425.439 209.742C425.439 209.742 428.421 215.851 432.818 217.96C432.071 225.544 433.182 228.892 440.121 246.408C445.984 261.217 439.33 274.547 439.33 274.547C439.33 274.547 473.847 306.015 474.039 289.993C474.182 277.931 464.763 260.009 466.366 250.724H466.364Z" fill="#739AF0"/>
<path id="Vector_64" d="M437.618 308.765C435.741 308.525 434.051 307.358 433.002 305.579C432.837 305.295 432.657 304.992 432.47 304.669C428.54 297.924 427.013 277.272 418.175 255.269C416.023 249.913 408.296 248.948 406.188 242.892C406.188 242.892 401.003 223.263 416.113 222.684C431.225 222.105 456.582 277.297 456.984 283.085C457.373 288.692 466.974 312.523 437.618 308.767V308.765Z" fill="#233862"/>
<path id="Vector_65" d="M377.557 308.315H399.065C399.065 308.315 399.87 304.424 398.457 301.777C397.207 299.435 397.686 298.101 398.613 296.162C397.637 296.614 396.378 297.025 394.989 296.937C393.916 296.868 392.786 296.316 391.791 295.66C390.864 296.857 386.903 301.95 385.662 302.96C384.257 304.104 377.99 303.696 377.557 308.312V308.315Z" fill="#172B4C"/>
<path id="Vector_66" d="M464.095 212.693C464.095 212.693 466.894 241.571 448.739 247.624C430.585 253.675 425.432 221.052 440.089 218.705C454.746 216.358 464.095 212.693 464.095 212.693Z" fill="#5486D6"/>
<path id="Vector_67" d="M405.694 228.357C404.398 239.365 399.342 274.117 390.419 291.071C387.542 296.537 397.666 299.601 397.72 299.584C399.077 299.182 401.339 296.727 402.382 295.66C409.624 288.259 424.328 267.3 424.328 250.495C424.328 242.302 424.454 226.655 419.201 222.676C415.967 220.227 406.207 223.98 405.694 228.354V228.357Z" fill="#233862"/>
<path id="Vector_68" d="M450.442 308.315C450.442 308.315 449.644 307.058 448.255 304.669C446.602 301.829 444.77 296.237 442.55 289.072C440.218 281.549 437.45 272.294 433.992 262.665C432.924 259.692 431.791 256.683 430.585 253.68C428.433 248.322 422.511 249.064 420.405 243.008C420.405 243.008 412.185 222.014 427.295 221.435C442.407 220.856 471.12 277.592 472.769 283.088C474.576 289.102 483.389 314.081 450.442 308.318V308.315Z" fill="#2B478B"/>
<path id="Vector_69" d="M393.345 308.315H414.853C414.853 308.315 415.658 304.424 414.245 301.777C412.995 299.435 413.474 298.101 414.401 296.162C413.425 296.614 412.166 297.025 410.777 296.937C409.705 296.868 408.571 296.316 407.579 295.66C406.652 296.857 402.688 301.95 401.451 302.96C400.045 304.104 393.778 303.696 393.345 308.312V308.315Z" fill="#233862"/>
<path id="Vector_70" d="M442.55 289.069C440.218 281.546 437.45 272.292 433.992 262.662C434.894 255.365 436.845 248.984 440.121 246.411C440.121 246.411 448.068 274.332 442.553 289.072L442.55 289.069Z" fill="#23407A"/>
<path id="Vector_71" d="M418.25 227.576C416.954 238.585 415.13 274.117 406.21 291.071C403.333 296.537 413.457 299.601 413.51 299.584C414.867 299.182 417.129 296.727 418.172 295.66C425.415 288.259 440.118 267.3 440.118 250.495C440.118 242.302 431.638 227.311 426.385 223.335C423.148 220.886 418.763 223.203 418.25 227.576Z" fill="#2B478B"/>
<path id="Vector_72" d="M391.621 198.703C391.621 198.703 390.519 195.529 388.515 195.736C386.509 195.943 368.298 198.703 368.298 198.703C368.298 198.703 370.419 199.277 371.219 200.857L379.622 228.93H401.171L391.625 198.706L391.621 198.703Z" fill="#EBF3FA"/>
<path id="Vector_73" d="M462.409 205.085C462.409 205.085 431.881 217.833 427.295 217.571C424.33 217.403 399.687 207.58 399.687 207.58L397.474 212.326C397.474 212.326 421.458 229.807 428.053 229.722C441.072 229.551 463.039 220.489 465.517 218.708C467.995 216.926 469.613 206.888 462.409 205.085Z" fill="#FFBF94"/>
<path id="Vector_74" d="M399.687 207.58C399.687 207.58 397.474 203.72 395.273 203.607C393.07 203.494 389.267 205.308 387.965 205.595C386.664 205.879 382.958 207.241 384.06 209.285C385.161 211.328 390.268 211.783 392.469 211.328C394.673 210.873 397.477 212.326 397.477 212.326L399.69 207.58H399.687Z" fill="#FFBF94"/>
<path id="Vector_75" d="M395.872 203.725C395.872 203.725 392.37 201.902 391.368 201.563C390.366 201.221 390.568 201.569 390.867 202.644C391.168 203.72 392.97 204.748 392.97 205.085C392.97 205.421 395.872 203.725 395.872 203.725Z" fill="#FFBF94"/>
<path id="Vector_76" d="M435.775 189.912C435.775 189.912 437.088 189.325 440.78 189.664C440.78 189.664 440.583 191.296 437.861 191.459C436.32 191.55 435.775 189.912 435.775 189.912Z" fill="white"/>
<path id="Vector_77" d="M446.682 211.372C446.682 211.372 449.413 221.173 458.791 223.404C458.791 223.404 474.275 217.993 466.565 206.033C466.565 206.033 458.941 199.611 446.684 211.375L446.682 211.372Z" fill="#739AF0"/>
<path id="Vector_78" d="M368.296 198.703C368.296 198.703 366.273 199.58 367.805 202.559L387.494 199.583C387.494 199.583 386.81 196.131 388.357 195.756L368.299 198.706L368.296 198.703Z" fill="white"/>
<path id="Vector_79" d="M375.351 206.031C375.818 203.907 375.789 203.394 374.731 202.098C374.033 201.241 372.961 203.364 372.408 204.646C372.207 204.081 371.859 203.16 371.742 203.113C371.572 203.047 371.978 205.964 371.978 205.964C371.968 206.086 371.963 206.207 371.966 206.328C371.966 206.328 371.112 210.617 374.833 212.936L374.123 210.57C374.553 210.487 374.877 208.182 375.351 206.025V206.031Z" fill="#FFAD76"/>
<path id="Vector_80" d="M437.844 170.686C437.844 170.686 440.77 169.522 442.188 172.914C443.606 176.303 444.055 184.408 449.736 185.07C455.417 185.731 455.636 171.342 455.636 171.342L441.417 164.974L433.907 170.349L437.842 170.686H437.844Z" fill="#233862"/>
<path id="Vector_81" d="M437.844 170.686C437.844 170.686 434.639 170.763 433.909 173.824C433.177 176.882 434.32 182.588 432.545 183.001C430.77 183.415 429.16 173.493 432.591 170.266C436.023 167.043 437.844 170.686 437.844 170.686Z" fill="#233862"/>
</g>
<path id="grass-2" d="M519.136 308.139H498.521C497.417 307.077 499.285 304.664 501.237 304.501C502.086 304.43 503.159 304.631 504.384 304.923C504.669 300.652 506.288 281.444 512.393 282.217C519.258 283.08 512.393 290.674 510.452 295.172C509.015 298.503 507.497 303.28 506.804 305.533C507.361 305.67 507.937 305.803 508.528 305.927C509.438 302.758 512.823 292.103 517.13 292.723C522.186 293.451 520.153 297.723 516.571 300.26C513.942 302.124 510.715 304.777 509.18 306.057C510.479 306.296 511.836 306.459 513.212 306.423C516.743 306.33 518.468 307.507 519.136 308.144V308.139Z" fill="#82B378"/>
<g id="grass-1">
<path id="Vector_82" d="M57.1236 308.613C57.1236 308.613 49.2879 284.21 43.7869 286.29C38.2859 288.369 57.1236 308.613 57.1236 308.613Z" fill="#82B378"/>
<path id="Vector_83" d="M54.1224 308.613C53.456 308.613 40.9511 293.898 40.1169 297.75C39.2828 301.603 54.1224 308.613 54.1224 308.613Z" fill="#82B378"/>
<path id="Vector_84" d="M67.4616 308.613C67.4616 308.613 62.2914 303.235 55.7422 304.636C49.1954 306.037 46.3987 307.568 42.2863 306.509C38.1739 305.45 36.0728 308.613 36.0728 308.613H67.4616Z" fill="#82B378"/>
</g>
<path id="the_land" d="M549.27 310H0.729578C0.32831 310 0 309.628 0 309.173C0 308.718 0.32831 308.345 0.729578 308.345H549.27C549.672 308.345 550 308.718 550 309.173C550 309.628 549.672 310 549.27 310Z" fill="#2E3552"/>
<g id="stamp">
<path id="Vector_85" d="M225.865 276.933H187.431C184.522 276.933 182.164 279.607 182.164 282.906V292.897C182.164 296.196 184.522 298.87 187.431 298.87H225.865C228.775 298.87 231.133 296.196 231.133 292.897V282.906C231.133 279.607 228.775 276.933 225.865 276.933Z" fill="#FCECDB"/>
<path id="line-1" d="M218.728 282.388H188.044C187.701 282.388 187.421 282.07 187.421 281.682C187.421 281.293 187.701 280.976 188.044 280.976H218.728C219.071 280.976 219.35 281.293 219.35 281.682C219.35 282.07 219.071 282.388 218.728 282.388Z" fill="#EFCBAB"/>
<path id="line-2.1" d="M193.487 285.435H188.044C187.701 285.435 187.421 285.118 187.421 284.729C187.421 284.34 187.701 284.023 188.044 284.023H193.487C193.83 284.023 194.109 284.34 194.109 284.729C194.109 285.118 193.83 285.435 193.487 285.435Z" fill="#EFCBAB"/>
<path id="line-2.2" d="M210.629 285.435H195.639C195.296 285.435 195.016 285.118 195.016 284.729C195.016 284.34 195.296 284.023 195.639 284.023H210.629C210.972 284.023 211.252 284.34 211.252 284.729C211.252 285.118 210.972 285.435 210.629 285.435Z" fill="#EFCBAB"/>
<path id="line-3" d="M218.728 291.077H188.044C187.701 291.077 187.421 290.76 187.421 290.371C187.421 289.982 187.701 289.665 188.044 289.665H218.728C219.071 289.665 219.35 289.982 219.35 290.371C219.35 290.76 219.071 291.077 218.728 291.077Z" fill="#EFCBAB"/>
<path id="line-4.1" d="M199.182 294.121H188.046C187.703 294.121 187.424 293.804 187.424 293.415C187.424 293.027 187.703 292.709 188.046 292.709H199.182C199.525 292.709 199.805 293.027 199.805 293.415C199.805 293.804 199.525 294.121 199.182 294.121Z" fill="#EFCBAB"/>
<path id="line-5.1" d="M212.733 294.121H201.597C201.254 294.121 200.974 293.804 200.974 293.415C200.974 293.027 201.254 292.709 201.597 292.709H212.733C213.076 292.709 213.355 293.027 213.355 293.415C213.355 293.804 213.076 294.121 212.733 294.121Z" fill="#EFCBAB"/>
</g>
</g>
</g>
</g>
</g>
<defs>
<clipPath id="clip0_490_1784">
<rect width="550" height="310" fill="white"/>
</clipPath>
</defs>
</svg>
